G04 Layer: TopSolderMaskLayer*
G04 EasyEDA v6.4.25, 2022-01-10T16:26:19+01:00*
G04 3749a40f64824c3dbcea27be4bf31307,bb3cfcbffc6840158e79d7648404357e,10*
G04 Gerber Generator version 0.2*
G04 Scale: 100 percent, Rotated: No, Reflected: No *
G04 Dimensions in millimeters *
G04 leading zeros omitted , absolute positions ,4 integer and 5 decimal *
%FSLAX45Y45*%
%MOMM*%

%ADD26C,1.0016*%
%ADD27C,1.8032*%
%ADD28C,1.7526*%
%ADD29C,1.9016*%
%ADD30C,1.6764*%

%LPD*%
D26*
X1879600Y14004998D02*
G01*
X1879600Y13934998D01*
X2006600Y14004998D02*
G01*
X2006600Y13934998D01*
X2997200Y14004998D02*
G01*
X2997200Y13934998D01*
X3124200Y14004998D02*
G01*
X3124200Y13934998D01*
X1879600Y13192173D02*
G01*
X1879600Y13122173D01*
X2006600Y13192173D02*
G01*
X2006600Y13122173D01*
X1879600Y12379398D02*
G01*
X1879600Y12309398D01*
X2006600Y12379398D02*
G01*
X2006600Y12309398D01*
X1879600Y11871373D02*
G01*
X1879600Y11801373D01*
X2006600Y11871373D02*
G01*
X2006600Y11801373D01*
X1879600Y11414198D02*
G01*
X1879600Y11344198D01*
X2006600Y11414198D02*
G01*
X2006600Y11344198D01*
X1879600Y10448998D02*
G01*
X1879600Y10378998D01*
X2006600Y10448998D02*
G01*
X2006600Y10378998D01*
X1879600Y9940973D02*
G01*
X1879600Y9870973D01*
X2006600Y9940973D02*
G01*
X2006600Y9870973D01*
X1879600Y9483798D02*
G01*
X1879600Y9413798D01*
X2006600Y9483798D02*
G01*
X2006600Y9413798D01*
X1879600Y8518598D02*
G01*
X1879600Y8448598D01*
X2006600Y8518598D02*
G01*
X2006600Y8448598D01*
X1879600Y7807398D02*
G01*
X1879600Y7737398D01*
X2006600Y7807398D02*
G01*
X2006600Y7737398D01*
X2997200Y13192173D02*
G01*
X2997200Y13122173D01*
X3124200Y13192173D02*
G01*
X3124200Y13122173D01*
X2997200Y12734998D02*
G01*
X2997200Y12664998D01*
X3124200Y12734998D02*
G01*
X3124200Y12664998D01*
X2997200Y11769798D02*
G01*
X2997200Y11699798D01*
X3124200Y11769798D02*
G01*
X3124200Y11699798D01*
X4114800Y13192198D02*
G01*
X4114800Y13122198D01*
X4241800Y13192198D02*
G01*
X4241800Y13122198D01*
X4114800Y12379398D02*
G01*
X4114800Y12309398D01*
X4241800Y12379398D02*
G01*
X4241800Y12309398D01*
X2997200Y11261773D02*
G01*
X2997200Y11191773D01*
X3124200Y11261773D02*
G01*
X3124200Y11191773D01*
X2997200Y10804598D02*
G01*
X2997200Y10734598D01*
X3124200Y10804598D02*
G01*
X3124200Y10734598D01*
X2997200Y9839398D02*
G01*
X2997200Y9769398D01*
X3124200Y9839398D02*
G01*
X3124200Y9769398D01*
X2997200Y9128198D02*
G01*
X2997200Y9058198D01*
X3124200Y9128198D02*
G01*
X3124200Y9058198D01*
X4114800Y11871373D02*
G01*
X4114800Y11801373D01*
X4241800Y11871373D02*
G01*
X4241800Y11801373D01*
X4114800Y11414198D02*
G01*
X4114800Y11344198D01*
X4241800Y11414198D02*
G01*
X4241800Y11344198D01*
X4114800Y10448998D02*
G01*
X4114800Y10378998D01*
X4241800Y10448998D02*
G01*
X4241800Y10378998D01*
X2997200Y8620173D02*
G01*
X2997200Y8550173D01*
X3124200Y8620173D02*
G01*
X3124200Y8550173D01*
X2997200Y7807398D02*
G01*
X2997200Y7737398D01*
X3124200Y7807398D02*
G01*
X3124200Y7737398D01*
X4114825Y9940998D02*
G01*
X4114825Y9870998D01*
X4241825Y9940998D02*
G01*
X4241825Y9870998D01*
X4114800Y9483798D02*
G01*
X4114800Y9413798D01*
X4241800Y9483798D02*
G01*
X4241800Y9413798D01*
X4114800Y8518598D02*
G01*
X4114800Y8448598D01*
X4241800Y8518598D02*
G01*
X4241800Y8448598D01*
X5384800Y13192198D02*
G01*
X5384800Y13122198D01*
X5511800Y13192198D02*
G01*
X5511800Y13122198D01*
X5384800Y12379398D02*
G01*
X5384800Y12309398D01*
X5511800Y12379398D02*
G01*
X5511800Y12309398D01*
X5384800Y11871398D02*
G01*
X5384800Y11801398D01*
X5511800Y11871398D02*
G01*
X5511800Y11801398D01*
X5384800Y11414198D02*
G01*
X5384800Y11344198D01*
X5511800Y11414198D02*
G01*
X5511800Y11344198D01*
X5384800Y10448998D02*
G01*
X5384800Y10378998D01*
X5511800Y10448998D02*
G01*
X5511800Y10378998D01*
X5384800Y9940998D02*
G01*
X5384800Y9870998D01*
X5511800Y9940998D02*
G01*
X5511800Y9870998D01*
X5384800Y9483798D02*
G01*
X5384800Y9413798D01*
X5511800Y9483798D02*
G01*
X5511800Y9413798D01*
X5384800Y8518598D02*
G01*
X5384800Y8448598D01*
X5511800Y8518598D02*
G01*
X5511800Y8448598D01*
X5384800Y7807398D02*
G01*
X5384800Y7737398D01*
X5511800Y7807398D02*
G01*
X5511800Y7737398D01*
X6502400Y13192198D02*
G01*
X6502400Y13122198D01*
X6629400Y13192198D02*
G01*
X6629400Y13122198D01*
X6502400Y12734998D02*
G01*
X6502400Y12664998D01*
X6629400Y12734998D02*
G01*
X6629400Y12664998D01*
X6502400Y11769798D02*
G01*
X6502400Y11699798D01*
X6629400Y11769798D02*
G01*
X6629400Y11699798D01*
X7620000Y13192198D02*
G01*
X7620000Y13122198D01*
X7747000Y13192198D02*
G01*
X7747000Y13122198D01*
X7620000Y12379398D02*
G01*
X7620000Y12309398D01*
X7747000Y12379398D02*
G01*
X7747000Y12309398D01*
X6502400Y11261798D02*
G01*
X6502400Y11191798D01*
X6629400Y11261798D02*
G01*
X6629400Y11191798D01*
X6502400Y10804598D02*
G01*
X6502400Y10734598D01*
X6629400Y10804598D02*
G01*
X6629400Y10734598D01*
X6502400Y9839398D02*
G01*
X6502400Y9769398D01*
X6629400Y9839398D02*
G01*
X6629400Y9769398D01*
X6502400Y9128198D02*
G01*
X6502400Y9058198D01*
X6629400Y9128198D02*
G01*
X6629400Y9058198D01*
X7620000Y11871398D02*
G01*
X7620000Y11801398D01*
X7747000Y11871398D02*
G01*
X7747000Y11801398D01*
X7620000Y11414198D02*
G01*
X7620000Y11344198D01*
X7747000Y11414198D02*
G01*
X7747000Y11344198D01*
X7620000Y10448998D02*
G01*
X7620000Y10378998D01*
X7747000Y10448998D02*
G01*
X7747000Y10378998D01*
X6502400Y8620198D02*
G01*
X6502400Y8550198D01*
X6629400Y8620198D02*
G01*
X6629400Y8550198D01*
X6502400Y7807398D02*
G01*
X6502400Y7737398D01*
X6629400Y7807398D02*
G01*
X6629400Y7737398D01*
X7620000Y9940998D02*
G01*
X7620000Y9870998D01*
X7747000Y9940998D02*
G01*
X7747000Y9870998D01*
X7620000Y9483798D02*
G01*
X7620000Y9413798D01*
X7747000Y9483798D02*
G01*
X7747000Y9413798D01*
X7620000Y8518598D02*
G01*
X7620000Y8448598D01*
X7747000Y8518598D02*
G01*
X7747000Y8448598D01*
X8890000Y13192198D02*
G01*
X8890000Y13122198D01*
X9017000Y13192198D02*
G01*
X9017000Y13122198D01*
X8890000Y12379398D02*
G01*
X8890000Y12309398D01*
X9017000Y12379398D02*
G01*
X9017000Y12309398D01*
X8890000Y11871398D02*
G01*
X8890000Y11801398D01*
X9017000Y11871398D02*
G01*
X9017000Y11801398D01*
X8890000Y11414198D02*
G01*
X8890000Y11344198D01*
X9017000Y11414198D02*
G01*
X9017000Y11344198D01*
X8890000Y10448998D02*
G01*
X8890000Y10378998D01*
X9017000Y10448998D02*
G01*
X9017000Y10378998D01*
X8890000Y9940998D02*
G01*
X8890000Y9870998D01*
X9017000Y9940998D02*
G01*
X9017000Y9870998D01*
X8890000Y9483798D02*
G01*
X8890000Y9413798D01*
X9017000Y9483798D02*
G01*
X9017000Y9413798D01*
X8890000Y8518598D02*
G01*
X8890000Y8448598D01*
X9017000Y8518598D02*
G01*
X9017000Y8448598D01*
X8890000Y7807398D02*
G01*
X8890000Y7737398D01*
X9017000Y7807398D02*
G01*
X9017000Y7737398D01*
X10007600Y13192198D02*
G01*
X10007600Y13122198D01*
X10134600Y13192198D02*
G01*
X10134600Y13122198D01*
X10007600Y12734998D02*
G01*
X10007600Y12664998D01*
X10134600Y12734998D02*
G01*
X10134600Y12664998D01*
X10007600Y11769798D02*
G01*
X10007600Y11699798D01*
X10134600Y11769798D02*
G01*
X10134600Y11699798D01*
X11125200Y13192198D02*
G01*
X11125200Y13122198D01*
X11252200Y13192198D02*
G01*
X11252200Y13122198D01*
X11125200Y12379398D02*
G01*
X11125200Y12309398D01*
X11252200Y12379398D02*
G01*
X11252200Y12309398D01*
X10007600Y11261798D02*
G01*
X10007600Y11191798D01*
X10134600Y11261798D02*
G01*
X10134600Y11191798D01*
X10007600Y10804598D02*
G01*
X10007600Y10734598D01*
X10134600Y10804598D02*
G01*
X10134600Y10734598D01*
X10007600Y9839398D02*
G01*
X10007600Y9769398D01*
X10134600Y9839398D02*
G01*
X10134600Y9769398D01*
X10007600Y9128198D02*
G01*
X10007600Y9058198D01*
X10134600Y9128198D02*
G01*
X10134600Y9058198D01*
X11125200Y11871398D02*
G01*
X11125200Y11801398D01*
X11252200Y11871398D02*
G01*
X11252200Y11801398D01*
X11125200Y11414198D02*
G01*
X11125200Y11344198D01*
X11252200Y11414198D02*
G01*
X11252200Y11344198D01*
X11125200Y10448998D02*
G01*
X11125200Y10378998D01*
X11252200Y10448998D02*
G01*
X11252200Y10378998D01*
X10007600Y8620198D02*
G01*
X10007600Y8550198D01*
X10134600Y8620198D02*
G01*
X10134600Y8550198D01*
X10007600Y7807398D02*
G01*
X10007600Y7737398D01*
X10134600Y7807398D02*
G01*
X10134600Y7737398D01*
X11125200Y9940998D02*
G01*
X11125200Y9870998D01*
X11252200Y9940998D02*
G01*
X11252200Y9870998D01*
X11125200Y9483798D02*
G01*
X11125200Y9413798D01*
X11252200Y9483798D02*
G01*
X11252200Y9413798D01*
X11125200Y8518598D02*
G01*
X11125200Y8448598D01*
X11252200Y8518598D02*
G01*
X11252200Y8448598D01*
X12395200Y13192198D02*
G01*
X12395200Y13122198D01*
X12522200Y13192198D02*
G01*
X12522200Y13122198D01*
X12395200Y12379398D02*
G01*
X12395200Y12309398D01*
X12522200Y12379398D02*
G01*
X12522200Y12309398D01*
X12395200Y11871398D02*
G01*
X12395200Y11801398D01*
X12522200Y11871398D02*
G01*
X12522200Y11801398D01*
X12395200Y11414198D02*
G01*
X12395200Y11344198D01*
X12522200Y11414198D02*
G01*
X12522200Y11344198D01*
X12395200Y10448998D02*
G01*
X12395200Y10378998D01*
X12522200Y10448998D02*
G01*
X12522200Y10378998D01*
X12395200Y9940998D02*
G01*
X12395200Y9870998D01*
X12522200Y9940998D02*
G01*
X12522200Y9870998D01*
X12395200Y9483798D02*
G01*
X12395200Y9413798D01*
X12522200Y9483798D02*
G01*
X12522200Y9413798D01*
X12395200Y8518598D02*
G01*
X12395200Y8448598D01*
X12522200Y8518598D02*
G01*
X12522200Y8448598D01*
X12395200Y7807398D02*
G01*
X12395200Y7737398D01*
X12522200Y7807398D02*
G01*
X12522200Y7737398D01*
X13512800Y13192198D02*
G01*
X13512800Y13122198D01*
X13639800Y13192198D02*
G01*
X13639800Y13122198D01*
X13512800Y12734998D02*
G01*
X13512800Y12664998D01*
X13639800Y12734998D02*
G01*
X13639800Y12664998D01*
X13512800Y11769798D02*
G01*
X13512800Y11699798D01*
X13639800Y11769798D02*
G01*
X13639800Y11699798D01*
X14630400Y13192198D02*
G01*
X14630400Y13122198D01*
X14757400Y13192198D02*
G01*
X14757400Y13122198D01*
X14630400Y12379398D02*
G01*
X14630400Y12309398D01*
X14757400Y12379398D02*
G01*
X14757400Y12309398D01*
X13512800Y11261798D02*
G01*
X13512800Y11191798D01*
X13639800Y11261798D02*
G01*
X13639800Y11191798D01*
X13512800Y10804598D02*
G01*
X13512800Y10734598D01*
X13639800Y10804598D02*
G01*
X13639800Y10734598D01*
X13512800Y9839398D02*
G01*
X13512800Y9769398D01*
X13639800Y9839398D02*
G01*
X13639800Y9769398D01*
X13512800Y9128198D02*
G01*
X13512800Y9058198D01*
X13639800Y9128198D02*
G01*
X13639800Y9058198D01*
X14630400Y11871398D02*
G01*
X14630400Y11801398D01*
X14757400Y11871398D02*
G01*
X14757400Y11801398D01*
X14630400Y11414198D02*
G01*
X14630400Y11344198D01*
X14757400Y11414198D02*
G01*
X14757400Y11344198D01*
X14630400Y10448998D02*
G01*
X14630400Y10378998D01*
X14757400Y10448998D02*
G01*
X14757400Y10378998D01*
X13512800Y8620198D02*
G01*
X13512800Y8550198D01*
X13639800Y8620198D02*
G01*
X13639800Y8550198D01*
X13512800Y7807398D02*
G01*
X13512800Y7737398D01*
X13639800Y7807398D02*
G01*
X13639800Y7737398D01*
X14630400Y9940998D02*
G01*
X14630400Y9870998D01*
X14757400Y9940998D02*
G01*
X14757400Y9870998D01*
X14630400Y9483798D02*
G01*
X14630400Y9413798D01*
X14757400Y9483798D02*
G01*
X14757400Y9413798D01*
X14630400Y8518598D02*
G01*
X14630400Y8448598D01*
X14757400Y8518598D02*
G01*
X14757400Y8448598D01*
X1879600Y7197798D02*
G01*
X1879600Y7127798D01*
X2006600Y7197798D02*
G01*
X2006600Y7127798D01*
X1879600Y6384998D02*
G01*
X1879600Y6314998D01*
X2006600Y6384998D02*
G01*
X2006600Y6314998D01*
X1879600Y5876998D02*
G01*
X1879600Y5806998D01*
X2006600Y5876998D02*
G01*
X2006600Y5806998D01*
X1879600Y5419798D02*
G01*
X1879600Y5349798D01*
X2006600Y5419798D02*
G01*
X2006600Y5349798D01*
X1879600Y4454598D02*
G01*
X1879600Y4384598D01*
X2006600Y4454598D02*
G01*
X2006600Y4384598D01*
X1879600Y3946598D02*
G01*
X1879600Y3876598D01*
X2006600Y3946598D02*
G01*
X2006600Y3876598D01*
X1879600Y3489398D02*
G01*
X1879600Y3419398D01*
X2006600Y3489398D02*
G01*
X2006600Y3419398D01*
X1879600Y2524198D02*
G01*
X1879600Y2454198D01*
X2006600Y2524198D02*
G01*
X2006600Y2454198D01*
X1879600Y1812998D02*
G01*
X1879600Y1742998D01*
X2006600Y1812998D02*
G01*
X2006600Y1742998D01*
X2997200Y7197798D02*
G01*
X2997200Y7127798D01*
X3124200Y7197798D02*
G01*
X3124200Y7127798D01*
X2997200Y6740598D02*
G01*
X2997200Y6670598D01*
X3124200Y6740598D02*
G01*
X3124200Y6670598D01*
X2997200Y5775398D02*
G01*
X2997200Y5705398D01*
X3124200Y5775398D02*
G01*
X3124200Y5705398D01*
X4114800Y7197798D02*
G01*
X4114800Y7127798D01*
X4241800Y7197798D02*
G01*
X4241800Y7127798D01*
X4114800Y6384998D02*
G01*
X4114800Y6314998D01*
X4241800Y6384998D02*
G01*
X4241800Y6314998D01*
X2997200Y5267398D02*
G01*
X2997200Y5197398D01*
X3124200Y5267398D02*
G01*
X3124200Y5197398D01*
X2997200Y4810198D02*
G01*
X2997200Y4740198D01*
X3124200Y4810198D02*
G01*
X3124200Y4740198D01*
X2997200Y3844998D02*
G01*
X2997200Y3774998D01*
X3124200Y3844998D02*
G01*
X3124200Y3774998D01*
X2997200Y3133798D02*
G01*
X2997200Y3063798D01*
X3124200Y3133798D02*
G01*
X3124200Y3063798D01*
X4114800Y5876998D02*
G01*
X4114800Y5806998D01*
X4241800Y5876998D02*
G01*
X4241800Y5806998D01*
X4114800Y5419798D02*
G01*
X4114800Y5349798D01*
X4241800Y5419798D02*
G01*
X4241800Y5349798D01*
X4114800Y4454598D02*
G01*
X4114800Y4384598D01*
X4241800Y4454598D02*
G01*
X4241800Y4384598D01*
X2997200Y2625798D02*
G01*
X2997200Y2555798D01*
X3124200Y2625798D02*
G01*
X3124200Y2555798D01*
X2997200Y1812998D02*
G01*
X2997200Y1742998D01*
X3124200Y1812998D02*
G01*
X3124200Y1742998D01*
X4114800Y3946598D02*
G01*
X4114800Y3876598D01*
X4241800Y3946598D02*
G01*
X4241800Y3876598D01*
X4114800Y3489398D02*
G01*
X4114800Y3419398D01*
X4241800Y3489398D02*
G01*
X4241800Y3419398D01*
X4114800Y2524198D02*
G01*
X4114800Y2454198D01*
X4241800Y2524198D02*
G01*
X4241800Y2454198D01*
X5384800Y7197798D02*
G01*
X5384800Y7127798D01*
X5511800Y7197798D02*
G01*
X5511800Y7127798D01*
X5384800Y6384998D02*
G01*
X5384800Y6314998D01*
X5511800Y6384998D02*
G01*
X5511800Y6314998D01*
X5384800Y5876998D02*
G01*
X5384800Y5806998D01*
X5511800Y5876998D02*
G01*
X5511800Y5806998D01*
X5384800Y5419798D02*
G01*
X5384800Y5349798D01*
X5511800Y5419798D02*
G01*
X5511800Y5349798D01*
X5384800Y4454598D02*
G01*
X5384800Y4384598D01*
X5511800Y4454598D02*
G01*
X5511800Y4384598D01*
X5384800Y3946598D02*
G01*
X5384800Y3876598D01*
X5511800Y3946598D02*
G01*
X5511800Y3876598D01*
X5384800Y3489398D02*
G01*
X5384800Y3419398D01*
X5511800Y3489398D02*
G01*
X5511800Y3419398D01*
X5384800Y2524198D02*
G01*
X5384800Y2454198D01*
X5511800Y2524198D02*
G01*
X5511800Y2454198D01*
X5384800Y1812998D02*
G01*
X5384800Y1742998D01*
X5511800Y1812998D02*
G01*
X5511800Y1742998D01*
X6502400Y7197798D02*
G01*
X6502400Y7127798D01*
X6629400Y7197798D02*
G01*
X6629400Y7127798D01*
X6502400Y6740598D02*
G01*
X6502400Y6670598D01*
X6629400Y6740598D02*
G01*
X6629400Y6670598D01*
X6502400Y5775398D02*
G01*
X6502400Y5705398D01*
X6629400Y5775398D02*
G01*
X6629400Y5705398D01*
X7620000Y7197798D02*
G01*
X7620000Y7127798D01*
X7747000Y7197798D02*
G01*
X7747000Y7127798D01*
X7620000Y6384998D02*
G01*
X7620000Y6314998D01*
X7747000Y6384998D02*
G01*
X7747000Y6314998D01*
X6502400Y5267398D02*
G01*
X6502400Y5197398D01*
X6629400Y5267398D02*
G01*
X6629400Y5197398D01*
X6502400Y4810198D02*
G01*
X6502400Y4740198D01*
X6629400Y4810198D02*
G01*
X6629400Y4740198D01*
X6502400Y3844998D02*
G01*
X6502400Y3774998D01*
X6629400Y3844998D02*
G01*
X6629400Y3774998D01*
X6502400Y3133798D02*
G01*
X6502400Y3063798D01*
X6629400Y3133798D02*
G01*
X6629400Y3063798D01*
X7620000Y5876998D02*
G01*
X7620000Y5806998D01*
X7747000Y5876998D02*
G01*
X7747000Y5806998D01*
X7620000Y5419798D02*
G01*
X7620000Y5349798D01*
X7747000Y5419798D02*
G01*
X7747000Y5349798D01*
X7620000Y4454598D02*
G01*
X7620000Y4384598D01*
X7747000Y4454598D02*
G01*
X7747000Y4384598D01*
X6502400Y2625798D02*
G01*
X6502400Y2555798D01*
X6629400Y2625798D02*
G01*
X6629400Y2555798D01*
X6502400Y1812998D02*
G01*
X6502400Y1742998D01*
X6629400Y1812998D02*
G01*
X6629400Y1742998D01*
X7620000Y3946598D02*
G01*
X7620000Y3876598D01*
X7747000Y3946598D02*
G01*
X7747000Y3876598D01*
X7620000Y3489398D02*
G01*
X7620000Y3419398D01*
X7747000Y3489398D02*
G01*
X7747000Y3419398D01*
X7620000Y2524198D02*
G01*
X7620000Y2454198D01*
X7747000Y2524198D02*
G01*
X7747000Y2454198D01*
X8890000Y7197798D02*
G01*
X8890000Y7127798D01*
X9017000Y7197798D02*
G01*
X9017000Y7127798D01*
X8890000Y6384998D02*
G01*
X8890000Y6314998D01*
X9017000Y6384998D02*
G01*
X9017000Y6314998D01*
X8890000Y5876998D02*
G01*
X8890000Y5806998D01*
X9017000Y5876998D02*
G01*
X9017000Y5806998D01*
X8890000Y5419798D02*
G01*
X8890000Y5349798D01*
X9017000Y5419798D02*
G01*
X9017000Y5349798D01*
X8890000Y4454598D02*
G01*
X8890000Y4384598D01*
X9017000Y4454598D02*
G01*
X9017000Y4384598D01*
X8890000Y3946598D02*
G01*
X8890000Y3876598D01*
X9017000Y3946598D02*
G01*
X9017000Y3876598D01*
X8890000Y3489398D02*
G01*
X8890000Y3419398D01*
X9017000Y3489398D02*
G01*
X9017000Y3419398D01*
X8890000Y2524198D02*
G01*
X8890000Y2454198D01*
X9017000Y2524198D02*
G01*
X9017000Y2454198D01*
X8890000Y1812998D02*
G01*
X8890000Y1742998D01*
X9017000Y1812998D02*
G01*
X9017000Y1742998D01*
X10007600Y7197798D02*
G01*
X10007600Y7127798D01*
X10134600Y7197798D02*
G01*
X10134600Y7127798D01*
X10007600Y6740598D02*
G01*
X10007600Y6670598D01*
X10134600Y6740598D02*
G01*
X10134600Y6670598D01*
X10007600Y5775398D02*
G01*
X10007600Y5705398D01*
X10134600Y5775398D02*
G01*
X10134600Y5705398D01*
X11125200Y7197798D02*
G01*
X11125200Y7127798D01*
X11252200Y7197798D02*
G01*
X11252200Y7127798D01*
X11125200Y6384998D02*
G01*
X11125200Y6314998D01*
X11252200Y6384998D02*
G01*
X11252200Y6314998D01*
X10007600Y5267398D02*
G01*
X10007600Y5197398D01*
X10134600Y5267398D02*
G01*
X10134600Y5197398D01*
X10007600Y4810198D02*
G01*
X10007600Y4740198D01*
X10134600Y4810198D02*
G01*
X10134600Y4740198D01*
X10007600Y3844998D02*
G01*
X10007600Y3774998D01*
X10134600Y3844998D02*
G01*
X10134600Y3774998D01*
X10007600Y3133798D02*
G01*
X10007600Y3063798D01*
X10134600Y3133798D02*
G01*
X10134600Y3063798D01*
X11125200Y5876998D02*
G01*
X11125200Y5806998D01*
X11252200Y5876998D02*
G01*
X11252200Y5806998D01*
X11125200Y5419798D02*
G01*
X11125200Y5349798D01*
X11252200Y5419798D02*
G01*
X11252200Y5349798D01*
X11125200Y4454598D02*
G01*
X11125200Y4384598D01*
X11252200Y4454598D02*
G01*
X11252200Y4384598D01*
X10007600Y2625798D02*
G01*
X10007600Y2555798D01*
X10134600Y2625798D02*
G01*
X10134600Y2555798D01*
X10007600Y1812998D02*
G01*
X10007600Y1742998D01*
X10134600Y1812998D02*
G01*
X10134600Y1742998D01*
X11125200Y3946598D02*
G01*
X11125200Y3876598D01*
X11252200Y3946598D02*
G01*
X11252200Y3876598D01*
X11125200Y3489398D02*
G01*
X11125200Y3419398D01*
X11252200Y3489398D02*
G01*
X11252200Y3419398D01*
X11125200Y2524198D02*
G01*
X11125200Y2454198D01*
X11252200Y2524198D02*
G01*
X11252200Y2454198D01*
X12395200Y7197798D02*
G01*
X12395200Y7127798D01*
X12522200Y7197798D02*
G01*
X12522200Y7127798D01*
X12395200Y6384998D02*
G01*
X12395200Y6314998D01*
X12522200Y6384998D02*
G01*
X12522200Y6314998D01*
X12395200Y5876998D02*
G01*
X12395200Y5806998D01*
X12522200Y5876998D02*
G01*
X12522200Y5806998D01*
X12395200Y5419798D02*
G01*
X12395200Y5349798D01*
X12522200Y5419798D02*
G01*
X12522200Y5349798D01*
X12395200Y4454598D02*
G01*
X12395200Y4384598D01*
X12522200Y4454598D02*
G01*
X12522200Y4384598D01*
X12395200Y3946598D02*
G01*
X12395200Y3876598D01*
X12522200Y3946598D02*
G01*
X12522200Y3876598D01*
X12395200Y3489398D02*
G01*
X12395200Y3419398D01*
X12522200Y3489398D02*
G01*
X12522200Y3419398D01*
X12395200Y2524198D02*
G01*
X12395200Y2454198D01*
X12522200Y2524198D02*
G01*
X12522200Y2454198D01*
X12395200Y1812998D02*
G01*
X12395200Y1742998D01*
X12522200Y1812998D02*
G01*
X12522200Y1742998D01*
X13512800Y7197798D02*
G01*
X13512800Y7127798D01*
X13639800Y7197798D02*
G01*
X13639800Y7127798D01*
X13512800Y6740598D02*
G01*
X13512800Y6670598D01*
X13639800Y6740598D02*
G01*
X13639800Y6670598D01*
X13512800Y5775398D02*
G01*
X13512800Y5705398D01*
X13639800Y5775398D02*
G01*
X13639800Y5705398D01*
X14630400Y7197798D02*
G01*
X14630400Y7127798D01*
X14757400Y7197798D02*
G01*
X14757400Y7127798D01*
X14630400Y6384998D02*
G01*
X14630400Y6314998D01*
X14757400Y6384998D02*
G01*
X14757400Y6314998D01*
X13512800Y5267398D02*
G01*
X13512800Y5197398D01*
X13639800Y5267398D02*
G01*
X13639800Y5197398D01*
X13512800Y4810198D02*
G01*
X13512800Y4740198D01*
X13639800Y4810198D02*
G01*
X13639800Y4740198D01*
X13512800Y3844998D02*
G01*
X13512800Y3774998D01*
X13639800Y3844998D02*
G01*
X13639800Y3774998D01*
X13512800Y3133798D02*
G01*
X13512800Y3063798D01*
X13639800Y3133798D02*
G01*
X13639800Y3063798D01*
X14630400Y5876998D02*
G01*
X14630400Y5806998D01*
X14757400Y5876998D02*
G01*
X14757400Y5806998D01*
X14630400Y5419798D02*
G01*
X14630400Y5349798D01*
X14757400Y5419798D02*
G01*
X14757400Y5349798D01*
X14630400Y4454598D02*
G01*
X14630400Y4384598D01*
X14757400Y4454598D02*
G01*
X14757400Y4384598D01*
X13512800Y2625798D02*
G01*
X13512800Y2555798D01*
X13639800Y2625798D02*
G01*
X13639800Y2555798D01*
X13512800Y1812998D02*
G01*
X13512800Y1742998D01*
X13639800Y1812998D02*
G01*
X13639800Y1742998D01*
X14630400Y3946598D02*
G01*
X14630400Y3876598D01*
X14757400Y3946598D02*
G01*
X14757400Y3876598D01*
X14630400Y3489398D02*
G01*
X14630400Y3419398D01*
X14757400Y3489398D02*
G01*
X14757400Y3419398D01*
X14630400Y2524198D02*
G01*
X14630400Y2454198D01*
X14757400Y2524198D02*
G01*
X14757400Y2454198D01*
X5384800Y14004998D02*
G01*
X5384800Y13934998D01*
X5511800Y14004998D02*
G01*
X5511800Y13934998D01*
X6502400Y14004998D02*
G01*
X6502400Y13934998D01*
X6629400Y14004998D02*
G01*
X6629400Y13934998D01*
X7620000Y14004998D02*
G01*
X7620000Y13934998D01*
X7747000Y14004998D02*
G01*
X7747000Y13934998D01*
X8737600Y14004998D02*
G01*
X8737600Y13934998D01*
X8864600Y14004998D02*
G01*
X8864600Y13934998D01*
D27*
G01*
X1346047Y1117396D03*
G01*
X1600200Y1117600D03*
G01*
X4190847Y1117396D03*
G01*
X4445000Y1117600D03*
G01*
X3479647Y1117396D03*
G01*
X3733800Y1117600D03*
G01*
X2768447Y1117396D03*
G01*
X3022600Y1117600D03*
G01*
X8051647Y1117396D03*
G01*
X8305800Y1117600D03*
G01*
X7340447Y1117396D03*
G01*
X7594600Y1117600D03*
G01*
X14452447Y1117396D03*
G01*
X14706600Y1117600D03*
G01*
X13741247Y1117396D03*
G01*
X13995400Y1117600D03*
G01*
X13030047Y1117396D03*
G01*
X13284200Y1117600D03*
G01*
X12318847Y1117396D03*
G01*
X12573000Y1117600D03*
G01*
X11607647Y1117396D03*
G01*
X11861800Y1117600D03*
G01*
X10896447Y1117396D03*
G01*
X11150600Y1117600D03*
G01*
X10185247Y1117396D03*
G01*
X10439400Y1117600D03*
G01*
X9474047Y1117396D03*
G01*
X9728200Y1117600D03*
D28*
G01*
X3479800Y660349D03*
G01*
X3733800Y660349D03*
G01*
X4191000Y660349D03*
G01*
X4445000Y660349D03*
G01*
X8051800Y660400D03*
G01*
X8305800Y660400D03*
G01*
X2768600Y660400D03*
G01*
X3022600Y660400D03*
G01*
X7340600Y660400D03*
G01*
X7594600Y660400D03*
G01*
X1346200Y660400D03*
G01*
X1600200Y660400D03*
G01*
X14452600Y660400D03*
G01*
X14706600Y660400D03*
G01*
X13741400Y660400D03*
G01*
X13995400Y660400D03*
G01*
X13030200Y660400D03*
G01*
X13284200Y660400D03*
G01*
X12319000Y660400D03*
G01*
X12573000Y660400D03*
G01*
X11607800Y660400D03*
G01*
X11861800Y660400D03*
G01*
X10896600Y660400D03*
G01*
X11150600Y660400D03*
G01*
X10185400Y660400D03*
G01*
X10439400Y660400D03*
G01*
X9474200Y660400D03*
G01*
X9728200Y660400D03*
D29*
G01*
X2257399Y14782800D03*
G01*
X3127400Y14782800D03*
D30*
G01*
X4394200Y15214600D03*
G01*
X4394200Y15468600D03*
G01*
X4648200Y15214600D03*
G01*
X4648200Y15468600D03*
G01*
X4902200Y15214600D03*
G01*
X4902200Y15468600D03*
G01*
X5156200Y15214600D03*
G01*
X5156200Y15468600D03*
G01*
X5410200Y15214600D03*
G01*
X5410200Y15468600D03*
G01*
X5664200Y15214600D03*
G01*
X5664200Y15468600D03*
G01*
X5918200Y15214600D03*
G01*
X5918200Y15468600D03*
G01*
X6172200Y15214600D03*
G36*
X6088379Y15384779D02*
G01*
X6088379Y15552420D01*
X6256020Y15552420D01*
X6256020Y15384779D01*
G37*
G01*
X1346200Y15214600D03*
G01*
X1346200Y15468600D03*
G01*
X1600200Y15214600D03*
G01*
X1600200Y15468600D03*
G01*
X1854200Y15214600D03*
G01*
X1854200Y15468600D03*
G01*
X2108200Y15214600D03*
G01*
X2108200Y15468600D03*
G01*
X2362200Y15214600D03*
G01*
X2362200Y15468600D03*
G01*
X2616200Y15214600D03*
G01*
X2616200Y15468600D03*
G01*
X2870200Y15214600D03*
G01*
X2870200Y15468600D03*
G01*
X3124200Y15214600D03*
G36*
X3040379Y15384779D02*
G01*
X3040379Y15552420D01*
X3208020Y15552420D01*
X3208020Y15384779D01*
G37*
G01*
X12877800Y14757400D03*
G01*
X12877800Y15011400D03*
G01*
X13131800Y14757400D03*
G01*
X13131800Y15011400D03*
G01*
X13385800Y14757400D03*
G01*
X13385800Y15011400D03*
G01*
X13639800Y14757400D03*
G01*
X13639800Y15011400D03*
G01*
X13893800Y14757400D03*
G01*
X13893800Y15011400D03*
G01*
X14147800Y14757400D03*
G01*
X14147800Y15011400D03*
G01*
X14401800Y14757400D03*
G01*
X14401800Y15011400D03*
G01*
X14655800Y14757400D03*
G36*
X14571979Y14927579D02*
G01*
X14571979Y15095220D01*
X14739620Y15095220D01*
X14739620Y14927579D01*
G37*
G36*
X1702562Y13884910D02*
G01*
X1702562Y14055089D01*
X1802637Y14055089D01*
X1802637Y13884910D01*
G37*
G36*
X2820161Y13884910D02*
G01*
X2820161Y14055089D01*
X2920238Y14055089D01*
X2920238Y13884910D01*
G37*
G36*
X1702562Y13072110D02*
G01*
X1702562Y13242289D01*
X1802637Y13242289D01*
X1802637Y13072110D01*
G37*
G36*
X1702562Y12259310D02*
G01*
X1702562Y12429489D01*
X1802637Y12429489D01*
X1802637Y12259310D01*
G37*
G36*
X1702562Y11751310D02*
G01*
X1702562Y11921489D01*
X1802637Y11921489D01*
X1802637Y11751310D01*
G37*
G36*
X1702562Y11294110D02*
G01*
X1702562Y11464289D01*
X1802637Y11464289D01*
X1802637Y11294110D01*
G37*
G36*
X1702562Y10328910D02*
G01*
X1702562Y10499089D01*
X1802637Y10499089D01*
X1802637Y10328910D01*
G37*
G36*
X1702562Y9820910D02*
G01*
X1702562Y9991089D01*
X1802637Y9991089D01*
X1802637Y9820910D01*
G37*
G36*
X1702562Y9363710D02*
G01*
X1702562Y9533889D01*
X1802637Y9533889D01*
X1802637Y9363710D01*
G37*
G36*
X1702562Y8398510D02*
G01*
X1702562Y8568689D01*
X1802637Y8568689D01*
X1802637Y8398510D01*
G37*
G36*
X1702562Y7687310D02*
G01*
X1702562Y7857489D01*
X1802637Y7857489D01*
X1802637Y7687310D01*
G37*
G36*
X2820161Y13072110D02*
G01*
X2820161Y13242289D01*
X2920238Y13242289D01*
X2920238Y13072110D01*
G37*
G36*
X2820161Y12614910D02*
G01*
X2820161Y12785089D01*
X2920238Y12785089D01*
X2920238Y12614910D01*
G37*
G36*
X2820161Y11649710D02*
G01*
X2820161Y11819889D01*
X2920238Y11819889D01*
X2920238Y11649710D01*
G37*
G36*
X3937761Y13072110D02*
G01*
X3937761Y13242289D01*
X4037838Y13242289D01*
X4037838Y13072110D01*
G37*
G36*
X3937761Y12259310D02*
G01*
X3937761Y12429489D01*
X4037838Y12429489D01*
X4037838Y12259310D01*
G37*
G36*
X2820161Y11141710D02*
G01*
X2820161Y11311889D01*
X2920238Y11311889D01*
X2920238Y11141710D01*
G37*
G36*
X2820161Y10684510D02*
G01*
X2820161Y10854689D01*
X2920238Y10854689D01*
X2920238Y10684510D01*
G37*
G36*
X2820161Y9719310D02*
G01*
X2820161Y9889489D01*
X2920238Y9889489D01*
X2920238Y9719310D01*
G37*
G36*
X2820161Y9008110D02*
G01*
X2820161Y9178289D01*
X2920238Y9178289D01*
X2920238Y9008110D01*
G37*
G36*
X3937761Y11751310D02*
G01*
X3937761Y11921489D01*
X4037838Y11921489D01*
X4037838Y11751310D01*
G37*
G36*
X3937761Y11294110D02*
G01*
X3937761Y11464289D01*
X4037838Y11464289D01*
X4037838Y11294110D01*
G37*
G36*
X3937761Y10328910D02*
G01*
X3937761Y10499089D01*
X4037838Y10499089D01*
X4037838Y10328910D01*
G37*
G36*
X2820161Y8500110D02*
G01*
X2820161Y8670289D01*
X2920238Y8670289D01*
X2920238Y8500110D01*
G37*
G36*
X2820161Y7687310D02*
G01*
X2820161Y7857489D01*
X2920238Y7857489D01*
X2920238Y7687310D01*
G37*
G36*
X3937761Y9820910D02*
G01*
X3937761Y9991089D01*
X4037838Y9991089D01*
X4037838Y9820910D01*
G37*
G36*
X3937761Y9363710D02*
G01*
X3937761Y9533889D01*
X4037838Y9533889D01*
X4037838Y9363710D01*
G37*
G36*
X3937761Y8398510D02*
G01*
X3937761Y8568689D01*
X4037838Y8568689D01*
X4037838Y8398510D01*
G37*
G36*
X5207761Y13072110D02*
G01*
X5207761Y13242289D01*
X5307838Y13242289D01*
X5307838Y13072110D01*
G37*
G36*
X5207761Y12259310D02*
G01*
X5207761Y12429489D01*
X5307838Y12429489D01*
X5307838Y12259310D01*
G37*
G36*
X5207761Y11751310D02*
G01*
X5207761Y11921489D01*
X5307838Y11921489D01*
X5307838Y11751310D01*
G37*
G36*
X5207761Y11294110D02*
G01*
X5207761Y11464289D01*
X5307838Y11464289D01*
X5307838Y11294110D01*
G37*
G36*
X5207761Y10328910D02*
G01*
X5207761Y10499089D01*
X5307838Y10499089D01*
X5307838Y10328910D01*
G37*
G36*
X5207761Y9820910D02*
G01*
X5207761Y9991089D01*
X5307838Y9991089D01*
X5307838Y9820910D01*
G37*
G36*
X5207761Y9363710D02*
G01*
X5207761Y9533889D01*
X5307838Y9533889D01*
X5307838Y9363710D01*
G37*
G36*
X5207761Y8398510D02*
G01*
X5207761Y8568689D01*
X5307838Y8568689D01*
X5307838Y8398510D01*
G37*
G36*
X5207761Y7687310D02*
G01*
X5207761Y7857489D01*
X5307838Y7857489D01*
X5307838Y7687310D01*
G37*
G36*
X6325361Y13072110D02*
G01*
X6325361Y13242289D01*
X6425438Y13242289D01*
X6425438Y13072110D01*
G37*
G36*
X6325361Y12614910D02*
G01*
X6325361Y12785089D01*
X6425438Y12785089D01*
X6425438Y12614910D01*
G37*
G36*
X6325361Y11649710D02*
G01*
X6325361Y11819889D01*
X6425438Y11819889D01*
X6425438Y11649710D01*
G37*
G36*
X7442961Y13072110D02*
G01*
X7442961Y13242289D01*
X7543038Y13242289D01*
X7543038Y13072110D01*
G37*
G36*
X7442961Y12259310D02*
G01*
X7442961Y12429489D01*
X7543038Y12429489D01*
X7543038Y12259310D01*
G37*
G36*
X6325361Y11141710D02*
G01*
X6325361Y11311889D01*
X6425438Y11311889D01*
X6425438Y11141710D01*
G37*
G36*
X6325361Y10684510D02*
G01*
X6325361Y10854689D01*
X6425438Y10854689D01*
X6425438Y10684510D01*
G37*
G36*
X6325361Y9719310D02*
G01*
X6325361Y9889489D01*
X6425438Y9889489D01*
X6425438Y9719310D01*
G37*
G36*
X6325361Y9008110D02*
G01*
X6325361Y9178289D01*
X6425438Y9178289D01*
X6425438Y9008110D01*
G37*
G36*
X7442961Y11751310D02*
G01*
X7442961Y11921489D01*
X7543038Y11921489D01*
X7543038Y11751310D01*
G37*
G36*
X7442961Y11294110D02*
G01*
X7442961Y11464289D01*
X7543038Y11464289D01*
X7543038Y11294110D01*
G37*
G36*
X7442961Y10328910D02*
G01*
X7442961Y10499089D01*
X7543038Y10499089D01*
X7543038Y10328910D01*
G37*
G36*
X6325361Y8500110D02*
G01*
X6325361Y8670289D01*
X6425438Y8670289D01*
X6425438Y8500110D01*
G37*
G36*
X6325361Y7687310D02*
G01*
X6325361Y7857489D01*
X6425438Y7857489D01*
X6425438Y7687310D01*
G37*
G36*
X7442961Y9820910D02*
G01*
X7442961Y9991089D01*
X7543038Y9991089D01*
X7543038Y9820910D01*
G37*
G36*
X7442961Y9363710D02*
G01*
X7442961Y9533889D01*
X7543038Y9533889D01*
X7543038Y9363710D01*
G37*
G36*
X7442961Y8398510D02*
G01*
X7442961Y8568689D01*
X7543038Y8568689D01*
X7543038Y8398510D01*
G37*
G36*
X8712961Y13072110D02*
G01*
X8712961Y13242289D01*
X8813038Y13242289D01*
X8813038Y13072110D01*
G37*
G36*
X8712961Y12259310D02*
G01*
X8712961Y12429489D01*
X8813038Y12429489D01*
X8813038Y12259310D01*
G37*
G36*
X8712961Y11751310D02*
G01*
X8712961Y11921489D01*
X8813038Y11921489D01*
X8813038Y11751310D01*
G37*
G36*
X8712961Y11294110D02*
G01*
X8712961Y11464289D01*
X8813038Y11464289D01*
X8813038Y11294110D01*
G37*
G36*
X8712961Y10328910D02*
G01*
X8712961Y10499089D01*
X8813038Y10499089D01*
X8813038Y10328910D01*
G37*
G36*
X8712961Y9820910D02*
G01*
X8712961Y9991089D01*
X8813038Y9991089D01*
X8813038Y9820910D01*
G37*
G36*
X8712961Y9363710D02*
G01*
X8712961Y9533889D01*
X8813038Y9533889D01*
X8813038Y9363710D01*
G37*
G36*
X8712961Y8398510D02*
G01*
X8712961Y8568689D01*
X8813038Y8568689D01*
X8813038Y8398510D01*
G37*
G36*
X8712961Y7687310D02*
G01*
X8712961Y7857489D01*
X8813038Y7857489D01*
X8813038Y7687310D01*
G37*
G36*
X9830561Y13072110D02*
G01*
X9830561Y13242289D01*
X9930638Y13242289D01*
X9930638Y13072110D01*
G37*
G36*
X9830561Y12614910D02*
G01*
X9830561Y12785089D01*
X9930638Y12785089D01*
X9930638Y12614910D01*
G37*
G36*
X9830561Y11649710D02*
G01*
X9830561Y11819889D01*
X9930638Y11819889D01*
X9930638Y11649710D01*
G37*
G36*
X10948161Y13072110D02*
G01*
X10948161Y13242289D01*
X11048238Y13242289D01*
X11048238Y13072110D01*
G37*
G36*
X10948161Y12259310D02*
G01*
X10948161Y12429489D01*
X11048238Y12429489D01*
X11048238Y12259310D01*
G37*
G36*
X9830561Y11141710D02*
G01*
X9830561Y11311889D01*
X9930638Y11311889D01*
X9930638Y11141710D01*
G37*
G36*
X9830561Y10684510D02*
G01*
X9830561Y10854689D01*
X9930638Y10854689D01*
X9930638Y10684510D01*
G37*
G36*
X9830561Y9719310D02*
G01*
X9830561Y9889489D01*
X9930638Y9889489D01*
X9930638Y9719310D01*
G37*
G36*
X9830561Y9008110D02*
G01*
X9830561Y9178289D01*
X9930638Y9178289D01*
X9930638Y9008110D01*
G37*
G36*
X10948161Y11751310D02*
G01*
X10948161Y11921489D01*
X11048238Y11921489D01*
X11048238Y11751310D01*
G37*
G36*
X10948161Y11294110D02*
G01*
X10948161Y11464289D01*
X11048238Y11464289D01*
X11048238Y11294110D01*
G37*
G36*
X10948161Y10328910D02*
G01*
X10948161Y10499089D01*
X11048238Y10499089D01*
X11048238Y10328910D01*
G37*
G36*
X9830561Y8500110D02*
G01*
X9830561Y8670289D01*
X9930638Y8670289D01*
X9930638Y8500110D01*
G37*
G36*
X9830561Y7687310D02*
G01*
X9830561Y7857489D01*
X9930638Y7857489D01*
X9930638Y7687310D01*
G37*
G36*
X10948161Y9820910D02*
G01*
X10948161Y9991089D01*
X11048238Y9991089D01*
X11048238Y9820910D01*
G37*
G36*
X10948161Y9363710D02*
G01*
X10948161Y9533889D01*
X11048238Y9533889D01*
X11048238Y9363710D01*
G37*
G36*
X10948161Y8398510D02*
G01*
X10948161Y8568689D01*
X11048238Y8568689D01*
X11048238Y8398510D01*
G37*
G36*
X12218161Y13072110D02*
G01*
X12218161Y13242289D01*
X12318238Y13242289D01*
X12318238Y13072110D01*
G37*
G36*
X12218161Y12259310D02*
G01*
X12218161Y12429489D01*
X12318238Y12429489D01*
X12318238Y12259310D01*
G37*
G36*
X12218161Y11751310D02*
G01*
X12218161Y11921489D01*
X12318238Y11921489D01*
X12318238Y11751310D01*
G37*
G36*
X12218161Y11294110D02*
G01*
X12218161Y11464289D01*
X12318238Y11464289D01*
X12318238Y11294110D01*
G37*
G36*
X12218161Y10328910D02*
G01*
X12218161Y10499089D01*
X12318238Y10499089D01*
X12318238Y10328910D01*
G37*
G36*
X12218161Y9820910D02*
G01*
X12218161Y9991089D01*
X12318238Y9991089D01*
X12318238Y9820910D01*
G37*
G36*
X12218161Y9363710D02*
G01*
X12218161Y9533889D01*
X12318238Y9533889D01*
X12318238Y9363710D01*
G37*
G36*
X12218161Y8398510D02*
G01*
X12218161Y8568689D01*
X12318238Y8568689D01*
X12318238Y8398510D01*
G37*
G36*
X12218161Y7687310D02*
G01*
X12218161Y7857489D01*
X12318238Y7857489D01*
X12318238Y7687310D01*
G37*
G36*
X13335761Y13072110D02*
G01*
X13335761Y13242289D01*
X13435838Y13242289D01*
X13435838Y13072110D01*
G37*
G36*
X13335761Y12614910D02*
G01*
X13335761Y12785089D01*
X13435838Y12785089D01*
X13435838Y12614910D01*
G37*
G36*
X13335761Y11649710D02*
G01*
X13335761Y11819889D01*
X13435838Y11819889D01*
X13435838Y11649710D01*
G37*
G36*
X14453361Y13072110D02*
G01*
X14453361Y13242289D01*
X14553438Y13242289D01*
X14553438Y13072110D01*
G37*
G36*
X14453361Y12259310D02*
G01*
X14453361Y12429489D01*
X14553438Y12429489D01*
X14553438Y12259310D01*
G37*
G36*
X13335761Y11141710D02*
G01*
X13335761Y11311889D01*
X13435838Y11311889D01*
X13435838Y11141710D01*
G37*
G36*
X13335761Y10684510D02*
G01*
X13335761Y10854689D01*
X13435838Y10854689D01*
X13435838Y10684510D01*
G37*
G36*
X13335761Y9719310D02*
G01*
X13335761Y9889489D01*
X13435838Y9889489D01*
X13435838Y9719310D01*
G37*
G36*
X13335761Y9008110D02*
G01*
X13335761Y9178289D01*
X13435838Y9178289D01*
X13435838Y9008110D01*
G37*
G36*
X14453361Y11751310D02*
G01*
X14453361Y11921489D01*
X14553438Y11921489D01*
X14553438Y11751310D01*
G37*
G36*
X14453361Y11294110D02*
G01*
X14453361Y11464289D01*
X14553438Y11464289D01*
X14553438Y11294110D01*
G37*
G36*
X14453361Y10328910D02*
G01*
X14453361Y10499089D01*
X14553438Y10499089D01*
X14553438Y10328910D01*
G37*
G36*
X13335761Y8500110D02*
G01*
X13335761Y8670289D01*
X13435838Y8670289D01*
X13435838Y8500110D01*
G37*
G36*
X13335761Y7687310D02*
G01*
X13335761Y7857489D01*
X13435838Y7857489D01*
X13435838Y7687310D01*
G37*
G36*
X14453361Y9820910D02*
G01*
X14453361Y9991089D01*
X14553438Y9991089D01*
X14553438Y9820910D01*
G37*
G36*
X14453361Y9363710D02*
G01*
X14453361Y9533889D01*
X14553438Y9533889D01*
X14553438Y9363710D01*
G37*
G36*
X14453361Y8398510D02*
G01*
X14453361Y8568689D01*
X14553438Y8568689D01*
X14553438Y8398510D01*
G37*
G36*
X1702562Y7077710D02*
G01*
X1702562Y7247889D01*
X1802637Y7247889D01*
X1802637Y7077710D01*
G37*
G36*
X1702562Y6264910D02*
G01*
X1702562Y6435089D01*
X1802637Y6435089D01*
X1802637Y6264910D01*
G37*
G36*
X1702562Y5756910D02*
G01*
X1702562Y5927089D01*
X1802637Y5927089D01*
X1802637Y5756910D01*
G37*
G36*
X1702562Y5299710D02*
G01*
X1702562Y5469889D01*
X1802637Y5469889D01*
X1802637Y5299710D01*
G37*
G36*
X1702562Y4334510D02*
G01*
X1702562Y4504689D01*
X1802637Y4504689D01*
X1802637Y4334510D01*
G37*
G36*
X1702562Y3826510D02*
G01*
X1702562Y3996689D01*
X1802637Y3996689D01*
X1802637Y3826510D01*
G37*
G36*
X1702562Y3369310D02*
G01*
X1702562Y3539489D01*
X1802637Y3539489D01*
X1802637Y3369310D01*
G37*
G36*
X1702562Y2404110D02*
G01*
X1702562Y2574289D01*
X1802637Y2574289D01*
X1802637Y2404110D01*
G37*
G36*
X1702562Y1692910D02*
G01*
X1702562Y1863089D01*
X1802637Y1863089D01*
X1802637Y1692910D01*
G37*
G36*
X2820161Y7077710D02*
G01*
X2820161Y7247889D01*
X2920238Y7247889D01*
X2920238Y7077710D01*
G37*
G36*
X2820161Y6620510D02*
G01*
X2820161Y6790689D01*
X2920238Y6790689D01*
X2920238Y6620510D01*
G37*
G36*
X2820161Y5655310D02*
G01*
X2820161Y5825489D01*
X2920238Y5825489D01*
X2920238Y5655310D01*
G37*
G36*
X3937761Y7077710D02*
G01*
X3937761Y7247889D01*
X4037838Y7247889D01*
X4037838Y7077710D01*
G37*
G36*
X3937761Y6264910D02*
G01*
X3937761Y6435089D01*
X4037838Y6435089D01*
X4037838Y6264910D01*
G37*
G36*
X2820161Y5147310D02*
G01*
X2820161Y5317489D01*
X2920238Y5317489D01*
X2920238Y5147310D01*
G37*
G36*
X2820161Y4690110D02*
G01*
X2820161Y4860289D01*
X2920238Y4860289D01*
X2920238Y4690110D01*
G37*
G36*
X2820161Y3724910D02*
G01*
X2820161Y3895089D01*
X2920238Y3895089D01*
X2920238Y3724910D01*
G37*
G36*
X2820161Y3013710D02*
G01*
X2820161Y3183889D01*
X2920238Y3183889D01*
X2920238Y3013710D01*
G37*
G36*
X3937761Y5756910D02*
G01*
X3937761Y5927089D01*
X4037838Y5927089D01*
X4037838Y5756910D01*
G37*
G36*
X3937761Y5299710D02*
G01*
X3937761Y5469889D01*
X4037838Y5469889D01*
X4037838Y5299710D01*
G37*
G36*
X3937761Y4334510D02*
G01*
X3937761Y4504689D01*
X4037838Y4504689D01*
X4037838Y4334510D01*
G37*
G36*
X2820161Y2505710D02*
G01*
X2820161Y2675889D01*
X2920238Y2675889D01*
X2920238Y2505710D01*
G37*
G36*
X2820161Y1692910D02*
G01*
X2820161Y1863089D01*
X2920238Y1863089D01*
X2920238Y1692910D01*
G37*
G36*
X3937761Y3826510D02*
G01*
X3937761Y3996689D01*
X4037838Y3996689D01*
X4037838Y3826510D01*
G37*
G36*
X3937761Y3369310D02*
G01*
X3937761Y3539489D01*
X4037838Y3539489D01*
X4037838Y3369310D01*
G37*
G36*
X3937761Y2404110D02*
G01*
X3937761Y2574289D01*
X4037838Y2574289D01*
X4037838Y2404110D01*
G37*
G36*
X5207761Y7077710D02*
G01*
X5207761Y7247889D01*
X5307838Y7247889D01*
X5307838Y7077710D01*
G37*
G36*
X5207761Y6264910D02*
G01*
X5207761Y6435089D01*
X5307838Y6435089D01*
X5307838Y6264910D01*
G37*
G36*
X5207761Y5756910D02*
G01*
X5207761Y5927089D01*
X5307838Y5927089D01*
X5307838Y5756910D01*
G37*
G36*
X5207761Y5299710D02*
G01*
X5207761Y5469889D01*
X5307838Y5469889D01*
X5307838Y5299710D01*
G37*
G36*
X5207761Y4334510D02*
G01*
X5207761Y4504689D01*
X5307838Y4504689D01*
X5307838Y4334510D01*
G37*
G36*
X5207761Y3826510D02*
G01*
X5207761Y3996689D01*
X5307838Y3996689D01*
X5307838Y3826510D01*
G37*
G36*
X5207761Y3369310D02*
G01*
X5207761Y3539489D01*
X5307838Y3539489D01*
X5307838Y3369310D01*
G37*
G36*
X5207761Y2404110D02*
G01*
X5207761Y2574289D01*
X5307838Y2574289D01*
X5307838Y2404110D01*
G37*
G36*
X5207761Y1692910D02*
G01*
X5207761Y1863089D01*
X5307838Y1863089D01*
X5307838Y1692910D01*
G37*
G36*
X6325361Y7077710D02*
G01*
X6325361Y7247889D01*
X6425438Y7247889D01*
X6425438Y7077710D01*
G37*
G36*
X6325361Y6620510D02*
G01*
X6325361Y6790689D01*
X6425438Y6790689D01*
X6425438Y6620510D01*
G37*
G36*
X6325361Y5655310D02*
G01*
X6325361Y5825489D01*
X6425438Y5825489D01*
X6425438Y5655310D01*
G37*
G36*
X7442961Y7077710D02*
G01*
X7442961Y7247889D01*
X7543038Y7247889D01*
X7543038Y7077710D01*
G37*
G36*
X7442961Y6264910D02*
G01*
X7442961Y6435089D01*
X7543038Y6435089D01*
X7543038Y6264910D01*
G37*
G36*
X6325361Y5147310D02*
G01*
X6325361Y5317489D01*
X6425438Y5317489D01*
X6425438Y5147310D01*
G37*
G36*
X6325361Y4690110D02*
G01*
X6325361Y4860289D01*
X6425438Y4860289D01*
X6425438Y4690110D01*
G37*
G36*
X6325361Y3724910D02*
G01*
X6325361Y3895089D01*
X6425438Y3895089D01*
X6425438Y3724910D01*
G37*
G36*
X6325361Y3013710D02*
G01*
X6325361Y3183889D01*
X6425438Y3183889D01*
X6425438Y3013710D01*
G37*
G36*
X7442961Y5756910D02*
G01*
X7442961Y5927089D01*
X7543038Y5927089D01*
X7543038Y5756910D01*
G37*
G36*
X7442961Y5299710D02*
G01*
X7442961Y5469889D01*
X7543038Y5469889D01*
X7543038Y5299710D01*
G37*
G36*
X7442961Y4334510D02*
G01*
X7442961Y4504689D01*
X7543038Y4504689D01*
X7543038Y4334510D01*
G37*
G36*
X6325361Y2505710D02*
G01*
X6325361Y2675889D01*
X6425438Y2675889D01*
X6425438Y2505710D01*
G37*
G36*
X6325361Y1692910D02*
G01*
X6325361Y1863089D01*
X6425438Y1863089D01*
X6425438Y1692910D01*
G37*
G36*
X7442961Y3826510D02*
G01*
X7442961Y3996689D01*
X7543038Y3996689D01*
X7543038Y3826510D01*
G37*
G36*
X7442961Y3369310D02*
G01*
X7442961Y3539489D01*
X7543038Y3539489D01*
X7543038Y3369310D01*
G37*
G36*
X7442961Y2404110D02*
G01*
X7442961Y2574289D01*
X7543038Y2574289D01*
X7543038Y2404110D01*
G37*
G36*
X8712961Y7077710D02*
G01*
X8712961Y7247889D01*
X8813038Y7247889D01*
X8813038Y7077710D01*
G37*
G36*
X8712961Y6264910D02*
G01*
X8712961Y6435089D01*
X8813038Y6435089D01*
X8813038Y6264910D01*
G37*
G36*
X8712961Y5756910D02*
G01*
X8712961Y5927089D01*
X8813038Y5927089D01*
X8813038Y5756910D01*
G37*
G36*
X8712961Y5299710D02*
G01*
X8712961Y5469889D01*
X8813038Y5469889D01*
X8813038Y5299710D01*
G37*
G36*
X8712961Y4334510D02*
G01*
X8712961Y4504689D01*
X8813038Y4504689D01*
X8813038Y4334510D01*
G37*
G36*
X8712961Y3826510D02*
G01*
X8712961Y3996689D01*
X8813038Y3996689D01*
X8813038Y3826510D01*
G37*
G36*
X8712961Y3369310D02*
G01*
X8712961Y3539489D01*
X8813038Y3539489D01*
X8813038Y3369310D01*
G37*
G36*
X8712961Y2404110D02*
G01*
X8712961Y2574289D01*
X8813038Y2574289D01*
X8813038Y2404110D01*
G37*
G36*
X8712961Y1692910D02*
G01*
X8712961Y1863089D01*
X8813038Y1863089D01*
X8813038Y1692910D01*
G37*
G36*
X9830561Y7077710D02*
G01*
X9830561Y7247889D01*
X9930638Y7247889D01*
X9930638Y7077710D01*
G37*
G36*
X9830561Y6620510D02*
G01*
X9830561Y6790689D01*
X9930638Y6790689D01*
X9930638Y6620510D01*
G37*
G36*
X9830561Y5655310D02*
G01*
X9830561Y5825489D01*
X9930638Y5825489D01*
X9930638Y5655310D01*
G37*
G36*
X10948161Y7077710D02*
G01*
X10948161Y7247889D01*
X11048238Y7247889D01*
X11048238Y7077710D01*
G37*
G36*
X10948161Y6264910D02*
G01*
X10948161Y6435089D01*
X11048238Y6435089D01*
X11048238Y6264910D01*
G37*
G36*
X9830561Y5147310D02*
G01*
X9830561Y5317489D01*
X9930638Y5317489D01*
X9930638Y5147310D01*
G37*
G36*
X9830561Y4690110D02*
G01*
X9830561Y4860289D01*
X9930638Y4860289D01*
X9930638Y4690110D01*
G37*
G36*
X9830561Y3724910D02*
G01*
X9830561Y3895089D01*
X9930638Y3895089D01*
X9930638Y3724910D01*
G37*
G36*
X9830561Y3013710D02*
G01*
X9830561Y3183889D01*
X9930638Y3183889D01*
X9930638Y3013710D01*
G37*
G36*
X10948161Y5756910D02*
G01*
X10948161Y5927089D01*
X11048238Y5927089D01*
X11048238Y5756910D01*
G37*
G36*
X10948161Y5299710D02*
G01*
X10948161Y5469889D01*
X11048238Y5469889D01*
X11048238Y5299710D01*
G37*
G36*
X10948161Y4334510D02*
G01*
X10948161Y4504689D01*
X11048238Y4504689D01*
X11048238Y4334510D01*
G37*
G36*
X9830561Y2505710D02*
G01*
X9830561Y2675889D01*
X9930638Y2675889D01*
X9930638Y2505710D01*
G37*
G36*
X9830561Y1692910D02*
G01*
X9830561Y1863089D01*
X9930638Y1863089D01*
X9930638Y1692910D01*
G37*
G36*
X10948161Y3826510D02*
G01*
X10948161Y3996689D01*
X11048238Y3996689D01*
X11048238Y3826510D01*
G37*
G36*
X10948161Y3369310D02*
G01*
X10948161Y3539489D01*
X11048238Y3539489D01*
X11048238Y3369310D01*
G37*
G36*
X10948161Y2404110D02*
G01*
X10948161Y2574289D01*
X11048238Y2574289D01*
X11048238Y2404110D01*
G37*
G36*
X12218161Y7077710D02*
G01*
X12218161Y7247889D01*
X12318238Y7247889D01*
X12318238Y7077710D01*
G37*
G36*
X12218161Y6264910D02*
G01*
X12218161Y6435089D01*
X12318238Y6435089D01*
X12318238Y6264910D01*
G37*
G36*
X12218161Y5756910D02*
G01*
X12218161Y5927089D01*
X12318238Y5927089D01*
X12318238Y5756910D01*
G37*
G36*
X12218161Y5299710D02*
G01*
X12218161Y5469889D01*
X12318238Y5469889D01*
X12318238Y5299710D01*
G37*
G36*
X12218161Y4334510D02*
G01*
X12218161Y4504689D01*
X12318238Y4504689D01*
X12318238Y4334510D01*
G37*
G36*
X12218161Y3826510D02*
G01*
X12218161Y3996689D01*
X12318238Y3996689D01*
X12318238Y3826510D01*
G37*
G36*
X12218161Y3369310D02*
G01*
X12218161Y3539489D01*
X12318238Y3539489D01*
X12318238Y3369310D01*
G37*
G36*
X12218161Y2404110D02*
G01*
X12218161Y2574289D01*
X12318238Y2574289D01*
X12318238Y2404110D01*
G37*
G36*
X12218161Y1692910D02*
G01*
X12218161Y1863089D01*
X12318238Y1863089D01*
X12318238Y1692910D01*
G37*
G36*
X13335761Y7077710D02*
G01*
X13335761Y7247889D01*
X13435838Y7247889D01*
X13435838Y7077710D01*
G37*
G36*
X13335761Y6620510D02*
G01*
X13335761Y6790689D01*
X13435838Y6790689D01*
X13435838Y6620510D01*
G37*
G36*
X13335761Y5655310D02*
G01*
X13335761Y5825489D01*
X13435838Y5825489D01*
X13435838Y5655310D01*
G37*
G36*
X14453361Y7077710D02*
G01*
X14453361Y7247889D01*
X14553438Y7247889D01*
X14553438Y7077710D01*
G37*
G36*
X14453361Y6264910D02*
G01*
X14453361Y6435089D01*
X14553438Y6435089D01*
X14553438Y6264910D01*
G37*
G36*
X13335761Y5147310D02*
G01*
X13335761Y5317489D01*
X13435838Y5317489D01*
X13435838Y5147310D01*
G37*
G36*
X13335761Y4690110D02*
G01*
X13335761Y4860289D01*
X13435838Y4860289D01*
X13435838Y4690110D01*
G37*
G36*
X13335761Y3724910D02*
G01*
X13335761Y3895089D01*
X13435838Y3895089D01*
X13435838Y3724910D01*
G37*
G36*
X13335761Y3013710D02*
G01*
X13335761Y3183889D01*
X13435838Y3183889D01*
X13435838Y3013710D01*
G37*
G36*
X14453361Y5756910D02*
G01*
X14453361Y5927089D01*
X14553438Y5927089D01*
X14553438Y5756910D01*
G37*
G36*
X14453361Y5299710D02*
G01*
X14453361Y5469889D01*
X14553438Y5469889D01*
X14553438Y5299710D01*
G37*
G36*
X14453361Y4334510D02*
G01*
X14453361Y4504689D01*
X14553438Y4504689D01*
X14553438Y4334510D01*
G37*
G36*
X13335761Y2505710D02*
G01*
X13335761Y2675889D01*
X13435838Y2675889D01*
X13435838Y2505710D01*
G37*
G36*
X13335761Y1692910D02*
G01*
X13335761Y1863089D01*
X13435838Y1863089D01*
X13435838Y1692910D01*
G37*
G36*
X14453361Y3826510D02*
G01*
X14453361Y3996689D01*
X14553438Y3996689D01*
X14553438Y3826510D01*
G37*
G36*
X14453361Y3369310D02*
G01*
X14453361Y3539489D01*
X14553438Y3539489D01*
X14553438Y3369310D01*
G37*
G36*
X14453361Y2404110D02*
G01*
X14453361Y2574289D01*
X14553438Y2574289D01*
X14553438Y2404110D01*
G37*
G36*
X5207761Y13884910D02*
G01*
X5207761Y14055089D01*
X5307838Y14055089D01*
X5307838Y13884910D01*
G37*
G36*
X6325361Y13884910D02*
G01*
X6325361Y14055089D01*
X6425438Y14055089D01*
X6425438Y13884910D01*
G37*
G36*
X7442961Y13884910D02*
G01*
X7442961Y14055089D01*
X7543038Y14055089D01*
X7543038Y13884910D01*
G37*
G36*
X8560561Y13884910D02*
G01*
X8560561Y14055089D01*
X8660638Y14055089D01*
X8660638Y13884910D01*
G37*
D27*
G01*
X1498752Y14071803D03*
G01*
X1244600Y14071600D03*
G01*
X1498752Y13767003D03*
G01*
X1244600Y13766800D03*
G01*
X2616352Y14071803D03*
G01*
X2362200Y14071600D03*
G01*
X2616352Y13767003D03*
G01*
X2362200Y13766800D03*
G01*
X1498752Y13259003D03*
G01*
X1244600Y13258800D03*
G01*
X1498752Y12954203D03*
G01*
X1244600Y12954000D03*
G01*
X2006752Y12801803D03*
G01*
X1752600Y12801600D03*
G01*
X1498752Y12649403D03*
G01*
X1244600Y12649200D03*
G01*
X1498752Y12344603D03*
G01*
X1244600Y12344400D03*
G01*
X1498752Y11938203D03*
G01*
X1244600Y11938000D03*
G01*
X1498752Y11633403D03*
G01*
X1244600Y11633200D03*
G01*
X1498752Y11328603D03*
G01*
X1244600Y11328400D03*
G01*
X1498752Y11023803D03*
G01*
X1244600Y11023600D03*
G01*
X1498752Y10719003D03*
G01*
X1244600Y10718800D03*
G01*
X1498752Y10414203D03*
G01*
X1244600Y10414000D03*
G01*
X2006752Y10871403D03*
G01*
X1752600Y10871200D03*
G01*
X1498752Y10007803D03*
G01*
X1244600Y10007600D03*
G01*
X1498752Y9703003D03*
G01*
X1244600Y9702800D03*
G01*
X1498752Y9398203D03*
G01*
X1244600Y9398000D03*
G01*
X1498752Y9093403D03*
G01*
X1244600Y9093200D03*
G01*
X1498752Y8788603D03*
G01*
X1244600Y8788400D03*
G01*
X1498752Y8483803D03*
G01*
X1244600Y8483600D03*
G01*
X2006752Y8941003D03*
G01*
X1752600Y8940800D03*
G01*
X1498752Y8077403D03*
G01*
X1244600Y8077200D03*
G01*
X1498752Y7772603D03*
G01*
X1244600Y7772400D03*
G01*
X2616352Y13259003D03*
G01*
X2362200Y13258800D03*
G01*
X2616352Y12954203D03*
G01*
X2362200Y12954000D03*
G01*
X2616352Y12649403D03*
G01*
X2362200Y12649200D03*
G01*
X2616352Y12344603D03*
G01*
X2362200Y12344400D03*
G01*
X2616352Y12039803D03*
G01*
X2362200Y12039600D03*
G01*
X2616352Y11735003D03*
G01*
X2362200Y11734800D03*
G01*
X3124352Y12192203D03*
G01*
X2870200Y12192000D03*
G01*
X3733952Y13259003D03*
G01*
X3479800Y13258800D03*
G01*
X3733952Y12954203D03*
G01*
X3479800Y12954000D03*
G01*
X4241952Y12801803D03*
G01*
X3987800Y12801600D03*
G01*
X3733952Y12649403D03*
G01*
X3479800Y12649200D03*
G01*
X3733952Y12344603D03*
G01*
X3479800Y12344400D03*
G01*
X2616352Y11328603D03*
G01*
X2362200Y11328400D03*
G01*
X2616352Y11023803D03*
G01*
X2362200Y11023600D03*
G01*
X2616352Y10719003D03*
G01*
X2362200Y10718800D03*
G01*
X2616352Y10414203D03*
G01*
X2362200Y10414000D03*
G01*
X2616352Y10109403D03*
G01*
X2362200Y10109200D03*
G01*
X2616352Y9804603D03*
G01*
X2362200Y9804400D03*
G01*
X3124352Y10261803D03*
G01*
X2870200Y10261600D03*
G01*
X2616352Y9398203D03*
G01*
X2362200Y9398000D03*
G01*
X2616352Y9093403D03*
G01*
X2362200Y9093200D03*
G01*
X3733952Y11938203D03*
G01*
X3479800Y11938000D03*
G01*
X3733952Y11633403D03*
G01*
X3479800Y11633200D03*
G01*
X3733952Y11328603D03*
G01*
X3479800Y11328400D03*
G01*
X3733952Y11023803D03*
G01*
X3479800Y11023600D03*
G01*
X3733952Y10719003D03*
G01*
X3479800Y10718800D03*
G01*
X3733952Y10414203D03*
G01*
X3479800Y10414000D03*
G01*
X4241952Y10871403D03*
G01*
X3987800Y10871200D03*
G01*
X2616352Y8687003D03*
G01*
X2362200Y8686800D03*
G01*
X2616352Y8382203D03*
G01*
X2362200Y8382000D03*
G01*
X3124352Y8229803D03*
G01*
X2870200Y8229600D03*
G01*
X2616352Y8077403D03*
G01*
X2362200Y8077200D03*
G01*
X2616352Y7772603D03*
G01*
X2362200Y7772400D03*
G01*
X3733952Y10007803D03*
G01*
X3479800Y10007600D03*
G01*
X3733952Y9703003D03*
G01*
X3479800Y9702800D03*
G01*
X3733952Y9398203D03*
G01*
X3479800Y9398000D03*
G01*
X3733952Y9093403D03*
G01*
X3479800Y9093200D03*
G01*
X3733952Y8788603D03*
G01*
X3479800Y8788400D03*
G01*
X3733952Y8483803D03*
G01*
X3479800Y8483600D03*
G01*
X4241977Y8941003D03*
G01*
X3987825Y8940800D03*
G01*
X5003952Y13259003D03*
G01*
X4749800Y13258800D03*
G01*
X5003952Y12954203D03*
G01*
X4749800Y12954000D03*
G01*
X5511952Y12801803D03*
G01*
X5257800Y12801600D03*
G01*
X5003952Y12649403D03*
G01*
X4749800Y12649200D03*
G01*
X5003952Y12344603D03*
G01*
X4749800Y12344400D03*
G01*
X5003952Y11938203D03*
G01*
X4749800Y11938000D03*
G01*
X5003952Y11633403D03*
G01*
X4749800Y11633200D03*
G01*
X5003952Y11328603D03*
G01*
X4749800Y11328400D03*
G01*
X5003952Y11023803D03*
G01*
X4749800Y11023600D03*
G01*
X5003952Y10719003D03*
G01*
X4749800Y10718800D03*
G01*
X5003952Y10414203D03*
G01*
X4749800Y10414000D03*
G01*
X5511952Y10871403D03*
G01*
X5257800Y10871200D03*
G01*
X5003952Y10007803D03*
G01*
X4749800Y10007600D03*
G01*
X5003952Y9703003D03*
G01*
X4749800Y9702800D03*
G01*
X5003952Y9398203D03*
G01*
X4749800Y9398000D03*
G01*
X5003952Y9093403D03*
G01*
X4749800Y9093200D03*
G01*
X5003952Y8788603D03*
G01*
X4749800Y8788400D03*
G01*
X5003952Y8483803D03*
G01*
X4749800Y8483600D03*
G01*
X5511952Y8941003D03*
G01*
X5257800Y8940800D03*
G01*
X5003952Y8077403D03*
G01*
X4749800Y8077200D03*
G01*
X5003952Y7772603D03*
G01*
X4749800Y7772400D03*
G01*
X6121552Y13259003D03*
G01*
X5867400Y13258800D03*
G01*
X6121552Y12954203D03*
G01*
X5867400Y12954000D03*
G01*
X6121552Y12649403D03*
G01*
X5867400Y12649200D03*
G01*
X6121552Y12344603D03*
G01*
X5867400Y12344400D03*
G01*
X6121552Y12039803D03*
G01*
X5867400Y12039600D03*
G01*
X6121552Y11735003D03*
G01*
X5867400Y11734800D03*
G01*
X6629552Y12192203D03*
G01*
X6375400Y12192000D03*
G01*
X7239152Y13259003D03*
G01*
X6985000Y13258800D03*
G01*
X7239152Y12954203D03*
G01*
X6985000Y12954000D03*
G01*
X7747152Y12801803D03*
G01*
X7493000Y12801600D03*
G01*
X7239152Y12649403D03*
G01*
X6985000Y12649200D03*
G01*
X7239152Y12344603D03*
G01*
X6985000Y12344400D03*
G01*
X6121552Y11328603D03*
G01*
X5867400Y11328400D03*
G01*
X6121552Y11023803D03*
G01*
X5867400Y11023600D03*
G01*
X6121552Y10719003D03*
G01*
X5867400Y10718800D03*
G01*
X6121552Y10414203D03*
G01*
X5867400Y10414000D03*
G01*
X6121552Y10109403D03*
G01*
X5867400Y10109200D03*
G01*
X6121552Y9804603D03*
G01*
X5867400Y9804400D03*
G01*
X6629552Y10261803D03*
G01*
X6375400Y10261600D03*
G01*
X6121552Y9398203D03*
G01*
X5867400Y9398000D03*
G01*
X6121552Y9093403D03*
G01*
X5867400Y9093200D03*
G01*
X7239152Y11938203D03*
G01*
X6985000Y11938000D03*
G01*
X7239152Y11633403D03*
G01*
X6985000Y11633200D03*
G01*
X7239152Y11328603D03*
G01*
X6985000Y11328400D03*
G01*
X7239152Y11023803D03*
G01*
X6985000Y11023600D03*
G01*
X7239152Y10719003D03*
G01*
X6985000Y10718800D03*
G01*
X7239152Y10414203D03*
G01*
X6985000Y10414000D03*
G01*
X7747152Y10871403D03*
G01*
X7493000Y10871200D03*
G01*
X6121552Y8687003D03*
G01*
X5867400Y8686800D03*
G01*
X6121552Y8382203D03*
G01*
X5867400Y8382000D03*
G01*
X6629552Y8229803D03*
G01*
X6375400Y8229600D03*
G01*
X6121552Y8077403D03*
G01*
X5867400Y8077200D03*
G01*
X6121552Y7772603D03*
G01*
X5867400Y7772400D03*
G01*
X7239152Y10007803D03*
G01*
X6985000Y10007600D03*
G01*
X7239152Y9703003D03*
G01*
X6985000Y9702800D03*
G01*
X7239152Y9398203D03*
G01*
X6985000Y9398000D03*
G01*
X7239152Y9093403D03*
G01*
X6985000Y9093200D03*
G01*
X7239152Y8788603D03*
G01*
X6985000Y8788400D03*
G01*
X7239152Y8483803D03*
G01*
X6985000Y8483600D03*
G01*
X7747152Y8941003D03*
G01*
X7493000Y8940800D03*
G01*
X8509152Y13259003D03*
G01*
X8255000Y13258800D03*
G01*
X8509152Y12954203D03*
G01*
X8255000Y12954000D03*
G01*
X9017152Y12801803D03*
G01*
X8763000Y12801600D03*
G01*
X8509152Y12649403D03*
G01*
X8255000Y12649200D03*
G01*
X8509152Y12344603D03*
G01*
X8255000Y12344400D03*
G01*
X8509152Y11938203D03*
G01*
X8255000Y11938000D03*
G01*
X8509152Y11633403D03*
G01*
X8255000Y11633200D03*
G01*
X8509152Y11328603D03*
G01*
X8255000Y11328400D03*
G01*
X8509152Y11023803D03*
G01*
X8255000Y11023600D03*
G01*
X8509152Y10719003D03*
G01*
X8255000Y10718800D03*
G01*
X8509152Y10414203D03*
G01*
X8255000Y10414000D03*
G01*
X9017152Y10871403D03*
G01*
X8763000Y10871200D03*
G01*
X8509152Y10007803D03*
G01*
X8255000Y10007600D03*
G01*
X8509152Y9703003D03*
G01*
X8255000Y9702800D03*
G01*
X8509152Y9398203D03*
G01*
X8255000Y9398000D03*
G01*
X8509152Y9093403D03*
G01*
X8255000Y9093200D03*
G01*
X8509152Y8788603D03*
G01*
X8255000Y8788400D03*
G01*
X8509152Y8483803D03*
G01*
X8255000Y8483600D03*
G01*
X9017152Y8941003D03*
G01*
X8763000Y8940800D03*
G01*
X8509152Y8077403D03*
G01*
X8255000Y8077200D03*
G01*
X8509152Y7772603D03*
G01*
X8255000Y7772400D03*
G01*
X9626752Y13259003D03*
G01*
X9372600Y13258800D03*
G01*
X9626752Y12954203D03*
G01*
X9372600Y12954000D03*
G01*
X9626752Y12649403D03*
G01*
X9372600Y12649200D03*
G01*
X9626752Y12344603D03*
G01*
X9372600Y12344400D03*
G01*
X9626752Y12039803D03*
G01*
X9372600Y12039600D03*
G01*
X9626752Y11735003D03*
G01*
X9372600Y11734800D03*
G01*
X10134752Y12192203D03*
G01*
X9880600Y12192000D03*
G01*
X10744352Y13259003D03*
G01*
X10490200Y13258800D03*
G01*
X10744352Y12954203D03*
G01*
X10490200Y12954000D03*
G01*
X11252352Y12801803D03*
G01*
X10998200Y12801600D03*
G01*
X10744352Y12649403D03*
G01*
X10490200Y12649200D03*
G01*
X10744352Y12344603D03*
G01*
X10490200Y12344400D03*
G01*
X9626752Y11328603D03*
G01*
X9372600Y11328400D03*
G01*
X9626752Y11023803D03*
G01*
X9372600Y11023600D03*
G01*
X9626752Y10719003D03*
G01*
X9372600Y10718800D03*
G01*
X9626752Y10414203D03*
G01*
X9372600Y10414000D03*
G01*
X9626752Y10109403D03*
G01*
X9372600Y10109200D03*
G01*
X9626752Y9804603D03*
G01*
X9372600Y9804400D03*
G01*
X10134752Y10261803D03*
G01*
X9880600Y10261600D03*
G01*
X9626752Y9398203D03*
G01*
X9372600Y9398000D03*
G01*
X9626752Y9093403D03*
G01*
X9372600Y9093200D03*
G01*
X10744352Y11938203D03*
G01*
X10490200Y11938000D03*
G01*
X10744352Y11633403D03*
G01*
X10490200Y11633200D03*
G01*
X10744352Y11328603D03*
G01*
X10490200Y11328400D03*
G01*
X10744352Y11023803D03*
G01*
X10490200Y11023600D03*
G01*
X10744352Y10719003D03*
G01*
X10490200Y10718800D03*
G01*
X10744352Y10414203D03*
G01*
X10490200Y10414000D03*
G01*
X11252352Y10871403D03*
G01*
X10998200Y10871200D03*
G01*
X9626752Y8687003D03*
G01*
X9372600Y8686800D03*
G01*
X9626752Y8382203D03*
G01*
X9372600Y8382000D03*
G01*
X10134752Y8229803D03*
G01*
X9880600Y8229600D03*
G01*
X9626752Y8077403D03*
G01*
X9372600Y8077200D03*
G01*
X9626752Y7772603D03*
G01*
X9372600Y7772400D03*
G01*
X10744352Y10007803D03*
G01*
X10490200Y10007600D03*
G01*
X10744352Y9703003D03*
G01*
X10490200Y9702800D03*
G01*
X10744352Y9398203D03*
G01*
X10490200Y9398000D03*
G01*
X10744352Y9093403D03*
G01*
X10490200Y9093200D03*
G01*
X10744352Y8788603D03*
G01*
X10490200Y8788400D03*
G01*
X10744352Y8483803D03*
G01*
X10490200Y8483600D03*
G01*
X11252352Y8941003D03*
G01*
X10998200Y8940800D03*
G01*
X12014352Y13259003D03*
G01*
X11760200Y13258800D03*
G01*
X12014352Y12954203D03*
G01*
X11760200Y12954000D03*
G01*
X12522352Y12801803D03*
G01*
X12268200Y12801600D03*
G01*
X12014352Y12649403D03*
G01*
X11760200Y12649200D03*
G01*
X12014352Y12344603D03*
G01*
X11760200Y12344400D03*
G01*
X12014352Y11938203D03*
G01*
X11760200Y11938000D03*
G01*
X12014352Y11633403D03*
G01*
X11760200Y11633200D03*
G01*
X12014352Y11328603D03*
G01*
X11760200Y11328400D03*
G01*
X12014352Y11023803D03*
G01*
X11760200Y11023600D03*
G01*
X12014352Y10719003D03*
G01*
X11760200Y10718800D03*
G01*
X12014352Y10414203D03*
G01*
X11760200Y10414000D03*
G01*
X12522352Y10871403D03*
G01*
X12268200Y10871200D03*
G01*
X12014352Y10007803D03*
G01*
X11760200Y10007600D03*
G01*
X12014352Y9703003D03*
G01*
X11760200Y9702800D03*
G01*
X12014352Y9398203D03*
G01*
X11760200Y9398000D03*
G01*
X12014352Y9093403D03*
G01*
X11760200Y9093200D03*
G01*
X12014352Y8788603D03*
G01*
X11760200Y8788400D03*
G01*
X12014352Y8483803D03*
G01*
X11760200Y8483600D03*
G01*
X12522352Y8941003D03*
G01*
X12268200Y8940800D03*
G01*
X12014352Y8077403D03*
G01*
X11760200Y8077200D03*
G01*
X12014352Y7772603D03*
G01*
X11760200Y7772400D03*
G01*
X13131952Y13259003D03*
G01*
X12877800Y13258800D03*
G01*
X13131952Y12954203D03*
G01*
X12877800Y12954000D03*
G01*
X13131952Y12649403D03*
G01*
X12877800Y12649200D03*
G01*
X13131952Y12344603D03*
G01*
X12877800Y12344400D03*
G01*
X13131952Y12039803D03*
G01*
X12877800Y12039600D03*
G01*
X13131952Y11735003D03*
G01*
X12877800Y11734800D03*
G01*
X13639952Y12192203D03*
G01*
X13385800Y12192000D03*
G01*
X14249552Y13259003D03*
G01*
X13995400Y13258800D03*
G01*
X14249552Y12954203D03*
G01*
X13995400Y12954000D03*
G01*
X14757552Y12801803D03*
G01*
X14503400Y12801600D03*
G01*
X14249552Y12649403D03*
G01*
X13995400Y12649200D03*
G01*
X14249552Y12344603D03*
G01*
X13995400Y12344400D03*
G01*
X13131952Y11328603D03*
G01*
X12877800Y11328400D03*
G01*
X13131952Y11023803D03*
G01*
X12877800Y11023600D03*
G01*
X13131952Y10719003D03*
G01*
X12877800Y10718800D03*
G01*
X13131952Y10414203D03*
G01*
X12877800Y10414000D03*
G01*
X13131952Y10109403D03*
G01*
X12877800Y10109200D03*
G01*
X13131952Y9804603D03*
G01*
X12877800Y9804400D03*
G01*
X13639952Y10261803D03*
G01*
X13385800Y10261600D03*
G01*
X13131952Y9398203D03*
G01*
X12877800Y9398000D03*
G01*
X13131952Y9093403D03*
G01*
X12877800Y9093200D03*
G01*
X14249552Y11938203D03*
G01*
X13995400Y11938000D03*
G01*
X14249552Y11633403D03*
G01*
X13995400Y11633200D03*
G01*
X14249552Y11328603D03*
G01*
X13995400Y11328400D03*
G01*
X14249552Y11023803D03*
G01*
X13995400Y11023600D03*
G01*
X14249552Y10719003D03*
G01*
X13995400Y10718800D03*
G01*
X14249552Y10414203D03*
G01*
X13995400Y10414000D03*
G01*
X14757552Y10871403D03*
G01*
X14503400Y10871200D03*
G01*
X13131952Y8687003D03*
G01*
X12877800Y8686800D03*
G01*
X13131952Y8382203D03*
G01*
X12877800Y8382000D03*
G01*
X13639952Y8229803D03*
G01*
X13385800Y8229600D03*
G01*
X13131952Y8077403D03*
G01*
X12877800Y8077200D03*
G01*
X13131952Y7772603D03*
G01*
X12877800Y7772400D03*
G01*
X14249552Y10007803D03*
G01*
X13995400Y10007600D03*
G01*
X14249552Y9703003D03*
G01*
X13995400Y9702800D03*
G01*
X14249552Y9398203D03*
G01*
X13995400Y9398000D03*
G01*
X14249552Y9093403D03*
G01*
X13995400Y9093200D03*
G01*
X14249552Y8788603D03*
G01*
X13995400Y8788400D03*
G01*
X14249552Y8483803D03*
G01*
X13995400Y8483600D03*
G01*
X14757552Y8941003D03*
G01*
X14503400Y8940800D03*
G01*
X1498752Y7264603D03*
G01*
X1244600Y7264400D03*
G01*
X1498752Y6959803D03*
G01*
X1244600Y6959600D03*
G01*
X2006752Y6807403D03*
G01*
X1752600Y6807200D03*
G01*
X1498752Y6655003D03*
G01*
X1244600Y6654800D03*
G01*
X1498752Y6350203D03*
G01*
X1244600Y6350000D03*
G01*
X1498752Y5943803D03*
G01*
X1244600Y5943600D03*
G01*
X1498752Y5639003D03*
G01*
X1244600Y5638800D03*
G01*
X1498752Y5334203D03*
G01*
X1244600Y5334000D03*
G01*
X1498752Y5029403D03*
G01*
X1244600Y5029200D03*
G01*
X1498752Y4724603D03*
G01*
X1244600Y4724400D03*
G01*
X1498752Y4419803D03*
G01*
X1244600Y4419600D03*
G01*
X2006752Y4877003D03*
G01*
X1752600Y4876800D03*
G01*
X1498752Y4013403D03*
G01*
X1244600Y4013200D03*
G01*
X1498752Y3708603D03*
G01*
X1244600Y3708400D03*
G01*
X1498752Y3403803D03*
G01*
X1244600Y3403600D03*
G01*
X1498752Y3099003D03*
G01*
X1244600Y3098800D03*
G01*
X1498752Y2794203D03*
G01*
X1244600Y2794000D03*
G01*
X1498752Y2489403D03*
G01*
X1244600Y2489200D03*
G01*
X2006752Y2946603D03*
G01*
X1752600Y2946400D03*
G01*
X1498752Y2083003D03*
G01*
X1244600Y2082800D03*
G01*
X1498752Y1778203D03*
G01*
X1244600Y1778000D03*
G01*
X2616352Y7264603D03*
G01*
X2362200Y7264400D03*
G01*
X2616352Y6959803D03*
G01*
X2362200Y6959600D03*
G01*
X2616352Y6655003D03*
G01*
X2362200Y6654800D03*
G01*
X2616352Y6350203D03*
G01*
X2362200Y6350000D03*
G01*
X2616352Y6045403D03*
G01*
X2362200Y6045200D03*
G01*
X2616352Y5740603D03*
G01*
X2362200Y5740400D03*
G01*
X3124352Y6197803D03*
G01*
X2870200Y6197600D03*
G01*
X3733952Y7264603D03*
G01*
X3479800Y7264400D03*
G01*
X3733952Y6959803D03*
G01*
X3479800Y6959600D03*
G01*
X4241952Y6807403D03*
G01*
X3987800Y6807200D03*
G01*
X3733952Y6655003D03*
G01*
X3479800Y6654800D03*
G01*
X3733952Y6350203D03*
G01*
X3479800Y6350000D03*
G01*
X2616352Y5334203D03*
G01*
X2362200Y5334000D03*
G01*
X2616352Y5029403D03*
G01*
X2362200Y5029200D03*
G01*
X2616352Y4724603D03*
G01*
X2362200Y4724400D03*
G01*
X2616352Y4419803D03*
G01*
X2362200Y4419600D03*
G01*
X2616352Y4115003D03*
G01*
X2362200Y4114800D03*
G01*
X2616352Y3810203D03*
G01*
X2362200Y3810000D03*
G01*
X3124352Y4267403D03*
G01*
X2870200Y4267200D03*
G01*
X2616352Y3403803D03*
G01*
X2362200Y3403600D03*
G01*
X2616352Y3099003D03*
G01*
X2362200Y3098800D03*
G01*
X3733952Y5943803D03*
G01*
X3479800Y5943600D03*
G01*
X3733952Y5639003D03*
G01*
X3479800Y5638800D03*
G01*
X3733952Y5334203D03*
G01*
X3479800Y5334000D03*
G01*
X3733952Y5029403D03*
G01*
X3479800Y5029200D03*
G01*
X3733952Y4724603D03*
G01*
X3479800Y4724400D03*
G01*
X3733952Y4419803D03*
G01*
X3479800Y4419600D03*
G01*
X4241952Y4877003D03*
G01*
X3987800Y4876800D03*
G01*
X2616352Y2692603D03*
G01*
X2362200Y2692400D03*
G01*
X2616352Y2387803D03*
G01*
X2362200Y2387600D03*
G01*
X3124352Y2235403D03*
G01*
X2870200Y2235200D03*
G01*
X2616352Y2083003D03*
G01*
X2362200Y2082800D03*
G01*
X2616352Y1778203D03*
G01*
X2362200Y1778000D03*
G01*
X3733952Y4013403D03*
G01*
X3479800Y4013200D03*
G01*
X3733952Y3708603D03*
G01*
X3479800Y3708400D03*
G01*
X3733952Y3403803D03*
G01*
X3479800Y3403600D03*
G01*
X3733952Y3099003D03*
G01*
X3479800Y3098800D03*
G01*
X3733952Y2794203D03*
G01*
X3479800Y2794000D03*
G01*
X3733952Y2489403D03*
G01*
X3479800Y2489200D03*
G01*
X4241952Y2946603D03*
G01*
X3987800Y2946400D03*
G01*
X5003952Y7264603D03*
G01*
X4749800Y7264400D03*
G01*
X5003952Y6959803D03*
G01*
X4749800Y6959600D03*
G01*
X5511952Y6807403D03*
G01*
X5257800Y6807200D03*
G01*
X5003952Y6655003D03*
G01*
X4749800Y6654800D03*
G01*
X5003952Y6350203D03*
G01*
X4749800Y6350000D03*
G01*
X5003952Y5943803D03*
G01*
X4749800Y5943600D03*
G01*
X5003952Y5639003D03*
G01*
X4749800Y5638800D03*
G01*
X5003952Y5334203D03*
G01*
X4749800Y5334000D03*
G01*
X5003952Y5029403D03*
G01*
X4749800Y5029200D03*
G01*
X5003952Y4724603D03*
G01*
X4749800Y4724400D03*
G01*
X5003952Y4419803D03*
G01*
X4749800Y4419600D03*
G01*
X5511952Y4877003D03*
G01*
X5257800Y4876800D03*
G01*
X5003952Y4013403D03*
G01*
X4749800Y4013200D03*
G01*
X5003952Y3708603D03*
G01*
X4749800Y3708400D03*
G01*
X5003952Y3403803D03*
G01*
X4749800Y3403600D03*
G01*
X5003952Y3099003D03*
G01*
X4749800Y3098800D03*
G01*
X5003952Y2794203D03*
G01*
X4749800Y2794000D03*
G01*
X5003952Y2489403D03*
G01*
X4749800Y2489200D03*
G01*
X5511952Y2946603D03*
G01*
X5257800Y2946400D03*
G01*
X5003952Y2083003D03*
G01*
X4749800Y2082800D03*
G01*
X5003952Y1778203D03*
G01*
X4749800Y1778000D03*
G01*
X6121552Y7264603D03*
G01*
X5867400Y7264400D03*
G01*
X6121552Y6959803D03*
G01*
X5867400Y6959600D03*
G01*
X6121552Y6655003D03*
G01*
X5867400Y6654800D03*
G01*
X6121552Y6350203D03*
G01*
X5867400Y6350000D03*
G01*
X6121552Y6045403D03*
G01*
X5867400Y6045200D03*
G01*
X6121552Y5740603D03*
G01*
X5867400Y5740400D03*
G01*
X6629552Y6197803D03*
G01*
X6375400Y6197600D03*
G01*
X7239152Y7264603D03*
G01*
X6985000Y7264400D03*
G01*
X7239152Y6959803D03*
G01*
X6985000Y6959600D03*
G01*
X7747152Y6807403D03*
G01*
X7493000Y6807200D03*
G01*
X7239152Y6655003D03*
G01*
X6985000Y6654800D03*
G01*
X7239152Y6350203D03*
G01*
X6985000Y6350000D03*
G01*
X6121552Y5334203D03*
G01*
X5867400Y5334000D03*
G01*
X6121552Y5029403D03*
G01*
X5867400Y5029200D03*
G01*
X6121552Y4724603D03*
G01*
X5867400Y4724400D03*
G01*
X6121552Y4419803D03*
G01*
X5867400Y4419600D03*
G01*
X6121552Y4115003D03*
G01*
X5867400Y4114800D03*
G01*
X6121552Y3810203D03*
G01*
X5867400Y3810000D03*
G01*
X6629552Y4267403D03*
G01*
X6375400Y4267200D03*
G01*
X6121552Y3403803D03*
G01*
X5867400Y3403600D03*
G01*
X6121552Y3099003D03*
G01*
X5867400Y3098800D03*
G01*
X7239152Y5943803D03*
G01*
X6985000Y5943600D03*
G01*
X7239152Y5639003D03*
G01*
X6985000Y5638800D03*
G01*
X7239152Y5334203D03*
G01*
X6985000Y5334000D03*
G01*
X7239152Y5029403D03*
G01*
X6985000Y5029200D03*
G01*
X7239152Y4724603D03*
G01*
X6985000Y4724400D03*
G01*
X7239152Y4419803D03*
G01*
X6985000Y4419600D03*
G01*
X7747152Y4877003D03*
G01*
X7493000Y4876800D03*
G01*
X6121552Y2692603D03*
G01*
X5867400Y2692400D03*
G01*
X6121552Y2387803D03*
G01*
X5867400Y2387600D03*
G01*
X6629552Y2235403D03*
G01*
X6375400Y2235200D03*
G01*
X6121552Y2083003D03*
G01*
X5867400Y2082800D03*
G01*
X6121552Y1778203D03*
G01*
X5867400Y1778000D03*
G01*
X7239152Y4013403D03*
G01*
X6985000Y4013200D03*
G01*
X7239152Y3708603D03*
G01*
X6985000Y3708400D03*
G01*
X7239152Y3403803D03*
G01*
X6985000Y3403600D03*
G01*
X7239152Y3099003D03*
G01*
X6985000Y3098800D03*
G01*
X7239152Y2794203D03*
G01*
X6985000Y2794000D03*
G01*
X7239152Y2489403D03*
G01*
X6985000Y2489200D03*
G01*
X7747152Y2946603D03*
G01*
X7493000Y2946400D03*
G01*
X8509152Y7264603D03*
G01*
X8255000Y7264400D03*
G01*
X8509152Y6959803D03*
G01*
X8255000Y6959600D03*
G01*
X9017152Y6807403D03*
G01*
X8763000Y6807200D03*
G01*
X8509152Y6655003D03*
G01*
X8255000Y6654800D03*
G01*
X8509152Y6350203D03*
G01*
X8255000Y6350000D03*
G01*
X8509152Y5943803D03*
G01*
X8255000Y5943600D03*
G01*
X8509152Y5639003D03*
G01*
X8255000Y5638800D03*
G01*
X8509152Y5334203D03*
G01*
X8255000Y5334000D03*
G01*
X8509152Y5029403D03*
G01*
X8255000Y5029200D03*
G01*
X8509152Y4724603D03*
G01*
X8255000Y4724400D03*
G01*
X8509152Y4419803D03*
G01*
X8255000Y4419600D03*
G01*
X9017152Y4877003D03*
G01*
X8763000Y4876800D03*
G01*
X8509152Y4013403D03*
G01*
X8255000Y4013200D03*
G01*
X8509152Y3708603D03*
G01*
X8255000Y3708400D03*
G01*
X8509152Y3403803D03*
G01*
X8255000Y3403600D03*
G01*
X8509152Y3099003D03*
G01*
X8255000Y3098800D03*
G01*
X8509152Y2794203D03*
G01*
X8255000Y2794000D03*
G01*
X8509152Y2489403D03*
G01*
X8255000Y2489200D03*
G01*
X9017152Y2946603D03*
G01*
X8763000Y2946400D03*
G01*
X8509152Y2083003D03*
G01*
X8255000Y2082800D03*
G01*
X8509152Y1778203D03*
G01*
X8255000Y1778000D03*
G01*
X9626752Y7264603D03*
G01*
X9372600Y7264400D03*
G01*
X9626752Y6959803D03*
G01*
X9372600Y6959600D03*
G01*
X9626752Y6655003D03*
G01*
X9372600Y6654800D03*
G01*
X9626752Y6350203D03*
G01*
X9372600Y6350000D03*
G01*
X9626752Y6045403D03*
G01*
X9372600Y6045200D03*
G01*
X9626752Y5740603D03*
G01*
X9372600Y5740400D03*
G01*
X10134752Y6197803D03*
G01*
X9880600Y6197600D03*
G01*
X10744352Y7264603D03*
G01*
X10490200Y7264400D03*
G01*
X10744352Y6959803D03*
G01*
X10490200Y6959600D03*
G01*
X11252352Y6807403D03*
G01*
X10998200Y6807200D03*
G01*
X10744352Y6655003D03*
G01*
X10490200Y6654800D03*
G01*
X10744352Y6350203D03*
G01*
X10490200Y6350000D03*
G01*
X9626752Y5334203D03*
G01*
X9372600Y5334000D03*
G01*
X9626752Y5029403D03*
G01*
X9372600Y5029200D03*
G01*
X9626752Y4724603D03*
G01*
X9372600Y4724400D03*
G01*
X9626752Y4419803D03*
G01*
X9372600Y4419600D03*
G01*
X9626752Y4115003D03*
G01*
X9372600Y4114800D03*
G01*
X9626752Y3810203D03*
G01*
X9372600Y3810000D03*
G01*
X10134752Y4267403D03*
G01*
X9880600Y4267200D03*
G01*
X9626752Y3403803D03*
G01*
X9372600Y3403600D03*
G01*
X9626752Y3099003D03*
G01*
X9372600Y3098800D03*
G01*
X10744352Y5943803D03*
G01*
X10490200Y5943600D03*
G01*
X10744352Y5639003D03*
G01*
X10490200Y5638800D03*
G01*
X10744352Y5334203D03*
G01*
X10490200Y5334000D03*
G01*
X10744352Y5029403D03*
G01*
X10490200Y5029200D03*
G01*
X10744352Y4724603D03*
G01*
X10490200Y4724400D03*
G01*
X10744352Y4419803D03*
G01*
X10490200Y4419600D03*
G01*
X11252352Y4877003D03*
G01*
X10998200Y4876800D03*
G01*
X9626752Y2692603D03*
G01*
X9372600Y2692400D03*
G01*
X9626752Y2387803D03*
G01*
X9372600Y2387600D03*
G01*
X10134752Y2235403D03*
G01*
X9880600Y2235200D03*
G01*
X9626752Y2083003D03*
G01*
X9372600Y2082800D03*
G01*
X9626752Y1778203D03*
G01*
X9372600Y1778000D03*
G01*
X10744352Y4013403D03*
G01*
X10490200Y4013200D03*
G01*
X10744352Y3708603D03*
G01*
X10490200Y3708400D03*
G01*
X10744352Y3403803D03*
G01*
X10490200Y3403600D03*
G01*
X10744352Y3099003D03*
G01*
X10490200Y3098800D03*
G01*
X10744352Y2794203D03*
G01*
X10490200Y2794000D03*
G01*
X10744352Y2489403D03*
G01*
X10490200Y2489200D03*
G01*
X11252352Y2946603D03*
G01*
X10998200Y2946400D03*
G01*
X12014352Y7264603D03*
G01*
X11760200Y7264400D03*
G01*
X12014352Y6959803D03*
G01*
X11760200Y6959600D03*
G01*
X12522352Y6807403D03*
G01*
X12268200Y6807200D03*
G01*
X12014352Y6655003D03*
G01*
X11760200Y6654800D03*
G01*
X12014352Y6350203D03*
G01*
X11760200Y6350000D03*
G01*
X12014352Y5943803D03*
G01*
X11760200Y5943600D03*
G01*
X12014352Y5639003D03*
G01*
X11760200Y5638800D03*
G01*
X12014352Y5334203D03*
G01*
X11760200Y5334000D03*
G01*
X12014352Y5029403D03*
G01*
X11760200Y5029200D03*
G01*
X12014352Y4724603D03*
G01*
X11760200Y4724400D03*
G01*
X12014352Y4419803D03*
G01*
X11760200Y4419600D03*
G01*
X12522352Y4877003D03*
G01*
X12268200Y4876800D03*
G01*
X12014352Y4013403D03*
G01*
X11760200Y4013200D03*
G01*
X12014352Y3708603D03*
G01*
X11760200Y3708400D03*
G01*
X12014352Y3403803D03*
G01*
X11760200Y3403600D03*
G01*
X12014352Y3099003D03*
G01*
X11760200Y3098800D03*
G01*
X12014352Y2794203D03*
G01*
X11760200Y2794000D03*
G01*
X12014352Y2489403D03*
G01*
X11760200Y2489200D03*
G01*
X12522352Y2946603D03*
G01*
X12268200Y2946400D03*
G01*
X12014352Y2083003D03*
G01*
X11760200Y2082800D03*
G01*
X12014352Y1778203D03*
G01*
X11760200Y1778000D03*
G01*
X13131952Y7264603D03*
G01*
X12877800Y7264400D03*
G01*
X13131952Y6959803D03*
G01*
X12877800Y6959600D03*
G01*
X13131952Y6655003D03*
G01*
X12877800Y6654800D03*
G01*
X13131952Y6350203D03*
G01*
X12877800Y6350000D03*
G01*
X13131952Y6045403D03*
G01*
X12877800Y6045200D03*
G01*
X13131952Y5740603D03*
G01*
X12877800Y5740400D03*
G01*
X13639952Y6197803D03*
G01*
X13385800Y6197600D03*
G01*
X14249552Y7264603D03*
G01*
X13995400Y7264400D03*
G01*
X14249552Y6959803D03*
G01*
X13995400Y6959600D03*
G01*
X14757552Y6807403D03*
G01*
X14503400Y6807200D03*
G01*
X14249552Y6655003D03*
G01*
X13995400Y6654800D03*
G01*
X14249552Y6350203D03*
G01*
X13995400Y6350000D03*
G01*
X13131952Y5334203D03*
G01*
X12877800Y5334000D03*
G01*
X13131952Y5029403D03*
G01*
X12877800Y5029200D03*
G01*
X13131952Y4724603D03*
G01*
X12877800Y4724400D03*
G01*
X13131952Y4419803D03*
G01*
X12877800Y4419600D03*
G01*
X13131952Y4115003D03*
G01*
X12877800Y4114800D03*
G01*
X13131952Y3810203D03*
G01*
X12877800Y3810000D03*
G01*
X13639952Y4267403D03*
G01*
X13385800Y4267200D03*
G01*
X13131952Y3403803D03*
G01*
X12877800Y3403600D03*
G01*
X13131952Y3099003D03*
G01*
X12877800Y3098800D03*
G01*
X14249552Y5943803D03*
G01*
X13995400Y5943600D03*
G01*
X14249552Y5639003D03*
G01*
X13995400Y5638800D03*
G01*
X14249552Y5334203D03*
G01*
X13995400Y5334000D03*
G01*
X14249552Y5029403D03*
G01*
X13995400Y5029200D03*
G01*
X14249552Y4724603D03*
G01*
X13995400Y4724400D03*
G01*
X14249552Y4419803D03*
G01*
X13995400Y4419600D03*
G01*
X14757552Y4877003D03*
G01*
X14503400Y4876800D03*
G01*
X13131952Y2692603D03*
G01*
X12877800Y2692400D03*
G01*
X13131952Y2387803D03*
G01*
X12877800Y2387600D03*
G01*
X13639952Y2235403D03*
G01*
X13385800Y2235200D03*
G01*
X13131952Y2083003D03*
G01*
X12877800Y2082800D03*
G01*
X13131952Y1778203D03*
G01*
X12877800Y1778000D03*
G01*
X14249552Y4013403D03*
G01*
X13995400Y4013200D03*
G01*
X14249552Y3708603D03*
G01*
X13995400Y3708400D03*
G01*
X14249552Y3403803D03*
G01*
X13995400Y3403600D03*
G01*
X14249552Y3099003D03*
G01*
X13995400Y3098800D03*
G01*
X14249552Y2794203D03*
G01*
X13995400Y2794000D03*
G01*
X14249552Y2489403D03*
G01*
X13995400Y2489200D03*
G01*
X14757552Y2946603D03*
G01*
X14503400Y2946400D03*
G01*
X5003952Y14071803D03*
G01*
X4749800Y14071600D03*
G01*
X5003952Y13767003D03*
G01*
X4749800Y13766800D03*
G01*
X6121552Y14071803D03*
G01*
X5867400Y14071600D03*
G01*
X6121552Y13767003D03*
G01*
X5867400Y13766800D03*
G01*
X7239152Y14071803D03*
G01*
X6985000Y14071600D03*
G01*
X7239152Y13767003D03*
G01*
X6985000Y13766800D03*
G01*
X8356752Y14071803D03*
G01*
X8102600Y14071600D03*
G01*
X8356752Y13767003D03*
G01*
X8102600Y13766800D03*
M02*
