G04 Layer: BottomSilkLayer*
G04 EasyEDA v6.4.25, 2022-01-15T20:32:25+01:00*
G04 2c2a71fe580c4e68b1cb8046fcba8f35,bb3cfcbffc6840158e79d7648404357e,10*
G04 Gerber Generator version 0.2*
G04 Scale: 100 percent, Rotated: No, Reflected: No *
G04 Dimensions in millimeters *
G04 leading zeros omitted , absolute positions ,4 integer and 5 decimal *
%FSLAX45Y45*%
%MOMM*%

%ADD19C,0.2000*%

%LPD*%
D19*
X15324109Y14306481D02*
G01*
X15333200Y14315572D01*
X15346837Y14324662D01*
X15365018Y14333753D01*
X15387746Y14338300D01*
X15405928Y14338300D01*
X15428653Y14333753D01*
X15446837Y14324662D01*
X15460472Y14315572D01*
X15469562Y14306481D01*
X15387746Y14221937D02*
G01*
X15378653Y14231028D01*
X15374109Y14240118D01*
X15374109Y14253753D01*
X15378653Y14262844D01*
X15387746Y14271937D01*
X15401381Y14276481D01*
X15410472Y14276481D01*
X15424109Y14271937D01*
X15433200Y14262844D01*
X15437746Y14253753D01*
X15437746Y14240118D01*
X15433200Y14231028D01*
X15424109Y14221937D01*
X15324109Y14191937D02*
G01*
X15333200Y14182844D01*
X15346837Y14173753D01*
X15365018Y14164663D01*
X15387746Y14160119D01*
X15405928Y14160119D01*
X15428653Y14164663D01*
X15446837Y14173753D01*
X15460472Y14182844D01*
X15469562Y14191937D01*
X15365018Y14055572D02*
G01*
X15360472Y14055572D01*
X15351381Y14051028D01*
X15346837Y14046481D01*
X15342290Y14037391D01*
X15342290Y14019209D01*
X15346837Y14010119D01*
X15351381Y14005572D01*
X15360472Y14001026D01*
X15369562Y14001026D01*
X15378653Y14005572D01*
X15392290Y14014663D01*
X15437746Y14060119D01*
X15437746Y13996482D01*
X15342290Y13939210D02*
G01*
X15346837Y13952844D01*
X15360472Y13961935D01*
X15383200Y13966482D01*
X15396837Y13966482D01*
X15419562Y13961935D01*
X15433200Y13952844D01*
X15437746Y13939210D01*
X15437746Y13930116D01*
X15433200Y13916482D01*
X15419562Y13907391D01*
X15396837Y13902844D01*
X15383200Y13902844D01*
X15360472Y13907391D01*
X15346837Y13916482D01*
X15342290Y13930116D01*
X15342290Y13939210D01*
X15365018Y13868300D02*
G01*
X15360472Y13868300D01*
X15351381Y13863754D01*
X15346837Y13859210D01*
X15342290Y13850117D01*
X15342290Y13831935D01*
X15346837Y13822845D01*
X15351381Y13818301D01*
X15360472Y13813754D01*
X15369562Y13813754D01*
X15378653Y13818301D01*
X15392290Y13827391D01*
X15437746Y13872845D01*
X15437746Y13809207D01*
X15365018Y13774663D02*
G01*
X15360472Y13774663D01*
X15351381Y13770117D01*
X15346837Y13765573D01*
X15342290Y13756482D01*
X15342290Y13738301D01*
X15346837Y13729207D01*
X15351381Y13724663D01*
X15360472Y13720117D01*
X15369562Y13720117D01*
X15378653Y13724663D01*
X15392290Y13733754D01*
X15437746Y13779207D01*
X15437746Y13715573D01*
X15342290Y13615573D02*
G01*
X15437746Y13615573D01*
X15342290Y13551936D02*
G01*
X15405928Y13615573D01*
X15383200Y13592845D02*
G01*
X15437746Y13551936D01*
X15342290Y13494664D02*
G01*
X15346837Y13503755D01*
X15355928Y13512845D01*
X15365018Y13517389D01*
X15378653Y13521936D01*
X15401381Y13521936D01*
X15415018Y13517389D01*
X15424109Y13512845D01*
X15433200Y13503755D01*
X15437746Y13494664D01*
X15437746Y13476483D01*
X15433200Y13467389D01*
X15424109Y13458299D01*
X15415018Y13453755D01*
X15401381Y13449208D01*
X15378653Y13449208D01*
X15365018Y13453755D01*
X15355928Y13458299D01*
X15346837Y13467389D01*
X15342290Y13476483D01*
X15342290Y13494664D01*
X15342290Y13419208D02*
G01*
X15437746Y13419208D01*
X15342290Y13419208D02*
G01*
X15437746Y13382845D01*
X15342290Y13346480D02*
G01*
X15437746Y13382845D01*
X15342290Y13346480D02*
G01*
X15437746Y13346480D01*
X15342290Y13316480D02*
G01*
X15437746Y13316480D01*
X15342290Y13316480D02*
G01*
X15342290Y13257390D01*
X15387746Y13316480D02*
G01*
X15387746Y13280118D01*
X15437746Y13316480D02*
G01*
X15437746Y13257390D01*
X15342290Y13227390D02*
G01*
X15437746Y13227390D01*
X15342290Y13227390D02*
G01*
X15342290Y13195571D01*
X15346837Y13181937D01*
X15355928Y13172846D01*
X15365018Y13168299D01*
X15378653Y13163755D01*
X15401381Y13163755D01*
X15415018Y13168299D01*
X15424109Y13172846D01*
X15433200Y13181937D01*
X15437746Y13195571D01*
X15437746Y13227390D01*
X15342290Y13124662D02*
G01*
X15342290Y13074662D01*
X15378653Y13101937D01*
X15378653Y13088299D01*
X15383200Y13079209D01*
X15387746Y13074662D01*
X15401381Y13070118D01*
X15410472Y13070118D01*
X15424109Y13074662D01*
X15433200Y13083753D01*
X15437746Y13097390D01*
X15437746Y13111027D01*
X15433200Y13124662D01*
X15428653Y13129209D01*
X15419562Y13133755D01*
X15342290Y12798300D02*
G01*
X15437746Y12798300D01*
X15342290Y12830119D02*
G01*
X15342290Y12766481D01*
X15342290Y12736482D02*
G01*
X15437746Y12736482D01*
X15342290Y12736482D02*
G01*
X15342290Y12695572D01*
X15346837Y12681935D01*
X15351381Y12677391D01*
X15360472Y12672844D01*
X15369562Y12672844D01*
X15378653Y12677391D01*
X15383200Y12681935D01*
X15387746Y12695572D01*
X15387746Y12736482D01*
X15387746Y12704663D02*
G01*
X15437746Y12672844D01*
X15342290Y12642844D02*
G01*
X15437746Y12642844D01*
X15365018Y12544663D02*
G01*
X15355928Y12549210D01*
X15346837Y12558301D01*
X15342290Y12567391D01*
X15342290Y12585572D01*
X15346837Y12594663D01*
X15355928Y12603754D01*
X15365018Y12608300D01*
X15378653Y12612844D01*
X15401381Y12612844D01*
X15415018Y12608300D01*
X15424109Y12603754D01*
X15433200Y12594663D01*
X15437746Y12585572D01*
X15437746Y12567391D01*
X15433200Y12558301D01*
X15424109Y12549210D01*
X15415018Y12544663D01*
X15342290Y12487391D02*
G01*
X15346837Y12496482D01*
X15355928Y12505573D01*
X15365018Y12510117D01*
X15378653Y12514663D01*
X15401381Y12514663D01*
X15415018Y12510117D01*
X15424109Y12505573D01*
X15433200Y12496482D01*
X15437746Y12487391D01*
X15437746Y12469207D01*
X15433200Y12460117D01*
X15424109Y12451026D01*
X15415018Y12446482D01*
X15401381Y12441936D01*
X15378653Y12441936D01*
X15365018Y12446482D01*
X15355928Y12451026D01*
X15346837Y12460117D01*
X15342290Y12469207D01*
X15342290Y12487391D01*
X15342290Y12411936D02*
G01*
X15437746Y12411936D01*
X15342290Y12411936D02*
G01*
X15342290Y12371026D01*
X15346837Y12357392D01*
X15351381Y12352845D01*
X15360472Y12348298D01*
X15369562Y12348298D01*
X15378653Y12352845D01*
X15383200Y12357392D01*
X15387746Y12371026D01*
X15387746Y12411936D01*
X15387746Y12380117D02*
G01*
X15437746Y12348298D01*
X15342290Y12318298D02*
G01*
X15437746Y12318298D01*
X15342290Y12318298D02*
G01*
X15342290Y12259208D01*
X15387746Y12318298D02*
G01*
X15387746Y12281936D01*
X15437746Y12318298D02*
G01*
X15437746Y12259208D01*
X15469562Y12229208D02*
G01*
X15469562Y12147389D01*
X15342290Y12081027D02*
G01*
X15437746Y12117390D01*
X15342290Y12081027D02*
G01*
X15437746Y12044664D01*
X15405928Y12103755D02*
G01*
X15405928Y12058299D01*
X15342290Y12014664D02*
G01*
X15437746Y12014664D01*
X15437746Y12014664D02*
G01*
X15437746Y11960118D01*
X15342290Y11930118D02*
G01*
X15410472Y11930118D01*
X15424109Y11925571D01*
X15433200Y11916481D01*
X15437746Y11902846D01*
X15437746Y11893755D01*
X15433200Y11880118D01*
X15424109Y11871027D01*
X15410472Y11866481D01*
X15342290Y11866481D01*
X15469562Y11836481D02*
G01*
X15469562Y11754662D01*
X15342290Y11724662D02*
G01*
X15437746Y11724662D01*
X15437746Y11724662D02*
G01*
X15437746Y11670118D01*
X15342290Y11612844D02*
G01*
X15346837Y11621935D01*
X15355928Y11631028D01*
X15365018Y11635572D01*
X15378653Y11640118D01*
X15401381Y11640118D01*
X15415018Y11635572D01*
X15424109Y11631028D01*
X15433200Y11621935D01*
X15437746Y11612844D01*
X15437746Y11594663D01*
X15433200Y11585572D01*
X15424109Y11576481D01*
X15415018Y11571935D01*
X15401381Y11567391D01*
X15378653Y11567391D01*
X15365018Y11571935D01*
X15355928Y11576481D01*
X15346837Y11585572D01*
X15342290Y11594663D01*
X15342290Y11612844D01*
X15365018Y11469209D02*
G01*
X15355928Y11473754D01*
X15346837Y11482844D01*
X15342290Y11491935D01*
X15342290Y11510119D01*
X15346837Y11519209D01*
X15355928Y11528300D01*
X15365018Y11532844D01*
X15378653Y11537391D01*
X15401381Y11537391D01*
X15415018Y11532844D01*
X15424109Y11528300D01*
X15433200Y11519209D01*
X15437746Y11510119D01*
X15437746Y11491935D01*
X15433200Y11482844D01*
X15424109Y11473754D01*
X15415018Y11469209D01*
X15401381Y11469209D01*
X15401381Y11491935D02*
G01*
X15401381Y11469209D01*
X15342290Y11439210D02*
G01*
X15437746Y11439210D01*
X15365018Y11341026D02*
G01*
X15355928Y11345572D01*
X15346837Y11354663D01*
X15342290Y11363754D01*
X15342290Y11381935D01*
X15346837Y11391026D01*
X15355928Y11400119D01*
X15365018Y11404663D01*
X15378653Y11409210D01*
X15401381Y11409210D01*
X15415018Y11404663D01*
X15424109Y11400119D01*
X15433200Y11391026D01*
X15437746Y11381935D01*
X15437746Y11363754D01*
X15433200Y11354663D01*
X15424109Y11345572D01*
X15415018Y11341026D01*
X15396837Y11311026D02*
G01*
X15396837Y11229207D01*
X15360472Y11199207D02*
G01*
X15355928Y11190117D01*
X15342290Y11176482D01*
X15437746Y11176482D01*
X15415018Y11141936D02*
G01*
X15419562Y11146482D01*
X15424109Y11141936D01*
X15419562Y11137392D01*
X15415018Y11141936D01*
X15342290Y11098298D02*
G01*
X15342290Y11048298D01*
X15378653Y11075573D01*
X15378653Y11061936D01*
X15383200Y11052845D01*
X15387746Y11048298D01*
X15401381Y11043754D01*
X15410472Y11043754D01*
X15424109Y11048298D01*
X15433200Y11057392D01*
X15437746Y11071026D01*
X15437746Y11084664D01*
X15433200Y11098298D01*
X15428653Y11102845D01*
X15419562Y11107392D01*
X15365018Y10799208D02*
G01*
X15360472Y10799208D01*
X15351381Y10794664D01*
X15346837Y10790118D01*
X15342290Y10781027D01*
X15342290Y10762846D01*
X15346837Y10753755D01*
X15351381Y10749208D01*
X15360472Y10744664D01*
X15369562Y10744664D01*
X15378653Y10749208D01*
X15392290Y10758299D01*
X15437746Y10803755D01*
X15437746Y10740118D01*
X15342290Y10682846D02*
G01*
X15346837Y10696481D01*
X15360472Y10705571D01*
X15383200Y10710118D01*
X15396837Y10710118D01*
X15419562Y10705571D01*
X15433200Y10696481D01*
X15437746Y10682846D01*
X15437746Y10673755D01*
X15433200Y10660118D01*
X15419562Y10651027D01*
X15396837Y10646481D01*
X15383200Y10646481D01*
X15360472Y10651027D01*
X15346837Y10660118D01*
X15342290Y10673755D01*
X15342290Y10682846D01*
X15365018Y10611937D02*
G01*
X15360472Y10611937D01*
X15351381Y10607390D01*
X15346837Y10602846D01*
X15342290Y10593755D01*
X15342290Y10575571D01*
X15346837Y10566481D01*
X15351381Y10561937D01*
X15360472Y10557390D01*
X15369562Y10557390D01*
X15378653Y10561937D01*
X15392290Y10571027D01*
X15437746Y10616481D01*
X15437746Y10552846D01*
X15365018Y10518300D02*
G01*
X15360472Y10518300D01*
X15351381Y10513753D01*
X15346837Y10509209D01*
X15342290Y10500118D01*
X15342290Y10481937D01*
X15346837Y10472846D01*
X15351381Y10468300D01*
X15360472Y10463753D01*
X15369562Y10463753D01*
X15378653Y10468300D01*
X15392290Y10477390D01*
X15437746Y10522846D01*
X15437746Y10459209D01*
X15396837Y10429209D02*
G01*
X15396837Y10347391D01*
X15342290Y10290119D02*
G01*
X15346837Y10303753D01*
X15360472Y10312844D01*
X15383200Y10317391D01*
X15396837Y10317391D01*
X15419562Y10312844D01*
X15433200Y10303753D01*
X15437746Y10290119D01*
X15437746Y10281028D01*
X15433200Y10267391D01*
X15419562Y10258300D01*
X15396837Y10253753D01*
X15383200Y10253753D01*
X15360472Y10258300D01*
X15346837Y10267391D01*
X15342290Y10281028D01*
X15342290Y10290119D01*
X15360472Y10223754D02*
G01*
X15355928Y10214663D01*
X15342290Y10201026D01*
X15437746Y10201026D01*
X15396837Y10171026D02*
G01*
X15396837Y10089210D01*
X15360472Y10059210D02*
G01*
X15355928Y10050117D01*
X15342290Y10036482D01*
X15437746Y10036482D01*
X15342290Y9979207D02*
G01*
X15346837Y9992845D01*
X15360472Y10001935D01*
X15383200Y10006482D01*
X15396837Y10006482D01*
X15419562Y10001935D01*
X15433200Y9992845D01*
X15437746Y9979207D01*
X15437746Y9970117D01*
X15433200Y9956482D01*
X15419562Y9947391D01*
X15396837Y9942845D01*
X15383200Y9942845D01*
X15360472Y9947391D01*
X15346837Y9956482D01*
X15342290Y9970117D01*
X15342290Y9979207D01*
X15596361Y14292834D02*
G01*
X15669006Y14292834D01*
X15682722Y14297405D01*
X15687293Y14301978D01*
X15691866Y14311121D01*
X15691866Y14320012D01*
X15687293Y14329155D01*
X15682722Y14333728D01*
X15669006Y14338300D01*
X15659861Y14338300D01*
X15596361Y14262862D02*
G01*
X15691866Y14262862D01*
X15691866Y14262862D02*
G01*
X15691866Y14208252D01*
X15618968Y14110207D02*
G01*
X15609824Y14114779D01*
X15600934Y14123670D01*
X15596361Y14132813D01*
X15596361Y14151102D01*
X15600934Y14159992D01*
X15609824Y14169136D01*
X15618968Y14173707D01*
X15632684Y14178279D01*
X15655290Y14178279D01*
X15669006Y14173707D01*
X15678150Y14169136D01*
X15687293Y14159992D01*
X15691866Y14151102D01*
X15691866Y14132813D01*
X15687293Y14123670D01*
X15678150Y14114779D01*
X15669006Y14110207D01*
X15596361Y14034770D02*
G01*
X15669006Y14034770D01*
X15682722Y14039087D01*
X15687293Y14043660D01*
X15691866Y14052804D01*
X15691866Y14061947D01*
X15687293Y14071092D01*
X15682722Y14075663D01*
X15669006Y14080236D01*
X15659861Y14080236D01*
X15596361Y14004544D02*
G01*
X15691866Y14004544D01*
X15691866Y14004544D02*
G01*
X15691866Y13950187D01*
X15618968Y13851889D02*
G01*
X15609824Y13856462D01*
X15600934Y13865605D01*
X15596361Y13874750D01*
X15596361Y13892784D01*
X15600934Y13901928D01*
X15609824Y13911071D01*
X15618968Y13915644D01*
X15632684Y13920216D01*
X15655290Y13920216D01*
X15669006Y13915644D01*
X15678150Y13911071D01*
X15687293Y13901928D01*
X15691866Y13892784D01*
X15691866Y13874750D01*
X15687293Y13865605D01*
X15678150Y13856462D01*
X15669006Y13851889D01*
X15596361Y13776452D02*
G01*
X15669006Y13776452D01*
X15682722Y13781024D01*
X15687293Y13785595D01*
X15691866Y13794739D01*
X15691866Y13803629D01*
X15687293Y13812774D01*
X15682722Y13817345D01*
X15669006Y13821918D01*
X15659861Y13821918D01*
X15596361Y13746479D02*
G01*
X15691866Y13746479D01*
X15691866Y13746479D02*
G01*
X15691866Y13691870D01*
X15618968Y13593826D02*
G01*
X15609824Y13598397D01*
X15600934Y13607287D01*
X15596361Y13616431D01*
X15596361Y13634720D01*
X15600934Y13643863D01*
X15609824Y13652754D01*
X15618968Y13657326D01*
X15632684Y13661897D01*
X15655290Y13661897D01*
X15669006Y13657326D01*
X15678150Y13652754D01*
X15687293Y13643863D01*
X15691866Y13634720D01*
X15691866Y13616431D01*
X15687293Y13607287D01*
X15678150Y13598397D01*
X15669006Y13593826D01*
X15596361Y13518387D02*
G01*
X15669006Y13518387D01*
X15682722Y13522960D01*
X15687293Y13527278D01*
X15691866Y13536421D01*
X15691866Y13545566D01*
X15687293Y13554710D01*
X15682722Y13559281D01*
X15669006Y13563854D01*
X15659861Y13563854D01*
X15596361Y13488416D02*
G01*
X15691866Y13488416D01*
X15691866Y13488416D02*
G01*
X15691866Y13433805D01*
X15618968Y13335507D02*
G01*
X15609824Y13340079D01*
X15600934Y13349224D01*
X15596361Y13358368D01*
X15596361Y13376402D01*
X15600934Y13385545D01*
X15609824Y13394689D01*
X15618968Y13399262D01*
X15632684Y13403834D01*
X15655290Y13403834D01*
X15669006Y13399262D01*
X15678150Y13394689D01*
X15687293Y13385545D01*
X15691866Y13376402D01*
X15691866Y13358368D01*
X15687293Y13349224D01*
X15678150Y13340079D01*
X15669006Y13335507D01*
G36*
X15646400Y14744700D02*
G01*
X15544800Y14643100D01*
X15646400Y14541500D01*
X15748000Y14643100D01*
G37*
G36*
X15494000Y14897100D02*
G01*
X15392400Y14795500D01*
X15494000Y14693900D01*
X15595600Y14795500D01*
G37*
G36*
X15341600Y14744700D02*
G01*
X15240000Y14643100D01*
X15341600Y14541500D01*
X15443200Y14643100D01*
G37*
M02*
