M48
METRIC,LZ,000.000
;FILE_FORMAT=3:3
;TYPE=PLATED
;Layer: Drill PTH
;EasyEDA v6.4.25, 2022-01-10T22:55:27+01:00
;c91b8ae12e7f4fe5aead1a40e666ea9d,bb3cfcbffc6840158e79d7648404357e,10
;Gerber Generator version 0.2
;Holesize 1 = 0.306 mm
T01C0.306
;Holesize 2 = 0.701 mm
T02C0.701
;Holesize 3 = 0.889 mm
T03C0.889
;Holesize 4 = 0.901 mm
T04C0.901
;Holesize 5 = 0.966 mm
T05C0.966
;Holesize 6 = 1.000 mm
T06C1.000
%
G05
G90
T01
X118214Y111547
X050539Y142438
X045810Y150608
X044832Y144891
X049384Y145472
X084909Y143626
X048583Y143586
X115993Y110256
X051740Y142027
X078587Y099402
X051233Y108500
X043338Y131196
X057177Y135058
X014146Y156223
X149043Y157888
X152669Y052748
X044208Y146520
X032840Y135750
X020365Y149249
X046591Y143799
X116310Y132727
X113954Y125437
X078607Y095915
X149630Y025798
X145454Y023038
X121586Y138354
X014096Y008131
X011147Y005861
X014933Y151451
X038527Y014497
X133858Y140008
X149337Y101795
X133858Y137067
X063229Y154935
X131779Y139606
X129904Y141012
X136398Y140042
X095748Y139951
X137501Y156683
X124705Y154242
X124705Y151963
X149966Y155979
X137659Y157447
X021958Y133748
X087919Y143617
X051125Y144251
X138938Y140538
X096497Y139564
X137669Y140528
X148231Y021170
X138938Y156695
X141148Y136691
X043199Y148038
X047411Y143939
X025977Y149382
X073840Y096208
X142591Y137063
X066156Y152890
X042054Y155223
X027177Y153367
X142748Y140963
X091434Y074133
X015876Y134262
X043621Y101449
X114330Y073613
X104236Y015046
X078639Y015108
X025940Y134818
X043737Y082842
X045734Y033664
X043476Y088134
X045901Y142543
X043499Y140716
X114945Y110255
X115745Y072817
X047800Y151104
X097349Y054486
X125954Y106901
X014197Y130935
X047072Y133862
X045952Y113973
X046898Y146904
X051689Y134493
X054356Y134493
X128778Y137033
X131064Y137033
T02
X017526Y139700
X018796Y139700
X020066Y139700
X028702Y139700
X029972Y139700
X031242Y139700
X017526Y131572
X018796Y131572
X020066Y131572
X017526Y123444
X018796Y123444
X020066Y123444
X017526Y118364
X018796Y118364
X020066Y118364
X017526Y113792
X018796Y113792
X020066Y113792
X017526Y104140
X018796Y104140
X020066Y104140
X017526Y099060
X018796Y099060
X020066Y099060
X017526Y094488
X018796Y094488
X020066Y094488
X017526Y084836
X018796Y084836
X020066Y084836
X017526Y077724
X018796Y077724
X020066Y077724
X028702Y131572
X029972Y131572
X031242Y131572
X028702Y127000
X029972Y127000
X031242Y127000
X028702Y117348
X029972Y117348
X031242Y117348
X039878Y131572
X041148Y131572
X042418Y131572
X039878Y123444
X041148Y123444
X042418Y123444
X028702Y112268
X029972Y112268
X031242Y112268
X028702Y107696
X029972Y107696
X031242Y107696
X028702Y098044
X029972Y098044
X031242Y098044
X028702Y090932
X029972Y090932
X031242Y090932
X039878Y118364
X041148Y118364
X042418Y118364
X039878Y113792
X041148Y113792
X042418Y113792
X039878Y104140
X041148Y104140
X042418Y104140
X028702Y085852
X029972Y085852
X031242Y085852
X028702Y077724
X029972Y077724
X031242Y077724
X039878Y099060
X041148Y099060
X042418Y099060
X039878Y094488
X041148Y094488
X042418Y094488
X039878Y084836
X041148Y084836
X042418Y084836
X052578Y131572
X053848Y131572
X055118Y131572
X052578Y123444
X053848Y123444
X055118Y123444
X052578Y118364
X053848Y118364
X055118Y118364
X052578Y113792
X053848Y113792
X055118Y113792
X052578Y104140
X053848Y104140
X055118Y104140
X052578Y099060
X053848Y099060
X055118Y099060
X052578Y094488
X053848Y094488
X055118Y094488
X052578Y084836
X053848Y084836
X055118Y084836
X052578Y077724
X053848Y077724
X055118Y077724
X063754Y131572
X065024Y131572
X066294Y131572
X063754Y127000
X065024Y127000
X066294Y127000
X063754Y117348
X065024Y117348
X066294Y117348
X074930Y131572
X076200Y131572
X077470Y131572
X074930Y123444
X076200Y123444
X077470Y123444
X063754Y112268
X065024Y112268
X066294Y112268
X063754Y107696
X065024Y107696
X066294Y107696
X063754Y098044
X065024Y098044
X066294Y098044
X063754Y090932
X065024Y090932
X066294Y090932
X074930Y118364
X076200Y118364
X077470Y118364
X074930Y113792
X076200Y113792
X077470Y113792
X074930Y104140
X076200Y104140
X077470Y104140
X063754Y085852
X065024Y085852
X066294Y085852
X063754Y077724
X065024Y077724
X066294Y077724
X074930Y099060
X076200Y099060
X077470Y099060
X074930Y094488
X076200Y094488
X077470Y094488
X074930Y084836
X076200Y084836
X077470Y084836
X087630Y131572
X088900Y131572
X090170Y131572
X087630Y123444
X088900Y123444
X090170Y123444
X087630Y118364
X088900Y118364
X090170Y118364
X087630Y113792
X088900Y113792
X090170Y113792
X087630Y104140
X088900Y104140
X090170Y104140
X087630Y099060
X088900Y099060
X090170Y099060
X087630Y094488
X088900Y094488
X090170Y094488
X087630Y084836
X088900Y084836
X090170Y084836
X087630Y077724
X088900Y077724
X090170Y077724
X098806Y131572
X100076Y131572
X101346Y131572
X098806Y127000
X100076Y127000
X101346Y127000
X098806Y117348
X100076Y117348
X101346Y117348
X109982Y131572
X111252Y131572
X112522Y131572
X109982Y123444
X111252Y123444
X112522Y123444
X098806Y112268
X100076Y112268
X101346Y112268
X098806Y107696
X100076Y107696
X101346Y107696
X098806Y098044
X100076Y098044
X101346Y098044
X098806Y090932
X100076Y090932
X101346Y090932
X109982Y118364
X111252Y118364
X112522Y118364
X109982Y113792
X111252Y113792
X112522Y113792
X109982Y104140
X111252Y104140
X112522Y104140
X098806Y085852
X100076Y085852
X101346Y085852
X098806Y077724
X100076Y077724
X101346Y077724
X109982Y099060
X111252Y099060
X112522Y099060
X109982Y094488
X111252Y094488
X112522Y094488
X109982Y084836
X111252Y084836
X112522Y084836
X122682Y131572
X123952Y131572
X125222Y131572
X122682Y123444
X123952Y123444
X125222Y123444
X122682Y118364
X123952Y118364
X125222Y118364
X122682Y113792
X123952Y113792
X125222Y113792
X122682Y104140
X123952Y104140
X125222Y104140
X122682Y099060
X123952Y099060
X125222Y099060
X122682Y094488
X123952Y094488
X125222Y094488
X122682Y084836
X123952Y084836
X125222Y084836
X122682Y077724
X123952Y077724
X125222Y077724
X133858Y131572
X135128Y131572
X136398Y131572
X133858Y127000
X135128Y127000
X136398Y127000
X133858Y117348
X135128Y117348
X136398Y117348
X145034Y131572
X146304Y131572
X147574Y131572
X145034Y123444
X146304Y123444
X147574Y123444
X133858Y112268
X135128Y112268
X136398Y112268
X133858Y107696
X135128Y107696
X136398Y107696
X133858Y098044
X135128Y098044
X136398Y098044
X133858Y090932
X135128Y090932
X136398Y090932
X145034Y118364
X146304Y118364
X147574Y118364
X145034Y113792
X146304Y113792
X147574Y113792
X145034Y104140
X146304Y104140
X147574Y104140
X133858Y085852
X135128Y085852
X136398Y085852
X133858Y077724
X135128Y077724
X136398Y077724
X145034Y099060
X146304Y099060
X147574Y099060
X145034Y094488
X146304Y094488
X147574Y094488
X145034Y084836
X146304Y084836
X147574Y084836
X017526Y071628
X018796Y071628
X020066Y071628
X017526Y063500
X018796Y063500
X020066Y063500
X017526Y058420
X018796Y058420
X020066Y058420
X017526Y053848
X018796Y053848
X020066Y053848
X017526Y044196
X018796Y044196
X020066Y044196
X017526Y039116
X018796Y039116
X020066Y039116
X017526Y034544
X018796Y034544
X020066Y034544
X017526Y024892
X018796Y024892
X020066Y024892
X017526Y017780
X018796Y017780
X020066Y017780
X028702Y071628
X029972Y071628
X031242Y071628
X028702Y067056
X029972Y067056
X031242Y067056
X028702Y057404
X029972Y057404
X031242Y057404
X039878Y071628
X041148Y071628
X042418Y071628
X039878Y063500
X041148Y063500
X042418Y063500
X028702Y052324
X029972Y052324
X031242Y052324
X028702Y047752
X029972Y047752
X031242Y047752
X028702Y038100
X029972Y038100
X031242Y038100
X028702Y030988
X029972Y030988
X031242Y030988
X039878Y058420
X041148Y058420
X042418Y058420
X039878Y053848
X041148Y053848
X042418Y053848
X039878Y044196
X041148Y044196
X042418Y044196
X028702Y025908
X029972Y025908
X031242Y025908
X028702Y017780
X029972Y017780
X031242Y017780
X039878Y039116
X041148Y039116
X042418Y039116
X039878Y034544
X041148Y034544
X042418Y034544
X039878Y024892
X041148Y024892
X042418Y024892
X052578Y071628
X053848Y071628
X055118Y071628
X052578Y063500
X053848Y063500
X055118Y063500
X052578Y058420
X053848Y058420
X055118Y058420
X052578Y053848
X053848Y053848
X055118Y053848
X052578Y044196
X053848Y044196
X055118Y044196
X052578Y039116
X053848Y039116
X055118Y039116
X052578Y034544
X053848Y034544
X055118Y034544
X052578Y024892
X053848Y024892
X055118Y024892
X052578Y017780
X053848Y017780
X055118Y017780
X063754Y071628
X065024Y071628
X066294Y071628
X063754Y067056
X065024Y067056
X066294Y067056
X063754Y057404
X065024Y057404
X066294Y057404
X074930Y071628
X076200Y071628
X077470Y071628
X074930Y063500
X076200Y063500
X077470Y063500
X063754Y052324
X065024Y052324
X066294Y052324
X063754Y047752
X065024Y047752
X066294Y047752
X063754Y038100
X065024Y038100
X066294Y038100
X063754Y030988
X065024Y030988
X066294Y030988
X074930Y058420
X076200Y058420
X077470Y058420
X074930Y053848
X076200Y053848
X077470Y053848
X074930Y044196
X076200Y044196
X077470Y044196
X063754Y025908
X065024Y025908
X066294Y025908
X063754Y017780
X065024Y017780
X066294Y017780
X074930Y039116
X076200Y039116
X077470Y039116
X074930Y034544
X076200Y034544
X077470Y034544
X074930Y024892
X076200Y024892
X077470Y024892
X087630Y071628
X088900Y071628
X090170Y071628
X087630Y063500
X088900Y063500
X090170Y063500
X087630Y058420
X088900Y058420
X090170Y058420
X087630Y053848
X088900Y053848
X090170Y053848
X087630Y044196
X088900Y044196
X090170Y044196
X087630Y039116
X088900Y039116
X090170Y039116
X087630Y034544
X088900Y034544
X090170Y034544
X087630Y024892
X088900Y024892
X090170Y024892
X087630Y017780
X088900Y017780
X090170Y017780
X098806Y071628
X100076Y071628
X101346Y071628
X098806Y067056
X100076Y067056
X101346Y067056
X098806Y057404
X100076Y057404
X101346Y057404
X109982Y071628
X111252Y071628
X112522Y071628
X109982Y063500
X111252Y063500
X112522Y063500
X098806Y052324
X100076Y052324
X101346Y052324
X098806Y047752
X100076Y047752
X101346Y047752
X098806Y038100
X100076Y038100
X101346Y038100
X098806Y030988
X100076Y030988
X101346Y030988
X109982Y058420
X111252Y058420
X112522Y058420
X109982Y053848
X111252Y053848
X112522Y053848
X109982Y044196
X111252Y044196
X112522Y044196
X098806Y025908
X100076Y025908
X101346Y025908
X098806Y017780
X100076Y017780
X101346Y017780
X109982Y039116
X111252Y039116
X112522Y039116
X109982Y034544
X111252Y034544
X112522Y034544
X109982Y024892
X111252Y024892
X112522Y024892
X122682Y071628
X123952Y071628
X125222Y071628
X122682Y063500
X123952Y063500
X125222Y063500
X122682Y058420
X123952Y058420
X125222Y058420
X122682Y053848
X123952Y053848
X125222Y053848
X122682Y044196
X123952Y044196
X125222Y044196
X122682Y039116
X123952Y039116
X125222Y039116
X122682Y034544
X123952Y034544
X125222Y034544
X122682Y024892
X123952Y024892
X125222Y024892
X122682Y017780
X123952Y017780
X125222Y017780
X133858Y071628
X135128Y071628
X136398Y071628
X133858Y067056
X135128Y067056
X136398Y067056
X133858Y057404
X135128Y057404
X136398Y057404
X145034Y071628
X146304Y071628
X147574Y071628
X145034Y063500
X146304Y063500
X147574Y063500
X133858Y052324
X135128Y052324
X136398Y052324
X133858Y047752
X135128Y047752
X136398Y047752
X133858Y038100
X135128Y038100
X136398Y038100
X133858Y030988
X135128Y030988
X136398Y030988
X145034Y058420
X146304Y058420
X147574Y058420
X145034Y053848
X146304Y053848
X147574Y053848
X145034Y044196
X146304Y044196
X147574Y044196
X133858Y025908
X135128Y025908
X136398Y025908
X133858Y017780
X135128Y017780
X136398Y017780
X145034Y039116
X146304Y039116
X147574Y039116
X145034Y034544
X146304Y034544
X147574Y034544
X145034Y024892
X146304Y024892
X147574Y024892
X052578Y139700
X053848Y139700
X055118Y139700
X063754Y139700
X065024Y139700
X066294Y139700
X074930Y139700
X076200Y139700
X077470Y139700
X086106Y139700
X087376Y139700
X088646Y139700
T03
X043942Y152146
X043942Y154686
X046482Y152146
X046482Y154686
X049022Y152146
X049022Y154686
X051562Y152146
X051562Y154686
X054102Y152146
X054102Y154686
X056642Y152146
X056642Y154686
X059182Y152146
X059182Y154686
X061722Y152146
X061722Y154686
X013462Y152146
X013462Y154686
X016002Y152146
X016002Y154686
X018542Y152146
X018542Y154686
X021082Y152146
X021082Y154686
X023622Y152146
X023622Y154686
X026162Y152146
X026162Y154686
X028702Y152146
X028702Y154686
X031242Y152146
X031242Y154686
X128778Y147574
X128778Y150114
X131318Y147574
X131318Y150114
X133858Y147574
X133858Y150114
X136398Y147574
X136398Y150114
X138938Y147574
X138938Y150114
X141478Y147574
X141478Y150114
X144018Y147574
X144018Y150114
X146558Y147574
X146558Y150114
T04
X013460Y011174
X016002Y011176
X041908Y011174
X044450Y011176
X034796Y011174
X037338Y011176
X027684Y011174
X030226Y011176
X080516Y011174
X083058Y011176
X073404Y011174
X075946Y011176
X144524Y011174
X147066Y011176
X137412Y011174
X139954Y011176
X130300Y011174
X132842Y011176
X123188Y011174
X125730Y011176
X116076Y011174
X118618Y011176
X108964Y011174
X111506Y011176
X101852Y011174
X104394Y011176
X094740Y011174
X097282Y011176
X014988Y140718
X012446Y140716
X014988Y137670
X012446Y137668
X026164Y140718
X023622Y140716
X026164Y137670
X023622Y137668
X014988Y132590
X012446Y132588
X014988Y129542
X012446Y129540
X020068Y128018
X017526Y128016
X014988Y126494
X012446Y126492
X014988Y123446
X012446Y123444
X014988Y119382
X012446Y119380
X014988Y116334
X012446Y116332
X014988Y113286
X012446Y113284
X014988Y110238
X012446Y110236
X014988Y107190
X012446Y107188
X014988Y104142
X012446Y104140
X020068Y108714
X017526Y108712
X014988Y100078
X012446Y100076
X014988Y097030
X012446Y097028
X014988Y093982
X012446Y093980
X014988Y090934
X012446Y090932
X014988Y087886
X012446Y087884
X014988Y084838
X012446Y084836
X020068Y089410
X017526Y089408
X014988Y080774
X012446Y080772
X014988Y077726
X012446Y077724
X026164Y132590
X023622Y132588
X026164Y129542
X023622Y129540
X026164Y126494
X023622Y126492
X026164Y123446
X023622Y123444
X026164Y120398
X023622Y120396
X026164Y117350
X023622Y117348
X031244Y121922
X028702Y121920
X037340Y132590
X034798Y132588
X037340Y129542
X034798Y129540
X042420Y128018
X039878Y128016
X037340Y126494
X034798Y126492
X037340Y123446
X034798Y123444
X026164Y113286
X023622Y113284
X026164Y110238
X023622Y110236
X026164Y107190
X023622Y107188
X026164Y104142
X023622Y104140
X026164Y101094
X023622Y101092
X026164Y098046
X023622Y098044
X031244Y102618
X028702Y102616
X026164Y093982
X023622Y093980
X026164Y090934
X023622Y090932
X037340Y119382
X034798Y119380
X037340Y116334
X034798Y116332
X037340Y113286
X034798Y113284
X037340Y110238
X034798Y110236
X037340Y107190
X034798Y107188
X037340Y104142
X034798Y104140
X042420Y108714
X039878Y108712
X026164Y086870
X023622Y086868
X026164Y083822
X023622Y083820
X031244Y082298
X028702Y082296
X026164Y080774
X023622Y080772
X026164Y077726
X023622Y077724
X037340Y100078
X034798Y100076
X037340Y097030
X034798Y097028
X037340Y093982
X034798Y093980
X037340Y090934
X034798Y090932
X037340Y087886
X034798Y087884
X037340Y084838
X034798Y084836
X042420Y089410
X039878Y089408
X050040Y132590
X047498Y132588
X050040Y129542
X047498Y129540
X055120Y128018
X052578Y128016
X050040Y126494
X047498Y126492
X050040Y123446
X047498Y123444
X050040Y119382
X047498Y119380
X050040Y116334
X047498Y116332
X050040Y113286
X047498Y113284
X050040Y110238
X047498Y110236
X050040Y107190
X047498Y107188
X050040Y104142
X047498Y104140
X055120Y108714
X052578Y108712
X050040Y100078
X047498Y100076
X050040Y097030
X047498Y097028
X050040Y093982
X047498Y093980
X050040Y090934
X047498Y090932
X050040Y087886
X047498Y087884
X050040Y084838
X047498Y084836
X055120Y089410
X052578Y089408
X050040Y080774
X047498Y080772
X050040Y077726
X047498Y077724
X061216Y132590
X058674Y132588
X061216Y129542
X058674Y129540
X061216Y126494
X058674Y126492
X061216Y123446
X058674Y123444
X061216Y120398
X058674Y120396
X061216Y117350
X058674Y117348
X066296Y121922
X063754Y121920
X072392Y132590
X069850Y132588
X072392Y129542
X069850Y129540
X077472Y128018
X074930Y128016
X072392Y126494
X069850Y126492
X072392Y123446
X069850Y123444
X061216Y113286
X058674Y113284
X061216Y110238
X058674Y110236
X061216Y107190
X058674Y107188
X061216Y104142
X058674Y104140
X061216Y101094
X058674Y101092
X061216Y098046
X058674Y098044
X066296Y102618
X063754Y102616
X061216Y093982
X058674Y093980
X061216Y090934
X058674Y090932
X072392Y119382
X069850Y119380
X072392Y116334
X069850Y116332
X072392Y113286
X069850Y113284
X072392Y110238
X069850Y110236
X072392Y107190
X069850Y107188
X072392Y104142
X069850Y104140
X077472Y108714
X074930Y108712
X061216Y086870
X058674Y086868
X061216Y083822
X058674Y083820
X066296Y082298
X063754Y082296
X061216Y080774
X058674Y080772
X061216Y077726
X058674Y077724
X072392Y100078
X069850Y100076
X072392Y097030
X069850Y097028
X072392Y093982
X069850Y093980
X072392Y090934
X069850Y090932
X072392Y087886
X069850Y087884
X072392Y084838
X069850Y084836
X077472Y089410
X074930Y089408
X085092Y132590
X082550Y132588
X085092Y129542
X082550Y129540
X090172Y128018
X087630Y128016
X085092Y126494
X082550Y126492
X085092Y123446
X082550Y123444
X085092Y119382
X082550Y119380
X085092Y116334
X082550Y116332
X085092Y113286
X082550Y113284
X085092Y110238
X082550Y110236
X085092Y107190
X082550Y107188
X085092Y104142
X082550Y104140
X090172Y108714
X087630Y108712
X085092Y100078
X082550Y100076
X085092Y097030
X082550Y097028
X085092Y093982
X082550Y093980
X085092Y090934
X082550Y090932
X085092Y087886
X082550Y087884
X085092Y084838
X082550Y084836
X090172Y089410
X087630Y089408
X085092Y080774
X082550Y080772
X085092Y077726
X082550Y077724
X096268Y132590
X093726Y132588
X096268Y129542
X093726Y129540
X096268Y126494
X093726Y126492
X096268Y123446
X093726Y123444
X096268Y120398
X093726Y120396
X096268Y117350
X093726Y117348
X101348Y121922
X098806Y121920
X107444Y132590
X104902Y132588
X107444Y129542
X104902Y129540
X112524Y128018
X109982Y128016
X107444Y126494
X104902Y126492
X107444Y123446
X104902Y123444
X096268Y113286
X093726Y113284
X096268Y110238
X093726Y110236
X096268Y107190
X093726Y107188
X096268Y104142
X093726Y104140
X096268Y101094
X093726Y101092
X096268Y098046
X093726Y098044
X101348Y102618
X098806Y102616
X096268Y093982
X093726Y093980
X096268Y090934
X093726Y090932
X107444Y119382
X104902Y119380
X107444Y116334
X104902Y116332
X107444Y113286
X104902Y113284
X107444Y110238
X104902Y110236
X107444Y107190
X104902Y107188
X107444Y104142
X104902Y104140
X112524Y108714
X109982Y108712
X096268Y086870
X093726Y086868
X096268Y083822
X093726Y083820
X101348Y082298
X098806Y082296
X096268Y080774
X093726Y080772
X096268Y077726
X093726Y077724
X107444Y100078
X104902Y100076
X107444Y097030
X104902Y097028
X107444Y093982
X104902Y093980
X107444Y090934
X104902Y090932
X107444Y087886
X104902Y087884
X107444Y084838
X104902Y084836
X112524Y089410
X109982Y089408
X120144Y132590
X117602Y132588
X120144Y129542
X117602Y129540
X125224Y128018
X122682Y128016
X120144Y126494
X117602Y126492
X120144Y123446
X117602Y123444
X120144Y119382
X117602Y119380
X120144Y116334
X117602Y116332
X120144Y113286
X117602Y113284
X120144Y110238
X117602Y110236
X120144Y107190
X117602Y107188
X120144Y104142
X117602Y104140
X125224Y108714
X122682Y108712
X120144Y100078
X117602Y100076
X120144Y097030
X117602Y097028
X120144Y093982
X117602Y093980
X120144Y090934
X117602Y090932
X120144Y087886
X117602Y087884
X120144Y084838
X117602Y084836
X125224Y089410
X122682Y089408
X120144Y080774
X117602Y080772
X120144Y077726
X117602Y077724
X131320Y132590
X128778Y132588
X131320Y129542
X128778Y129540
X131320Y126494
X128778Y126492
X131320Y123446
X128778Y123444
X131320Y120398
X128778Y120396
X131320Y117350
X128778Y117348
X136400Y121922
X133858Y121920
X142496Y132590
X139954Y132588
X142496Y129542
X139954Y129540
X147576Y128018
X145034Y128016
X142496Y126494
X139954Y126492
X142496Y123446
X139954Y123444
X131320Y113286
X128778Y113284
X131320Y110238
X128778Y110236
X131320Y107190
X128778Y107188
X131320Y104142
X128778Y104140
X131320Y101094
X128778Y101092
X131320Y098046
X128778Y098044
X136400Y102618
X133858Y102616
X131320Y093982
X128778Y093980
X131320Y090934
X128778Y090932
X142496Y119382
X139954Y119380
X142496Y116334
X139954Y116332
X142496Y113286
X139954Y113284
X142496Y110238
X139954Y110236
X142496Y107190
X139954Y107188
X142496Y104142
X139954Y104140
X147576Y108714
X145034Y108712
X131320Y086870
X128778Y086868
X131320Y083822
X128778Y083820
X136400Y082298
X133858Y082296
X131320Y080774
X128778Y080772
X131320Y077726
X128778Y077724
X142496Y100078
X139954Y100076
X142496Y097030
X139954Y097028
X142496Y093982
X139954Y093980
X142496Y090934
X139954Y090932
X142496Y087886
X139954Y087884
X142496Y084838
X139954Y084836
X147576Y089410
X145034Y089408
X014988Y072646
X012446Y072644
X014988Y069598
X012446Y069596
X020068Y068074
X017526Y068072
X014988Y066550
X012446Y066548
X014988Y063502
X012446Y063500
X014988Y059438
X012446Y059436
X014988Y056390
X012446Y056388
X014988Y053342
X012446Y053340
X014988Y050294
X012446Y050292
X014988Y047246
X012446Y047244
X014988Y044198
X012446Y044196
X020068Y048770
X017526Y048768
X014988Y040134
X012446Y040132
X014988Y037086
X012446Y037084
X014988Y034038
X012446Y034036
X014988Y030990
X012446Y030988
X014988Y027942
X012446Y027940
X014988Y024894
X012446Y024892
X020068Y029466
X017526Y029464
X014988Y020830
X012446Y020828
X014988Y017782
X012446Y017780
X026164Y072646
X023622Y072644
X026164Y069598
X023622Y069596
X026164Y066550
X023622Y066548
X026164Y063502
X023622Y063500
X026164Y060454
X023622Y060452
X026164Y057406
X023622Y057404
X031244Y061978
X028702Y061976
X037340Y072646
X034798Y072644
X037340Y069598
X034798Y069596
X042420Y068074
X039878Y068072
X037340Y066550
X034798Y066548
X037340Y063502
X034798Y063500
X026164Y053342
X023622Y053340
X026164Y050294
X023622Y050292
X026164Y047246
X023622Y047244
X026164Y044198
X023622Y044196
X026164Y041150
X023622Y041148
X026164Y038102
X023622Y038100
X031244Y042674
X028702Y042672
X026164Y034038
X023622Y034036
X026164Y030990
X023622Y030988
X037340Y059438
X034798Y059436
X037340Y056390
X034798Y056388
X037340Y053342
X034798Y053340
X037340Y050294
X034798Y050292
X037340Y047246
X034798Y047244
X037340Y044198
X034798Y044196
X042420Y048770
X039878Y048768
X026164Y026926
X023622Y026924
X026164Y023878
X023622Y023876
X031244Y022354
X028702Y022352
X026164Y020830
X023622Y020828
X026164Y017782
X023622Y017780
X037340Y040134
X034798Y040132
X037340Y037086
X034798Y037084
X037340Y034038
X034798Y034036
X037340Y030990
X034798Y030988
X037340Y027942
X034798Y027940
X037340Y024894
X034798Y024892
X042420Y029466
X039878Y029464
X050040Y072646
X047498Y072644
X050040Y069598
X047498Y069596
X055120Y068074
X052578Y068072
X050040Y066550
X047498Y066548
X050040Y063502
X047498Y063500
X050040Y059438
X047498Y059436
X050040Y056390
X047498Y056388
X050040Y053342
X047498Y053340
X050040Y050294
X047498Y050292
X050040Y047246
X047498Y047244
X050040Y044198
X047498Y044196
X055120Y048770
X052578Y048768
X050040Y040134
X047498Y040132
X050040Y037086
X047498Y037084
X050040Y034038
X047498Y034036
X050040Y030990
X047498Y030988
X050040Y027942
X047498Y027940
X050040Y024894
X047498Y024892
X055120Y029466
X052578Y029464
X050040Y020830
X047498Y020828
X050040Y017782
X047498Y017780
X061216Y072646
X058674Y072644
X061216Y069598
X058674Y069596
X061216Y066550
X058674Y066548
X061216Y063502
X058674Y063500
X061216Y060454
X058674Y060452
X061216Y057406
X058674Y057404
X066296Y061978
X063754Y061976
X072392Y072646
X069850Y072644
X072392Y069598
X069850Y069596
X077472Y068074
X074930Y068072
X072392Y066550
X069850Y066548
X072392Y063502
X069850Y063500
X061216Y053342
X058674Y053340
X061216Y050294
X058674Y050292
X061216Y047246
X058674Y047244
X061216Y044198
X058674Y044196
X061216Y041150
X058674Y041148
X061216Y038102
X058674Y038100
X066296Y042674
X063754Y042672
X061216Y034038
X058674Y034036
X061216Y030990
X058674Y030988
X072392Y059438
X069850Y059436
X072392Y056390
X069850Y056388
X072392Y053342
X069850Y053340
X072392Y050294
X069850Y050292
X072392Y047246
X069850Y047244
X072392Y044198
X069850Y044196
X077472Y048770
X074930Y048768
X061216Y026926
X058674Y026924
X061216Y023878
X058674Y023876
X066296Y022354
X063754Y022352
X061216Y020830
X058674Y020828
X061216Y017782
X058674Y017780
X072392Y040134
X069850Y040132
X072392Y037086
X069850Y037084
X072392Y034038
X069850Y034036
X072392Y030990
X069850Y030988
X072392Y027942
X069850Y027940
X072392Y024894
X069850Y024892
X077472Y029466
X074930Y029464
X085092Y072646
X082550Y072644
X085092Y069598
X082550Y069596
X090172Y068074
X087630Y068072
X085092Y066550
X082550Y066548
X085092Y063502
X082550Y063500
X085092Y059438
X082550Y059436
X085092Y056390
X082550Y056388
X085092Y053342
X082550Y053340
X085092Y050294
X082550Y050292
X085092Y047246
X082550Y047244
X085092Y044198
X082550Y044196
X090172Y048770
X087630Y048768
X085092Y040134
X082550Y040132
X085092Y037086
X082550Y037084
X085092Y034038
X082550Y034036
X085092Y030990
X082550Y030988
X085092Y027942
X082550Y027940
X085092Y024894
X082550Y024892
X090172Y029466
X087630Y029464
X085092Y020830
X082550Y020828
X085092Y017782
X082550Y017780
X096268Y072646
X093726Y072644
X096268Y069598
X093726Y069596
X096268Y066550
X093726Y066548
X096268Y063502
X093726Y063500
X096268Y060454
X093726Y060452
X096268Y057406
X093726Y057404
X101348Y061978
X098806Y061976
X107444Y072646
X104902Y072644
X107444Y069598
X104902Y069596
X112524Y068074
X109982Y068072
X107444Y066550
X104902Y066548
X107444Y063502
X104902Y063500
X096268Y053342
X093726Y053340
X096268Y050294
X093726Y050292
X096268Y047246
X093726Y047244
X096268Y044198
X093726Y044196
X096268Y041150
X093726Y041148
X096268Y038102
X093726Y038100
X101348Y042674
X098806Y042672
X096268Y034038
X093726Y034036
X096268Y030990
X093726Y030988
X107444Y059438
X104902Y059436
X107444Y056390
X104902Y056388
X107444Y053342
X104902Y053340
X107444Y050294
X104902Y050292
X107444Y047246
X104902Y047244
X107444Y044198
X104902Y044196
X112524Y048770
X109982Y048768
X096268Y026926
X093726Y026924
X096268Y023878
X093726Y023876
X101348Y022354
X098806Y022352
X096268Y020830
X093726Y020828
X096268Y017782
X093726Y017780
X107444Y040134
X104902Y040132
X107444Y037086
X104902Y037084
X107444Y034038
X104902Y034036
X107444Y030990
X104902Y030988
X107444Y027942
X104902Y027940
X107444Y024894
X104902Y024892
X112524Y029466
X109982Y029464
X120144Y072646
X117602Y072644
X120144Y069598
X117602Y069596
X125224Y068074
X122682Y068072
X120144Y066550
X117602Y066548
X120144Y063502
X117602Y063500
X120144Y059438
X117602Y059436
X120144Y056390
X117602Y056388
X120144Y053342
X117602Y053340
X120144Y050294
X117602Y050292
X120144Y047246
X117602Y047244
X120144Y044198
X117602Y044196
X125224Y048770
X122682Y048768
X120144Y040134
X117602Y040132
X120144Y037086
X117602Y037084
X120144Y034038
X117602Y034036
X120144Y030990
X117602Y030988
X120144Y027942
X117602Y027940
X120144Y024894
X117602Y024892
X125224Y029466
X122682Y029464
X120144Y020830
X117602Y020828
X120144Y017782
X117602Y017780
X131320Y072646
X128778Y072644
X131320Y069598
X128778Y069596
X131320Y066550
X128778Y066548
X131320Y063502
X128778Y063500
X131320Y060454
X128778Y060452
X131320Y057406
X128778Y057404
X136400Y061978
X133858Y061976
X142496Y072646
X139954Y072644
X142496Y069598
X139954Y069596
X147576Y068074
X145034Y068072
X142496Y066550
X139954Y066548
X142496Y063502
X139954Y063500
X131320Y053342
X128778Y053340
X131320Y050294
X128778Y050292
X131320Y047246
X128778Y047244
X131320Y044198
X128778Y044196
X131320Y041150
X128778Y041148
X131320Y038102
X128778Y038100
X136400Y042674
X133858Y042672
X131320Y034038
X128778Y034036
X131320Y030990
X128778Y030988
X142496Y059438
X139954Y059436
X142496Y056390
X139954Y056388
X142496Y053342
X139954Y053340
X142496Y050294
X139954Y050292
X142496Y047246
X139954Y047244
X142496Y044198
X139954Y044196
X147576Y048770
X145034Y048768
X131320Y026926
X128778Y026924
X131320Y023878
X128778Y023876
X136400Y022354
X133858Y022352
X131320Y020830
X128778Y020828
X131320Y017782
X128778Y017780
X142496Y040134
X139954Y040132
X142496Y037086
X139954Y037084
X142496Y034038
X139954Y034036
X142496Y030990
X139954Y030988
X142496Y027942
X139954Y027940
X142496Y024894
X139954Y024892
X147576Y029466
X145034Y029464
X050040Y140718
X047498Y140716
X050040Y137670
X047498Y137668
X061216Y140718
X058674Y140716
X061216Y137670
X058674Y137668
X072392Y140718
X069850Y140716
X072392Y137670
X069850Y137668
X083568Y140718
X081026Y140716
X083568Y137670
X081026Y137668
T05
X034798Y006603
X037338Y006603
X041910Y006603
X044450Y006603
X080518Y006604
X083058Y006604
X027686Y006604
X030226Y006604
X073406Y006604
X075946Y006604
X013462Y006604
X016002Y006604
X144526Y006604
X147066Y006604
X137414Y006604
X139954Y006604
X130302Y006604
X132842Y006604
X123190Y006604
X125730Y006604
X116078Y006604
X118618Y006604
X108966Y006604
X111506Y006604
X101854Y006604
X104394Y006604
X094742Y006604
X097282Y006604
T06
X022574Y147828
X031274Y147828
M30
