G04 Layer: TopLayer*
G04 EasyEDA v6.4.25, 2021-12-30T01:40:23+01:00*
G04 349a449686454aac8e9d9284578b31c7,bb3cfcbffc6840158e79d7648404357e,10*
G04 Gerber Generator version 0.2*
G04 Scale: 100 percent, Rotated: No, Reflected: No *
G04 Dimensions in millimeters *
G04 leading zeros omitted , absolute positions ,4 integer and 5 decimal *
%FSLAX45Y45*%
%MOMM*%

%ADD10C,0.2540*%
%ADD11C,0.6100*%
%ADD12C,1.6510*%
%ADD13C,1.8000*%
%ADD14C,1.5240*%
%ADD15R,1.6000X0.9000*%
%ADD16C,1.9990*%
%ADD17C,0.9000*%

%LPD*%
D10*
X9207500Y1968492D02*
G01*
X9122384Y1883376D01*
X8700770Y1883376D01*
X8654872Y1929274D01*
X8654872Y2222492D01*
X8763000Y2222492D02*
G01*
X8654872Y2222492D01*
X10414000Y3555992D02*
G01*
X9969500Y3555992D01*
X9131300Y1650992D02*
G01*
X9736277Y2255969D01*
X10371277Y2255969D01*
X10718800Y2603492D01*
X8763000Y3301992D02*
G01*
X8856649Y3208342D01*
X9512300Y3208342D01*
X9207500Y3301992D02*
G01*
X9172676Y3301992D01*
X8918676Y3555992D01*
X8763000Y3555992D01*
X6654800Y1650992D02*
G01*
X7267219Y2263411D01*
X7902219Y2263411D01*
X8242300Y2603492D01*
X7937500Y3555992D02*
G01*
X7493000Y3555992D01*
X5192877Y3434072D02*
G01*
X5021579Y3434072D01*
X5016500Y3428992D01*
X5461000Y3555992D02*
G01*
X5016500Y3555992D01*
X5765800Y2603492D02*
G01*
X5092141Y1929833D01*
X4457141Y1929833D01*
X4178300Y1650992D01*
X1701800Y1650992D02*
G01*
X2314219Y2263411D01*
X2949219Y2263411D01*
X3289300Y2603492D01*
X2984500Y3555992D02*
G01*
X2540000Y3555992D01*
X1320800Y2603492D02*
G01*
X1191666Y2732625D01*
X1191666Y3319086D01*
X1301572Y3428992D01*
X1333500Y3428992D01*
X1778000Y3301992D02*
G01*
X1743176Y3301992D01*
X1489176Y3555992D01*
X1333500Y3555992D01*
X9207500Y4698992D02*
G01*
X9122384Y4613876D01*
X8700770Y4613876D01*
X8654872Y4659774D01*
X8654872Y4952992D01*
X8763000Y4952992D02*
G01*
X8654872Y4952992D01*
X10414000Y6286492D02*
G01*
X9969500Y6286492D01*
X9131300Y4381492D02*
G01*
X9189110Y4381492D01*
X9784588Y4976969D01*
X10361777Y4976969D01*
X10718800Y5333992D01*
X9512300Y5714992D02*
G01*
X9640392Y5843084D01*
X10012375Y5843084D01*
X10096703Y5758756D01*
X10096703Y5672879D01*
X9315780Y4891956D01*
X9315780Y4666150D01*
X9222613Y4572982D01*
X8941790Y4572982D01*
X8750300Y4381492D01*
X8763000Y6159492D02*
G01*
X8482939Y6159492D01*
X9207500Y6032492D02*
G01*
X9172676Y6032492D01*
X8918676Y6286492D01*
X8763000Y6286492D01*
X6731000Y4698992D02*
G01*
X6645884Y4613876D01*
X6224270Y4613876D01*
X6178372Y4659774D01*
X6178372Y4952992D01*
X6286500Y4952992D02*
G01*
X6178372Y4952992D01*
X7480300Y5333992D02*
G01*
X7456703Y5333992D01*
X7304404Y5486290D01*
X6654800Y4381492D02*
G01*
X7267219Y4993911D01*
X7902219Y4993911D01*
X8242300Y5333992D01*
X7493000Y6286492D02*
G01*
X7937500Y6286492D01*
X7035800Y5714992D02*
G01*
X6907707Y5843084D01*
X6475907Y5843084D01*
X6286500Y6032492D01*
X6731000Y6032492D02*
G01*
X6696176Y6032492D01*
X6442176Y6286492D01*
X6286500Y6286492D01*
X4254500Y4698992D02*
G01*
X4219676Y4698992D01*
X3965676Y4952992D01*
X3810000Y4952992D01*
X5461000Y6286492D02*
G01*
X5016500Y6286492D01*
X4178300Y4381492D02*
G01*
X4790719Y4993911D01*
X5425719Y4993911D01*
X5765800Y5333992D01*
X4254500Y6032492D02*
G01*
X4219676Y6032492D01*
X3965676Y6286492D01*
X3810000Y6286492D01*
X1778000Y4698992D02*
G01*
X1743176Y4698992D01*
X1489176Y4952992D01*
X1333500Y4952992D01*
X1701800Y4381492D02*
G01*
X2314219Y4993911D01*
X2949219Y4993911D01*
X3289300Y5333992D01*
X2540000Y6286492D02*
G01*
X2984500Y6286492D01*
X2082800Y5714992D02*
G01*
X1954707Y5843084D01*
X1522907Y5843084D01*
X1333500Y6032492D01*
X1778000Y6032492D02*
G01*
X1743176Y6032492D01*
X1489176Y6286492D01*
X1333500Y6286492D01*
X2654300Y6730992D02*
G01*
X2464308Y6920984D01*
X1802892Y6920984D01*
X2273300Y6730992D02*
G01*
X2253386Y6711078D01*
X1740331Y6711078D01*
X1529918Y6921492D01*
X1333500Y6921492D01*
X1802892Y7047984D02*
G01*
X1442135Y7047984D01*
X1441627Y7048492D01*
X1333500Y7048492D02*
G01*
X1441627Y7048492D01*
X10718800Y7111992D02*
G01*
X9999929Y7830863D01*
X4937302Y7830863D01*
X4289120Y8479045D01*
X4169181Y8479045D01*
X7434199Y6378110D02*
G01*
X7443393Y6368915D01*
X9791471Y6368915D01*
X10090429Y6667873D01*
X10090429Y6941964D01*
X10337800Y7111992D02*
G01*
X10167772Y6941964D01*
X10090429Y6941964D01*
X10090429Y6941964D02*
G01*
X8783980Y6941964D01*
X8485886Y7240059D01*
X8271560Y7240059D01*
X8189798Y7321821D01*
X6753326Y7321821D01*
X6655460Y7223955D01*
X4339869Y7223955D01*
X3902532Y7661292D01*
X3419906Y7661292D01*
X1988007Y9093192D01*
X1988007Y9194919D01*
X2082317Y9289229D01*
X2494737Y9289229D01*
X2603500Y9397992D01*
X2857500Y9143992D02*
G01*
X4621022Y7380470D01*
X4783302Y7380470D01*
X9956800Y7111992D02*
G01*
X9761651Y7111992D01*
X9633534Y6983874D01*
X9504095Y6983874D01*
X9166148Y7321821D01*
X8325815Y7321821D01*
X8244077Y7403558D01*
X4806391Y7403558D01*
X4783302Y7380470D01*
X9575800Y7111992D02*
G01*
X9161627Y7526164D01*
X5088331Y7526164D01*
X4194073Y8420422D01*
X4144899Y8420422D01*
X3492500Y9072821D01*
X3492500Y9184200D01*
X3428365Y9248335D01*
X3007156Y9248335D01*
X2857500Y9397992D01*
X9512300Y4000492D02*
G01*
X9512300Y4014843D01*
X9254134Y4273008D01*
X3111500Y9143992D02*
G01*
X4811064Y7444427D01*
X8286165Y7444427D01*
X8306587Y7424005D01*
X8813800Y7111992D02*
G01*
X8644839Y7280953D01*
X8308873Y7280953D01*
X8227136Y7362690D01*
X6513855Y7362690D01*
X6436106Y7284940D01*
X6436106Y7284940D02*
G01*
X4399127Y7284940D01*
X3964203Y7719865D01*
X3862476Y7719865D01*
X2492527Y9089814D01*
X2492527Y9200227D01*
X2540634Y9248335D01*
X2622753Y9248335D01*
X2707843Y9333425D01*
X2707843Y9395884D01*
X2823006Y9511047D01*
X2998444Y9511047D01*
X3111500Y9397992D01*
X3365500Y9143992D02*
G01*
X3365500Y9142011D01*
X4654981Y7852529D01*
X4656963Y7852529D01*
X8432800Y7380444D02*
G01*
X8432800Y7380698D01*
X8328202Y7485296D01*
X5024196Y7485296D01*
X4656963Y7852529D01*
X1778000Y4952992D02*
G01*
X1936572Y4952992D01*
X2565958Y5582378D01*
X2594559Y5582378D01*
X2659456Y5647275D01*
X2659456Y5774580D01*
X2424125Y6009911D01*
X2424125Y6337546D01*
X2446197Y6359618D01*
X2533497Y6359618D01*
X2746197Y6572318D01*
X3370199Y6572318D01*
X4007840Y7209960D01*
X4007840Y7209960D02*
G01*
X4048709Y7169091D01*
X6658432Y7169091D01*
X6770293Y7280953D01*
X7882839Y7280953D01*
X8051800Y7111992D01*
X9131300Y3112584D02*
G01*
X9131300Y2984492D01*
X10337800Y2984492D02*
G01*
X10209707Y3112584D01*
X9131300Y3112584D01*
X9131300Y3112584D02*
G01*
X7989392Y3112584D01*
X7861300Y2984492D01*
X7861300Y2984492D02*
G01*
X7718425Y2841617D01*
X6797675Y2841617D01*
X6654800Y2984492D01*
X6654800Y2984492D02*
G01*
X6513245Y2842938D01*
X5526354Y2842938D01*
X5384800Y2984492D01*
X5384800Y2984492D02*
G01*
X5243728Y2843420D01*
X4319371Y2843420D01*
X4178300Y2984492D01*
X4178300Y2984492D02*
G01*
X4037406Y2843598D01*
X3049193Y2843598D01*
X2908300Y2984492D01*
X2908300Y2984492D02*
G01*
X2767482Y2843674D01*
X1842617Y2843674D01*
X1701800Y2984492D01*
X9131300Y5843084D02*
G01*
X9131300Y5714992D01*
X5384800Y5852431D02*
G01*
X5384800Y5714992D01*
X5384800Y5852431D02*
G01*
X4315739Y5852431D01*
X4178300Y5714992D01*
X10337800Y5714992D02*
G01*
X10168839Y5883953D01*
X9172168Y5883953D01*
X9131300Y5843084D01*
X9131300Y5843084D02*
G01*
X7989392Y5843084D01*
X7861300Y5714992D01*
X4178300Y5714992D02*
G01*
X3989476Y5714992D01*
X3813860Y5890607D01*
X3083915Y5890607D01*
X2908300Y5714992D01*
X6654800Y5714992D02*
G01*
X6465570Y5714992D01*
X6328130Y5852431D01*
X5384800Y5852431D01*
X5842000Y9397992D02*
G01*
X5261584Y9397992D01*
X4985054Y9674522D01*
X1864029Y9674522D01*
X1587500Y9397992D01*
X6096000Y9143992D02*
G01*
X5989447Y9250545D01*
X5273014Y9250545D01*
X4930775Y9592784D01*
X2137079Y9592784D01*
X1968500Y9424205D01*
X1968500Y9270992D01*
X1841500Y9143992D01*
X6096000Y9397992D02*
G01*
X5989472Y9291464D01*
X5302859Y9291464D01*
X4960670Y9633653D01*
X2077161Y9633653D01*
X1841500Y9397992D01*
X2273300Y7111992D02*
G01*
X2471394Y7310086D01*
X4155059Y7310086D01*
X6350000Y9397992D02*
G01*
X6223000Y9270992D01*
X6223000Y9122046D01*
X6137046Y9036093D01*
X5353253Y9036093D01*
X4837429Y9551916D01*
X2249424Y9551916D01*
X2095500Y9397992D01*
X7289800Y7111992D02*
G01*
X7161707Y7240084D01*
X6807708Y7240084D01*
X6656095Y7088471D01*
X5803823Y7088471D01*
X9956800Y2984492D02*
G01*
X9813925Y2841617D01*
X8893175Y2841617D01*
X8750300Y2984492D01*
X7480300Y2984492D02*
G01*
X7347965Y3116826D01*
X6406134Y3116826D01*
X6273800Y2984492D01*
X7225918Y9023875D02*
G01*
X7084568Y9023875D01*
X6999477Y9108965D01*
X6999477Y9256514D01*
X6858000Y9397992D01*
X5003800Y2984492D02*
G01*
X4871465Y3116826D01*
X3929634Y3116826D01*
X3797300Y2984492D01*
X2527300Y2984492D02*
G01*
X2527300Y3116826D01*
X1320800Y2984492D02*
G01*
X1453134Y3116826D01*
X2527300Y3116826D01*
X2527300Y3116826D02*
G01*
X2950489Y3116826D01*
X3612210Y3778547D01*
X3612210Y3996529D01*
X4241418Y4625738D01*
X4362653Y4625738D01*
X4857267Y5120352D01*
X5371033Y5120352D01*
X5859856Y5609175D01*
X6020358Y5609175D01*
X9956800Y5714992D02*
G01*
X9813925Y5572117D01*
X8893175Y5572117D01*
X8750300Y5714992D01*
X7480300Y5714992D02*
G01*
X7392390Y5714992D01*
X7249515Y5572117D01*
X6416675Y5572117D01*
X6273800Y5714992D01*
X3797300Y5714992D02*
G01*
X3940175Y5572117D01*
X4860925Y5572117D01*
X5003800Y5714992D01*
X2527300Y5714992D02*
G01*
X2384425Y5572117D01*
X1463675Y5572117D01*
X1320800Y5714992D01*
X2590215Y5523755D02*
G01*
X2907639Y5523755D01*
X3233623Y5849739D01*
X3336645Y5849739D01*
X3655822Y5530562D01*
X5489727Y5530562D01*
X5510174Y5551009D01*
X7620000Y9397992D02*
G01*
X7493000Y9270992D01*
X7493000Y9119252D01*
X7338974Y8965227D01*
X6354927Y8965227D01*
X7874000Y9143992D02*
G01*
X7979867Y9249859D01*
X8173110Y9249859D01*
X8237347Y9185622D01*
X8237347Y9102107D01*
X7916545Y8781305D01*
X3982186Y8781305D01*
X3619500Y9143992D01*
X3619500Y9397992D02*
G01*
X3723843Y9293649D01*
X3871696Y9293649D01*
X4000500Y9164845D01*
X4000500Y9105181D01*
X4242638Y8863042D01*
X7743774Y8863042D01*
X7764221Y8883489D01*
X8128000Y9143992D02*
G01*
X7806181Y8822174D01*
X4195318Y8822174D01*
X3873500Y9143992D01*
X8128000Y9397992D02*
G01*
X8011820Y9514171D01*
X6562674Y9514171D01*
X6454343Y9405840D01*
X6454343Y9099466D01*
X6379006Y9024129D01*
X6330391Y9024129D01*
X6292494Y8986232D01*
X5219268Y8986232D01*
X4694478Y9511022D01*
X3986529Y9511022D01*
X3873500Y9397992D01*
X8382000Y9143992D02*
G01*
X7948752Y8710744D01*
X4127500Y8710744D01*
X8382000Y9397992D02*
G01*
X8131886Y9648106D01*
X5094782Y9648106D01*
X4640579Y8635865D02*
G01*
X8127872Y8635865D01*
X8636000Y9143992D01*
X8636000Y9397992D02*
G01*
X8528735Y9290728D01*
X7851266Y9290728D01*
X7747000Y9186461D01*
X7747000Y9117830D01*
X7533081Y8903911D01*
X4875580Y8903911D01*
X4381500Y9397992D01*
X9512300Y5333992D02*
G01*
X9409455Y5333992D01*
X8774455Y4698992D01*
X8763000Y4698992D01*
X7035800Y5333992D02*
G01*
X6932955Y5333992D01*
X6297955Y4698992D01*
X6286500Y4698992D01*
X10414000Y3301992D02*
G01*
X9969500Y3301992D01*
X9512300Y2603492D02*
G01*
X9409455Y2603492D01*
X9369780Y2563817D01*
X7937500Y3301992D02*
G01*
X7493000Y3301992D01*
X5461000Y3301992D02*
G01*
X5016500Y3301992D01*
X2082800Y2603492D02*
G01*
X1979955Y2603492D01*
X1344955Y1968492D01*
X1333500Y1968492D01*
X2082800Y2603492D02*
G01*
X2217978Y2738671D01*
X4241901Y2738671D01*
X4416780Y2563817D01*
X4559300Y2603492D02*
G01*
X4456455Y2603492D01*
X4416780Y2563817D01*
X4416780Y2563817D02*
G01*
X3821455Y1968492D01*
X3810000Y1968492D01*
X2984500Y3301992D02*
G01*
X2540000Y3301992D01*
X10414000Y6032492D02*
G01*
X9969500Y6032492D01*
X7852232Y2731584D02*
G01*
X7852232Y2751142D01*
X7035800Y2603492D02*
G01*
X7163892Y2731584D01*
X7852232Y2731584D01*
X7937500Y6032492D02*
G01*
X7493000Y6032492D01*
X6893280Y2563817D02*
G01*
X6720027Y2737045D01*
X4692853Y2737045D01*
X4559300Y2603492D01*
X7035800Y2603492D02*
G01*
X6932955Y2603492D01*
X6893280Y2563817D01*
X6893280Y2563817D02*
G01*
X6297955Y1968492D01*
X6286500Y1968492D01*
X3810000Y4698992D02*
G01*
X3798544Y4698992D01*
X3701846Y4795690D01*
X3701846Y5018702D01*
X3717950Y5034805D01*
X4260113Y5034805D01*
X4559300Y5333992D01*
X5461000Y6032492D02*
G01*
X5016500Y6032492D01*
X1333500Y4698992D02*
G01*
X1303070Y4698992D01*
X1225346Y4776716D01*
X1225346Y5018702D01*
X1354201Y5147556D01*
X1896363Y5147556D01*
X2082800Y5333992D01*
X2984500Y6032492D02*
G01*
X2540000Y6032492D01*
X8763000Y1968492D02*
G01*
X8774455Y1968492D01*
X9369780Y2563817D01*
X9369780Y2563817D02*
G01*
X9201988Y2731584D01*
X7852232Y2731584D01*
X5016500Y6032492D02*
G01*
X4938928Y5954920D01*
X3062071Y5954920D01*
X2984500Y6032492D01*
X1624939Y6720095D02*
G01*
X1407896Y6720095D01*
X1333500Y6794492D01*
X10718800Y6730992D02*
G01*
X10855020Y6594772D01*
X10855020Y5651339D01*
X10409580Y5205900D01*
X9926827Y5205900D01*
X9253016Y4532088D01*
X9100769Y4532088D01*
X8598128Y4029448D01*
X8598128Y3843748D01*
X8383498Y3629118D01*
X7198486Y3629118D01*
X6734225Y3164857D01*
X6031991Y3164857D01*
X5962268Y3095134D01*
X10337800Y6730992D02*
G01*
X10656722Y6412069D01*
X10671454Y6412069D01*
X5905500Y507992D02*
G01*
X6349491Y951984D01*
X7053656Y951984D01*
X7905750Y1804078D01*
X9184208Y1804078D01*
X9855530Y2475400D01*
X10390860Y2475400D01*
X10867263Y2951802D01*
X10897361Y2951802D01*
X10764240Y1649671D02*
G01*
X10157891Y1649671D01*
X9407143Y898923D01*
X7058431Y898923D01*
X6667500Y507992D01*
X7429500Y507992D02*
G01*
X7711617Y790110D01*
X9636252Y790110D01*
X10414000Y1567858D01*
X10917809Y1567858D01*
X9194800Y6730992D02*
G01*
X8891371Y6427563D01*
X7771739Y6427563D01*
X8432800Y6730992D02*
G01*
X8602852Y6901045D01*
X9324111Y6901045D01*
X9364929Y6860227D01*
X9703790Y6860227D01*
X9725279Y6881715D01*
X9734575Y6881715D01*
X9734575Y6863935D01*
X8051800Y6730992D02*
G01*
X8179892Y6602900D01*
X8871915Y6602900D01*
X9129166Y6860151D01*
X9265488Y6860151D01*
X9597212Y6528427D01*
X9757156Y6528427D01*
X10477500Y507992D02*
G01*
X10706379Y736871D01*
X10794314Y736871D01*
X2711754Y6437800D02*
G01*
X6615607Y6437800D01*
X6908800Y6730992D01*
X7670800Y6730992D02*
G01*
X7299426Y6359618D01*
X6121730Y6359618D01*
X5676138Y5914026D01*
X4165930Y5914026D01*
X4042994Y5791090D01*
X10718800Y2984492D02*
G01*
X10532363Y3170928D01*
X9906990Y3170928D01*
X9521926Y3555992D01*
X9207500Y3555992D01*
X6731000Y3555992D02*
G01*
X6622872Y3555992D01*
X4254500Y3555992D02*
G01*
X4146372Y3555992D01*
X4024884Y3370800D02*
G01*
X4146372Y3492289D01*
X4146372Y3555992D01*
X3289300Y2984492D02*
G01*
X3510559Y3205751D01*
X3859834Y3205751D01*
X4024884Y3370800D01*
X9207500Y6286492D02*
G01*
X9315627Y6286492D01*
X9315627Y5940620D02*
G01*
X9315627Y6286492D01*
X10718800Y5714992D02*
G01*
X10493171Y5940620D01*
X9315627Y5940620D01*
X7669733Y5725203D02*
G01*
X7531404Y5863506D01*
X7468412Y5863506D01*
X7045426Y6286492D01*
X6731000Y6286492D01*
X1778000Y6286492D02*
G01*
X1886127Y6286492D01*
X2095500Y9143992D02*
G01*
X2349500Y9143992D01*
X2349500Y507992D02*
G01*
X2349500Y684344D01*
X2455290Y790135D01*
X3591356Y790135D01*
X3873500Y507992D01*
X7669733Y5725203D02*
G01*
X7865414Y5920884D01*
X8501227Y5920884D01*
X8520963Y5940620D01*
X9315627Y5940620D01*
X3035300Y7111992D02*
G01*
X3035300Y6919257D01*
X2516530Y6400487D01*
X2000122Y6400487D01*
X1886127Y6286492D01*
X5765800Y2984492D02*
G01*
X5765800Y3171512D01*
X6622872Y3555992D02*
G01*
X6622872Y3492289D01*
X6336334Y3205751D01*
X5800039Y3205751D01*
X5765800Y3171512D01*
X5765800Y3171512D02*
G01*
X4224172Y3171512D01*
X4024884Y3370800D01*
X8242300Y5714992D02*
G01*
X8114182Y5586874D01*
X7808036Y5586874D01*
X7684465Y5710471D01*
X7684465Y5710471D02*
G01*
X7669733Y5725203D01*
X7684465Y5710471D02*
G01*
X7518908Y5544913D01*
X7280122Y5544913D01*
X7263638Y5528429D01*
X6210960Y5528429D01*
X6024397Y5714992D01*
X5765800Y5714992D01*
X3432657Y5489694D02*
G01*
X5540502Y5489694D01*
X5765800Y5714992D01*
X3289300Y5714992D02*
G01*
X3432657Y5571634D01*
X3432657Y5489694D01*
X3432657Y5489694D02*
G01*
X3432657Y5289745D01*
X2524404Y4381492D01*
X2082800Y4381492D01*
X2095500Y507992D02*
G01*
X2625470Y1037963D01*
X3755770Y1037963D01*
X4459274Y1741467D01*
X4459274Y1757697D01*
D12*
G01*
X2095500Y508000D03*
G01*
X2349500Y508000D03*
G01*
X3619500Y508000D03*
G01*
X3873500Y508000D03*
G01*
X1333500Y508000D03*
G01*
X1587500Y508000D03*
G01*
X10477500Y508000D03*
G01*
X10731500Y508000D03*
G01*
X9715500Y508000D03*
G01*
X9969500Y508000D03*
G01*
X8953500Y508000D03*
G01*
X9207500Y508000D03*
G01*
X8191500Y508000D03*
G01*
X8445500Y508000D03*
G01*
X7429500Y508000D03*
G01*
X7683500Y508000D03*
G01*
X6667500Y508000D03*
G01*
X6921500Y508000D03*
G01*
X5905500Y508000D03*
G01*
X6159500Y508000D03*
G01*
X5143500Y508000D03*
G01*
X5397500Y508000D03*
D13*
G01*
X1215999Y8382000D03*
G01*
X2086000Y8382000D03*
D14*
G01*
X8636000Y9398000D03*
G01*
X8636000Y9144000D03*
G01*
X8382000Y9398000D03*
G01*
X8382000Y9144000D03*
G01*
X8128000Y9398000D03*
G01*
X8128000Y9144000D03*
G01*
X7874000Y9398000D03*
G01*
X7874000Y9144000D03*
G01*
X7620000Y9398000D03*
G01*
X7620000Y9144000D03*
G01*
X7366000Y9398000D03*
G01*
X7366000Y9144000D03*
G01*
X7112000Y9398000D03*
G01*
X7112000Y9144000D03*
G01*
X6858000Y9398000D03*
G01*
X6858000Y9144000D03*
G01*
X6604000Y9398000D03*
G01*
X6604000Y9144000D03*
G01*
X6350000Y9398000D03*
G01*
X6350000Y9144000D03*
G01*
X6096000Y9398000D03*
G01*
X6096000Y9144000D03*
G01*
X5842000Y9398000D03*
G01*
X5842000Y9144000D03*
G01*
X4381500Y9398000D03*
G01*
X4381500Y9144000D03*
G01*
X4127500Y9398000D03*
G01*
X4127500Y9144000D03*
G01*
X3873500Y9398000D03*
G01*
X3873500Y9144000D03*
G01*
X3619500Y9398000D03*
G01*
X3619500Y9144000D03*
G01*
X3365500Y9398000D03*
G01*
X3365500Y9144000D03*
G01*
X3111500Y9398000D03*
G01*
X3111500Y9144000D03*
G01*
X2857500Y9398000D03*
G01*
X2857500Y9144000D03*
G01*
X2603500Y9398000D03*
G01*
X2603500Y9144000D03*
G01*
X2349500Y9398000D03*
G01*
X2349500Y9144000D03*
G01*
X2095500Y9398000D03*
G01*
X2095500Y9144000D03*
G01*
X1841500Y9398000D03*
G01*
X1841500Y9144000D03*
G01*
X1587500Y9398000D03*
G01*
X1587500Y9144000D03*
D15*
G01*
X1333500Y7048500D03*
G01*
X1802892Y7047992D03*
G01*
X1333500Y6286500D03*
G01*
X1778000Y6286500D03*
G01*
X2540000Y6286500D03*
G01*
X2984500Y6286500D03*
G01*
X1333500Y4953000D03*
G01*
X1778000Y4953000D03*
G01*
X3810000Y6286500D03*
G01*
X4254500Y6286500D03*
G01*
X5016500Y6286500D03*
G01*
X5461000Y6286500D03*
G01*
X3810000Y4953000D03*
G01*
X4254500Y4953000D03*
G01*
X6286500Y6286500D03*
G01*
X6731000Y6286500D03*
G01*
X7493000Y6286500D03*
G01*
X7937500Y6286500D03*
G01*
X6286500Y4953000D03*
G01*
X6731000Y4953000D03*
G01*
X8763000Y6286500D03*
G01*
X9207500Y6286500D03*
G01*
X9969500Y6286500D03*
G01*
X10414000Y6286500D03*
G01*
X8763000Y4953000D03*
G01*
X9207500Y4953000D03*
G01*
X1333500Y3556000D03*
G01*
X1778000Y3556000D03*
G01*
X2540000Y3556000D03*
G01*
X2984500Y3556000D03*
G01*
X1333500Y2222500D03*
G01*
X1778000Y2222500D03*
G01*
X3810000Y3556000D03*
G01*
X4254500Y3556000D03*
G01*
X5016500Y3556000D03*
G01*
X5461000Y3556000D03*
G01*
X3810000Y2222500D03*
G01*
X4254500Y2222500D03*
G01*
X6286500Y3556000D03*
G01*
X6731000Y3556000D03*
G01*
X7493000Y3556000D03*
G01*
X7937500Y3556000D03*
G01*
X6286500Y2222500D03*
G01*
X6731000Y2222500D03*
G01*
X8763000Y3556000D03*
G01*
X9207500Y3556000D03*
G01*
X9969500Y3556000D03*
G01*
X10414000Y3556000D03*
G01*
X8763000Y2222500D03*
G01*
X9207500Y2222500D03*
D16*
G01*
X6908800Y7112000D03*
G01*
X6908800Y6731000D03*
G01*
X7289800Y7112000D03*
G01*
X7289800Y6731000D03*
G01*
X7670800Y7112000D03*
G01*
X7670800Y6731000D03*
G01*
X8051800Y7112000D03*
G01*
X8051800Y6731000D03*
G01*
X8432800Y7112000D03*
G01*
X8432800Y6731000D03*
G01*
X8813800Y7112000D03*
G01*
X8813800Y6731000D03*
G01*
X9194800Y7112000D03*
G01*
X9194800Y6731000D03*
G01*
X9575800Y7112000D03*
G01*
X9575800Y6731000D03*
G01*
X9956800Y7112000D03*
G01*
X9956800Y6731000D03*
G01*
X10337800Y7112000D03*
G01*
X10337800Y6731000D03*
G01*
X10718800Y7112000D03*
G01*
X10718800Y6731000D03*
G01*
X2273300Y7112000D03*
G01*
X2273300Y6731000D03*
G01*
X2654300Y7112000D03*
G01*
X2654300Y6731000D03*
G01*
X3035300Y7112000D03*
G01*
X3035300Y6731000D03*
G01*
X1320800Y5715000D03*
G01*
X1320800Y5334000D03*
G01*
X1701800Y5715000D03*
G01*
X1701800Y5334000D03*
G01*
X2082800Y5715000D03*
G01*
X2082800Y5334000D03*
G01*
X2527300Y5715000D03*
G01*
X2527300Y5334000D03*
G01*
X2908300Y5715000D03*
G01*
X2908300Y5334000D03*
G01*
X3289300Y5715000D03*
G01*
X3289300Y5334000D03*
G01*
X1320800Y4381500D03*
G01*
X1320800Y4000500D03*
G01*
X1701800Y4381500D03*
G01*
X1701800Y4000500D03*
G01*
X2082800Y4381500D03*
G01*
X2082800Y4000500D03*
G01*
X3797300Y5715000D03*
G01*
X3797300Y5334000D03*
G01*
X4178300Y5715000D03*
G01*
X4178300Y5334000D03*
G01*
X4559300Y5715000D03*
G01*
X4559300Y5334000D03*
G01*
X5003800Y5715000D03*
G01*
X5003800Y5334000D03*
G01*
X5384800Y5715000D03*
G01*
X5384800Y5334000D03*
G01*
X5765800Y5715000D03*
G01*
X5765800Y5334000D03*
G01*
X3797300Y4381500D03*
G01*
X3797300Y4000500D03*
G01*
X4178300Y4381500D03*
G01*
X4178300Y4000500D03*
G01*
X4559300Y4381500D03*
G01*
X4559300Y4000500D03*
G01*
X6273800Y5715000D03*
G01*
X6273800Y5334000D03*
G01*
X6654800Y5715000D03*
G01*
X6654800Y5334000D03*
G01*
X7035800Y5715000D03*
G01*
X7035800Y5334000D03*
G01*
X7480300Y5715000D03*
G01*
X7480300Y5334000D03*
G01*
X7861300Y5715000D03*
G01*
X7861300Y5334000D03*
G01*
X8242300Y5715000D03*
G01*
X8242300Y5334000D03*
G01*
X6273800Y4381500D03*
G01*
X6273800Y4000500D03*
G01*
X6654800Y4381500D03*
G01*
X6654800Y4000500D03*
G01*
X7035800Y4381500D03*
G01*
X7035800Y4000500D03*
G01*
X8750300Y5715000D03*
G01*
X8750300Y5334000D03*
G01*
X9131300Y5715000D03*
G01*
X9131300Y5334000D03*
G01*
X9512300Y5715000D03*
G01*
X9512300Y5334000D03*
G01*
X9956800Y5715000D03*
G01*
X9956800Y5334000D03*
G01*
X10337800Y5715000D03*
G01*
X10337800Y5334000D03*
G01*
X10718800Y5715000D03*
G01*
X10718800Y5334000D03*
G01*
X8750300Y4381500D03*
G01*
X8750300Y4000500D03*
G01*
X9131300Y4381500D03*
G01*
X9131300Y4000500D03*
G01*
X9512300Y4381500D03*
G01*
X9512300Y4000500D03*
G01*
X1320800Y2984500D03*
G01*
X1320800Y2603500D03*
G01*
X1701800Y2984500D03*
G01*
X1701800Y2603500D03*
G01*
X2082800Y2984500D03*
G01*
X2082800Y2603500D03*
G01*
X2527300Y2984500D03*
G01*
X2527300Y2603500D03*
G01*
X2908300Y2984500D03*
G01*
X2908300Y2603500D03*
G01*
X3289300Y2984500D03*
G01*
X3289300Y2603500D03*
G01*
X1320800Y1651000D03*
G01*
X1320800Y1270000D03*
G01*
X1701800Y1651000D03*
G01*
X1701800Y1270000D03*
G01*
X2082800Y1651000D03*
G01*
X2082800Y1270000D03*
G01*
X3797300Y2984500D03*
G01*
X3797300Y2603500D03*
G01*
X4178300Y2984500D03*
G01*
X4178300Y2603500D03*
G01*
X4559300Y2984500D03*
G01*
X4559300Y2603500D03*
G01*
X5003800Y2984500D03*
G01*
X5003800Y2603500D03*
G01*
X5384800Y2984500D03*
G01*
X5384800Y2603500D03*
G01*
X5765800Y2984500D03*
G01*
X5765800Y2603500D03*
G01*
X3797300Y1651000D03*
G01*
X3797300Y1270000D03*
G01*
X4178300Y1651000D03*
G01*
X4178300Y1270000D03*
G01*
X4559300Y1651000D03*
G01*
X4559300Y1270000D03*
G01*
X6273800Y2984500D03*
G01*
X6273800Y2603500D03*
G01*
X6654800Y2984500D03*
G01*
X6654800Y2603500D03*
G01*
X7035800Y2984500D03*
G01*
X7035800Y2603500D03*
G01*
X7480300Y2984500D03*
G01*
X7480300Y2603500D03*
G01*
X7861300Y2984500D03*
G01*
X7861300Y2603500D03*
G01*
X8242300Y2984500D03*
G01*
X8242300Y2603500D03*
G01*
X6273800Y1651000D03*
G01*
X6273800Y1270000D03*
G01*
X6654800Y1651000D03*
G01*
X6654800Y1270000D03*
G01*
X7035800Y1651000D03*
G01*
X7035800Y1270000D03*
G01*
X8750300Y2984500D03*
G01*
X8750300Y2603500D03*
G01*
X9131300Y2984500D03*
G01*
X9131300Y2603500D03*
G01*
X9512300Y2984500D03*
G01*
X9512300Y2603500D03*
G01*
X9956800Y2984500D03*
G01*
X9956800Y2603500D03*
G01*
X10337800Y2984500D03*
G01*
X10337800Y2603500D03*
G01*
X10718800Y2984500D03*
G01*
X10718800Y2603500D03*
G01*
X8750300Y1651000D03*
G01*
X8750300Y1270000D03*
G01*
X9131300Y1651000D03*
G01*
X9131300Y1270000D03*
G01*
X9512300Y1651000D03*
G01*
X9512300Y1270000D03*
D11*
G01*
X4459274Y1757697D03*
G01*
X4042994Y5791090D03*
G01*
X2711754Y6437800D03*
G01*
X10794314Y736871D03*
G01*
X9757156Y6528427D03*
G01*
X9734575Y6863935D03*
G01*
X7771739Y6427563D03*
G01*
X10917809Y1567858D03*
G01*
X10764240Y1649671D03*
G01*
X10897361Y2951802D03*
G01*
X10671454Y6412069D03*
G01*
X5962268Y3095134D03*
G01*
X1624939Y6720095D03*
G01*
X7852232Y2751142D03*
G01*
X4640579Y8635865D03*
G01*
X5094782Y9648106D03*
G01*
X4127500Y8710744D03*
G01*
X7764221Y8883489D03*
G01*
X6354927Y8965227D03*
G01*
X5510174Y5551009D03*
G01*
X2590215Y5523755D03*
G01*
X6020358Y5609175D03*
G01*
X7225918Y9023875D03*
G01*
X5803823Y7088471D03*
G01*
X4155059Y7310086D03*
G01*
X4007840Y7209960D03*
G01*
X4656963Y7852529D03*
G01*
X8432800Y7380444D03*
G01*
X6436106Y7284940D03*
G01*
X9254134Y4273008D03*
G01*
X8306587Y7424005D03*
G01*
X4783302Y7380470D03*
G01*
X7434199Y6378110D03*
G01*
X4169181Y8479045D03*
G01*
X7304404Y5486290D03*
G01*
X8482939Y6159492D03*
G01*
X5192877Y3434072D03*
G01*
X9512300Y3208342D03*
D17*
X1368498Y6921500D02*
G01*
X1298498Y6921500D01*
X1368498Y6794500D02*
G01*
X1298498Y6794500D01*
X1837890Y6920992D02*
G01*
X1767890Y6920992D01*
X1837890Y6793992D02*
G01*
X1767890Y6793992D01*
X1368498Y6159500D02*
G01*
X1298498Y6159500D01*
X1368498Y6032500D02*
G01*
X1298498Y6032500D01*
X1812998Y6159500D02*
G01*
X1742998Y6159500D01*
X1812998Y6032500D02*
G01*
X1742998Y6032500D01*
X2574998Y6159500D02*
G01*
X2504998Y6159500D01*
X2574998Y6032500D02*
G01*
X2504998Y6032500D01*
X3019498Y6159500D02*
G01*
X2949498Y6159500D01*
X3019498Y6032500D02*
G01*
X2949498Y6032500D01*
X1368498Y4826000D02*
G01*
X1298498Y4826000D01*
X1368498Y4699000D02*
G01*
X1298498Y4699000D01*
X1812998Y4826000D02*
G01*
X1742998Y4826000D01*
X1812998Y4699000D02*
G01*
X1742998Y4699000D01*
X3844998Y6159500D02*
G01*
X3774998Y6159500D01*
X3844998Y6032500D02*
G01*
X3774998Y6032500D01*
X4289498Y6159500D02*
G01*
X4219498Y6159500D01*
X4289498Y6032500D02*
G01*
X4219498Y6032500D01*
X5051498Y6159500D02*
G01*
X4981498Y6159500D01*
X5051498Y6032500D02*
G01*
X4981498Y6032500D01*
X5495998Y6159500D02*
G01*
X5425998Y6159500D01*
X5495998Y6032500D02*
G01*
X5425998Y6032500D01*
X3844998Y4826000D02*
G01*
X3774998Y4826000D01*
X3844998Y4699000D02*
G01*
X3774998Y4699000D01*
X4289498Y4826000D02*
G01*
X4219498Y4826000D01*
X4289498Y4699000D02*
G01*
X4219498Y4699000D01*
X6321498Y6159500D02*
G01*
X6251498Y6159500D01*
X6321498Y6032500D02*
G01*
X6251498Y6032500D01*
X6765998Y6159500D02*
G01*
X6695998Y6159500D01*
X6765998Y6032500D02*
G01*
X6695998Y6032500D01*
X7527998Y6159500D02*
G01*
X7457998Y6159500D01*
X7527998Y6032500D02*
G01*
X7457998Y6032500D01*
X7972498Y6159500D02*
G01*
X7902498Y6159500D01*
X7972498Y6032500D02*
G01*
X7902498Y6032500D01*
X6321498Y4826000D02*
G01*
X6251498Y4826000D01*
X6321498Y4699000D02*
G01*
X6251498Y4699000D01*
X6765998Y4826000D02*
G01*
X6695998Y4826000D01*
X6765998Y4699000D02*
G01*
X6695998Y4699000D01*
X8797998Y6159500D02*
G01*
X8727998Y6159500D01*
X8797998Y6032500D02*
G01*
X8727998Y6032500D01*
X9242498Y6159500D02*
G01*
X9172498Y6159500D01*
X9242498Y6032500D02*
G01*
X9172498Y6032500D01*
X10004498Y6159500D02*
G01*
X9934498Y6159500D01*
X10004498Y6032500D02*
G01*
X9934498Y6032500D01*
X10448998Y6159500D02*
G01*
X10378998Y6159500D01*
X10448998Y6032500D02*
G01*
X10378998Y6032500D01*
X8797998Y4826000D02*
G01*
X8727998Y4826000D01*
X8797998Y4699000D02*
G01*
X8727998Y4699000D01*
X9242498Y4826000D02*
G01*
X9172498Y4826000D01*
X9242498Y4699000D02*
G01*
X9172498Y4699000D01*
X1368498Y3429000D02*
G01*
X1298498Y3429000D01*
X1368498Y3302000D02*
G01*
X1298498Y3302000D01*
X1812998Y3429000D02*
G01*
X1742998Y3429000D01*
X1812998Y3302000D02*
G01*
X1742998Y3302000D01*
X2574998Y3429000D02*
G01*
X2504998Y3429000D01*
X2574998Y3302000D02*
G01*
X2504998Y3302000D01*
X3019498Y3429000D02*
G01*
X2949498Y3429000D01*
X3019498Y3302000D02*
G01*
X2949498Y3302000D01*
X1368498Y2095500D02*
G01*
X1298498Y2095500D01*
X1368498Y1968500D02*
G01*
X1298498Y1968500D01*
X1812998Y2095500D02*
G01*
X1742998Y2095500D01*
X1812998Y1968500D02*
G01*
X1742998Y1968500D01*
X3844998Y3429000D02*
G01*
X3774998Y3429000D01*
X3844998Y3302000D02*
G01*
X3774998Y3302000D01*
X4289498Y3429000D02*
G01*
X4219498Y3429000D01*
X4289498Y3302000D02*
G01*
X4219498Y3302000D01*
X5051498Y3429000D02*
G01*
X4981498Y3429000D01*
X5051498Y3302000D02*
G01*
X4981498Y3302000D01*
X5495998Y3429000D02*
G01*
X5425998Y3429000D01*
X5495998Y3302000D02*
G01*
X5425998Y3302000D01*
X3844998Y2095500D02*
G01*
X3774998Y2095500D01*
X3844998Y1968500D02*
G01*
X3774998Y1968500D01*
X4289498Y2095500D02*
G01*
X4219498Y2095500D01*
X4289498Y1968500D02*
G01*
X4219498Y1968500D01*
X6321498Y3429000D02*
G01*
X6251498Y3429000D01*
X6321498Y3302000D02*
G01*
X6251498Y3302000D01*
X6765998Y3429000D02*
G01*
X6695998Y3429000D01*
X6765998Y3302000D02*
G01*
X6695998Y3302000D01*
X7527998Y3429000D02*
G01*
X7457998Y3429000D01*
X7527998Y3302000D02*
G01*
X7457998Y3302000D01*
X7972498Y3429000D02*
G01*
X7902498Y3429000D01*
X7972498Y3302000D02*
G01*
X7902498Y3302000D01*
X6321498Y2095500D02*
G01*
X6251498Y2095500D01*
X6321498Y1968500D02*
G01*
X6251498Y1968500D01*
X6765998Y2095500D02*
G01*
X6695998Y2095500D01*
X6765998Y1968500D02*
G01*
X6695998Y1968500D01*
X8797998Y3429000D02*
G01*
X8727998Y3429000D01*
X8797998Y3302000D02*
G01*
X8727998Y3302000D01*
X9242498Y3429000D02*
G01*
X9172498Y3429000D01*
X9242498Y3302000D02*
G01*
X9172498Y3302000D01*
X10004498Y3429000D02*
G01*
X9934498Y3429000D01*
X10004498Y3302000D02*
G01*
X9934498Y3302000D01*
X10448998Y3429000D02*
G01*
X10378998Y3429000D01*
X10448998Y3302000D02*
G01*
X10378998Y3302000D01*
X8797998Y2095500D02*
G01*
X8727998Y2095500D01*
X8797998Y1968500D02*
G01*
X8727998Y1968500D01*
X9242498Y2095500D02*
G01*
X9172498Y2095500D01*
X9242498Y1968500D02*
G01*
X9172498Y1968500D01*
M02*
