M48
METRIC,LZ,000.000
;FILE_FORMAT=3:3
;TYPE=PLATED
;Layer: Drill PTH
;EasyEDA v6.4.25, 2021-12-30T01:40:23+01:00
;349a449686454aac8e9d9284578b31c7,bb3cfcbffc6840158e79d7648404357e,10
;Gerber Generator version 0.2
;Holesize 1 = 0.306 mm
T01C0.306
;Holesize 2 = 0.701 mm
T02C0.701
;Holesize 3 = 0.915 mm
T03C0.915
;Holesize 4 = 0.966 mm
T04C0.966
;Holesize 5 = 1.000 mm
T05C1.000
;Holesize 6 = 1.100 mm
T06C1.100
%
G05
G90
T01
X044593Y017577
X040430Y057911
X027118Y064378
X107943Y007369
X097572Y065284
X097346Y068639
X077717Y064276
X109178Y015679
X107642Y016497
X108974Y029518
X106715Y064121
X059623Y030951
X016249Y067201
X078522Y027511
X046406Y086359
X050948Y096481
X041275Y087107
X077642Y088835
X063549Y089652
X055102Y055510
X025902Y055238
X060204Y056092
X072259Y090239
X058038Y070885
X041551Y073101
X040078Y072100
X046570Y078525
X084328Y073804
X064361Y072849
X092541Y042730
X083066Y074240
X047833Y073805
X074342Y063781
X041692Y084790
X073044Y054863
X084829Y061595
X051929Y034341
X095123Y032083
T02
X013335Y070485
X013335Y069215
X013335Y067945
X018029Y070480
X018029Y069210
X018029Y067940
X013335Y062865
X013335Y061595
X013335Y060325
X017780Y062865
X017780Y061595
X017780Y060325
X025400Y062865
X025400Y061595
X025400Y060325
X029845Y062865
X029845Y061595
X029845Y060325
X013335Y049530
X013335Y048260
X013335Y046990
X017780Y049530
X017780Y048260
X017780Y046990
X038100Y062865
X038100Y061595
X038100Y060325
X042545Y062865
X042545Y061595
X042545Y060325
X050165Y062865
X050165Y061595
X050165Y060325
X054610Y062865
X054610Y061595
X054610Y060325
X038100Y049530
X038100Y048260
X038100Y046990
X042545Y049530
X042545Y048260
X042545Y046990
X062865Y062865
X062865Y061595
X062865Y060325
X067310Y062865
X067310Y061595
X067310Y060325
X074930Y062865
X074930Y061595
X074930Y060325
X079375Y062865
X079375Y061595
X079375Y060325
X062865Y049530
X062865Y048260
X062865Y046990
X067310Y049530
X067310Y048260
X067310Y046990
X087630Y062865
X087630Y061595
X087630Y060325
X092075Y062865
X092075Y061595
X092075Y060325
X099695Y062865
X099695Y061595
X099695Y060325
X104140Y062865
X104140Y061595
X104140Y060325
X087630Y049530
X087630Y048260
X087630Y046990
X092075Y049530
X092075Y048260
X092075Y046990
X013335Y035560
X013335Y034290
X013335Y033020
X017780Y035560
X017780Y034290
X017780Y033020
X025400Y035560
X025400Y034290
X025400Y033020
X029845Y035560
X029845Y034290
X029845Y033020
X013335Y022225
X013335Y020955
X013335Y019685
X017780Y022225
X017780Y020955
X017780Y019685
X038100Y035560
X038100Y034290
X038100Y033020
X042545Y035560
X042545Y034290
X042545Y033020
X050165Y035560
X050165Y034290
X050165Y033020
X054610Y035560
X054610Y034290
X054610Y033020
X038100Y022225
X038100Y020955
X038100Y019685
X042545Y022225
X042545Y020955
X042545Y019685
X062865Y035560
X062865Y034290
X062865Y033020
X067310Y035560
X067310Y034290
X067310Y033020
X074930Y035560
X074930Y034290
X074930Y033020
X079375Y035560
X079375Y034290
X079375Y033020
X062865Y022225
X062865Y020955
X062865Y019685
X067310Y022225
X067310Y020955
X067310Y019685
X087630Y035560
X087630Y034290
X087630Y033020
X092075Y035560
X092075Y034290
X092075Y033020
X099695Y035560
X099695Y034290
X099695Y033020
X104140Y035560
X104140Y034290
X104140Y033020
X087630Y022225
X087630Y020955
X087630Y019685
X092075Y022225
X092075Y020955
X092075Y019685
T03
X069088Y071120
X069088Y067310
X072898Y071120
X072898Y067310
X076708Y071120
X076708Y067310
X080518Y071120
X080518Y067310
X084328Y071120
X084328Y067310
X088138Y071120
X088138Y067310
X091948Y071120
X091948Y067310
X095758Y071120
X095758Y067310
X099568Y071120
X099568Y067310
X103378Y071120
X103378Y067310
X107188Y071120
X107188Y067310
X022733Y071120
X022733Y067310
X026543Y071120
X026543Y067310
X030353Y071120
X030353Y067310
X013208Y057150
X013208Y053340
X017018Y057150
X017018Y053340
X020828Y057150
X020828Y053340
X025273Y057150
X025273Y053340
X029083Y057150
X029083Y053340
X032893Y057150
X032893Y053340
X013208Y043815
X013208Y040005
X017018Y043815
X017018Y040005
X020828Y043815
X020828Y040005
X037973Y057150
X037973Y053340
X041783Y057150
X041783Y053340
X045593Y057150
X045593Y053340
X050038Y057150
X050038Y053340
X053848Y057150
X053848Y053340
X057658Y057150
X057658Y053340
X037973Y043815
X037973Y040005
X041783Y043815
X041783Y040005
X045593Y043815
X045593Y040005
X062738Y057150
X062738Y053340
X066548Y057150
X066548Y053340
X070358Y057150
X070358Y053340
X074803Y057150
X074803Y053340
X078613Y057150
X078613Y053340
X082423Y057150
X082423Y053340
X062738Y043815
X062738Y040005
X066548Y043815
X066548Y040005
X070358Y043815
X070358Y040005
X087503Y057150
X087503Y053340
X091313Y057150
X091313Y053340
X095123Y057150
X095123Y053340
X099568Y057150
X099568Y053340
X103378Y057150
X103378Y053340
X107188Y057150
X107188Y053340
X087503Y043815
X087503Y040005
X091313Y043815
X091313Y040005
X095123Y043815
X095123Y040005
X013208Y029845
X013208Y026035
X017018Y029845
X017018Y026035
X020828Y029845
X020828Y026035
X025273Y029845
X025273Y026035
X029083Y029845
X029083Y026035
X032893Y029845
X032893Y026035
X013208Y016510
X013208Y012700
X017018Y016510
X017018Y012700
X020828Y016510
X020828Y012700
X037973Y029845
X037973Y026035
X041783Y029845
X041783Y026035
X045593Y029845
X045593Y026035
X050038Y029845
X050038Y026035
X053848Y029845
X053848Y026035
X057658Y029845
X057658Y026035
X037973Y016510
X037973Y012700
X041783Y016510
X041783Y012700
X045593Y016510
X045593Y012700
X062738Y029845
X062738Y026035
X066548Y029845
X066548Y026035
X070358Y029845
X070358Y026035
X074803Y029845
X074803Y026035
X078613Y029845
X078613Y026035
X082423Y029845
X082423Y026035
X062738Y016510
X062738Y012700
X066548Y016510
X066548Y012700
X070358Y016510
X070358Y012700
X087503Y029845
X087503Y026035
X091313Y029845
X091313Y026035
X095123Y029845
X095123Y026035
X099568Y029845
X099568Y026035
X103378Y029845
X103378Y026035
X107188Y029845
X107188Y026035
X087503Y016510
X087503Y012700
X091313Y016510
X091313Y012700
X095123Y016510
X095123Y012700
T04
X020955Y005080
X023495Y005080
X036195Y005080
X038735Y005080
X013335Y005080
X015875Y005080
X104775Y005080
X107315Y005080
X097155Y005080
X099695Y005080
X089535Y005080
X092075Y005080
X081915Y005080
X084455Y005080
X074295Y005080
X076835Y005080
X066675Y005080
X069215Y005080
X059055Y005080
X061595Y005080
X051435Y005080
X053975Y005080
T05
X012160Y083820
X020860Y083820
T06
X086360Y093980
X086360Y091440
X083820Y093980
X083820Y091440
X081280Y093980
X081280Y091440
X078740Y093980
X078740Y091440
X076200Y093980
X076200Y091440
X073660Y093980
X073660Y091440
X071120Y093980
X071120Y091440
X068580Y093980
X068580Y091440
X066040Y093980
X066040Y091440
X063500Y093980
X063500Y091440
X060960Y093980
X060960Y091440
X058420Y093980
X058420Y091440
X043815Y093980
X043815Y091440
X041275Y093980
X041275Y091440
X038735Y093980
X038735Y091440
X036195Y093980
X036195Y091440
X033655Y093980
X033655Y091440
X031115Y093980
X031115Y091440
X028575Y093980
X028575Y091440
X026035Y093980
X026035Y091440
X023495Y093980
X023495Y091440
X020955Y093980
X020955Y091440
X018415Y093980
X018415Y091440
X015875Y093980
X015875Y091440
M30
