G04 Layer: BottomLayer*
G04 EasyEDA v6.4.25, 2021-12-30T01:40:23+01:00*
G04 349a449686454aac8e9d9284578b31c7,bb3cfcbffc6840158e79d7648404357e,10*
G04 Gerber Generator version 0.2*
G04 Scale: 100 percent, Rotated: No, Reflected: No *
G04 Dimensions in millimeters *
G04 leading zeros omitted , absolute positions ,4 integer and 5 decimal *
%FSLAX45Y45*%
%MOMM*%

%ADD10C,0.2540*%
%ADD11C,0.6100*%
%ADD12C,1.6510*%
%ADD13C,1.8000*%
%ADD14C,1.5240*%
%ADD15R,1.6000X0.9000*%
%ADD16C,1.9990*%
%ADD17C,0.9000*%

%LPD*%
D10*
X4154931Y7310120D02*
G01*
X4366513Y7521447D01*
X4366513Y7855712D01*
X5527040Y9036050D01*
X5798820Y9036093D01*
X5888001Y9036093D01*
X5969000Y9124442D01*
X5969000Y9184894D01*
X6045454Y9260331D01*
X6233668Y9260331D01*
X6350000Y9144000D01*
X5384800Y5714992D02*
G01*
X5645937Y5976129D01*
X5645937Y8351436D01*
X6334175Y9039674D01*
X6393205Y9039674D01*
X6454317Y9100786D01*
X6454317Y9187197D01*
X6393205Y9248310D01*
X6348349Y9248310D01*
X6200317Y9396341D01*
X6200317Y9441197D01*
X6139205Y9502310D01*
X5798820Y9502310D01*
X5737682Y9441172D01*
X5737682Y9354812D01*
X5797410Y9291464D01*
X5842622Y9291464D01*
X5842000Y9271000D01*
X5842000Y9271000D01*
X5842000Y9271000D01*
X5842000Y9207500D01*
X5842000Y9144000D01*
X5842000Y9144000D01*
X5842000Y9143992D01*
X9131300Y1269992D02*
G01*
X9315627Y1454320D01*
X9315627Y2000750D01*
X9220885Y2095492D01*
X9207500Y2095492D01*
X8750300Y1269992D02*
G01*
X8879357Y1399049D01*
X8879357Y2000216D01*
X8784081Y2095492D01*
X8763000Y2095492D01*
X10337800Y2603492D02*
G01*
X10522127Y2787820D01*
X10522127Y3334250D01*
X10427385Y3428992D01*
X10414000Y3428992D01*
X9956800Y2603492D02*
G01*
X9821443Y2738848D01*
X9821443Y3315225D01*
X9935209Y3428992D01*
X9969500Y3428992D01*
X10414000Y3555992D02*
G01*
X10522127Y3555992D01*
X10718800Y2603492D02*
G01*
X10562996Y2759295D01*
X10562996Y3515123D01*
X10522127Y3555992D01*
X9131300Y2603492D02*
G01*
X9001836Y2732956D01*
X9001836Y3055891D01*
X9174810Y3228865D01*
X9272752Y3228865D01*
X9315602Y3271715D01*
X9315602Y3332269D01*
X9218879Y3428992D01*
X9207500Y3428992D01*
X9512300Y2984492D02*
G01*
X9512300Y3208342D01*
X8763000Y3301992D02*
G01*
X8565718Y3104710D01*
X8565718Y1835574D01*
X8750300Y1650992D01*
X8750300Y2603492D02*
G01*
X8621445Y2732346D01*
X8621445Y3054291D01*
X8730310Y3163155D01*
X8777782Y3163155D01*
X8886825Y3272198D01*
X8886825Y3340168D01*
X8798001Y3428992D01*
X8763000Y3428992D01*
X6731000Y2095492D02*
G01*
X6744385Y2095492D01*
X6839127Y2000750D01*
X6839127Y1454320D01*
X6654800Y1269992D01*
X6273800Y1269992D02*
G01*
X6402857Y1399049D01*
X6402857Y2000216D01*
X6307581Y2095492D01*
X6286500Y2095492D01*
X6731000Y1968492D02*
G01*
X6696176Y1968492D01*
X6442176Y2222492D01*
X6286500Y2222492D01*
X7861300Y2603492D02*
G01*
X8045627Y2787820D01*
X8045627Y3334250D01*
X7950885Y3428992D01*
X7937500Y3428992D01*
X7480300Y2603492D02*
G01*
X7344943Y2738848D01*
X7344943Y3315225D01*
X7458709Y3428992D01*
X7493000Y3428992D01*
X8242300Y2603492D02*
G01*
X8109026Y2736766D01*
X8109026Y3492593D01*
X8045627Y3555992D01*
X7937500Y3555992D02*
G01*
X8045627Y3555992D01*
X6654800Y2603492D02*
G01*
X6852970Y2603492D01*
X7173163Y2923684D01*
X7173163Y3036587D01*
X6780758Y3428992D01*
X6731000Y3428992D01*
X6475907Y3112584D02*
G01*
X6475907Y2612788D01*
X6175806Y2312687D01*
X6175806Y1748985D01*
X6273800Y1650992D01*
X7035800Y2984492D02*
G01*
X6907707Y3112584D01*
X6475907Y3112584D01*
X6475907Y3112584D02*
G01*
X6286500Y3301992D01*
X6273800Y2603492D02*
G01*
X6142304Y2734988D01*
X6142304Y3304887D01*
X6266408Y3428992D01*
X6286500Y3428992D01*
X6731000Y3301992D02*
G01*
X6696176Y3301992D01*
X6442176Y3555992D01*
X6286500Y3555992D01*
X4254500Y2095492D02*
G01*
X4267885Y2095492D01*
X4362627Y2000750D01*
X4362627Y1915279D01*
X4321784Y1874436D01*
X4321784Y1413476D01*
X4178300Y1269992D01*
X3797300Y1269992D02*
G01*
X3926357Y1399049D01*
X3926357Y2000216D01*
X3831081Y2095492D01*
X3810000Y2095492D01*
X4254500Y1968492D02*
G01*
X4219676Y1968492D01*
X3965676Y2222492D01*
X3810000Y2222492D01*
X5384800Y2603492D02*
G01*
X5569127Y2787820D01*
X5569127Y3334250D01*
X5474385Y3428992D01*
X5461000Y3428992D01*
X5003800Y2603492D02*
G01*
X5192877Y2792569D01*
X5192877Y3434072D01*
X5461000Y3555992D02*
G01*
X5569127Y3555992D01*
X5765800Y2603492D02*
G01*
X5609996Y2759295D01*
X5609996Y3515123D01*
X5569127Y3555992D01*
X4178300Y2603492D02*
G01*
X4373321Y2798513D01*
X4373321Y3336180D01*
X4280509Y3428992D01*
X4254500Y3428992D01*
X3926687Y2548780D02*
G01*
X4001922Y2473545D01*
X4229531Y2473545D01*
X4342206Y2586220D01*
X4342206Y2647840D01*
X4559300Y2864934D01*
X4559300Y2984492D01*
X3810000Y3301992D02*
G01*
X3926687Y3185304D01*
X3926687Y2548780D01*
X3926687Y2548780D02*
G01*
X3690391Y2312484D01*
X3690391Y1757900D01*
X3797300Y1650992D01*
X3797300Y2603492D02*
G01*
X3665804Y2734988D01*
X3665804Y3304887D01*
X3789908Y3428992D01*
X3810000Y3428992D01*
X4254500Y3301992D02*
G01*
X4219676Y3301992D01*
X3965676Y3555992D01*
X3810000Y3555992D01*
X1778000Y2095492D02*
G01*
X1791385Y2095492D01*
X1886127Y2000750D01*
X1886127Y1819495D01*
X1859178Y1792546D01*
X1859178Y1427370D01*
X1701800Y1269992D01*
X1320800Y1269992D02*
G01*
X1460982Y1410174D01*
X1460982Y2002680D01*
X1368170Y2095492D01*
X1333500Y2095492D01*
X1778000Y1968492D02*
G01*
X1743176Y1968492D01*
X1489176Y2222492D01*
X1333500Y2222492D01*
X2908300Y2603492D02*
G01*
X3092627Y2787820D01*
X3092627Y3334250D01*
X2997885Y3428992D01*
X2984500Y3428992D01*
X2527300Y2603492D02*
G01*
X2391943Y2738848D01*
X2391943Y3315225D01*
X2505709Y3428992D01*
X2540000Y3428992D01*
X2984500Y3555992D02*
G01*
X3092627Y3555992D01*
X3289300Y2603492D02*
G01*
X3133496Y2759295D01*
X3133496Y3515123D01*
X3092627Y3555992D01*
X1701800Y2603492D02*
G01*
X1899970Y2603492D01*
X2220163Y2923684D01*
X2220163Y3036587D01*
X1827758Y3428992D01*
X1778000Y3428992D01*
X1320800Y1650992D02*
G01*
X1188262Y1783529D01*
X1188262Y3156755D01*
X1333500Y3301992D01*
X2082800Y2984492D02*
G01*
X1954707Y3112584D01*
X1522907Y3112584D01*
X1333500Y3301992D01*
X9131300Y4000492D02*
G01*
X9315627Y4184820D01*
X9315627Y4731250D01*
X9220885Y4825992D01*
X9207500Y4825992D01*
X8750300Y4000492D02*
G01*
X8879357Y4129549D01*
X8879357Y4730716D01*
X8784081Y4825992D01*
X8763000Y4825992D01*
X10337800Y5333992D02*
G01*
X10522127Y5518320D01*
X10522127Y6064750D01*
X10427385Y6159492D01*
X10414000Y6159492D01*
X9956800Y5333992D02*
G01*
X9824847Y5465945D01*
X9824847Y6049129D01*
X9935209Y6159492D01*
X9969500Y6159492D01*
X10414000Y6286492D02*
G01*
X10522127Y6286492D01*
X10718800Y5333992D02*
G01*
X10562996Y5489795D01*
X10562996Y6245623D01*
X10522127Y6286492D01*
X9131300Y5333992D02*
G01*
X9329470Y5333992D01*
X9649663Y5654184D01*
X9649663Y5767087D01*
X9257258Y6159492D01*
X9207500Y6159492D01*
X9512300Y5714992D02*
G01*
X9371456Y5714992D01*
X9053956Y6032492D01*
X8763000Y6032492D01*
X8750300Y5333992D02*
G01*
X8482939Y5601352D01*
X8482939Y6159492D01*
X6654800Y4000492D02*
G01*
X6839127Y4184820D01*
X6839127Y4731250D01*
X6744385Y4825992D01*
X6731000Y4825992D01*
X6273800Y4000492D02*
G01*
X6402857Y4129549D01*
X6402857Y4730716D01*
X6307581Y4825992D01*
X6286500Y4825992D01*
X7861300Y5333992D02*
G01*
X8045627Y5518320D01*
X8045627Y6064750D01*
X7950885Y6159492D01*
X7937500Y6159492D01*
X7304404Y5486290D02*
G01*
X7304404Y5998811D01*
X7465085Y6159492D01*
X7493000Y6159492D01*
X7937500Y6286492D02*
G01*
X8045627Y6286492D01*
X8242300Y5333992D02*
G01*
X8086496Y5489795D01*
X8086496Y6245623D01*
X8045627Y6286492D01*
X6654800Y5333992D02*
G01*
X6513677Y5475114D01*
X6513677Y5963251D01*
X6709918Y6159492D01*
X6731000Y6159492D01*
X6273800Y4381492D02*
G01*
X6141262Y4514029D01*
X6141262Y5887255D01*
X6286500Y6032492D01*
X6273800Y5333992D02*
G01*
X6403111Y5463303D01*
X6403111Y6068001D01*
X6311620Y6159492D01*
X6286500Y6159492D01*
X4178300Y4000492D02*
G01*
X4362627Y4184820D01*
X4362627Y4731250D01*
X4267885Y4825992D01*
X4254500Y4825992D01*
X3797300Y4000492D02*
G01*
X3666134Y4131657D01*
X3666134Y4450783D01*
X3775506Y4560155D01*
X3818305Y4560155D01*
X3918889Y4660739D01*
X3918889Y4728557D01*
X3821455Y4825992D01*
X3810000Y4825992D01*
X5384800Y5333992D02*
G01*
X5238750Y5480042D01*
X5238750Y5958324D01*
X5439918Y6159492D01*
X5461000Y6159492D01*
X5016500Y6159492D02*
G01*
X5039664Y6159492D01*
X5141442Y6057714D01*
X5141442Y5471634D01*
X5003800Y5333992D01*
X5124627Y6286492D02*
G01*
X5197856Y6213264D01*
X5197856Y5323908D01*
X5320207Y5201556D01*
X5633364Y5201556D01*
X5765800Y5333992D01*
X5016500Y6286492D02*
G01*
X5124627Y6286492D01*
X4178300Y5333992D02*
G01*
X4418202Y5573895D01*
X4623968Y5573895D01*
X4690999Y5640925D01*
X4690999Y5770846D01*
X4302353Y6159492D01*
X4254500Y6159492D01*
X4559300Y5714992D02*
G01*
X4424578Y5849713D01*
X4006037Y5849713D01*
X3999407Y5843084D01*
X3810000Y6032492D02*
G01*
X3999407Y5843084D01*
X3999407Y5843084D02*
G01*
X3982440Y5826117D01*
X3982440Y4566632D01*
X3797300Y4381492D01*
X3797300Y5333992D02*
G01*
X3665804Y5465488D01*
X3665804Y6035387D01*
X3789908Y6159492D01*
X3810000Y6159492D01*
X1701800Y4000492D02*
G01*
X1886127Y4184820D01*
X1886127Y4731250D01*
X1791385Y4825992D01*
X1778000Y4825992D01*
X1320800Y4000492D02*
G01*
X1449857Y4129549D01*
X1449857Y4730716D01*
X1354581Y4825992D01*
X1333500Y4825992D01*
X2908300Y5333992D02*
G01*
X3106902Y5532594D01*
X3106902Y6071379D01*
X3018790Y6159492D01*
X2984500Y6159492D01*
X2527300Y5333992D02*
G01*
X2669844Y5476537D01*
X2669844Y6060076D01*
X2570429Y6159492D01*
X2540000Y6159492D01*
X3092627Y6286492D02*
G01*
X3147796Y6231323D01*
X3147796Y5475495D01*
X3289300Y5333992D01*
X2984500Y6286492D02*
G01*
X3092627Y6286492D01*
X1701800Y5333992D02*
G01*
X1898878Y5531070D01*
X1898878Y6072167D01*
X1811553Y6159492D01*
X1778000Y6159492D01*
X1320800Y4381492D02*
G01*
X1188262Y4514029D01*
X1188262Y5887255D01*
X1333500Y6032492D01*
X1320800Y5333992D02*
G01*
X1457223Y5470415D01*
X1457223Y6068915D01*
X1366646Y6159492D01*
X1333500Y6159492D01*
X1802892Y7047984D02*
G01*
X1911019Y7047984D01*
X1911019Y7047984D02*
G01*
X2107336Y7244300D01*
X2703144Y7244300D01*
X3035300Y6912145D01*
X3035300Y6730992D01*
X1333500Y7048492D02*
G01*
X1441627Y7048492D01*
X1441627Y7048492D02*
G01*
X1441627Y8998120D01*
X1587500Y9143992D01*
X9207500Y2222492D02*
G01*
X9315627Y2222492D01*
X9315627Y2222492D02*
G01*
X9382074Y2222492D01*
X9512300Y1269992D02*
G01*
X9382074Y1400218D01*
X9382074Y2222492D01*
X4169181Y8479045D02*
G01*
X3268446Y8479045D01*
X2603500Y9143992D01*
X10718800Y7111992D02*
G01*
X10848695Y6982096D01*
X10848695Y6672191D01*
X10635335Y6458831D01*
X10405795Y6458831D01*
X10113187Y6166223D01*
X10113187Y3927137D01*
X9382074Y3196023D01*
X9382074Y2222492D01*
X6731000Y2222492D02*
G01*
X6839127Y2222492D01*
X6839127Y2222492D02*
G01*
X6882511Y2179109D01*
X6882511Y1423281D01*
X7035800Y1269992D01*
X7434199Y6378110D02*
G01*
X7405293Y6378110D01*
X7245781Y6218598D01*
X7245781Y2629146D01*
X6839127Y2222492D01*
X4254500Y2222492D02*
G01*
X4362627Y2222492D01*
X4362627Y2222492D02*
G01*
X4403496Y2181623D01*
X4403496Y1898337D01*
X4383049Y1877890D01*
X4383049Y1446242D01*
X4559300Y1269992D01*
X4362627Y2222492D02*
G01*
X4403470Y2263335D01*
X4403470Y2630492D01*
X4737557Y2964578D01*
X4737557Y4892337D01*
X4423968Y5205925D01*
X4423968Y5390253D01*
X4521911Y5488195D01*
X4663211Y5488195D01*
X4783302Y5608286D01*
X4783302Y7380470D01*
X1778000Y2222492D02*
G01*
X1886127Y2222492D01*
X2082800Y1269992D02*
G01*
X1900046Y1452745D01*
X1900046Y1775604D01*
X1940915Y1816473D01*
X1940915Y2167704D01*
X1886127Y2222492D01*
X1886127Y2222492D02*
G01*
X2262657Y2599021D01*
X2262657Y4638413D01*
X1762226Y5138844D01*
X1623009Y5138844D01*
X1527555Y5234297D01*
X1527555Y8411837D01*
X2222500Y9106781D01*
X2222500Y9183692D01*
X2309799Y9270992D01*
X2730500Y9270992D01*
X2857500Y9397992D01*
X9207500Y4952992D02*
G01*
X9315627Y4952992D01*
X9099372Y4952992D02*
G01*
X9099372Y4599348D01*
X9259900Y4438820D01*
X9259900Y4278774D01*
X9254134Y4273008D01*
X9207500Y4952992D02*
G01*
X9099372Y4952992D01*
X9194800Y7111992D02*
G01*
X9385300Y6921492D01*
X9385300Y6328910D01*
X9693706Y6020503D01*
X9693706Y5331071D01*
X9315627Y4952992D01*
X9194800Y7111992D02*
G01*
X8867698Y7439093D01*
X8321675Y7439093D01*
X8306587Y7424005D01*
X7035800Y4000492D02*
G01*
X6879996Y4156295D01*
X6879996Y4912123D01*
X6839127Y4952992D01*
X6731000Y4952992D02*
G01*
X6739763Y4952992D01*
X6739763Y4952992D02*
G01*
X6839127Y4952992D01*
X6436106Y7284940D02*
G01*
X6788658Y6932388D01*
X7286370Y6932388D01*
X7418374Y6800385D01*
X7418374Y6506811D01*
X7163866Y6252303D01*
X7163866Y5661957D01*
X6739763Y5237853D01*
X6739763Y4952992D01*
X8432800Y7111992D02*
G01*
X8432800Y7380444D01*
X4559300Y4000492D02*
G01*
X4403496Y4156295D01*
X4403496Y4912123D01*
X4362627Y4952992D01*
X4254500Y4952992D02*
G01*
X4313224Y4952992D01*
X4313224Y4952992D02*
G01*
X4362627Y4952992D01*
X4313224Y4952992D02*
G01*
X4313224Y5337345D01*
X4504943Y5529064D01*
X4646269Y5529064D01*
X4742434Y5625228D01*
X4742434Y6197439D01*
X4656963Y6282910D01*
X4656963Y7852529D01*
X1778000Y4952992D02*
G01*
X1886127Y4952992D01*
X1886127Y4952992D02*
G01*
X1946478Y4892641D01*
X1946478Y4136814D01*
X2082800Y4000492D01*
X3365500Y9397992D02*
G01*
X3492500Y9270992D01*
X3492500Y9106400D01*
X3677056Y8921843D01*
X3813429Y8921843D01*
X4229430Y8505842D01*
X4229430Y7489360D01*
X4007840Y7267770D01*
X4007840Y7209960D01*
X2854502Y5714992D02*
G01*
X2908300Y5714992D01*
X2854502Y5714992D02*
G01*
X2854502Y6911789D01*
X2654300Y7111992D01*
X1701800Y5714992D02*
G01*
X1669846Y5746945D01*
X1669846Y6351541D01*
X2239797Y6921492D01*
X2463800Y6921492D01*
X2654300Y7111992D01*
X10337800Y2984492D02*
G01*
X10199877Y3122414D01*
X10199877Y5577070D01*
X10337800Y5714992D01*
X2908300Y2984492D02*
G01*
X2770377Y3122414D01*
X2770377Y5630867D01*
X2854502Y5714992D01*
X7861300Y5714992D02*
G01*
X7820990Y5755302D01*
X7820990Y6375773D01*
X7848091Y6402875D01*
X7848091Y6934700D01*
X7670800Y7111992D01*
X5803823Y7088471D02*
G01*
X5803823Y8294870D01*
X6495186Y8986232D01*
X6495186Y9252805D01*
X6350000Y9397992D01*
X6858000Y9143992D02*
G01*
X6985000Y9270992D01*
X6985000Y9419277D01*
X7069734Y9504011D01*
X7429982Y9504011D01*
X7493000Y9440994D01*
X7493000Y7851945D01*
X8582456Y6762488D01*
X8582456Y6001428D01*
X8678722Y5905162D01*
X8745118Y5905162D01*
X8927718Y5722561D01*
X8927718Y3161911D01*
X8750300Y2984492D01*
X7480300Y2984492D02*
G01*
X7611084Y3115276D01*
X7611084Y3719873D01*
X7350734Y3980223D01*
X7350734Y5449689D01*
X7363028Y5461982D01*
X7363028Y5510598D01*
X7350734Y5522892D01*
X7350734Y5770516D01*
X7526096Y5945878D01*
X7551826Y5945878D01*
X7649083Y6043134D01*
X7649083Y6437215D01*
X7533436Y6552862D01*
X7533436Y6916793D01*
X7458735Y6991494D01*
X7458735Y7181943D01*
X7226503Y7414176D01*
X7226477Y7414176D01*
X7226477Y9023316D01*
X7225918Y9023875D01*
X5003800Y2984492D02*
G01*
X5134254Y3114946D01*
X5134254Y4408162D01*
X5961710Y5235618D01*
X5961710Y6574858D01*
X6002578Y6615727D01*
X6002578Y8034571D01*
X7112000Y9143992D01*
X7112000Y9397992D02*
G01*
X7219137Y9290855D01*
X7219137Y9099999D01*
X6043447Y7924309D01*
X6043447Y6598785D01*
X6020358Y6575696D01*
X6020358Y5609175D01*
X7366000Y9143992D02*
G01*
X7366000Y7616664D01*
X8541588Y6441076D01*
X8541588Y5923704D01*
X8750300Y5714992D01*
X7480300Y5714992D02*
G01*
X7689977Y5924669D01*
X7689977Y6533202D01*
X7800568Y6643794D01*
X7800568Y6782376D01*
X7499604Y7083341D01*
X7499604Y7215776D01*
X7284542Y7430838D01*
X7284542Y9048183D01*
X7260031Y9072694D01*
X7260031Y9292023D01*
X7366000Y9397992D01*
X5003800Y5714992D02*
G01*
X4867986Y5579178D01*
X4867986Y5271838D01*
X4982108Y5157716D01*
X5773165Y5157716D01*
X5920841Y5305391D01*
X5920841Y6591800D01*
X5961684Y6632643D01*
X5961684Y8270333D01*
X6731000Y9039649D01*
X6731000Y9424052D01*
X6859346Y9552398D01*
X7617866Y9552398D01*
X7727238Y9443026D01*
X7727238Y9251231D01*
X7620000Y9143992D01*
X2527300Y5714992D02*
G01*
X2590215Y5652076D01*
X2590215Y5523755D01*
X5510174Y5551009D02*
G01*
X5510174Y5640494D01*
X5707227Y5837547D01*
X5707227Y8317527D01*
X6354927Y8965227D01*
X7874000Y9397992D02*
G01*
X7988934Y9283057D01*
X7988934Y9108203D01*
X7764221Y8883489D01*
X4127500Y9143992D02*
G01*
X4127500Y8710744D01*
X4127500Y9397992D02*
G01*
X4377613Y9648106D01*
X5094782Y9648106D01*
X4381500Y9143992D02*
G01*
X4640579Y8884912D01*
X4640579Y8635865D01*
X10070211Y3629144D02*
G01*
X10154056Y3712989D01*
X10154056Y5772548D01*
X10414000Y6032492D01*
X9512300Y2603492D02*
G01*
X9695992Y2787185D01*
X9695992Y3452106D01*
X9873030Y3629144D01*
X10070211Y3629144D01*
X10070211Y3629144D02*
G01*
X10077653Y3621702D01*
X10077653Y3382764D01*
X9996881Y3301992D01*
X9969500Y3301992D01*
X4848174Y3301992D02*
G01*
X5016500Y3301992D01*
X4559300Y2603492D02*
G01*
X4848174Y2892366D01*
X4848174Y3301992D01*
X4848174Y3301992D02*
G01*
X4848174Y5045118D01*
X4559300Y5333992D01*
X2984500Y3301992D02*
G01*
X2959125Y3301992D01*
X2868802Y3392314D01*
X2868802Y3757795D01*
X3810000Y4698992D01*
X8528634Y4464626D02*
G01*
X7724470Y5268790D01*
X7724470Y5396984D01*
X8004733Y5677247D01*
X8004733Y5965258D01*
X7937500Y6032492D01*
X7937500Y3301992D02*
G01*
X7912150Y3301992D01*
X7819542Y3394600D01*
X7819542Y3755534D01*
X8528634Y4464626D01*
X8528634Y4464626D02*
G01*
X8763000Y4698992D01*
X7937500Y3301992D02*
G01*
X8004733Y3234758D01*
X8004733Y2903644D01*
X7852232Y2751142D01*
X2540000Y6032492D02*
G01*
X2350592Y5843084D01*
X2350592Y5601784D01*
X2082800Y5333992D01*
X4559300Y5333992D02*
G01*
X4566818Y5333992D01*
X4827092Y5594266D01*
X4827092Y5843084D01*
X5016500Y6032492D01*
X6908800Y7111992D02*
G01*
X7036866Y7240059D01*
X7342835Y7240059D01*
X7417866Y7165027D01*
X7417866Y6858703D01*
X7464221Y6812348D01*
X7464221Y6466552D01*
X7493000Y6032492D02*
G01*
X7506411Y6032492D01*
X7601153Y6127234D01*
X7601153Y6359136D01*
X7493736Y6466552D01*
X7464221Y6466552D01*
X7464221Y6466552D02*
G01*
X7435926Y6466552D01*
X7204735Y6235362D01*
X7204735Y5502927D01*
X7035800Y5333992D01*
X2082800Y5333992D02*
G01*
X1952828Y5204020D01*
X1644878Y5204020D01*
X1568450Y5280449D01*
X1568450Y6591724D01*
X1660880Y6684154D01*
X1660880Y6684154D02*
G01*
X1624939Y6720095D01*
X1775840Y6799115D02*
G01*
X1660880Y6684154D01*
X1802892Y6793984D02*
G01*
X1780971Y6793984D01*
X1775840Y6799115D01*
X1775840Y6799115D02*
G01*
X1694281Y6880674D01*
X1694281Y7990273D01*
X2086000Y8381992D01*
X2349500Y9397992D02*
G01*
X2222500Y9270992D01*
X1554581Y9270992D01*
X1215999Y8932410D01*
X1215999Y8381992D01*
X6604000Y9397992D02*
G01*
X6288100Y9713892D01*
X2665399Y9713892D01*
X2349500Y9397992D01*
X5962268Y3095134D02*
G01*
X5962268Y1326761D01*
X5143500Y507992D01*
X10671454Y6412069D02*
G01*
X10897361Y6186162D01*
X10897361Y2951802D01*
X10764240Y1649671D02*
G01*
X10958677Y1844108D01*
X10958677Y7060354D01*
X10770260Y7248771D01*
X10674426Y7248771D01*
X10156647Y6730992D01*
X9956800Y6730992D01*
X10917809Y1567858D02*
G01*
X11040414Y1690463D01*
X11040414Y7094237D01*
X10804143Y7330508D01*
X9994188Y7330508D01*
X9575800Y6912119D01*
X9575800Y6730992D01*
X8191500Y507992D02*
G01*
X7724520Y974971D01*
X7724520Y3589748D01*
X7672349Y3641920D01*
X7672349Y5718522D01*
X7771739Y5817913D01*
X7771739Y6427563D01*
X8813800Y6730992D02*
G01*
X8641410Y6558602D01*
X8641410Y6000285D01*
X8686469Y5955225D01*
X8763025Y5955225D01*
X8981414Y5736836D01*
X8981414Y3128891D01*
X8953500Y3100976D01*
X8953500Y507992D01*
X9734575Y6863935D02*
G01*
X9734575Y6588752D01*
X9698532Y6552709D01*
X9698532Y6503738D01*
X9734575Y6467695D01*
X9734575Y3632878D01*
X9295206Y3193508D01*
X9295206Y2581419D01*
X9002115Y2288329D01*
X9002115Y1190642D01*
X9684765Y507992D01*
X9715500Y507992D01*
X10794314Y736871D02*
G01*
X10794314Y1572531D01*
X10999546Y1777763D01*
X10999546Y7077295D01*
X10787202Y7289639D01*
X10334320Y7289639D01*
X9827437Y6782757D01*
X9827437Y6598709D01*
X9757156Y6528427D01*
X1333500Y507992D02*
G01*
X1897303Y1071796D01*
X2083993Y1071796D01*
X2210892Y1198694D01*
X2210892Y1341747D01*
X1953844Y1598795D01*
X1953844Y1751119D01*
X2711754Y2509029D01*
X2711754Y6437800D01*
X4042994Y5791090D02*
G01*
X4042994Y4053375D01*
X3619500Y3629880D01*
X3619500Y507992D01*
X7035800Y1650992D02*
G01*
X7683500Y1003292D01*
X7683500Y507992D01*
X8242300Y2984492D02*
G01*
X8445500Y2781292D01*
X8445500Y507992D01*
X2082800Y1650992D02*
G01*
X2349500Y1384292D01*
X2349500Y507992D01*
X9512300Y4381492D02*
G01*
X9640544Y4253247D01*
X9640544Y3880909D01*
X9315627Y3555992D01*
X9207500Y3555992D02*
G01*
X9315627Y3555992D01*
X7035800Y4381492D02*
G01*
X7164044Y4253247D01*
X7164044Y3880909D01*
X6839127Y3555992D01*
X6731000Y3555992D02*
G01*
X6839127Y3555992D01*
X4559300Y4381492D02*
G01*
X4687544Y4253247D01*
X4687544Y3880909D01*
X4362627Y3555992D01*
X4254500Y3555992D02*
G01*
X4362627Y3555992D01*
X2082800Y4381492D02*
G01*
X2211044Y4253247D01*
X2211044Y3880909D01*
X1886127Y3555992D01*
X1778000Y3555992D02*
G01*
X1886127Y3555992D01*
X4254500Y6286492D02*
G01*
X4146372Y6286492D01*
X3035300Y7111992D02*
G01*
X3035300Y7038129D01*
X3713810Y6359618D01*
X3289300Y5714992D02*
G01*
X3289300Y5935108D01*
X3713810Y6359618D01*
X3713810Y6359618D02*
G01*
X4073245Y6359618D01*
X4146372Y6286492D01*
X2349500Y9143992D02*
G01*
X2349500Y7797792D01*
X3035300Y7111992D01*
X5900597Y2984492D02*
G01*
X5900597Y2555384D01*
X4996205Y1650992D01*
X4559300Y1650992D01*
X5900597Y2984492D02*
G01*
X5765800Y2984492D01*
X7683500Y507992D02*
G01*
X7806385Y385107D01*
X8322614Y385107D01*
X8445500Y507992D01*
X7683500Y507992D02*
G01*
X7562392Y386885D01*
X7042607Y386885D01*
X6921500Y507992D01*
X6921500Y507992D02*
G01*
X6798970Y630521D01*
X6282029Y630521D01*
X6159500Y507992D01*
X9207500Y507992D02*
G01*
X9096806Y397299D01*
X8556193Y397299D01*
X8445500Y507992D01*
X1587500Y507992D02*
G01*
X1698193Y397299D01*
X2238806Y397299D01*
X2349500Y507992D01*
X3873500Y507992D02*
G01*
X4037965Y507992D01*
X4734890Y1204917D01*
X4734890Y1475402D01*
X4559300Y1650992D01*
X10731500Y507992D02*
G01*
X10607954Y384446D01*
X10093045Y384446D01*
X9969500Y507992D01*
X9969500Y507992D02*
G01*
X9856139Y394632D01*
X9320860Y394632D01*
X9207500Y507992D01*
X5765800Y5714992D02*
G01*
X5765800Y6514965D01*
X5900420Y6649585D01*
X5900420Y8279808D01*
X6604000Y8983388D01*
X6604000Y9143992D01*
X5900597Y2984492D02*
G01*
X5900597Y3116343D01*
X5940933Y3156678D01*
X5998692Y3156678D01*
X6027597Y3127773D01*
X6027597Y619396D01*
X5397500Y507992D02*
G01*
X5508904Y619396D01*
X6027597Y619396D01*
X6027597Y619396D02*
G01*
X6048095Y619396D01*
X6159500Y507992D01*
X9512300Y1650992D02*
G01*
X10705617Y1650992D01*
X10718800Y2984492D02*
G01*
X10848898Y2854393D01*
X10848898Y1817235D01*
X10705617Y1673953D01*
X10705617Y1650992D01*
X10705617Y1650992D02*
G01*
X10705617Y533874D01*
X10731500Y507992D01*
X10718800Y5714992D02*
G01*
X10848847Y5584944D01*
X10848847Y3114540D01*
X10718800Y2984492D01*
X4459274Y1757697D02*
G01*
X5251500Y2549923D01*
X5251500Y4347786D01*
X6082436Y5178722D01*
X6082436Y6256240D01*
X6695135Y6868939D01*
X7151852Y6868939D01*
X7289800Y6730992D01*
D12*
G01*
X2095500Y508000D03*
G01*
X2349500Y508000D03*
G01*
X3619500Y508000D03*
G01*
X3873500Y508000D03*
G01*
X1333500Y508000D03*
G01*
X1587500Y508000D03*
G01*
X10477500Y508000D03*
G01*
X10731500Y508000D03*
G01*
X9715500Y508000D03*
G01*
X9969500Y508000D03*
G01*
X8953500Y508000D03*
G01*
X9207500Y508000D03*
G01*
X8191500Y508000D03*
G01*
X8445500Y508000D03*
G01*
X7429500Y508000D03*
G01*
X7683500Y508000D03*
G01*
X6667500Y508000D03*
G01*
X6921500Y508000D03*
G01*
X5905500Y508000D03*
G01*
X6159500Y508000D03*
G01*
X5143500Y508000D03*
G01*
X5397500Y508000D03*
D13*
G01*
X1215999Y8382000D03*
G01*
X2086000Y8382000D03*
D14*
G01*
X8636000Y9398000D03*
G01*
X8636000Y9144000D03*
G01*
X8382000Y9398000D03*
G01*
X8382000Y9144000D03*
G01*
X8128000Y9398000D03*
G01*
X8128000Y9144000D03*
G01*
X7874000Y9398000D03*
G01*
X7874000Y9144000D03*
G01*
X7620000Y9398000D03*
G01*
X7620000Y9144000D03*
G01*
X7366000Y9398000D03*
G01*
X7366000Y9144000D03*
G01*
X7112000Y9398000D03*
G01*
X7112000Y9144000D03*
G01*
X6858000Y9398000D03*
G01*
X6858000Y9144000D03*
G01*
X6604000Y9398000D03*
G01*
X6604000Y9144000D03*
G01*
X6350000Y9398000D03*
G01*
X6350000Y9144000D03*
G01*
X6096000Y9398000D03*
G01*
X6096000Y9144000D03*
G01*
X5842000Y9398000D03*
G01*
X5842000Y9144000D03*
G01*
X4381500Y9398000D03*
G01*
X4381500Y9144000D03*
G01*
X4127500Y9398000D03*
G01*
X4127500Y9144000D03*
G01*
X3873500Y9398000D03*
G01*
X3873500Y9144000D03*
G01*
X3619500Y9398000D03*
G01*
X3619500Y9144000D03*
G01*
X3365500Y9398000D03*
G01*
X3365500Y9144000D03*
G01*
X3111500Y9398000D03*
G01*
X3111500Y9144000D03*
G01*
X2857500Y9398000D03*
G01*
X2857500Y9144000D03*
G01*
X2603500Y9398000D03*
G01*
X2603500Y9144000D03*
G01*
X2349500Y9398000D03*
G01*
X2349500Y9144000D03*
G01*
X2095500Y9398000D03*
G01*
X2095500Y9144000D03*
G01*
X1841500Y9398000D03*
G01*
X1841500Y9144000D03*
G01*
X1587500Y9398000D03*
G01*
X1587500Y9144000D03*
D15*
G01*
X1333500Y7048500D03*
G01*
X1802892Y7047992D03*
G01*
X1333500Y6286500D03*
G01*
X1778000Y6286500D03*
G01*
X2540000Y6286500D03*
G01*
X2984500Y6286500D03*
G01*
X1333500Y4953000D03*
G01*
X1778000Y4953000D03*
G01*
X3810000Y6286500D03*
G01*
X4254500Y6286500D03*
G01*
X5016500Y6286500D03*
G01*
X5461000Y6286500D03*
G01*
X3810000Y4953000D03*
G01*
X4254500Y4953000D03*
G01*
X6286500Y6286500D03*
G01*
X6731000Y6286500D03*
G01*
X7493000Y6286500D03*
G01*
X7937500Y6286500D03*
G01*
X6286500Y4953000D03*
G01*
X6731000Y4953000D03*
G01*
X8763000Y6286500D03*
G01*
X9207500Y6286500D03*
G01*
X9969500Y6286500D03*
G01*
X10414000Y6286500D03*
G01*
X8763000Y4953000D03*
G01*
X9207500Y4953000D03*
G01*
X1333500Y3556000D03*
G01*
X1778000Y3556000D03*
G01*
X2540000Y3556000D03*
G01*
X2984500Y3556000D03*
G01*
X1333500Y2222500D03*
G01*
X1778000Y2222500D03*
G01*
X3810000Y3556000D03*
G01*
X4254500Y3556000D03*
G01*
X5016500Y3556000D03*
G01*
X5461000Y3556000D03*
G01*
X3810000Y2222500D03*
G01*
X4254500Y2222500D03*
G01*
X6286500Y3556000D03*
G01*
X6731000Y3556000D03*
G01*
X7493000Y3556000D03*
G01*
X7937500Y3556000D03*
G01*
X6286500Y2222500D03*
G01*
X6731000Y2222500D03*
G01*
X8763000Y3556000D03*
G01*
X9207500Y3556000D03*
G01*
X9969500Y3556000D03*
G01*
X10414000Y3556000D03*
G01*
X8763000Y2222500D03*
G01*
X9207500Y2222500D03*
D16*
G01*
X6908800Y7112000D03*
G01*
X6908800Y6731000D03*
G01*
X7289800Y7112000D03*
G01*
X7289800Y6731000D03*
G01*
X7670800Y7112000D03*
G01*
X7670800Y6731000D03*
G01*
X8051800Y7112000D03*
G01*
X8051800Y6731000D03*
G01*
X8432800Y7112000D03*
G01*
X8432800Y6731000D03*
G01*
X8813800Y7112000D03*
G01*
X8813800Y6731000D03*
G01*
X9194800Y7112000D03*
G01*
X9194800Y6731000D03*
G01*
X9575800Y7112000D03*
G01*
X9575800Y6731000D03*
G01*
X9956800Y7112000D03*
G01*
X9956800Y6731000D03*
G01*
X10337800Y7112000D03*
G01*
X10337800Y6731000D03*
G01*
X10718800Y7112000D03*
G01*
X10718800Y6731000D03*
G01*
X2273300Y7112000D03*
G01*
X2273300Y6731000D03*
G01*
X2654300Y7112000D03*
G01*
X2654300Y6731000D03*
G01*
X3035300Y7112000D03*
G01*
X3035300Y6731000D03*
G01*
X1320800Y5715000D03*
G01*
X1320800Y5334000D03*
G01*
X1701800Y5715000D03*
G01*
X1701800Y5334000D03*
G01*
X2082800Y5715000D03*
G01*
X2082800Y5334000D03*
G01*
X2527300Y5715000D03*
G01*
X2527300Y5334000D03*
G01*
X2908300Y5715000D03*
G01*
X2908300Y5334000D03*
G01*
X3289300Y5715000D03*
G01*
X3289300Y5334000D03*
G01*
X1320800Y4381500D03*
G01*
X1320800Y4000500D03*
G01*
X1701800Y4381500D03*
G01*
X1701800Y4000500D03*
G01*
X2082800Y4381500D03*
G01*
X2082800Y4000500D03*
G01*
X3797300Y5715000D03*
G01*
X3797300Y5334000D03*
G01*
X4178300Y5715000D03*
G01*
X4178300Y5334000D03*
G01*
X4559300Y5715000D03*
G01*
X4559300Y5334000D03*
G01*
X5003800Y5715000D03*
G01*
X5003800Y5334000D03*
G01*
X5384800Y5715000D03*
G01*
X5384800Y5334000D03*
G01*
X5765800Y5715000D03*
G01*
X5765800Y5334000D03*
G01*
X3797300Y4381500D03*
G01*
X3797300Y4000500D03*
G01*
X4178300Y4381500D03*
G01*
X4178300Y4000500D03*
G01*
X4559300Y4381500D03*
G01*
X4559300Y4000500D03*
G01*
X6273800Y5715000D03*
G01*
X6273800Y5334000D03*
G01*
X6654800Y5715000D03*
G01*
X6654800Y5334000D03*
G01*
X7035800Y5715000D03*
G01*
X7035800Y5334000D03*
G01*
X7480300Y5715000D03*
G01*
X7480300Y5334000D03*
G01*
X7861300Y5715000D03*
G01*
X7861300Y5334000D03*
G01*
X8242300Y5715000D03*
G01*
X8242300Y5334000D03*
G01*
X6273800Y4381500D03*
G01*
X6273800Y4000500D03*
G01*
X6654800Y4381500D03*
G01*
X6654800Y4000500D03*
G01*
X7035800Y4381500D03*
G01*
X7035800Y4000500D03*
G01*
X8750300Y5715000D03*
G01*
X8750300Y5334000D03*
G01*
X9131300Y5715000D03*
G01*
X9131300Y5334000D03*
G01*
X9512300Y5715000D03*
G01*
X9512300Y5334000D03*
G01*
X9956800Y5715000D03*
G01*
X9956800Y5334000D03*
G01*
X10337800Y5715000D03*
G01*
X10337800Y5334000D03*
G01*
X10718800Y5715000D03*
G01*
X10718800Y5334000D03*
G01*
X8750300Y4381500D03*
G01*
X8750300Y4000500D03*
G01*
X9131300Y4381500D03*
G01*
X9131300Y4000500D03*
G01*
X9512300Y4381500D03*
G01*
X9512300Y4000500D03*
G01*
X1320800Y2984500D03*
G01*
X1320800Y2603500D03*
G01*
X1701800Y2984500D03*
G01*
X1701800Y2603500D03*
G01*
X2082800Y2984500D03*
G01*
X2082800Y2603500D03*
G01*
X2527300Y2984500D03*
G01*
X2527300Y2603500D03*
G01*
X2908300Y2984500D03*
G01*
X2908300Y2603500D03*
G01*
X3289300Y2984500D03*
G01*
X3289300Y2603500D03*
G01*
X1320800Y1651000D03*
G01*
X1320800Y1270000D03*
G01*
X1701800Y1651000D03*
G01*
X1701800Y1270000D03*
G01*
X2082800Y1651000D03*
G01*
X2082800Y1270000D03*
G01*
X3797300Y2984500D03*
G01*
X3797300Y2603500D03*
G01*
X4178300Y2984500D03*
G01*
X4178300Y2603500D03*
G01*
X4559300Y2984500D03*
G01*
X4559300Y2603500D03*
G01*
X5003800Y2984500D03*
G01*
X5003800Y2603500D03*
G01*
X5384800Y2984500D03*
G01*
X5384800Y2603500D03*
G01*
X5765800Y2984500D03*
G01*
X5765800Y2603500D03*
G01*
X3797300Y1651000D03*
G01*
X3797300Y1270000D03*
G01*
X4178300Y1651000D03*
G01*
X4178300Y1270000D03*
G01*
X4559300Y1651000D03*
G01*
X4559300Y1270000D03*
G01*
X6273800Y2984500D03*
G01*
X6273800Y2603500D03*
G01*
X6654800Y2984500D03*
G01*
X6654800Y2603500D03*
G01*
X7035800Y2984500D03*
G01*
X7035800Y2603500D03*
G01*
X7480300Y2984500D03*
G01*
X7480300Y2603500D03*
G01*
X7861300Y2984500D03*
G01*
X7861300Y2603500D03*
G01*
X8242300Y2984500D03*
G01*
X8242300Y2603500D03*
G01*
X6273800Y1651000D03*
G01*
X6273800Y1270000D03*
G01*
X6654800Y1651000D03*
G01*
X6654800Y1270000D03*
G01*
X7035800Y1651000D03*
G01*
X7035800Y1270000D03*
G01*
X8750300Y2984500D03*
G01*
X8750300Y2603500D03*
G01*
X9131300Y2984500D03*
G01*
X9131300Y2603500D03*
G01*
X9512300Y2984500D03*
G01*
X9512300Y2603500D03*
G01*
X9956800Y2984500D03*
G01*
X9956800Y2603500D03*
G01*
X10337800Y2984500D03*
G01*
X10337800Y2603500D03*
G01*
X10718800Y2984500D03*
G01*
X10718800Y2603500D03*
G01*
X8750300Y1651000D03*
G01*
X8750300Y1270000D03*
G01*
X9131300Y1651000D03*
G01*
X9131300Y1270000D03*
G01*
X9512300Y1651000D03*
G01*
X9512300Y1270000D03*
D11*
G01*
X4459274Y1757697D03*
G01*
X4042994Y5791090D03*
G01*
X2711754Y6437800D03*
G01*
X10794314Y736871D03*
G01*
X9757156Y6528427D03*
G01*
X9734575Y6863935D03*
G01*
X7771739Y6427563D03*
G01*
X10917809Y1567858D03*
G01*
X10764240Y1649671D03*
G01*
X10897361Y2951802D03*
G01*
X10671454Y6412069D03*
G01*
X5962268Y3095134D03*
G01*
X1624939Y6720095D03*
G01*
X7852232Y2751142D03*
G01*
X4640579Y8635865D03*
G01*
X5094782Y9648106D03*
G01*
X4127500Y8710744D03*
G01*
X7764221Y8883489D03*
G01*
X6354927Y8965227D03*
G01*
X5510174Y5551009D03*
G01*
X2590215Y5523755D03*
G01*
X6020358Y5609175D03*
G01*
X7225918Y9023875D03*
G01*
X5803823Y7088471D03*
G01*
X4155059Y7310086D03*
G01*
X4007840Y7209960D03*
G01*
X4656963Y7852529D03*
G01*
X8432800Y7380444D03*
G01*
X6436106Y7284940D03*
G01*
X9254134Y4273008D03*
G01*
X8306587Y7424005D03*
G01*
X4783302Y7380470D03*
G01*
X7434199Y6378110D03*
G01*
X4169181Y8479045D03*
G01*
X7304404Y5486290D03*
G01*
X8482939Y6159492D03*
G01*
X5192877Y3434072D03*
G01*
X9512300Y3208342D03*
D17*
X1368498Y6921500D02*
G01*
X1298498Y6921500D01*
X1368498Y6794500D02*
G01*
X1298498Y6794500D01*
X1837890Y6920992D02*
G01*
X1767890Y6920992D01*
X1837890Y6793992D02*
G01*
X1767890Y6793992D01*
X1368498Y6159500D02*
G01*
X1298498Y6159500D01*
X1368498Y6032500D02*
G01*
X1298498Y6032500D01*
X1812998Y6159500D02*
G01*
X1742998Y6159500D01*
X1812998Y6032500D02*
G01*
X1742998Y6032500D01*
X2574998Y6159500D02*
G01*
X2504998Y6159500D01*
X2574998Y6032500D02*
G01*
X2504998Y6032500D01*
X3019498Y6159500D02*
G01*
X2949498Y6159500D01*
X3019498Y6032500D02*
G01*
X2949498Y6032500D01*
X1368498Y4826000D02*
G01*
X1298498Y4826000D01*
X1368498Y4699000D02*
G01*
X1298498Y4699000D01*
X1812998Y4826000D02*
G01*
X1742998Y4826000D01*
X1812998Y4699000D02*
G01*
X1742998Y4699000D01*
X3844998Y6159500D02*
G01*
X3774998Y6159500D01*
X3844998Y6032500D02*
G01*
X3774998Y6032500D01*
X4289498Y6159500D02*
G01*
X4219498Y6159500D01*
X4289498Y6032500D02*
G01*
X4219498Y6032500D01*
X5051498Y6159500D02*
G01*
X4981498Y6159500D01*
X5051498Y6032500D02*
G01*
X4981498Y6032500D01*
X5495998Y6159500D02*
G01*
X5425998Y6159500D01*
X5495998Y6032500D02*
G01*
X5425998Y6032500D01*
X3844998Y4826000D02*
G01*
X3774998Y4826000D01*
X3844998Y4699000D02*
G01*
X3774998Y4699000D01*
X4289498Y4826000D02*
G01*
X4219498Y4826000D01*
X4289498Y4699000D02*
G01*
X4219498Y4699000D01*
X6321498Y6159500D02*
G01*
X6251498Y6159500D01*
X6321498Y6032500D02*
G01*
X6251498Y6032500D01*
X6765998Y6159500D02*
G01*
X6695998Y6159500D01*
X6765998Y6032500D02*
G01*
X6695998Y6032500D01*
X7527998Y6159500D02*
G01*
X7457998Y6159500D01*
X7527998Y6032500D02*
G01*
X7457998Y6032500D01*
X7972498Y6159500D02*
G01*
X7902498Y6159500D01*
X7972498Y6032500D02*
G01*
X7902498Y6032500D01*
X6321498Y4826000D02*
G01*
X6251498Y4826000D01*
X6321498Y4699000D02*
G01*
X6251498Y4699000D01*
X6765998Y4826000D02*
G01*
X6695998Y4826000D01*
X6765998Y4699000D02*
G01*
X6695998Y4699000D01*
X8797998Y6159500D02*
G01*
X8727998Y6159500D01*
X8797998Y6032500D02*
G01*
X8727998Y6032500D01*
X9242498Y6159500D02*
G01*
X9172498Y6159500D01*
X9242498Y6032500D02*
G01*
X9172498Y6032500D01*
X10004498Y6159500D02*
G01*
X9934498Y6159500D01*
X10004498Y6032500D02*
G01*
X9934498Y6032500D01*
X10448998Y6159500D02*
G01*
X10378998Y6159500D01*
X10448998Y6032500D02*
G01*
X10378998Y6032500D01*
X8797998Y4826000D02*
G01*
X8727998Y4826000D01*
X8797998Y4699000D02*
G01*
X8727998Y4699000D01*
X9242498Y4826000D02*
G01*
X9172498Y4826000D01*
X9242498Y4699000D02*
G01*
X9172498Y4699000D01*
X1368498Y3429000D02*
G01*
X1298498Y3429000D01*
X1368498Y3302000D02*
G01*
X1298498Y3302000D01*
X1812998Y3429000D02*
G01*
X1742998Y3429000D01*
X1812998Y3302000D02*
G01*
X1742998Y3302000D01*
X2574998Y3429000D02*
G01*
X2504998Y3429000D01*
X2574998Y3302000D02*
G01*
X2504998Y3302000D01*
X3019498Y3429000D02*
G01*
X2949498Y3429000D01*
X3019498Y3302000D02*
G01*
X2949498Y3302000D01*
X1368498Y2095500D02*
G01*
X1298498Y2095500D01*
X1368498Y1968500D02*
G01*
X1298498Y1968500D01*
X1812998Y2095500D02*
G01*
X1742998Y2095500D01*
X1812998Y1968500D02*
G01*
X1742998Y1968500D01*
X3844998Y3429000D02*
G01*
X3774998Y3429000D01*
X3844998Y3302000D02*
G01*
X3774998Y3302000D01*
X4289498Y3429000D02*
G01*
X4219498Y3429000D01*
X4289498Y3302000D02*
G01*
X4219498Y3302000D01*
X5051498Y3429000D02*
G01*
X4981498Y3429000D01*
X5051498Y3302000D02*
G01*
X4981498Y3302000D01*
X5495998Y3429000D02*
G01*
X5425998Y3429000D01*
X5495998Y3302000D02*
G01*
X5425998Y3302000D01*
X3844998Y2095500D02*
G01*
X3774998Y2095500D01*
X3844998Y1968500D02*
G01*
X3774998Y1968500D01*
X4289498Y2095500D02*
G01*
X4219498Y2095500D01*
X4289498Y1968500D02*
G01*
X4219498Y1968500D01*
X6321498Y3429000D02*
G01*
X6251498Y3429000D01*
X6321498Y3302000D02*
G01*
X6251498Y3302000D01*
X6765998Y3429000D02*
G01*
X6695998Y3429000D01*
X6765998Y3302000D02*
G01*
X6695998Y3302000D01*
X7527998Y3429000D02*
G01*
X7457998Y3429000D01*
X7527998Y3302000D02*
G01*
X7457998Y3302000D01*
X7972498Y3429000D02*
G01*
X7902498Y3429000D01*
X7972498Y3302000D02*
G01*
X7902498Y3302000D01*
X6321498Y2095500D02*
G01*
X6251498Y2095500D01*
X6321498Y1968500D02*
G01*
X6251498Y1968500D01*
X6765998Y2095500D02*
G01*
X6695998Y2095500D01*
X6765998Y1968500D02*
G01*
X6695998Y1968500D01*
X8797998Y3429000D02*
G01*
X8727998Y3429000D01*
X8797998Y3302000D02*
G01*
X8727998Y3302000D01*
X9242498Y3429000D02*
G01*
X9172498Y3429000D01*
X9242498Y3302000D02*
G01*
X9172498Y3302000D01*
X10004498Y3429000D02*
G01*
X9934498Y3429000D01*
X10004498Y3302000D02*
G01*
X9934498Y3302000D01*
X10448998Y3429000D02*
G01*
X10378998Y3429000D01*
X10448998Y3302000D02*
G01*
X10378998Y3302000D01*
X8797998Y2095500D02*
G01*
X8727998Y2095500D01*
X8797998Y1968500D02*
G01*
X8727998Y1968500D01*
X9242498Y2095500D02*
G01*
X9172498Y2095500D01*
X9242498Y1968500D02*
G01*
X9172498Y1968500D01*
M02*
