G04 Layer: BottomSolderMaskLayer*
G04 EasyEDA v6.4.25, 2021-12-30T01:40:23+01:00*
G04 349a449686454aac8e9d9284578b31c7,bb3cfcbffc6840158e79d7648404357e,10*
G04 Gerber Generator version 0.2*
G04 Scale: 100 percent, Rotated: No, Reflected: No *
G04 Dimensions in millimeters *
G04 leading zeros omitted , absolute positions ,4 integer and 5 decimal *
%FSLAX45Y45*%
%MOMM*%

%ADD22C,1.0016*%
%ADD23C,1.7526*%
%ADD24C,1.9016*%
%ADD25C,1.6256*%
%ADD27C,2.2022*%

%LPD*%
D22*
X1368498Y6921500D02*
G01*
X1298498Y6921500D01*
X1368498Y6794500D02*
G01*
X1298498Y6794500D01*
X1837890Y6920992D02*
G01*
X1767890Y6920992D01*
X1837890Y6793992D02*
G01*
X1767890Y6793992D01*
X1368498Y6159500D02*
G01*
X1298498Y6159500D01*
X1368498Y6032500D02*
G01*
X1298498Y6032500D01*
X1812998Y6159500D02*
G01*
X1742998Y6159500D01*
X1812998Y6032500D02*
G01*
X1742998Y6032500D01*
X2574998Y6159500D02*
G01*
X2504998Y6159500D01*
X2574998Y6032500D02*
G01*
X2504998Y6032500D01*
X3019498Y6159500D02*
G01*
X2949498Y6159500D01*
X3019498Y6032500D02*
G01*
X2949498Y6032500D01*
X1368498Y4826000D02*
G01*
X1298498Y4826000D01*
X1368498Y4699000D02*
G01*
X1298498Y4699000D01*
X1812998Y4826000D02*
G01*
X1742998Y4826000D01*
X1812998Y4699000D02*
G01*
X1742998Y4699000D01*
X3844998Y6159500D02*
G01*
X3774998Y6159500D01*
X3844998Y6032500D02*
G01*
X3774998Y6032500D01*
X4289498Y6159500D02*
G01*
X4219498Y6159500D01*
X4289498Y6032500D02*
G01*
X4219498Y6032500D01*
X5051498Y6159500D02*
G01*
X4981498Y6159500D01*
X5051498Y6032500D02*
G01*
X4981498Y6032500D01*
X5495998Y6159500D02*
G01*
X5425998Y6159500D01*
X5495998Y6032500D02*
G01*
X5425998Y6032500D01*
X3844998Y4826000D02*
G01*
X3774998Y4826000D01*
X3844998Y4699000D02*
G01*
X3774998Y4699000D01*
X4289498Y4826000D02*
G01*
X4219498Y4826000D01*
X4289498Y4699000D02*
G01*
X4219498Y4699000D01*
X6321498Y6159500D02*
G01*
X6251498Y6159500D01*
X6321498Y6032500D02*
G01*
X6251498Y6032500D01*
X6765998Y6159500D02*
G01*
X6695998Y6159500D01*
X6765998Y6032500D02*
G01*
X6695998Y6032500D01*
X7527998Y6159500D02*
G01*
X7457998Y6159500D01*
X7527998Y6032500D02*
G01*
X7457998Y6032500D01*
X7972498Y6159500D02*
G01*
X7902498Y6159500D01*
X7972498Y6032500D02*
G01*
X7902498Y6032500D01*
X6321498Y4826000D02*
G01*
X6251498Y4826000D01*
X6321498Y4699000D02*
G01*
X6251498Y4699000D01*
X6765998Y4826000D02*
G01*
X6695998Y4826000D01*
X6765998Y4699000D02*
G01*
X6695998Y4699000D01*
X8797998Y6159500D02*
G01*
X8727998Y6159500D01*
X8797998Y6032500D02*
G01*
X8727998Y6032500D01*
X9242498Y6159500D02*
G01*
X9172498Y6159500D01*
X9242498Y6032500D02*
G01*
X9172498Y6032500D01*
X10004498Y6159500D02*
G01*
X9934498Y6159500D01*
X10004498Y6032500D02*
G01*
X9934498Y6032500D01*
X10448998Y6159500D02*
G01*
X10378998Y6159500D01*
X10448998Y6032500D02*
G01*
X10378998Y6032500D01*
X8797998Y4826000D02*
G01*
X8727998Y4826000D01*
X8797998Y4699000D02*
G01*
X8727998Y4699000D01*
X9242498Y4826000D02*
G01*
X9172498Y4826000D01*
X9242498Y4699000D02*
G01*
X9172498Y4699000D01*
X1368498Y3429000D02*
G01*
X1298498Y3429000D01*
X1368498Y3302000D02*
G01*
X1298498Y3302000D01*
X1812998Y3429000D02*
G01*
X1742998Y3429000D01*
X1812998Y3302000D02*
G01*
X1742998Y3302000D01*
X2574998Y3429000D02*
G01*
X2504998Y3429000D01*
X2574998Y3302000D02*
G01*
X2504998Y3302000D01*
X3019498Y3429000D02*
G01*
X2949498Y3429000D01*
X3019498Y3302000D02*
G01*
X2949498Y3302000D01*
X1368498Y2095500D02*
G01*
X1298498Y2095500D01*
X1368498Y1968500D02*
G01*
X1298498Y1968500D01*
X1812998Y2095500D02*
G01*
X1742998Y2095500D01*
X1812998Y1968500D02*
G01*
X1742998Y1968500D01*
X3844998Y3429000D02*
G01*
X3774998Y3429000D01*
X3844998Y3302000D02*
G01*
X3774998Y3302000D01*
X4289498Y3429000D02*
G01*
X4219498Y3429000D01*
X4289498Y3302000D02*
G01*
X4219498Y3302000D01*
X5051498Y3429000D02*
G01*
X4981498Y3429000D01*
X5051498Y3302000D02*
G01*
X4981498Y3302000D01*
X5495998Y3429000D02*
G01*
X5425998Y3429000D01*
X5495998Y3302000D02*
G01*
X5425998Y3302000D01*
X3844998Y2095500D02*
G01*
X3774998Y2095500D01*
X3844998Y1968500D02*
G01*
X3774998Y1968500D01*
X4289498Y2095500D02*
G01*
X4219498Y2095500D01*
X4289498Y1968500D02*
G01*
X4219498Y1968500D01*
X6321498Y3429000D02*
G01*
X6251498Y3429000D01*
X6321498Y3302000D02*
G01*
X6251498Y3302000D01*
X6765998Y3429000D02*
G01*
X6695998Y3429000D01*
X6765998Y3302000D02*
G01*
X6695998Y3302000D01*
X7527998Y3429000D02*
G01*
X7457998Y3429000D01*
X7527998Y3302000D02*
G01*
X7457998Y3302000D01*
X7972498Y3429000D02*
G01*
X7902498Y3429000D01*
X7972498Y3302000D02*
G01*
X7902498Y3302000D01*
X6321498Y2095500D02*
G01*
X6251498Y2095500D01*
X6321498Y1968500D02*
G01*
X6251498Y1968500D01*
X6765998Y2095500D02*
G01*
X6695998Y2095500D01*
X6765998Y1968500D02*
G01*
X6695998Y1968500D01*
X8797998Y3429000D02*
G01*
X8727998Y3429000D01*
X8797998Y3302000D02*
G01*
X8727998Y3302000D01*
X9242498Y3429000D02*
G01*
X9172498Y3429000D01*
X9242498Y3302000D02*
G01*
X9172498Y3302000D01*
X10004498Y3429000D02*
G01*
X9934498Y3429000D01*
X10004498Y3302000D02*
G01*
X9934498Y3302000D01*
X10448998Y3429000D02*
G01*
X10378998Y3429000D01*
X10448998Y3302000D02*
G01*
X10378998Y3302000D01*
X8797998Y2095500D02*
G01*
X8727998Y2095500D01*
X8797998Y1968500D02*
G01*
X8727998Y1968500D01*
X9242498Y2095500D02*
G01*
X9172498Y2095500D01*
X9242498Y1968500D02*
G01*
X9172498Y1968500D01*
D23*
G01*
X2095500Y508000D03*
G01*
X2349500Y508000D03*
G01*
X3619500Y508000D03*
G01*
X3873500Y508000D03*
G01*
X1333500Y508000D03*
G01*
X1587500Y508000D03*
G01*
X10477500Y508000D03*
G01*
X10731500Y508000D03*
G01*
X9715500Y508000D03*
G01*
X9969500Y508000D03*
G01*
X8953500Y508000D03*
G01*
X9207500Y508000D03*
G01*
X8191500Y508000D03*
G01*
X8445500Y508000D03*
G01*
X7429500Y508000D03*
G01*
X7683500Y508000D03*
G01*
X6667500Y508000D03*
G01*
X6921500Y508000D03*
G01*
X5905500Y508000D03*
G01*
X6159500Y508000D03*
G01*
X5143500Y508000D03*
G01*
X5397500Y508000D03*
D24*
G01*
X1215999Y8382000D03*
G01*
X2086000Y8382000D03*
D25*
G01*
X8636000Y9398000D03*
G01*
X8636000Y9144000D03*
G01*
X8382000Y9398000D03*
G01*
X8382000Y9144000D03*
G01*
X8128000Y9398000D03*
G01*
X8128000Y9144000D03*
G01*
X7874000Y9398000D03*
G01*
X7874000Y9144000D03*
G01*
X7620000Y9398000D03*
G01*
X7620000Y9144000D03*
G01*
X7366000Y9398000D03*
G01*
X7366000Y9144000D03*
G01*
X7112000Y9398000D03*
G01*
X7112000Y9144000D03*
G01*
X6858000Y9398000D03*
G01*
X6858000Y9144000D03*
G01*
X6604000Y9398000D03*
G01*
X6604000Y9144000D03*
G01*
X6350000Y9398000D03*
G01*
X6350000Y9144000D03*
G01*
X6096000Y9398000D03*
G01*
X6096000Y9144000D03*
G01*
X5842000Y9398000D03*
G01*
X5842000Y9144000D03*
G01*
X4381500Y9398000D03*
G01*
X4381500Y9144000D03*
G01*
X4127500Y9398000D03*
G01*
X4127500Y9144000D03*
G01*
X3873500Y9398000D03*
G01*
X3873500Y9144000D03*
G01*
X3619500Y9398000D03*
G01*
X3619500Y9144000D03*
G01*
X3365500Y9398000D03*
G01*
X3365500Y9144000D03*
G01*
X3111500Y9398000D03*
G01*
X3111500Y9144000D03*
G01*
X2857500Y9398000D03*
G01*
X2857500Y9144000D03*
G01*
X2603500Y9398000D03*
G01*
X2603500Y9144000D03*
G01*
X2349500Y9398000D03*
G01*
X2349500Y9144000D03*
G01*
X2095500Y9398000D03*
G01*
X2095500Y9144000D03*
G01*
X1841500Y9398000D03*
G01*
X1841500Y9144000D03*
G01*
X1587500Y9398000D03*
G01*
X1587500Y9144000D03*
G36*
X1248410Y6998462D02*
G01*
X1248410Y7098537D01*
X1418589Y7098537D01*
X1418589Y6998462D01*
G37*
G36*
X1717802Y6997954D02*
G01*
X1717802Y7098029D01*
X1887981Y7098029D01*
X1887981Y6997954D01*
G37*
G36*
X1248410Y6236462D02*
G01*
X1248410Y6336537D01*
X1418589Y6336537D01*
X1418589Y6236462D01*
G37*
G36*
X1692910Y6236462D02*
G01*
X1692910Y6336537D01*
X1863089Y6336537D01*
X1863089Y6236462D01*
G37*
G36*
X2454909Y6236462D02*
G01*
X2454909Y6336537D01*
X2625090Y6336537D01*
X2625090Y6236462D01*
G37*
G36*
X2899409Y6236462D02*
G01*
X2899409Y6336537D01*
X3069590Y6336537D01*
X3069590Y6236462D01*
G37*
G36*
X1248410Y4902962D02*
G01*
X1248410Y5003037D01*
X1418589Y5003037D01*
X1418589Y4902962D01*
G37*
G36*
X1692910Y4902962D02*
G01*
X1692910Y5003037D01*
X1863089Y5003037D01*
X1863089Y4902962D01*
G37*
G36*
X3724909Y6236462D02*
G01*
X3724909Y6336537D01*
X3895090Y6336537D01*
X3895090Y6236462D01*
G37*
G36*
X4169409Y6236462D02*
G01*
X4169409Y6336537D01*
X4339590Y6336537D01*
X4339590Y6236462D01*
G37*
G36*
X4931409Y6236462D02*
G01*
X4931409Y6336537D01*
X5101590Y6336537D01*
X5101590Y6236462D01*
G37*
G36*
X5375909Y6236462D02*
G01*
X5375909Y6336537D01*
X5546090Y6336537D01*
X5546090Y6236462D01*
G37*
G36*
X3724909Y4902962D02*
G01*
X3724909Y5003037D01*
X3895090Y5003037D01*
X3895090Y4902962D01*
G37*
G36*
X4169409Y4902962D02*
G01*
X4169409Y5003037D01*
X4339590Y5003037D01*
X4339590Y4902962D01*
G37*
G36*
X6201409Y6236462D02*
G01*
X6201409Y6336537D01*
X6371590Y6336537D01*
X6371590Y6236462D01*
G37*
G36*
X6645909Y6236462D02*
G01*
X6645909Y6336537D01*
X6816090Y6336537D01*
X6816090Y6236462D01*
G37*
G36*
X7407909Y6236462D02*
G01*
X7407909Y6336537D01*
X7578090Y6336537D01*
X7578090Y6236462D01*
G37*
G36*
X7852409Y6236462D02*
G01*
X7852409Y6336537D01*
X8022590Y6336537D01*
X8022590Y6236462D01*
G37*
G36*
X6201409Y4902962D02*
G01*
X6201409Y5003037D01*
X6371590Y5003037D01*
X6371590Y4902962D01*
G37*
G36*
X6645909Y4902962D02*
G01*
X6645909Y5003037D01*
X6816090Y5003037D01*
X6816090Y4902962D01*
G37*
G36*
X8677909Y6236462D02*
G01*
X8677909Y6336537D01*
X8848090Y6336537D01*
X8848090Y6236462D01*
G37*
G36*
X9122409Y6236462D02*
G01*
X9122409Y6336537D01*
X9292590Y6336537D01*
X9292590Y6236462D01*
G37*
G36*
X9884409Y6236462D02*
G01*
X9884409Y6336537D01*
X10054590Y6336537D01*
X10054590Y6236462D01*
G37*
G36*
X10328909Y6236462D02*
G01*
X10328909Y6336537D01*
X10499090Y6336537D01*
X10499090Y6236462D01*
G37*
G36*
X8677909Y4902962D02*
G01*
X8677909Y5003037D01*
X8848090Y5003037D01*
X8848090Y4902962D01*
G37*
G36*
X9122409Y4902962D02*
G01*
X9122409Y5003037D01*
X9292590Y5003037D01*
X9292590Y4902962D01*
G37*
G36*
X1248410Y3505962D02*
G01*
X1248410Y3606037D01*
X1418589Y3606037D01*
X1418589Y3505962D01*
G37*
G36*
X1692910Y3505962D02*
G01*
X1692910Y3606037D01*
X1863089Y3606037D01*
X1863089Y3505962D01*
G37*
G36*
X2454909Y3505962D02*
G01*
X2454909Y3606037D01*
X2625090Y3606037D01*
X2625090Y3505962D01*
G37*
G36*
X2899409Y3505962D02*
G01*
X2899409Y3606037D01*
X3069590Y3606037D01*
X3069590Y3505962D01*
G37*
G36*
X1248410Y2172462D02*
G01*
X1248410Y2272537D01*
X1418589Y2272537D01*
X1418589Y2172462D01*
G37*
G36*
X1692910Y2172462D02*
G01*
X1692910Y2272537D01*
X1863089Y2272537D01*
X1863089Y2172462D01*
G37*
G36*
X3724909Y3505962D02*
G01*
X3724909Y3606037D01*
X3895090Y3606037D01*
X3895090Y3505962D01*
G37*
G36*
X4169409Y3505962D02*
G01*
X4169409Y3606037D01*
X4339590Y3606037D01*
X4339590Y3505962D01*
G37*
G36*
X4931409Y3505962D02*
G01*
X4931409Y3606037D01*
X5101590Y3606037D01*
X5101590Y3505962D01*
G37*
G36*
X5375909Y3505962D02*
G01*
X5375909Y3606037D01*
X5546090Y3606037D01*
X5546090Y3505962D01*
G37*
G36*
X3724909Y2172462D02*
G01*
X3724909Y2272537D01*
X3895090Y2272537D01*
X3895090Y2172462D01*
G37*
G36*
X4169409Y2172462D02*
G01*
X4169409Y2272537D01*
X4339590Y2272537D01*
X4339590Y2172462D01*
G37*
G36*
X6201409Y3505962D02*
G01*
X6201409Y3606037D01*
X6371590Y3606037D01*
X6371590Y3505962D01*
G37*
G36*
X6645909Y3505962D02*
G01*
X6645909Y3606037D01*
X6816090Y3606037D01*
X6816090Y3505962D01*
G37*
G36*
X7407909Y3505962D02*
G01*
X7407909Y3606037D01*
X7578090Y3606037D01*
X7578090Y3505962D01*
G37*
G36*
X7852409Y3505962D02*
G01*
X7852409Y3606037D01*
X8022590Y3606037D01*
X8022590Y3505962D01*
G37*
G36*
X6201409Y2172462D02*
G01*
X6201409Y2272537D01*
X6371590Y2272537D01*
X6371590Y2172462D01*
G37*
G36*
X6645909Y2172462D02*
G01*
X6645909Y2272537D01*
X6816090Y2272537D01*
X6816090Y2172462D01*
G37*
G36*
X8677909Y3505962D02*
G01*
X8677909Y3606037D01*
X8848090Y3606037D01*
X8848090Y3505962D01*
G37*
G36*
X9122409Y3505962D02*
G01*
X9122409Y3606037D01*
X9292590Y3606037D01*
X9292590Y3505962D01*
G37*
G36*
X9884409Y3505962D02*
G01*
X9884409Y3606037D01*
X10054590Y3606037D01*
X10054590Y3505962D01*
G37*
G36*
X10328909Y3505962D02*
G01*
X10328909Y3606037D01*
X10499090Y3606037D01*
X10499090Y3505962D01*
G37*
G36*
X8677909Y2172462D02*
G01*
X8677909Y2272537D01*
X8848090Y2272537D01*
X8848090Y2172462D01*
G37*
G36*
X9122409Y2172462D02*
G01*
X9122409Y2272537D01*
X9292590Y2272537D01*
X9292590Y2172462D01*
G37*
D27*
G01*
X6908800Y7112000D03*
G01*
X6908800Y6731000D03*
G01*
X7289800Y7112000D03*
G01*
X7289800Y6731000D03*
G01*
X7670800Y7112000D03*
G01*
X7670800Y6731000D03*
G01*
X8051800Y7112000D03*
G01*
X8051800Y6731000D03*
G01*
X8432800Y7112000D03*
G01*
X8432800Y6731000D03*
G01*
X8813800Y7112000D03*
G01*
X8813800Y6731000D03*
G01*
X9194800Y7112000D03*
G01*
X9194800Y6731000D03*
G01*
X9575800Y7112000D03*
G01*
X9575800Y6731000D03*
G01*
X9956800Y7112000D03*
G01*
X9956800Y6731000D03*
G01*
X10337800Y7112000D03*
G01*
X10337800Y6731000D03*
G01*
X10718800Y7112000D03*
G01*
X10718800Y6731000D03*
G01*
X2273300Y7112000D03*
G01*
X2273300Y6731000D03*
G01*
X2654300Y7112000D03*
G01*
X2654300Y6731000D03*
G01*
X3035300Y7112000D03*
G01*
X3035300Y6731000D03*
G01*
X1320800Y5715000D03*
G01*
X1320800Y5334000D03*
G01*
X1701800Y5715000D03*
G01*
X1701800Y5334000D03*
G01*
X2082800Y5715000D03*
G01*
X2082800Y5334000D03*
G01*
X2527300Y5715000D03*
G01*
X2527300Y5334000D03*
G01*
X2908300Y5715000D03*
G01*
X2908300Y5334000D03*
G01*
X3289300Y5715000D03*
G01*
X3289300Y5334000D03*
G01*
X1320800Y4381500D03*
G01*
X1320800Y4000500D03*
G01*
X1701800Y4381500D03*
G01*
X1701800Y4000500D03*
G01*
X2082800Y4381500D03*
G01*
X2082800Y4000500D03*
G01*
X3797300Y5715000D03*
G01*
X3797300Y5334000D03*
G01*
X4178300Y5715000D03*
G01*
X4178300Y5334000D03*
G01*
X4559300Y5715000D03*
G01*
X4559300Y5334000D03*
G01*
X5003800Y5715000D03*
G01*
X5003800Y5334000D03*
G01*
X5384800Y5715000D03*
G01*
X5384800Y5334000D03*
G01*
X5765800Y5715000D03*
G01*
X5765800Y5334000D03*
G01*
X3797300Y4381500D03*
G01*
X3797300Y4000500D03*
G01*
X4178300Y4381500D03*
G01*
X4178300Y4000500D03*
G01*
X4559300Y4381500D03*
G01*
X4559300Y4000500D03*
G01*
X6273800Y5715000D03*
G01*
X6273800Y5334000D03*
G01*
X6654800Y5715000D03*
G01*
X6654800Y5334000D03*
G01*
X7035800Y5715000D03*
G01*
X7035800Y5334000D03*
G01*
X7480300Y5715000D03*
G01*
X7480300Y5334000D03*
G01*
X7861300Y5715000D03*
G01*
X7861300Y5334000D03*
G01*
X8242300Y5715000D03*
G01*
X8242300Y5334000D03*
G01*
X6273800Y4381500D03*
G01*
X6273800Y4000500D03*
G01*
X6654800Y4381500D03*
G01*
X6654800Y4000500D03*
G01*
X7035800Y4381500D03*
G01*
X7035800Y4000500D03*
G01*
X8750300Y5715000D03*
G01*
X8750300Y5334000D03*
G01*
X9131300Y5715000D03*
G01*
X9131300Y5334000D03*
G01*
X9512300Y5715000D03*
G01*
X9512300Y5334000D03*
G01*
X9956800Y5715000D03*
G01*
X9956800Y5334000D03*
G01*
X10337800Y5715000D03*
G01*
X10337800Y5334000D03*
G01*
X10718800Y5715000D03*
G01*
X10718800Y5334000D03*
G01*
X8750300Y4381500D03*
G01*
X8750300Y4000500D03*
G01*
X9131300Y4381500D03*
G01*
X9131300Y4000500D03*
G01*
X9512300Y4381500D03*
G01*
X9512300Y4000500D03*
G01*
X1320800Y2984500D03*
G01*
X1320800Y2603500D03*
G01*
X1701800Y2984500D03*
G01*
X1701800Y2603500D03*
G01*
X2082800Y2984500D03*
G01*
X2082800Y2603500D03*
G01*
X2527300Y2984500D03*
G01*
X2527300Y2603500D03*
G01*
X2908300Y2984500D03*
G01*
X2908300Y2603500D03*
G01*
X3289300Y2984500D03*
G01*
X3289300Y2603500D03*
G01*
X1320800Y1651000D03*
G01*
X1320800Y1270000D03*
G01*
X1701800Y1651000D03*
G01*
X1701800Y1270000D03*
G01*
X2082800Y1651000D03*
G01*
X2082800Y1270000D03*
G01*
X3797300Y2984500D03*
G01*
X3797300Y2603500D03*
G01*
X4178300Y2984500D03*
G01*
X4178300Y2603500D03*
G01*
X4559300Y2984500D03*
G01*
X4559300Y2603500D03*
G01*
X5003800Y2984500D03*
G01*
X5003800Y2603500D03*
G01*
X5384800Y2984500D03*
G01*
X5384800Y2603500D03*
G01*
X5765800Y2984500D03*
G01*
X5765800Y2603500D03*
G01*
X3797300Y1651000D03*
G01*
X3797300Y1270000D03*
G01*
X4178300Y1651000D03*
G01*
X4178300Y1270000D03*
G01*
X4559300Y1651000D03*
G01*
X4559300Y1270000D03*
G01*
X6273800Y2984500D03*
G01*
X6273800Y2603500D03*
G01*
X6654800Y2984500D03*
G01*
X6654800Y2603500D03*
G01*
X7035800Y2984500D03*
G01*
X7035800Y2603500D03*
G01*
X7480300Y2984500D03*
G01*
X7480300Y2603500D03*
G01*
X7861300Y2984500D03*
G01*
X7861300Y2603500D03*
G01*
X8242300Y2984500D03*
G01*
X8242300Y2603500D03*
G01*
X6273800Y1651000D03*
G01*
X6273800Y1270000D03*
G01*
X6654800Y1651000D03*
G01*
X6654800Y1270000D03*
G01*
X7035800Y1651000D03*
G01*
X7035800Y1270000D03*
G01*
X8750300Y2984500D03*
G01*
X8750300Y2603500D03*
G01*
X9131300Y2984500D03*
G01*
X9131300Y2603500D03*
G01*
X9512300Y2984500D03*
G01*
X9512300Y2603500D03*
G01*
X9956800Y2984500D03*
G01*
X9956800Y2603500D03*
G01*
X10337800Y2984500D03*
G01*
X10337800Y2603500D03*
G01*
X10718800Y2984500D03*
G01*
X10718800Y2603500D03*
G01*
X8750300Y1651000D03*
G01*
X8750300Y1270000D03*
G01*
X9131300Y1651000D03*
G01*
X9131300Y1270000D03*
G01*
X9512300Y1651000D03*
G01*
X9512300Y1270000D03*
M02*
