G04 Layer: BottomLayer*
G04 EasyEDA v6.4.25, 2021-12-30T01:49:16+01:00*
G04 4773aac788784ad1aa91dadde69bcb95,bb3cfcbffc6840158e79d7648404357e,10*
G04 Gerber Generator version 0.2*
G04 Scale: 100 percent, Rotated: No, Reflected: No *
G04 Dimensions in millimeters *
G04 leading zeros omitted , absolute positions ,4 integer and 5 decimal *
%FSLAX45Y45*%
%MOMM*%

%ADD10C,0.2540*%
%ADD11C,0.6100*%
%ADD12R,1.6000X0.9000*%
%ADD13C,1.9990*%
%ADD14C,1.8000*%
%ADD15C,1.5240*%
%ADD16C,1.6510*%
%ADD17C,1.5748*%
%ADD18R,1.5748X1.5748*%
%ADD19R,1.7000X1.5748*%
%ADD20C,1.7000*%
%ADD21C,0.9000*%

%LPD*%
D10*
X698500Y7692991D02*
G01*
X698500Y7407445D01*
X1438452Y6667492D01*
X1638300Y6667492D01*
X1841500Y8254992D02*
G01*
X1737156Y8359335D01*
X1737156Y9187527D01*
X1820621Y9270992D01*
X2730500Y9270992D01*
X2857500Y9397992D01*
X7035800Y1269992D02*
G01*
X7035800Y1426888D01*
X7052741Y1426888D01*
X7244435Y1618581D01*
X7244435Y1676392D01*
X7663535Y2095492D01*
X7683500Y2095492D01*
X6654800Y1269992D02*
G01*
X6902627Y1517820D01*
X6902627Y1780710D01*
X7217409Y2095492D01*
X7239000Y2095492D01*
X6794500Y2095492D02*
G01*
X6773290Y2095492D01*
X6464300Y1786501D01*
X6464300Y1460492D01*
X6273800Y1269992D01*
X5892800Y1269992D02*
G01*
X6127750Y1504942D01*
X6127750Y1894324D01*
X6328918Y2095492D01*
X6350000Y2095492D01*
X5511800Y1269992D02*
G01*
X5683250Y1441442D01*
X5683250Y1894324D01*
X5884418Y2095492D01*
X5905500Y2095492D01*
X5130800Y1269992D02*
G01*
X5279923Y1419115D01*
X5279923Y1946241D01*
X5429173Y2095492D01*
X5461000Y2095492D01*
X4749800Y1269992D02*
G01*
X4880889Y1401081D01*
X4880889Y1980354D01*
X4996027Y2095492D01*
X5016500Y2095492D01*
X4368800Y1269992D02*
G01*
X4368800Y1467756D01*
X4693335Y1792292D01*
X4693335Y1994959D01*
X4592802Y2095492D01*
X4572000Y2095492D01*
X3987800Y1269992D02*
G01*
X3850690Y1407101D01*
X3850690Y1839892D01*
X4106290Y2095492D01*
X4127500Y2095492D01*
X3606800Y1269992D02*
G01*
X3460750Y1416042D01*
X3460750Y1894324D01*
X3661918Y2095492D01*
X3683000Y2095492D01*
X3225800Y1269992D02*
G01*
X3355111Y1399303D01*
X3355111Y2004001D01*
X3263620Y2095492D01*
X3238500Y2095492D01*
X9702800Y2603492D02*
G01*
X9834473Y2735165D01*
X9834473Y3336561D01*
X9742043Y3428992D01*
X9715500Y3428992D01*
X10160000Y3301992D02*
G01*
X10125176Y3301992D01*
X9871176Y3555992D01*
X9715500Y3555992D01*
X10464800Y3936992D02*
G01*
X10635894Y4108086D01*
X10635894Y4412124D01*
X10495559Y4552459D01*
X10495559Y4665007D01*
X10593044Y4762492D01*
X10604500Y4762492D01*
X10083800Y3936992D02*
G01*
X10278719Y4131911D01*
X10278719Y4676233D01*
X10192461Y4762492D01*
X10160000Y4762492D01*
X9715500Y4762492D02*
G01*
X9734778Y4762492D01*
X9843033Y4654237D01*
X9843033Y4243443D01*
X9702800Y4103209D01*
X9702800Y3936992D01*
X10160000Y4635492D02*
G01*
X10077627Y4635492D01*
X9823627Y4889492D01*
X9715500Y4889492D02*
G01*
X9823627Y4889492D01*
X10845800Y5270492D02*
G01*
X10845800Y5328328D01*
X11098707Y5581235D01*
X11098707Y5878365D01*
X11169878Y5949535D01*
X11169878Y5986594D01*
X11060480Y6095992D01*
X11049000Y6095992D01*
X11049000Y6222992D02*
G01*
X11157127Y6222992D01*
X11157127Y6222992D02*
G01*
X11370640Y6009479D01*
X11370640Y5414332D01*
X11226800Y5270492D01*
X10464800Y5270492D02*
G01*
X10645013Y5450705D01*
X10645013Y5749358D01*
X10712627Y5816973D01*
X10712627Y6015042D01*
X10631677Y6095992D01*
X10604500Y6095992D01*
X10083800Y5270492D02*
G01*
X9937750Y5416542D01*
X9937750Y5894824D01*
X10138918Y6095992D01*
X10160000Y6095992D01*
X9702800Y5270492D02*
G01*
X9839883Y5407576D01*
X9839883Y5996729D01*
X9740620Y6095992D01*
X9715500Y6095992D01*
X8940800Y2603492D02*
G01*
X9126931Y2603492D01*
X9454997Y2931558D01*
X9454997Y3146188D01*
X9172193Y3428992D01*
X9144000Y3428992D01*
X9144000Y3555992D02*
G01*
X9252127Y3555992D01*
X9321800Y2603492D02*
G01*
X9495866Y2777558D01*
X9495866Y3312253D01*
X9252127Y3555992D01*
X8559800Y2603492D02*
G01*
X8750706Y2603492D01*
X9080779Y2933565D01*
X9080779Y3075729D01*
X8727516Y3428992D01*
X8699500Y3428992D01*
X8178800Y2603492D02*
G01*
X8393252Y2817944D01*
X8393252Y3310323D01*
X8274583Y3428992D01*
X8255000Y3428992D01*
X7797800Y2603492D02*
G01*
X7935823Y2741515D01*
X7935823Y3332294D01*
X7839125Y3428992D01*
X7810500Y3428992D01*
X8047354Y3676439D02*
G01*
X8047354Y3301992D01*
X8940800Y3936992D02*
G01*
X9193707Y4189900D01*
X9193707Y4544865D01*
X9264878Y4616035D01*
X9264878Y4653094D01*
X9155480Y4762492D01*
X9144000Y4762492D01*
X9144000Y4889492D02*
G01*
X9252127Y4889492D01*
X7543241Y3749540D02*
G01*
X7543241Y3392111D01*
X7206208Y3055078D01*
X7206208Y2586245D01*
X6996633Y2376670D01*
X6772935Y2376670D01*
X6662115Y2265850D01*
X6662115Y2042152D01*
X6423406Y1803443D01*
X6423406Y1619445D01*
X5942736Y1138775D01*
X5825210Y1138775D01*
X5762980Y1201005D01*
X5762980Y1521172D01*
X5892800Y1650992D01*
X9252127Y4889492D02*
G01*
X9252127Y4839733D01*
X9462719Y4629142D01*
X9462719Y4077911D01*
X9321800Y3936992D01*
X8559800Y3936992D02*
G01*
X8427618Y4069173D01*
X8427618Y4511819D01*
X8678290Y4762492D01*
X8699500Y4762492D01*
X8255000Y4762492D02*
G01*
X8228990Y4762492D01*
X8049945Y4583447D01*
X8049945Y4483473D01*
X8009077Y4442604D01*
X8009077Y4230057D01*
X8178800Y4060334D01*
X8178800Y3936992D01*
X7810500Y4762492D02*
G01*
X7787919Y4762492D01*
X7614259Y4588832D01*
X7614259Y4499170D01*
X7573390Y4458301D01*
X7573390Y4228457D01*
X7797800Y4004048D01*
X7797800Y3936992D01*
X8940800Y5270492D02*
G01*
X8803970Y5407322D01*
X8803970Y5777019D01*
X9122943Y6095992D01*
X9144000Y6095992D01*
X9144000Y6222992D02*
G01*
X9035872Y6222992D01*
X8761653Y5312529D02*
G01*
X8793886Y5312529D01*
X8761653Y5312529D02*
G01*
X8761653Y5792792D01*
X9035872Y6067010D01*
X9035872Y6222992D01*
X8761653Y5312529D02*
G01*
X8761653Y5287992D01*
X8612759Y5139098D01*
X8325611Y5139098D01*
X8116443Y4929929D01*
X8116443Y4707780D01*
X8009051Y4600389D01*
X8009051Y4500389D01*
X7968208Y4459546D01*
X7968208Y4205419D01*
X8050733Y4122894D01*
X8050733Y3765669D01*
X8106003Y3710398D01*
X8106003Y3244232D01*
X8307273Y3042963D01*
X8307273Y2895236D01*
X8222615Y2810578D01*
X9321800Y5270492D02*
G01*
X9184030Y5132722D01*
X8699500Y6095992D02*
G01*
X8720810Y6095992D01*
X8812809Y6003993D01*
X8812809Y5902774D01*
X8699093Y5789058D01*
X8699093Y5409785D01*
X8559800Y5270492D01*
X8178800Y5270492D02*
G01*
X8043824Y5405467D01*
X8043824Y5905898D01*
X8233918Y6095992D01*
X8255000Y6095992D01*
X7797800Y5270492D02*
G01*
X7927111Y5399803D01*
X7927111Y6004501D01*
X7835620Y6095992D01*
X7810500Y6095992D01*
X7302500Y3428992D02*
G01*
X7289114Y3428992D01*
X7165340Y3305218D01*
X7165340Y2733032D01*
X7035800Y2603492D01*
X5130800Y1650992D02*
G01*
X5130800Y2339332D01*
X7416800Y2603492D02*
G01*
X7287945Y2732346D01*
X7287945Y3051268D01*
X7574356Y3337679D01*
X6654800Y2603492D02*
G01*
X6783120Y2731813D01*
X6783120Y3232040D01*
X6747332Y3267829D01*
X6747332Y3346747D01*
X6829577Y3428992D01*
X6858000Y3428992D01*
X6273800Y2603492D02*
G01*
X6273800Y2803415D01*
X6273825Y2803415D01*
X6401866Y2931457D01*
X6401866Y3076465D01*
X6298488Y3179843D01*
X6298488Y3335190D01*
X6392290Y3428992D01*
X6413500Y3428992D01*
X5892800Y2603492D02*
G01*
X5756529Y2739763D01*
X5756529Y3250963D01*
X5934557Y3428992D01*
X5969000Y3428992D01*
X5524500Y3428992D02*
G01*
X5499455Y3428992D01*
X5339079Y3268616D01*
X5339079Y2776212D01*
X5511800Y2603492D01*
X7035800Y3936992D02*
G01*
X6907022Y4065770D01*
X6907022Y4385581D01*
X7283932Y4762492D01*
X7302500Y4762492D01*
X7302500Y4889492D02*
G01*
X7194372Y4889492D01*
X7194372Y4889492D02*
G01*
X7194372Y4807755D01*
X6865213Y4478596D01*
X6865213Y3922336D01*
X6982459Y3805090D01*
X6982459Y3805090D02*
G01*
X7284897Y3805090D01*
X7416800Y3936992D01*
X6982459Y3805090D02*
G01*
X6982459Y3286091D01*
X6851395Y3155027D01*
X6851395Y2517538D01*
X6458153Y2124295D01*
X6458153Y1937910D01*
X6310706Y1790463D01*
X6206312Y1790463D01*
X6654800Y3936992D02*
G01*
X6794423Y4076616D01*
X6794423Y4554237D01*
X6736511Y4612149D01*
X6736511Y4674836D01*
X6824167Y4762492D01*
X6858000Y4762492D01*
X6273800Y3936992D02*
G01*
X6273800Y4118119D01*
X6528409Y4372729D01*
X6528409Y4666404D01*
X6432321Y4762492D01*
X6413500Y4762492D01*
X5892800Y3936992D02*
G01*
X5746750Y4083042D01*
X5746750Y4561324D01*
X5947918Y4762492D01*
X5969000Y4762492D01*
X5524500Y4762492D02*
G01*
X5501919Y4762492D01*
X5328259Y4588832D01*
X5328259Y4120532D01*
X5511800Y3936992D01*
X7302500Y6222992D02*
G01*
X7194372Y6222992D01*
X7194372Y6222992D02*
G01*
X7194372Y5810902D01*
X7235240Y5770034D01*
X7235240Y5452051D01*
X7416800Y5270492D01*
X6526682Y2420510D02*
G01*
X6526682Y3628204D01*
X6470268Y3684617D01*
X6336487Y3684617D01*
X6145707Y3875397D01*
X6145707Y4434654D01*
X6305346Y4594293D01*
X6305346Y5085224D01*
X6428460Y5208338D01*
X6654800Y5270492D02*
G01*
X6521627Y5403664D01*
X6521627Y5781210D01*
X6836409Y6095992D01*
X6858000Y6095992D01*
X6273800Y5270492D02*
G01*
X6200190Y5344101D01*
X6200190Y5539046D01*
X6139510Y5599727D01*
X6139510Y5843211D01*
X6392290Y6095992D01*
X6413500Y6095992D01*
X5892800Y5270492D02*
G01*
X5751677Y5411614D01*
X5751677Y5899751D01*
X5947918Y6095992D01*
X5969000Y6095992D01*
X5511800Y5270492D02*
G01*
X5641111Y5399803D01*
X5641111Y6004501D01*
X5549620Y6095992D01*
X5524500Y6095992D01*
X5016500Y3428992D02*
G01*
X5039791Y3428992D01*
X5130368Y3338415D01*
X5130368Y3231278D01*
X4957952Y3058863D01*
X4957952Y2811645D01*
X4749800Y2603492D01*
X5124627Y3555992D02*
G01*
X5171262Y3509357D01*
X5171262Y3214362D01*
X4998821Y3041921D01*
X4998821Y2735470D01*
X5130800Y2603492D01*
X5016500Y3555992D02*
G01*
X5124627Y3555992D01*
X4368800Y2603492D02*
G01*
X4368800Y2801256D01*
X4693335Y3125792D01*
X4693335Y3328459D01*
X4592802Y3428992D01*
X4572000Y3428992D01*
X3987800Y2603492D02*
G01*
X3855465Y2735826D01*
X3855465Y3190079D01*
X4094378Y3428992D01*
X4127500Y3428992D01*
X4572000Y3301992D02*
G01*
X4489627Y3301992D01*
X4235627Y3555992D01*
X4127500Y3555992D02*
G01*
X4235627Y3555992D01*
X3606800Y2603492D02*
G01*
X3810152Y2806844D01*
X3810152Y3329017D01*
X3710177Y3428992D01*
X3683000Y3428992D01*
X3238500Y3428992D02*
G01*
X3259581Y3428992D01*
X3395725Y3292848D01*
X3395725Y2773418D01*
X3225800Y2603492D01*
X5016500Y4889492D02*
G01*
X4908372Y4889492D01*
X5130800Y3936992D02*
G01*
X4908372Y4159420D01*
X4908372Y4889492D01*
X5130800Y3936992D02*
G01*
X4897500Y3703693D01*
X4897500Y2951040D01*
X4335983Y2389522D01*
X4127931Y2389522D01*
X3809796Y2071387D01*
X3809796Y1853989D01*
X3606800Y1650992D01*
X4572000Y4762492D02*
G01*
X4583480Y4762492D01*
X4685436Y4660536D01*
X4685436Y4502040D01*
X4580839Y4397443D01*
X4580839Y4149031D01*
X4368800Y3936992D01*
X3987800Y3936992D02*
G01*
X4235627Y4184820D01*
X4235627Y4681542D01*
X4154677Y4762492D01*
X4127500Y4762492D01*
X3606800Y3936992D02*
G01*
X3460750Y4083042D01*
X3460750Y4561324D01*
X3661918Y4762492D01*
X3683000Y4762492D01*
X3225800Y3936992D02*
G01*
X3395979Y4107172D01*
X3395979Y4630132D01*
X3263620Y4762492D01*
X3238500Y4762492D01*
X4749800Y5270492D02*
G01*
X4908372Y5429064D01*
X4908372Y6001250D01*
X5003114Y6095992D01*
X5016500Y6095992D01*
X5016500Y6222992D02*
G01*
X5124627Y6222992D01*
X5124627Y6222992D02*
G01*
X5124627Y5920732D01*
X4960315Y5756419D01*
X4960315Y5440977D01*
X5130800Y5270492D01*
X3225800Y1650992D02*
G01*
X2988030Y1888761D01*
X2988030Y5118320D01*
X4368800Y5270492D02*
G01*
X4368800Y5410446D01*
X4576292Y5617938D01*
X4576292Y5675749D01*
X4693335Y5792792D01*
X4693335Y5995459D01*
X4592802Y6095992D01*
X4572000Y6095992D01*
X3987800Y5270492D02*
G01*
X3850690Y5407601D01*
X3850690Y5840392D01*
X4106290Y6095992D01*
X4127500Y6095992D01*
X3606800Y5270492D02*
G01*
X3460750Y5416542D01*
X3460750Y5894824D01*
X3661918Y6095992D01*
X3683000Y6095992D01*
X3225800Y5270492D02*
G01*
X3395979Y5440672D01*
X3395979Y5963632D01*
X3263620Y6095992D01*
X3238500Y6095992D01*
X1574800Y1269992D02*
G01*
X1437690Y1407101D01*
X1437690Y1839892D01*
X1693290Y2095492D01*
X1714500Y2095492D01*
X1270000Y2095492D02*
G01*
X1297178Y2095492D01*
X1378127Y2014542D01*
X1378127Y1454320D01*
X1193800Y1269992D01*
X812800Y1269992D02*
G01*
X957326Y1414518D01*
X957326Y1994882D01*
X856716Y2095492D01*
X825500Y2095492D01*
X2603500Y4889492D02*
G01*
X2495372Y4889492D01*
X2717800Y3936992D02*
G01*
X2495372Y4159420D01*
X2495372Y4889492D01*
X1193800Y1650992D02*
G01*
X1158163Y1686628D01*
X1158163Y2379946D01*
X1708607Y2930390D01*
X1708607Y3082968D01*
X1595881Y3195693D01*
X1595881Y3724851D01*
X1679930Y3808900D01*
X1714500Y4762492D02*
G01*
X1736877Y4762492D01*
X1827707Y4671661D01*
X1827707Y4189900D01*
X1574800Y3936992D01*
X1193800Y3936992D02*
G01*
X1391056Y4134248D01*
X1391056Y4675065D01*
X1303629Y4762492D01*
X1270000Y4762492D01*
X812800Y3936992D02*
G01*
X982726Y4106918D01*
X982726Y4626348D01*
X846581Y4762492D01*
X825500Y4762492D01*
X2336800Y5270492D02*
G01*
X2536240Y5469933D01*
X2536240Y5776104D01*
X2495372Y5816973D01*
X2495372Y6001250D01*
X2590114Y6095992D01*
X2603500Y6095992D01*
X2603500Y6222992D02*
G01*
X2711627Y6222992D01*
X2711627Y6222992D02*
G01*
X2711627Y5928098D01*
X2587243Y5803714D01*
X2587243Y5401048D01*
X2717800Y5270492D01*
X2717800Y5270492D02*
G01*
X2717800Y4575649D01*
X2589707Y4447557D01*
X2589707Y4250834D01*
X2849930Y3990611D01*
X2849930Y3316444D01*
X2589707Y3056221D01*
X2589707Y2820992D01*
X2629230Y2781470D01*
X1955800Y5270492D02*
G01*
X1955800Y5468256D01*
X2280335Y5792792D01*
X2280335Y5995459D01*
X2179802Y6095992D01*
X2159000Y6095992D01*
X1574800Y5270492D02*
G01*
X1759991Y5455683D01*
X1759991Y5770694D01*
X1826971Y5837674D01*
X1826971Y5994976D01*
X1725955Y6095992D01*
X1714500Y6095992D01*
X1193800Y5270492D02*
G01*
X1064717Y5399575D01*
X1064717Y5911791D01*
X1248918Y6095992D01*
X1270000Y6095992D01*
X812800Y5270492D02*
G01*
X982979Y5440672D01*
X982979Y5963632D01*
X850620Y6095992D01*
X825500Y6095992D01*
X4368800Y5651492D02*
G01*
X4185081Y5467774D01*
X4185081Y5196552D01*
X4368800Y5012834D01*
X4368800Y4317992D01*
X9055201Y5625000D02*
G01*
X8967292Y5625000D01*
X8940800Y5651492D01*
X8940800Y4317992D02*
G01*
X8940800Y5012809D01*
X9116847Y5188856D01*
X9116847Y5563354D01*
X9055201Y5625000D01*
X9055201Y5625000D02*
G01*
X9252153Y5821951D01*
X9252153Y6288702D01*
X9019895Y6520959D01*
X8909913Y6520959D01*
X9867823Y4185328D02*
G01*
X9867823Y3970647D01*
X10119461Y3719009D01*
X10167213Y3719009D01*
X10403484Y3482738D01*
X10403484Y3045807D01*
X10464800Y2984492D01*
X10464800Y5651492D02*
G01*
X10272852Y5459544D01*
X10272852Y5125839D01*
X10272852Y5125839D02*
G01*
X10047020Y5125839D01*
X9895535Y5277324D01*
X9895535Y6467873D01*
X6159500Y6730992D02*
G01*
X5682005Y6253497D01*
X5682005Y4990203D01*
X3751529Y3070217D02*
G01*
X3574846Y3246899D01*
X3574846Y3647356D01*
X3806952Y3879461D01*
X3806952Y4137144D01*
X3987800Y4317992D01*
X3987800Y4317992D02*
G01*
X3987800Y4840114D01*
X3992829Y4845143D01*
X10272852Y5125839D02*
G01*
X10323906Y5074785D01*
X10323906Y4458860D01*
X10323931Y4458860D01*
X10464800Y4317992D01*
X10464800Y4317992D02*
G01*
X10464800Y4203514D01*
X10291318Y4030032D01*
X10291318Y3733589D01*
X10444352Y3580554D01*
X10444352Y3218527D01*
X10598048Y3064832D01*
X10598048Y2934911D01*
X10508030Y2844893D01*
X10223398Y2844893D01*
X10083800Y2984492D01*
X1257300Y6667492D02*
G01*
X1066800Y6857992D01*
X825500Y6857992D01*
X8019872Y2222492D02*
G01*
X7683500Y2222492D01*
X7683500Y2222492D02*
G01*
X7239000Y2222492D01*
X4572000Y2222492D02*
G01*
X4127500Y2222492D01*
X8119236Y2222492D02*
G01*
X8019872Y2222492D01*
X8119236Y2222492D02*
G01*
X8128000Y2222492D01*
X8236127Y2222492D02*
G01*
X8236127Y1708320D01*
X7797800Y1269992D01*
X8128000Y2222492D02*
G01*
X8236127Y2222492D01*
X6350000Y2222492D02*
G01*
X6095822Y2222492D01*
X6095822Y2222492D02*
G01*
X5905500Y2222492D01*
X6232499Y7683492D02*
G01*
X6267780Y7648211D01*
X6267780Y6242448D01*
X6098641Y6073310D01*
X6098641Y5562287D01*
X6129248Y5531680D01*
X6129248Y4482939D01*
X6095822Y4449513D01*
X6095822Y2222492D01*
X7112000Y8000992D02*
G01*
X7102500Y7991492D01*
X7102500Y7683492D01*
X8763000Y8000992D02*
G01*
X8763000Y7969267D01*
X8367979Y7574246D01*
X8270240Y7574246D01*
X7556500Y8287986D01*
X7556500Y8562992D01*
X1977999Y7683492D02*
G01*
X2095500Y7800992D01*
X2095500Y8000992D01*
X4127500Y8000992D02*
G01*
X4009999Y7883491D01*
X4009999Y7683492D01*
X6583375Y4317992D02*
G01*
X6654800Y4317992D01*
X6654800Y2984492D02*
G01*
X6654800Y3737145D01*
X6511950Y3879994D01*
X6511950Y4246567D01*
X6583375Y4317992D01*
X6583375Y4317992D02*
G01*
X6583375Y5142069D01*
X6273800Y5451645D01*
X6273800Y5651492D01*
X1955800Y4317992D02*
G01*
X1955800Y5070645D01*
X1812950Y5213494D01*
X1812950Y5508642D01*
X1955800Y5651492D01*
X6591300Y7048492D02*
G01*
X6730034Y6909757D01*
X6730034Y6107727D01*
X6273800Y5651492D01*
X8559800Y4317992D02*
G01*
X8726779Y4151012D01*
X8826449Y4151012D01*
X4880000Y7683492D02*
G01*
X4433392Y7236884D01*
X4433392Y6525531D01*
X4399229Y6491368D01*
X4399229Y6062921D01*
X3987800Y5651492D01*
X4572000Y1968492D02*
G01*
X4127500Y1968492D01*
X8305800Y6667492D02*
G01*
X8009737Y6371429D01*
X7778241Y6371429D01*
X7701076Y6294264D01*
X7701076Y6063734D01*
X7795818Y5968992D01*
X7795818Y5968992D02*
G01*
X7810500Y5968992D01*
X5524500Y3301992D02*
G01*
X5379948Y3157440D01*
X5379948Y2930771D01*
X5645556Y2665163D01*
X5645556Y2119342D01*
X5494705Y1968492D01*
X5461000Y1968492D01*
X3238500Y3301992D02*
G01*
X3202711Y3301992D01*
X3096488Y3408215D01*
X3096488Y4003667D01*
X3355111Y4262290D01*
X3355111Y4518880D01*
X3238500Y4635492D01*
X3238500Y3301992D02*
G01*
X3354857Y3185634D01*
X3354857Y2929348D01*
X3096793Y2671284D01*
X3096793Y2085941D01*
X3214243Y1968492D01*
X3238500Y1968492D01*
X5524500Y4635492D02*
G01*
X5382031Y4493023D01*
X5382031Y4253831D01*
X5654675Y3981188D01*
X5654675Y3396734D01*
X5559933Y3301992D01*
X5524500Y3301992D01*
X7810500Y4635492D02*
G01*
X7844307Y4635492D01*
X7924520Y4715705D01*
X7924520Y4943899D01*
X7662214Y5206204D01*
X7662214Y5835388D01*
X7795818Y5968992D01*
X2971800Y6667492D02*
G01*
X2971800Y6202697D01*
X3205505Y5968992D01*
X3238500Y5968992D01*
X3238500Y5968992D02*
G01*
X3355111Y5852380D01*
X3355111Y5596475D01*
X3097555Y5338919D01*
X3097555Y4762111D01*
X3224174Y4635492D01*
X3238500Y4635492D01*
X8128000Y1968492D02*
G01*
X7683500Y1968492D01*
X7683500Y1968492D02*
G01*
X7683500Y1736539D01*
X7073950Y1126990D01*
X6982307Y1126990D01*
X6906717Y1202580D01*
X6906717Y1359095D01*
X7015378Y1467756D01*
X7035800Y1467756D01*
X7189088Y1621045D01*
X7189088Y1918581D01*
X7239000Y1968492D01*
X5524500Y5968992D02*
G01*
X5504332Y5968992D01*
X5415229Y6058095D01*
X5415229Y6443921D01*
X5638800Y6667492D01*
X7810500Y4635492D02*
G01*
X7614259Y4439251D01*
X7614259Y4245373D01*
X7739710Y4119923D01*
X7797520Y4119923D01*
X7928102Y3989341D01*
X7928102Y3854874D01*
X7702346Y3629118D01*
X7702346Y3383069D01*
X7783423Y3301992D01*
X7810500Y3301992D01*
X9715500Y5968992D02*
G01*
X9543110Y5796602D01*
X9543110Y5356953D01*
X9574682Y5325381D01*
X9574682Y4741080D01*
X9680270Y4635492D01*
X9715500Y4635492D01*
X8305800Y6667492D02*
G01*
X9134424Y7496116D01*
X9494062Y7496116D01*
X9702800Y7704853D01*
X9702800Y7746992D01*
X825500Y4635492D02*
G01*
X797001Y4635492D01*
X797001Y4635492D02*
G01*
X675386Y4757107D01*
X675386Y5329064D01*
X942111Y5595790D01*
X942111Y5852380D01*
X825500Y5968992D01*
X825500Y1968492D02*
G01*
X792454Y1968492D01*
X684707Y2076239D01*
X684707Y3183628D01*
X803071Y3301992D01*
X797001Y4635492D02*
G01*
X682218Y4520709D01*
X682218Y3422845D01*
X803071Y3301992D01*
X803071Y3301992D02*
G01*
X825500Y3301992D01*
X10477500Y507992D02*
G01*
X11506022Y1536514D01*
X11506022Y6578439D01*
X11279149Y6805312D01*
X10983620Y6805312D01*
X10845800Y6667492D01*
X7429500Y507992D02*
G01*
X7630083Y307408D01*
X8498814Y307408D01*
X10712627Y2521221D01*
X10712627Y5738690D01*
X10762411Y5788474D01*
X10762411Y6369880D01*
X10464800Y6667492D01*
X9430334Y7365992D02*
G01*
X9214154Y7365992D01*
X7986217Y6138054D01*
X7986217Y4661933D01*
X7794497Y4470214D01*
X7757922Y4470214D01*
X7655128Y4367420D01*
X7655128Y4262315D01*
X7742174Y4175269D01*
X7801990Y4175269D01*
X7979918Y3997342D01*
X7979918Y2551803D01*
X8277021Y2254699D01*
X8277021Y1406390D01*
X7893024Y1022393D01*
X10083800Y6667492D02*
G01*
X9954869Y6796422D01*
X9650602Y6796422D01*
X9461372Y6607192D01*
X9461372Y5220174D01*
X9278238Y5037040D01*
X9117685Y5037040D01*
X9031909Y4951265D01*
X9031909Y4501431D01*
X9080855Y4452485D01*
X9080855Y4276869D01*
X8591372Y3787386D01*
X8591372Y3271740D01*
X8691549Y3171563D01*
X8691549Y2935063D01*
X8334806Y2578320D01*
X8334806Y651299D01*
X8191500Y507992D01*
X3619500Y507992D02*
G01*
X3416325Y711166D01*
X3416325Y2650355D01*
X3440328Y2674358D01*
X3440328Y3570673D01*
X3751605Y3881950D01*
X3751605Y4290915D01*
X3847845Y4387156D01*
X3847845Y4787663D01*
X4109948Y5049766D01*
X10845800Y7365992D02*
G01*
X10845800Y7238585D01*
X11186591Y6897794D01*
X11244529Y6897794D01*
X11551564Y6590758D01*
X11551564Y902047D01*
X10843259Y6504754D02*
G01*
X10945088Y6504754D01*
X11424284Y6025558D01*
X11424284Y2613372D01*
X9654336Y843424D01*
X10464800Y7365992D02*
G01*
X10287381Y7188573D01*
X10027869Y7188573D01*
X9955707Y7116411D01*
X9955707Y6990377D01*
X10216997Y6729087D01*
X10216997Y6406050D01*
X10240111Y6382936D01*
X9715500Y507992D02*
G01*
X11465153Y2257645D01*
X11465153Y6429138D01*
X11226800Y6667492D01*
X9598913Y1543601D02*
G01*
X10645444Y2590131D01*
X10645444Y3106945D01*
X10491876Y3260514D01*
X10491876Y3690104D01*
X10332186Y3849794D01*
X10332186Y4000568D01*
X10595025Y4263407D01*
X10595025Y4391728D01*
X10369727Y4617026D01*
X10369727Y5184437D01*
X10328503Y5225661D01*
X10328503Y5315348D01*
X10604118Y5590964D01*
X10604118Y5794976D01*
X10493171Y5905924D01*
X10493171Y6385857D01*
X10333304Y6545724D01*
X10333304Y6874197D01*
X10381767Y6922660D01*
X10083800Y7365992D02*
G01*
X9967213Y7249406D01*
X9967213Y7216868D01*
X9702800Y6667492D02*
G01*
X9502241Y6466933D01*
X9502241Y5340012D01*
X9513392Y5328861D01*
X9513392Y3683474D01*
X9489236Y3659319D01*
X9489236Y3393660D01*
X9537293Y3345604D01*
X9537293Y1428310D01*
X8457260Y348277D01*
X7673390Y348277D01*
X7556500Y465167D01*
X7556500Y544238D01*
X7477810Y622927D01*
X7336942Y622927D01*
X7096785Y382770D01*
X6792722Y382770D01*
X6667500Y507992D01*
X5842000Y9143992D02*
G01*
X5842000Y8762992D01*
X5334000Y8254992D01*
X5842000Y9397992D02*
G01*
X5948197Y9291794D01*
X5948197Y8615189D01*
X5588000Y8254992D01*
X5842000Y8254992D02*
G01*
X6096000Y8508992D01*
X6096000Y9143992D01*
X6096000Y8254992D02*
G01*
X6207125Y8366117D01*
X6207125Y9286867D01*
X6096000Y9397992D01*
X6350000Y8254992D02*
G01*
X6350000Y9143992D01*
X6604000Y8254992D02*
G01*
X6477000Y8381992D01*
X6477000Y9270992D01*
X6350000Y9397992D01*
X6604000Y9143992D02*
G01*
X6858000Y8889992D01*
X6858000Y8254992D01*
X7112000Y8254992D02*
G01*
X7112000Y8889992D01*
X6604000Y9397992D01*
X8559800Y2984492D02*
G01*
X8559800Y3222058D01*
X8369325Y3412533D01*
X8369325Y4127466D01*
X8178800Y4317992D01*
X8178800Y4317992D02*
G01*
X8381796Y4520989D01*
X8381796Y4737752D01*
X8779509Y5135465D01*
X9005646Y5135465D01*
X9075978Y5205798D01*
X9075978Y5430207D01*
X9056039Y5450146D01*
X1587500Y9397992D02*
G01*
X1475257Y9285749D01*
X1475257Y9063982D01*
X1696262Y8842976D01*
X1696262Y8125630D01*
X3924300Y7048492D02*
G01*
X3652113Y7048492D01*
X2733929Y7966676D01*
X2733929Y8031777D01*
X2640075Y8125630D01*
X4579848Y3659903D02*
G01*
X4450765Y3659903D01*
X4236338Y3874330D01*
X4236338Y4004353D01*
X4496892Y4264906D01*
X4496892Y4451113D01*
X4463846Y4484159D01*
X4463846Y4975598D01*
X4240301Y5199143D01*
X4240301Y5339758D01*
X4502632Y5602089D01*
X4502632Y5739300D01*
X4453813Y5788118D01*
X4453813Y6467670D01*
X4496231Y6510088D01*
X4496231Y7135919D01*
X11226800Y7746992D02*
G01*
X11026952Y7746992D01*
X10456545Y7176584D01*
X10409885Y7176584D01*
X10278287Y7044987D01*
X10278287Y6522458D01*
X10298734Y6502011D01*
X10298734Y5866427D01*
X10083800Y5651492D01*
X9574682Y3561504D02*
G01*
X9574682Y4189874D01*
X9702800Y4317992D01*
X9702800Y2984492D02*
G01*
X9585045Y3102246D01*
X9585045Y3551140D01*
X9574682Y3561504D01*
X9574682Y3561504D02*
G01*
X9547859Y3561504D01*
X2590800Y7048492D02*
G01*
X2603982Y7061674D01*
X2603982Y7366576D01*
X1841500Y9143992D02*
G01*
X1958746Y9026745D01*
X1958746Y7822125D01*
X6843775Y6455859D02*
G01*
X6843775Y7167872D01*
X6438366Y7573281D01*
X10845800Y7746992D02*
G01*
X10692688Y7593881D01*
X10111841Y7593881D01*
X9747427Y7229467D01*
X9638665Y7229467D01*
X9616566Y7251565D01*
X9405442Y7251565D01*
X8499449Y6345572D01*
X8499449Y6345572D02*
G01*
X8499449Y5972141D01*
X8178800Y5651492D01*
X1257300Y7048492D02*
G01*
X1206525Y7099266D01*
X1206525Y9180847D01*
X1538681Y9513003D01*
X1726488Y9513003D01*
X1841500Y9397992D01*
X5511800Y4317992D02*
G01*
X5695543Y4134248D01*
X5695543Y3168235D01*
X5511800Y2984492D01*
X5511800Y4317992D02*
G01*
X5511800Y4473770D01*
X5581015Y4542985D01*
X9469754Y7554739D02*
G01*
X9469754Y7700916D01*
X9645370Y7876532D01*
X10335259Y7876532D01*
X10464800Y7746992D01*
X9592259Y7192942D02*
G01*
X9494799Y7192942D01*
X8587790Y6285933D01*
X8587790Y5952101D01*
X8431707Y5796018D01*
X8431707Y5702317D01*
X8247532Y5518142D01*
X8104098Y5518142D01*
X698500Y8562992D02*
G01*
X698500Y8739649D01*
X1527987Y9569137D01*
X2178354Y9569137D01*
X2349500Y9397992D01*
X2349500Y8254992D02*
G01*
X2984500Y8889992D01*
X2984500Y9270992D01*
X3111500Y9397992D01*
X2603500Y8254992D02*
G01*
X2713304Y8145188D01*
X2956940Y8145188D01*
X2964383Y8152630D01*
X2964383Y8356236D01*
X3365500Y8757353D01*
X3365500Y9143992D01*
X2857500Y8254992D02*
G01*
X2857500Y8361850D01*
X3365500Y9397992D02*
G01*
X3238500Y9270992D01*
X3238500Y8742850D01*
X2857500Y8361850D01*
X3111500Y8254992D02*
G01*
X3221304Y8145188D01*
X3420846Y8145188D01*
X3472383Y8196724D01*
X3472383Y8289968D01*
X3541522Y8359106D01*
X3541522Y9066014D01*
X3619500Y9143992D01*
X3365500Y8254992D02*
G01*
X3492500Y8381992D01*
X3492500Y9270992D01*
X3619500Y9397992D01*
X3619500Y8254992D02*
G01*
X3619500Y8889992D01*
X3873500Y9143992D01*
X3873500Y8254992D02*
G01*
X3984625Y8366117D01*
X3984625Y9286867D01*
X3873500Y9397992D01*
X4127500Y8254992D02*
G01*
X4127500Y9143992D01*
X4381500Y8254992D02*
G01*
X4254500Y8381992D01*
X4254500Y9270992D01*
X4127500Y9397992D01*
X4635500Y8254992D02*
G01*
X4381500Y8508992D01*
X4381500Y9143992D01*
X4889500Y8254992D02*
G01*
X4889500Y8889992D01*
X4381500Y9397992D01*
X10033000Y9397992D02*
G01*
X10033000Y9291134D01*
X8763000Y8324181D02*
G01*
X8763000Y8254992D01*
X10033000Y9291134D02*
G01*
X9135236Y8393371D01*
X8832189Y8393371D01*
X8763000Y8324181D01*
X8763000Y8324181D02*
G01*
X8557310Y8324181D01*
X8318500Y8562992D01*
X10541000Y9397992D02*
G01*
X9271000Y8127992D01*
X8729141Y8127992D01*
X8318500Y7717350D01*
X8318500Y7692991D01*
X1955800Y1269992D02*
G01*
X1822627Y1403164D01*
X1822627Y2222492D01*
X1812391Y2222492D02*
G01*
X1822577Y2222492D01*
X1822577Y2222492D02*
G01*
X1822627Y2222492D01*
X1714500Y2222492D02*
G01*
X1763445Y2222492D01*
X1763445Y2222492D02*
G01*
X1812391Y2222492D01*
X1763445Y2222492D02*
G01*
X1763445Y2608343D01*
X2083892Y2928790D01*
X2083892Y3040270D01*
X1996693Y3127468D01*
X1996693Y3566507D01*
X2153589Y3723403D01*
X2153589Y4332546D01*
X2267153Y4446109D01*
X2267153Y5124899D01*
X2203297Y5188755D01*
X2203297Y5336811D01*
X2474950Y5608464D01*
X2474950Y5759112D01*
X2440330Y5793732D01*
X2440330Y6706201D01*
X2735275Y7001146D01*
X2735275Y7267922D01*
X3040634Y7573281D01*
X7937500Y8562992D02*
G01*
X7810931Y8689560D01*
X7504633Y8689560D01*
X7344384Y8529312D01*
X7344384Y8327229D01*
X7145147Y8127992D01*
X7071385Y8127992D01*
X6985000Y8041606D01*
X6985000Y7910873D01*
X10795000Y9397992D02*
G01*
X10795000Y9291134D01*
X2603500Y3555992D02*
G01*
X2711627Y3555992D01*
X2711627Y3555992D02*
G01*
X2711627Y3235977D01*
X2548839Y3073189D01*
X2548839Y2772453D01*
X2717800Y2603492D01*
X2603500Y3428992D02*
G01*
X2592120Y3428992D01*
X2495397Y3332269D01*
X2495397Y2762089D01*
X2336800Y2603492D01*
X7035800Y5651492D02*
G01*
X7100392Y5716084D01*
X7100392Y7236884D01*
X7556500Y7692991D01*
X4749800Y4317992D02*
G01*
X4790643Y4358835D01*
X4790643Y4839555D01*
X4952415Y5001328D01*
X5045760Y5001328D01*
X5259679Y5215247D01*
X5259679Y5326194D01*
X5001183Y5584690D01*
X5001183Y5726523D01*
X5166664Y5892004D01*
X5166664Y6379024D01*
X5126481Y6419207D01*
X5126481Y6917174D01*
X5257800Y7048492D01*
X2336800Y4317992D02*
G01*
X2336800Y4209635D01*
X2464892Y4081543D01*
X2464892Y3359574D01*
X2336800Y3231481D01*
X2336800Y2984492D01*
X1955800Y2603492D02*
G01*
X2124760Y2772453D01*
X2124760Y3086066D01*
X2046909Y3163917D01*
X2046909Y3334961D01*
X2140940Y3428992D01*
X2159000Y3428992D01*
X7235672Y4317992D02*
G01*
X7035800Y4317992D01*
X7170877Y5505162D02*
G01*
X7170877Y5756114D01*
X7147382Y5779609D01*
X7147382Y6807065D01*
X7405573Y7065256D01*
X7908036Y7065256D01*
X7924800Y7048492D01*
X7170877Y5505162D02*
G01*
X6801129Y5505162D01*
X6654800Y5651492D01*
X7170877Y5505162D02*
G01*
X7170877Y5277477D01*
X7412380Y5035974D01*
X7412380Y4494700D01*
X7235672Y4317992D01*
X7235672Y4317992D02*
G01*
X7551369Y4002295D01*
X7551369Y3883703D01*
X7460919Y3793253D01*
X7370445Y3793253D01*
X7035800Y3458608D01*
X7035800Y2984492D01*
X2848000Y7683492D02*
G01*
X2837992Y7683492D01*
X2336800Y7182299D01*
X2336800Y5651492D01*
X2336800Y5651492D02*
G01*
X2123541Y5438233D01*
X2123541Y5142400D01*
X2047620Y5066479D01*
X2047620Y4410194D01*
X2086508Y4371306D01*
X2086508Y3743012D01*
X1955800Y3612304D01*
X1955800Y2984492D01*
X10464800Y7048492D02*
G01*
X10464800Y6848645D01*
X10784636Y6528808D01*
X10784636Y6480497D01*
X10845800Y6419334D01*
X10845800Y5651492D01*
X1714500Y3428992D02*
G01*
X1736877Y3428992D01*
X1827707Y3338161D01*
X1827707Y2856400D01*
X1574800Y2603492D01*
X1193800Y2603492D02*
G01*
X1390192Y2799885D01*
X1390192Y3329246D01*
X1290446Y3428992D01*
X1270000Y3428992D01*
X3606800Y5651492D02*
G01*
X3791153Y5835845D01*
X3791153Y6293883D01*
X3036544Y7048492D01*
X2971800Y7048492D01*
X1193800Y4317992D02*
G01*
X1047750Y4171942D01*
X1047750Y3130542D01*
X1193800Y2984492D01*
X1193800Y5651492D02*
G01*
X1337589Y5507702D01*
X1337589Y5121851D01*
X1154023Y4938285D01*
X1154023Y4357768D01*
X1193800Y4317992D01*
X3606800Y5651492D02*
G01*
X3797300Y5460992D01*
X3797300Y4508492D01*
X3606800Y4317992D01*
X2159000Y6730992D02*
G01*
X2046706Y6730992D01*
X1391056Y6075342D01*
X1391056Y5848748D01*
X1193800Y5651492D01*
X9702800Y5651492D02*
G01*
X9702800Y5482302D01*
X9601733Y5381236D01*
X9408236Y4766505D02*
G01*
X9451873Y4810142D01*
X9451873Y5123146D01*
X7945450Y4519744D02*
G01*
X7797800Y4372094D01*
X7797800Y4317992D01*
X8178800Y2984492D02*
G01*
X8163966Y2969658D01*
X8163966Y2785534D01*
X8199627Y2749872D01*
X8264753Y2749872D01*
X8348903Y2834022D01*
X8348903Y3062597D01*
X8146872Y3264628D01*
X8146872Y3612634D01*
X8317661Y3783423D01*
X8317661Y3979283D01*
X8049945Y4246999D01*
X8049945Y4383473D01*
X8185175Y4518703D01*
X8225764Y4518703D01*
X5892800Y5651492D02*
G01*
X6083300Y5460992D01*
X6083300Y4508492D01*
X5892800Y4317992D01*
X825500Y3428992D02*
G01*
X853795Y3428992D01*
X948867Y3333920D01*
X948867Y2739560D01*
X812800Y2603492D01*
X3225800Y4317992D02*
G01*
X3097555Y4317992D01*
X3097555Y4317992D02*
G01*
X3042665Y4263102D01*
X3042665Y3167626D01*
X3225800Y2984492D01*
X3225800Y5651492D02*
G01*
X3056686Y5482379D01*
X3056686Y4358860D01*
X3097555Y4317992D01*
X812800Y5651492D02*
G01*
X717346Y5746945D01*
X717346Y6622839D01*
X825500Y6730992D01*
X4749800Y5651492D02*
G01*
X4749800Y6654792D01*
X4826000Y6730992D01*
X4749800Y5651492D02*
G01*
X4611420Y5513113D01*
X4611420Y5211132D01*
X4729378Y5093174D01*
X4729378Y4483422D01*
X4621707Y4375751D01*
X4621707Y3867345D01*
X4749800Y3739253D01*
X4749800Y2984492D01*
X1574800Y4317992D02*
G01*
X1431950Y4460841D01*
X1431950Y5508642D01*
X1574800Y5651492D01*
X1574800Y4317992D02*
G01*
X1446403Y4189595D01*
X1446403Y3112889D01*
X1574800Y2984492D01*
X3924300Y6667492D02*
G01*
X3733800Y6857992D01*
X3492500Y6857992D01*
X10845800Y2984492D02*
G01*
X10981613Y3120306D01*
X10981613Y4182178D01*
X10845800Y4317992D01*
X10845800Y4317992D02*
G01*
X11036300Y4508492D01*
X11036300Y5460992D01*
X11226800Y5651492D01*
X9321800Y2984492D02*
G01*
X9035846Y3270445D01*
X9035846Y3832166D01*
X9321800Y4118119D01*
X9321800Y4317992D01*
X7493000Y6984992D02*
G01*
X7601127Y6984992D01*
X7416800Y5651492D02*
G01*
X7601127Y5835820D01*
X7601127Y6984992D01*
X5130800Y2984492D02*
G01*
X5265369Y3119061D01*
X5265369Y4183423D01*
X5130800Y4317992D01*
X10731500Y507992D02*
G01*
X10607954Y384446D01*
X10093045Y384446D01*
X9969500Y507992D01*
X1587500Y507992D02*
G01*
X1713534Y381957D01*
X2223465Y381957D01*
X2349500Y507992D01*
X8445500Y507992D02*
G01*
X8326653Y389145D01*
X7802346Y389145D01*
X7683500Y507992D01*
X3873500Y507992D02*
G01*
X3984193Y397299D01*
X4524806Y397299D01*
X4635500Y507992D01*
X4635500Y507992D02*
G01*
X4746193Y397299D01*
X5286806Y397299D01*
X5397500Y507992D01*
X2349500Y507992D02*
G01*
X2349500Y1257292D01*
X1955800Y1650992D01*
X1955800Y1650992D02*
G01*
X2845892Y2541084D01*
X2845892Y2856400D01*
X2717800Y2984492D01*
X7664450Y663795D02*
G01*
X7077303Y663795D01*
X6921500Y507992D01*
X7797800Y1650992D02*
G01*
X7664450Y1517642D01*
X7664450Y663795D01*
X7664450Y663795D02*
G01*
X7664450Y527042D01*
X7683500Y507992D01*
X2095500Y9143992D02*
G01*
X2209190Y9030301D01*
X2209190Y7116056D01*
X2267127Y7058118D01*
X2267127Y6984992D01*
X2159000Y6984992D02*
G01*
X2267127Y6984992D01*
X7416800Y2984492D02*
G01*
X7642733Y3210425D01*
X7642733Y4092059D01*
X7416800Y4317992D01*
X5130800Y4317992D02*
G01*
X5130800Y5028557D01*
X5300548Y5198305D01*
X5300548Y5481744D01*
X5130800Y5651492D01*
X6159500Y6984992D02*
G01*
X5756452Y6984992D01*
X5297627Y6526166D01*
X5297627Y5818319D01*
X5130800Y5651492D01*
X2717800Y4317992D02*
G01*
X2846171Y4446363D01*
X2846171Y5523120D01*
X2717800Y5651492D01*
X3384372Y6984992D02*
G01*
X3186912Y7182451D01*
X2916504Y7182451D01*
X2821508Y7087455D01*
X2821508Y5755200D01*
X2717800Y5651492D01*
X3492500Y6984992D02*
G01*
X3384372Y6984992D01*
X2717800Y2984492D02*
G01*
X2890799Y3157491D01*
X2890799Y4144992D01*
X2717800Y4317992D01*
X7416800Y4317992D02*
G01*
X7416800Y4359521D01*
X7557338Y4500059D01*
X7557338Y5510954D01*
X7416800Y5651492D01*
X7937500Y7692991D02*
G01*
X8097113Y7533378D01*
X9037243Y7533378D01*
X10795000Y9291134D01*
D12*
G01*
X3492500Y6985000D03*
G01*
X4826000Y6985000D03*
D13*
G01*
X812800Y2984500D03*
G01*
X812800Y2603500D03*
G01*
X1193800Y2984500D03*
G01*
X1193800Y2603500D03*
G01*
X1574800Y2984500D03*
G01*
X1574800Y2603500D03*
G01*
X1955800Y2984500D03*
G01*
X1955800Y2603500D03*
G01*
X2336800Y2984500D03*
G01*
X2336800Y2603500D03*
G01*
X2717800Y2984500D03*
G01*
X2717800Y2603500D03*
D14*
G01*
X7937500Y7692999D03*
G01*
X7937500Y8563000D03*
G01*
X8318500Y7692999D03*
G01*
X8318500Y8563000D03*
D15*
G01*
X4381500Y9398000D03*
G01*
X4381500Y9144000D03*
G01*
X4127500Y9398000D03*
G01*
X4127500Y9144000D03*
G01*
X3873500Y9398000D03*
G01*
X3873500Y9144000D03*
G01*
X3619500Y9398000D03*
G01*
X3619500Y9144000D03*
G01*
X3365500Y9398000D03*
G01*
X3365500Y9144000D03*
G01*
X3111500Y9398000D03*
G01*
X3111500Y9144000D03*
G01*
X2857500Y9398000D03*
G01*
X2857500Y9144000D03*
G01*
X2603500Y9398000D03*
G01*
X2603500Y9144000D03*
G01*
X2349500Y9398000D03*
G01*
X2349500Y9144000D03*
G01*
X2095500Y9398000D03*
G01*
X2095500Y9144000D03*
G01*
X1841500Y9398000D03*
G01*
X1841500Y9144000D03*
G01*
X1587500Y9398000D03*
G01*
X1587500Y9144000D03*
G01*
X6604000Y9398000D03*
G01*
X6604000Y9144000D03*
G01*
X6350000Y9398000D03*
G01*
X6350000Y9144000D03*
G01*
X6096000Y9398000D03*
G01*
X6096000Y9144000D03*
G01*
X5842000Y9398000D03*
G01*
X5842000Y9144000D03*
D16*
G01*
X6667500Y508000D03*
G01*
X6921500Y508000D03*
G01*
X2095500Y508000D03*
G01*
X2349500Y508000D03*
G01*
X9715500Y508000D03*
G01*
X9969500Y508000D03*
G01*
X5143500Y508000D03*
G01*
X5397500Y508000D03*
G01*
X4381500Y508000D03*
G01*
X4635500Y508000D03*
G01*
X3619500Y508000D03*
G01*
X3873500Y508000D03*
G01*
X8191500Y508000D03*
G01*
X8445500Y508000D03*
G01*
X1333500Y508000D03*
G01*
X1587500Y508000D03*
G01*
X7429500Y508000D03*
G01*
X7683500Y508000D03*
G01*
X10477500Y508000D03*
G01*
X10731500Y508000D03*
D14*
G01*
X698500Y7692999D03*
G01*
X698500Y8563000D03*
G01*
X4880000Y7683500D03*
G01*
X4009999Y7683500D03*
G01*
X2848000Y7683500D03*
G01*
X1977999Y7683500D03*
G01*
X7556500Y7692999D03*
G01*
X7556500Y8563000D03*
G01*
X7102500Y7683500D03*
G01*
X6232499Y7683500D03*
D17*
G01*
X3111500Y8001000D03*
G01*
X3111500Y8255000D03*
G01*
X3365500Y8001000D03*
G01*
X3365500Y8255000D03*
G01*
X3619500Y8001000D03*
G01*
X3619500Y8255000D03*
G01*
X3873500Y8001000D03*
G01*
X3873500Y8255000D03*
G01*
X4127500Y8001000D03*
G01*
X4127500Y8255000D03*
G01*
X4381500Y8001000D03*
G01*
X4381500Y8255000D03*
G01*
X4635500Y8001000D03*
G01*
X4635500Y8255000D03*
G01*
X4889500Y8001000D03*
D18*
G01*
X4889500Y8255000D03*
D17*
G01*
X1079500Y8001000D03*
G01*
X1079500Y8255000D03*
G01*
X1333500Y8001000D03*
G01*
X1333500Y8255000D03*
G01*
X1587500Y8001000D03*
G01*
X1587500Y8255000D03*
G01*
X1841500Y8001000D03*
G01*
X1841500Y8255000D03*
G01*
X2095500Y8001000D03*
G01*
X2095500Y8255000D03*
G01*
X2349500Y8001000D03*
G01*
X2349500Y8255000D03*
G01*
X2603500Y8001000D03*
G01*
X2603500Y8255000D03*
G01*
X2857500Y8001000D03*
D18*
G01*
X2857500Y8255000D03*
D17*
G01*
X7112000Y8255000D03*
G01*
X7112000Y8001000D03*
G01*
X6858000Y8255000D03*
G01*
X6858000Y8001000D03*
G01*
X6604000Y8255000D03*
G01*
X6604000Y8001000D03*
G01*
X6350000Y8255000D03*
G01*
X6350000Y8001000D03*
G01*
X6096000Y8255000D03*
G01*
X6096000Y8001000D03*
G01*
X5842000Y8255000D03*
G01*
X5842000Y8001000D03*
G01*
X5588000Y8255000D03*
G01*
X5588000Y8001000D03*
G01*
X5334000Y8255000D03*
G36*
X5255259Y8079739D02*
G01*
X5412740Y8079739D01*
X5412740Y7922260D01*
X5255259Y7922260D01*
G37*
D18*
G01*
X9017000Y8255000D03*
D17*
G01*
X9017000Y8001000D03*
G01*
X8763000Y8255000D03*
G01*
X8763000Y8001000D03*
D19*
G01*
X10033000Y9398000D03*
D20*
G01*
X9779000Y9398000D03*
D19*
G01*
X10795000Y9398000D03*
D20*
G01*
X10541000Y9398000D03*
D12*
G01*
X825500Y6985000D03*
G01*
X2159000Y6985000D03*
G01*
X6159500Y6985000D03*
G01*
X7493000Y6985000D03*
G01*
X825500Y6223000D03*
G01*
X1270000Y6223000D03*
G01*
X1714500Y6223000D03*
G01*
X2159000Y6223000D03*
G01*
X2603500Y6223000D03*
G01*
X825500Y4889500D03*
G01*
X1270000Y4889500D03*
G01*
X1714500Y4889500D03*
G01*
X2159000Y4889500D03*
G01*
X2603500Y4889500D03*
G01*
X825500Y3556000D03*
G01*
X1270000Y3556000D03*
G01*
X1714500Y3556000D03*
G01*
X2159000Y3556000D03*
G01*
X2603500Y3556000D03*
G01*
X825500Y2222500D03*
G01*
X1270000Y2222500D03*
G01*
X1714500Y2222500D03*
G01*
X3238500Y6223000D03*
G01*
X3683000Y6223000D03*
G01*
X4127500Y6223000D03*
G01*
X4572000Y6223000D03*
G01*
X5016500Y6223000D03*
G01*
X3238500Y4889500D03*
G01*
X3683000Y4889500D03*
G01*
X4127500Y4889500D03*
G01*
X4572000Y4889500D03*
G01*
X5016500Y4889500D03*
G01*
X3238500Y3556000D03*
G01*
X3683000Y3556000D03*
G01*
X4127500Y3556000D03*
G01*
X4572000Y3556000D03*
G01*
X5016500Y3556000D03*
G01*
X5524500Y6223000D03*
G01*
X5969000Y6223000D03*
G01*
X6413500Y6223000D03*
G01*
X6858000Y6223000D03*
G01*
X7302500Y6223000D03*
G01*
X5524500Y4889500D03*
G01*
X5969000Y4889500D03*
G01*
X6413500Y4889500D03*
G01*
X6858000Y4889500D03*
G01*
X7302500Y4889500D03*
G01*
X5524500Y3556000D03*
G01*
X5969000Y3556000D03*
G01*
X6413500Y3556000D03*
G01*
X6858000Y3556000D03*
G01*
X7302500Y3556000D03*
G01*
X7810500Y6223000D03*
G01*
X8255000Y6223000D03*
G01*
X8699500Y6223000D03*
G01*
X9144000Y6223000D03*
G01*
X7810500Y4889500D03*
G01*
X8255000Y4889500D03*
G01*
X8699500Y4889500D03*
G01*
X9144000Y4889500D03*
G01*
X7810500Y3556000D03*
G01*
X8255000Y3556000D03*
G01*
X8699500Y3556000D03*
G01*
X9144000Y3556000D03*
G01*
X9715500Y6223000D03*
G01*
X10160000Y6223000D03*
G01*
X10604500Y6223000D03*
G01*
X11049000Y6223000D03*
G01*
X9715500Y4889500D03*
G01*
X10160000Y4889500D03*
G01*
X10604500Y4889500D03*
G01*
X9715500Y3556000D03*
G01*
X10160000Y3556000D03*
G01*
X10604500Y3556000D03*
G01*
X3238500Y2222500D03*
G01*
X3683000Y2222500D03*
G01*
X4127500Y2222500D03*
G01*
X4572000Y2222500D03*
G01*
X5016500Y2222500D03*
G01*
X5461000Y2222500D03*
G01*
X5905500Y2222500D03*
G01*
X6350000Y2222500D03*
G01*
X6794500Y2222500D03*
G01*
X7239000Y2222500D03*
G01*
X7683500Y2222500D03*
G01*
X8128000Y2222500D03*
D13*
G01*
X9702800Y7747000D03*
G01*
X9702800Y7366000D03*
G01*
X10083800Y7747000D03*
G01*
X10083800Y7366000D03*
G01*
X10464800Y7747000D03*
G01*
X10464800Y7366000D03*
G01*
X10845800Y7747000D03*
G01*
X10845800Y7366000D03*
G01*
X11226800Y7747000D03*
G01*
X11226800Y7366000D03*
G01*
X9702800Y7048500D03*
G01*
X9702800Y6667500D03*
G01*
X10083800Y7048500D03*
G01*
X10083800Y6667500D03*
G01*
X10464800Y7048500D03*
G01*
X10464800Y6667500D03*
G01*
X10845800Y7048500D03*
G01*
X10845800Y6667500D03*
G01*
X11226800Y7048500D03*
G01*
X11226800Y6667500D03*
G01*
X1257300Y7048500D03*
G01*
X1257300Y6667500D03*
G01*
X1638300Y7048500D03*
G01*
X1638300Y6667500D03*
G01*
X2590800Y7048500D03*
G01*
X2590800Y6667500D03*
G01*
X2971800Y7048500D03*
G01*
X2971800Y6667500D03*
G01*
X3924300Y7048500D03*
G01*
X3924300Y6667500D03*
G01*
X4305300Y7048500D03*
G01*
X4305300Y6667500D03*
G01*
X5257800Y7048500D03*
G01*
X5257800Y6667500D03*
G01*
X5638800Y7048500D03*
G01*
X5638800Y6667500D03*
G01*
X6591300Y7048500D03*
G01*
X6591300Y6667500D03*
G01*
X6972300Y7048500D03*
G01*
X6972300Y6667500D03*
G01*
X7924800Y7048500D03*
G01*
X7924800Y6667500D03*
G01*
X8305800Y7048500D03*
G01*
X8305800Y6667500D03*
G01*
X812800Y5651500D03*
G01*
X812800Y5270500D03*
G01*
X1193800Y5651500D03*
G01*
X1193800Y5270500D03*
G01*
X1574800Y5651500D03*
G01*
X1574800Y5270500D03*
G01*
X1955800Y5651500D03*
G01*
X1955800Y5270500D03*
G01*
X2336800Y5651500D03*
G01*
X2336800Y5270500D03*
G01*
X2717800Y5651500D03*
G01*
X2717800Y5270500D03*
G01*
X812800Y4318000D03*
G01*
X812800Y3937000D03*
G01*
X1193800Y4318000D03*
G01*
X1193800Y3937000D03*
G01*
X1574800Y4318000D03*
G01*
X1574800Y3937000D03*
G01*
X1955800Y4318000D03*
G01*
X1955800Y3937000D03*
G01*
X2336800Y4318000D03*
G01*
X2336800Y3937000D03*
G01*
X2717800Y4318000D03*
G01*
X2717800Y3937000D03*
G01*
X812800Y1651000D03*
G01*
X812800Y1270000D03*
G01*
X1193800Y1651000D03*
G01*
X1193800Y1270000D03*
G01*
X1574800Y1651000D03*
G01*
X1574800Y1270000D03*
G01*
X1955800Y1651000D03*
G01*
X1955800Y1270000D03*
G01*
X3225800Y5651500D03*
G01*
X3225800Y5270500D03*
G01*
X3606800Y5651500D03*
G01*
X3606800Y5270500D03*
G01*
X3987800Y5651500D03*
G01*
X3987800Y5270500D03*
G01*
X4368800Y5651500D03*
G01*
X4368800Y5270500D03*
G01*
X4749800Y5651500D03*
G01*
X4749800Y5270500D03*
G01*
X5130800Y5651500D03*
G01*
X5130800Y5270500D03*
G01*
X3225800Y4318000D03*
G01*
X3225800Y3937000D03*
G01*
X3606800Y4318000D03*
G01*
X3606800Y3937000D03*
G01*
X3987800Y4318000D03*
G01*
X3987800Y3937000D03*
G01*
X4368800Y4318000D03*
G01*
X4368800Y3937000D03*
G01*
X4749800Y4318000D03*
G01*
X4749800Y3937000D03*
G01*
X5130800Y4318000D03*
G01*
X5130800Y3937000D03*
G01*
X3225800Y2984500D03*
G01*
X3225800Y2603500D03*
G01*
X3606800Y2984500D03*
G01*
X3606800Y2603500D03*
G01*
X3987800Y2984500D03*
G01*
X3987800Y2603500D03*
G01*
X4368800Y2984500D03*
G01*
X4368800Y2603500D03*
G01*
X4749800Y2984500D03*
G01*
X4749800Y2603500D03*
G01*
X5130800Y2984500D03*
G01*
X5130800Y2603500D03*
G01*
X5511800Y5651500D03*
G01*
X5511800Y5270500D03*
G01*
X5892800Y5651500D03*
G01*
X5892800Y5270500D03*
G01*
X6273800Y5651500D03*
G01*
X6273800Y5270500D03*
G01*
X6654800Y5651500D03*
G01*
X6654800Y5270500D03*
G01*
X7035800Y5651500D03*
G01*
X7035800Y5270500D03*
G01*
X7416800Y5651500D03*
G01*
X7416800Y5270500D03*
G01*
X5511800Y4318000D03*
G01*
X5511800Y3937000D03*
G01*
X5892800Y4318000D03*
G01*
X5892800Y3937000D03*
G01*
X6273800Y4318000D03*
G01*
X6273800Y3937000D03*
G01*
X6654800Y4318000D03*
G01*
X6654800Y3937000D03*
G01*
X7035800Y4318000D03*
G01*
X7035800Y3937000D03*
G01*
X7416800Y4318000D03*
G01*
X7416800Y3937000D03*
G01*
X5511800Y2984500D03*
G01*
X5511800Y2603500D03*
G01*
X5892800Y2984500D03*
G01*
X5892800Y2603500D03*
G01*
X6273800Y2984500D03*
G01*
X6273800Y2603500D03*
G01*
X6654800Y2984500D03*
G01*
X6654800Y2603500D03*
G01*
X7035800Y2984500D03*
G01*
X7035800Y2603500D03*
G01*
X7416800Y2984500D03*
G01*
X7416800Y2603500D03*
G01*
X7797800Y5651500D03*
G01*
X7797800Y5270500D03*
G01*
X8178800Y5651500D03*
G01*
X8178800Y5270500D03*
G01*
X8559800Y5651500D03*
G01*
X8559800Y5270500D03*
G01*
X8940800Y5651500D03*
G01*
X8940800Y5270500D03*
G01*
X9321800Y5651500D03*
G01*
X9321800Y5270500D03*
G01*
X7797800Y4318000D03*
G01*
X7797800Y3937000D03*
G01*
X8178800Y4318000D03*
G01*
X8178800Y3937000D03*
G01*
X8559800Y4318000D03*
G01*
X8559800Y3937000D03*
G01*
X8940800Y4318000D03*
G01*
X8940800Y3937000D03*
G01*
X9321800Y4318000D03*
G01*
X9321800Y3937000D03*
G01*
X7797800Y2984500D03*
G01*
X7797800Y2603500D03*
G01*
X8178800Y2984500D03*
G01*
X8178800Y2603500D03*
G01*
X8559800Y2984500D03*
G01*
X8559800Y2603500D03*
G01*
X8940800Y2984500D03*
G01*
X8940800Y2603500D03*
G01*
X9321800Y2984500D03*
G01*
X9321800Y2603500D03*
G01*
X9702800Y5651500D03*
G01*
X9702800Y5270500D03*
G01*
X10083800Y5651500D03*
G01*
X10083800Y5270500D03*
G01*
X10464800Y5651500D03*
G01*
X10464800Y5270500D03*
G01*
X10845800Y5651500D03*
G01*
X10845800Y5270500D03*
G01*
X11226800Y5651500D03*
G01*
X11226800Y5270500D03*
G01*
X9702800Y4318000D03*
G01*
X9702800Y3937000D03*
G01*
X10083800Y4318000D03*
G01*
X10083800Y3937000D03*
G01*
X10464800Y4318000D03*
G01*
X10464800Y3937000D03*
G01*
X10845800Y4318000D03*
G01*
X10845800Y3937000D03*
G01*
X9702800Y2984500D03*
G01*
X9702800Y2603500D03*
G01*
X10083800Y2984500D03*
G01*
X10083800Y2603500D03*
G01*
X10464800Y2984500D03*
G01*
X10464800Y2603500D03*
G01*
X10845800Y2984500D03*
G01*
X10845800Y2603500D03*
G01*
X3225800Y1651000D03*
G01*
X3225800Y1270000D03*
G01*
X3606800Y1651000D03*
G01*
X3606800Y1270000D03*
G01*
X3987800Y1651000D03*
G01*
X3987800Y1270000D03*
G01*
X4368800Y1651000D03*
G01*
X4368800Y1270000D03*
G01*
X4749800Y1651000D03*
G01*
X4749800Y1270000D03*
G01*
X5130800Y1651000D03*
G01*
X5130800Y1270000D03*
G01*
X5511800Y1651000D03*
G01*
X5511800Y1270000D03*
G01*
X5892800Y1651000D03*
G01*
X5892800Y1270000D03*
G01*
X6273800Y1651000D03*
G01*
X6273800Y1270000D03*
G01*
X6654800Y1651000D03*
G01*
X6654800Y1270000D03*
G01*
X7035800Y1651000D03*
G01*
X7035800Y1270000D03*
G01*
X7416800Y1651000D03*
G01*
X7416800Y1270000D03*
G01*
X7797800Y1651000D03*
G01*
X7797800Y1270000D03*
D11*
G01*
X8225764Y4518710D03*
G01*
X7945450Y4519752D03*
G01*
X9408236Y4766513D03*
G01*
X9451873Y5123154D03*
G01*
X9601733Y5381244D03*
G01*
X6985000Y7910880D03*
G01*
X3040634Y7573289D03*
G01*
X9469754Y7554747D03*
G01*
X9592259Y7192949D03*
G01*
X5581015Y4542993D03*
G01*
X8104098Y5518150D03*
G01*
X6438366Y7573289D03*
G01*
X6843775Y6455867D03*
G01*
X8499449Y6345580D03*
G01*
X1958746Y7822133D03*
G01*
X2603982Y7366584D03*
G01*
X9547859Y3561511D03*
G01*
X4496231Y7135926D03*
G01*
X4579848Y3659911D03*
G01*
X1696262Y8125637D03*
G01*
X2640075Y8125637D03*
G01*
X9056039Y5450154D03*
G01*
X9598913Y1543608D03*
G01*
X10381767Y6922668D03*
G01*
X9967213Y7216876D03*
G01*
X9654336Y843432D03*
G01*
X10843259Y6504762D03*
G01*
X10240111Y6382943D03*
G01*
X11551564Y902055D03*
G01*
X4109948Y5049773D03*
G01*
X7893024Y1022400D03*
G01*
X9430334Y7366000D03*
G01*
X8826449Y4151020D03*
G01*
X5682005Y4990211D03*
G01*
X3992829Y4845151D03*
G01*
X9895535Y6467881D03*
G01*
X3751529Y3070225D03*
G01*
X8909913Y6520967D03*
G01*
X9867823Y4185335D03*
G01*
X2629230Y2781477D03*
G01*
X1679930Y3808907D03*
G01*
X2988030Y5118328D03*
G01*
X6526682Y2420518D03*
G01*
X6428460Y5208346D03*
G01*
X6206312Y1790471D03*
G01*
X7574356Y3337687D03*
G01*
X5130800Y2339339D03*
G01*
X8793886Y5312537D03*
G01*
X9184030Y5132730D03*
G01*
X8222615Y2810586D03*
G01*
X7543241Y3749547D03*
G01*
X8047354Y3676446D03*
G01*
X8047354Y3302000D03*
D21*
X3527501Y6858000D02*
G01*
X3457501Y6858000D01*
X3527501Y6731000D02*
G01*
X3457501Y6731000D01*
X4861001Y6858000D02*
G01*
X4791001Y6858000D01*
X4861001Y6731000D02*
G01*
X4791001Y6731000D01*
X860501Y6858000D02*
G01*
X790501Y6858000D01*
X860501Y6731000D02*
G01*
X790501Y6731000D01*
X2194001Y6858000D02*
G01*
X2124001Y6858000D01*
X2194001Y6731000D02*
G01*
X2124001Y6731000D01*
X6194501Y6858000D02*
G01*
X6124501Y6858000D01*
X6194501Y6731000D02*
G01*
X6124501Y6731000D01*
X7528001Y6858000D02*
G01*
X7458001Y6858000D01*
X7528001Y6731000D02*
G01*
X7458001Y6731000D01*
X860501Y6096000D02*
G01*
X790501Y6096000D01*
X860501Y5969000D02*
G01*
X790501Y5969000D01*
X1305001Y6096000D02*
G01*
X1235001Y6096000D01*
X1305001Y5969000D02*
G01*
X1235001Y5969000D01*
X1749501Y6096000D02*
G01*
X1679501Y6096000D01*
X1749501Y5969000D02*
G01*
X1679501Y5969000D01*
X2194001Y6096000D02*
G01*
X2124001Y6096000D01*
X2194001Y5969000D02*
G01*
X2124001Y5969000D01*
X2638501Y6096000D02*
G01*
X2568501Y6096000D01*
X2638501Y5969000D02*
G01*
X2568501Y5969000D01*
X860501Y4762500D02*
G01*
X790501Y4762500D01*
X860501Y4635500D02*
G01*
X790501Y4635500D01*
X1305001Y4762500D02*
G01*
X1235001Y4762500D01*
X1305001Y4635500D02*
G01*
X1235001Y4635500D01*
X1749501Y4762500D02*
G01*
X1679501Y4762500D01*
X1749501Y4635500D02*
G01*
X1679501Y4635500D01*
X2194001Y4762500D02*
G01*
X2124001Y4762500D01*
X2194001Y4635500D02*
G01*
X2124001Y4635500D01*
X2638501Y4762500D02*
G01*
X2568501Y4762500D01*
X2638501Y4635500D02*
G01*
X2568501Y4635500D01*
X860501Y3429000D02*
G01*
X790501Y3429000D01*
X860501Y3302000D02*
G01*
X790501Y3302000D01*
X1305001Y3429000D02*
G01*
X1235001Y3429000D01*
X1305001Y3302000D02*
G01*
X1235001Y3302000D01*
X1749501Y3429000D02*
G01*
X1679501Y3429000D01*
X1749501Y3302000D02*
G01*
X1679501Y3302000D01*
X2194001Y3429000D02*
G01*
X2124001Y3429000D01*
X2194001Y3302000D02*
G01*
X2124001Y3302000D01*
X2638501Y3429000D02*
G01*
X2568501Y3429000D01*
X2638501Y3302000D02*
G01*
X2568501Y3302000D01*
X860501Y2095500D02*
G01*
X790501Y2095500D01*
X860501Y1968500D02*
G01*
X790501Y1968500D01*
X1305001Y2095500D02*
G01*
X1235001Y2095500D01*
X1305001Y1968500D02*
G01*
X1235001Y1968500D01*
X1749501Y2095500D02*
G01*
X1679501Y2095500D01*
X1749501Y1968500D02*
G01*
X1679501Y1968500D01*
X3273501Y6096000D02*
G01*
X3203501Y6096000D01*
X3273501Y5969000D02*
G01*
X3203501Y5969000D01*
X3718001Y6096000D02*
G01*
X3648001Y6096000D01*
X3718001Y5969000D02*
G01*
X3648001Y5969000D01*
X4162501Y6096000D02*
G01*
X4092501Y6096000D01*
X4162501Y5969000D02*
G01*
X4092501Y5969000D01*
X4607001Y6096000D02*
G01*
X4537001Y6096000D01*
X4607001Y5969000D02*
G01*
X4537001Y5969000D01*
X5051501Y6096000D02*
G01*
X4981501Y6096000D01*
X5051501Y5969000D02*
G01*
X4981501Y5969000D01*
X3273501Y4762500D02*
G01*
X3203501Y4762500D01*
X3273501Y4635500D02*
G01*
X3203501Y4635500D01*
X3718001Y4762500D02*
G01*
X3648001Y4762500D01*
X3718001Y4635500D02*
G01*
X3648001Y4635500D01*
X4162501Y4762500D02*
G01*
X4092501Y4762500D01*
X4162501Y4635500D02*
G01*
X4092501Y4635500D01*
X4607001Y4762500D02*
G01*
X4537001Y4762500D01*
X4607001Y4635500D02*
G01*
X4537001Y4635500D01*
X5051501Y4762500D02*
G01*
X4981501Y4762500D01*
X5051501Y4635500D02*
G01*
X4981501Y4635500D01*
X3273501Y3429000D02*
G01*
X3203501Y3429000D01*
X3273501Y3302000D02*
G01*
X3203501Y3302000D01*
X3718001Y3429000D02*
G01*
X3648001Y3429000D01*
X3718001Y3302000D02*
G01*
X3648001Y3302000D01*
X4162501Y3429000D02*
G01*
X4092501Y3429000D01*
X4162501Y3302000D02*
G01*
X4092501Y3302000D01*
X4607001Y3429000D02*
G01*
X4537001Y3429000D01*
X4607001Y3302000D02*
G01*
X4537001Y3302000D01*
X5051501Y3429000D02*
G01*
X4981501Y3429000D01*
X5051501Y3302000D02*
G01*
X4981501Y3302000D01*
X5559501Y6096000D02*
G01*
X5489501Y6096000D01*
X5559501Y5969000D02*
G01*
X5489501Y5969000D01*
X6004001Y6096000D02*
G01*
X5934001Y6096000D01*
X6004001Y5969000D02*
G01*
X5934001Y5969000D01*
X6448501Y6096000D02*
G01*
X6378501Y6096000D01*
X6448501Y5969000D02*
G01*
X6378501Y5969000D01*
X6893001Y6096000D02*
G01*
X6823001Y6096000D01*
X6893001Y5969000D02*
G01*
X6823001Y5969000D01*
X7337501Y6096000D02*
G01*
X7267501Y6096000D01*
X7337501Y5969000D02*
G01*
X7267501Y5969000D01*
X5559501Y4762500D02*
G01*
X5489501Y4762500D01*
X5559501Y4635500D02*
G01*
X5489501Y4635500D01*
X6004001Y4762500D02*
G01*
X5934001Y4762500D01*
X6004001Y4635500D02*
G01*
X5934001Y4635500D01*
X6448501Y4762500D02*
G01*
X6378501Y4762500D01*
X6448501Y4635500D02*
G01*
X6378501Y4635500D01*
X6893001Y4762500D02*
G01*
X6823001Y4762500D01*
X6893001Y4635500D02*
G01*
X6823001Y4635500D01*
X7337501Y4762500D02*
G01*
X7267501Y4762500D01*
X7337501Y4635500D02*
G01*
X7267501Y4635500D01*
X5559501Y3429000D02*
G01*
X5489501Y3429000D01*
X5559501Y3302000D02*
G01*
X5489501Y3302000D01*
X6004001Y3429000D02*
G01*
X5934001Y3429000D01*
X6004001Y3302000D02*
G01*
X5934001Y3302000D01*
X6448501Y3429000D02*
G01*
X6378501Y3429000D01*
X6448501Y3302000D02*
G01*
X6378501Y3302000D01*
X6893001Y3429000D02*
G01*
X6823001Y3429000D01*
X6893001Y3302000D02*
G01*
X6823001Y3302000D01*
X7337501Y3429000D02*
G01*
X7267501Y3429000D01*
X7337501Y3302000D02*
G01*
X7267501Y3302000D01*
X7845501Y6096000D02*
G01*
X7775501Y6096000D01*
X7845501Y5969000D02*
G01*
X7775501Y5969000D01*
X8290001Y6096000D02*
G01*
X8220001Y6096000D01*
X8290001Y5969000D02*
G01*
X8220001Y5969000D01*
X8734501Y6096000D02*
G01*
X8664501Y6096000D01*
X8734501Y5969000D02*
G01*
X8664501Y5969000D01*
X9179001Y6096000D02*
G01*
X9109001Y6096000D01*
X9179001Y5969000D02*
G01*
X9109001Y5969000D01*
X7845501Y4762500D02*
G01*
X7775501Y4762500D01*
X7845501Y4635500D02*
G01*
X7775501Y4635500D01*
X8290001Y4762500D02*
G01*
X8220001Y4762500D01*
X8290001Y4635500D02*
G01*
X8220001Y4635500D01*
X8734501Y4762500D02*
G01*
X8664501Y4762500D01*
X8734501Y4635500D02*
G01*
X8664501Y4635500D01*
X9179001Y4762500D02*
G01*
X9109001Y4762500D01*
X9179001Y4635500D02*
G01*
X9109001Y4635500D01*
X7845501Y3429000D02*
G01*
X7775501Y3429000D01*
X7845501Y3302000D02*
G01*
X7775501Y3302000D01*
X8290001Y3429000D02*
G01*
X8220001Y3429000D01*
X8290001Y3302000D02*
G01*
X8220001Y3302000D01*
X8734501Y3429000D02*
G01*
X8664501Y3429000D01*
X8734501Y3302000D02*
G01*
X8664501Y3302000D01*
X9179001Y3429000D02*
G01*
X9109001Y3429000D01*
X9179001Y3302000D02*
G01*
X9109001Y3302000D01*
X9750501Y6096000D02*
G01*
X9680501Y6096000D01*
X9750501Y5969000D02*
G01*
X9680501Y5969000D01*
X10195001Y6096000D02*
G01*
X10125001Y6096000D01*
X10195001Y5969000D02*
G01*
X10125001Y5969000D01*
X10639501Y6096000D02*
G01*
X10569501Y6096000D01*
X10639501Y5969000D02*
G01*
X10569501Y5969000D01*
X11084001Y6096000D02*
G01*
X11014001Y6096000D01*
X11084001Y5969000D02*
G01*
X11014001Y5969000D01*
X9750501Y4762500D02*
G01*
X9680501Y4762500D01*
X9750501Y4635500D02*
G01*
X9680501Y4635500D01*
X10195001Y4762500D02*
G01*
X10125001Y4762500D01*
X10195001Y4635500D02*
G01*
X10125001Y4635500D01*
X10639501Y4762500D02*
G01*
X10569501Y4762500D01*
X10639501Y4635500D02*
G01*
X10569501Y4635500D01*
X9750501Y3429000D02*
G01*
X9680501Y3429000D01*
X9750501Y3302000D02*
G01*
X9680501Y3302000D01*
X10195001Y3429000D02*
G01*
X10125001Y3429000D01*
X10195001Y3302000D02*
G01*
X10125001Y3302000D01*
X10639501Y3429000D02*
G01*
X10569501Y3429000D01*
X10639501Y3302000D02*
G01*
X10569501Y3302000D01*
X3273501Y2095500D02*
G01*
X3203501Y2095500D01*
X3273501Y1968500D02*
G01*
X3203501Y1968500D01*
X3718001Y2095500D02*
G01*
X3648001Y2095500D01*
X3718001Y1968500D02*
G01*
X3648001Y1968500D01*
X4162501Y2095500D02*
G01*
X4092501Y2095500D01*
X4162501Y1968500D02*
G01*
X4092501Y1968500D01*
X4607001Y2095500D02*
G01*
X4537001Y2095500D01*
X4607001Y1968500D02*
G01*
X4537001Y1968500D01*
X5051501Y2095500D02*
G01*
X4981501Y2095500D01*
X5051501Y1968500D02*
G01*
X4981501Y1968500D01*
X5496001Y2095500D02*
G01*
X5426001Y2095500D01*
X5496001Y1968500D02*
G01*
X5426001Y1968500D01*
X5940501Y2095500D02*
G01*
X5870501Y2095500D01*
X5940501Y1968500D02*
G01*
X5870501Y1968500D01*
X6385001Y2095500D02*
G01*
X6315001Y2095500D01*
X6385001Y1968500D02*
G01*
X6315001Y1968500D01*
X6829501Y2095500D02*
G01*
X6759501Y2095500D01*
X6829501Y1968500D02*
G01*
X6759501Y1968500D01*
X7274001Y2095500D02*
G01*
X7204001Y2095500D01*
X7274001Y1968500D02*
G01*
X7204001Y1968500D01*
X7718501Y2095500D02*
G01*
X7648501Y2095500D01*
X7718501Y1968500D02*
G01*
X7648501Y1968500D01*
X8163001Y2095500D02*
G01*
X8093001Y2095500D01*
X8163001Y1968500D02*
G01*
X8093001Y1968500D01*
M02*
