G04 Layer: TopSolderMaskLayer*
G04 EasyEDA v6.4.25, 2021-12-29T20:27:07+01:00*
G04 b4d8322a500545a480e84fc98a697e21,bb3cfcbffc6840158e79d7648404357e,10*
G04 Gerber Generator version 0.2*
G04 Scale: 100 percent, Rotated: No, Reflected: No *
G04 Dimensions in millimeters *
G04 leading zeros omitted , absolute positions ,4 integer and 5 decimal *
%FSLAX45Y45*%
%MOMM*%

%ADD28C,1.0016*%
%ADD30C,2.2022*%
%ADD31C,1.9016*%
%ADD32C,1.6256*%
%ADD33C,1.7526*%
%ADD34C,1.6764*%
%ADD37C,1.8016*%

%LPD*%
D28*
X3527501Y6858000D02*
G01*
X3457501Y6858000D01*
X3527501Y6731000D02*
G01*
X3457501Y6731000D01*
X4861001Y6858000D02*
G01*
X4791001Y6858000D01*
X4861001Y6731000D02*
G01*
X4791001Y6731000D01*
X860501Y6858000D02*
G01*
X790501Y6858000D01*
X860501Y6731000D02*
G01*
X790501Y6731000D01*
X2194001Y6858000D02*
G01*
X2124001Y6858000D01*
X2194001Y6731000D02*
G01*
X2124001Y6731000D01*
X6194501Y6858000D02*
G01*
X6124501Y6858000D01*
X6194501Y6731000D02*
G01*
X6124501Y6731000D01*
X7528001Y6858000D02*
G01*
X7458001Y6858000D01*
X7528001Y6731000D02*
G01*
X7458001Y6731000D01*
X860501Y6096000D02*
G01*
X790501Y6096000D01*
X860501Y5969000D02*
G01*
X790501Y5969000D01*
X1305001Y6096000D02*
G01*
X1235001Y6096000D01*
X1305001Y5969000D02*
G01*
X1235001Y5969000D01*
X1749501Y6096000D02*
G01*
X1679501Y6096000D01*
X1749501Y5969000D02*
G01*
X1679501Y5969000D01*
X2194001Y6096000D02*
G01*
X2124001Y6096000D01*
X2194001Y5969000D02*
G01*
X2124001Y5969000D01*
X2638501Y6096000D02*
G01*
X2568501Y6096000D01*
X2638501Y5969000D02*
G01*
X2568501Y5969000D01*
X860501Y4762500D02*
G01*
X790501Y4762500D01*
X860501Y4635500D02*
G01*
X790501Y4635500D01*
X1305001Y4762500D02*
G01*
X1235001Y4762500D01*
X1305001Y4635500D02*
G01*
X1235001Y4635500D01*
X1749501Y4762500D02*
G01*
X1679501Y4762500D01*
X1749501Y4635500D02*
G01*
X1679501Y4635500D01*
X2194001Y4762500D02*
G01*
X2124001Y4762500D01*
X2194001Y4635500D02*
G01*
X2124001Y4635500D01*
X2638501Y4762500D02*
G01*
X2568501Y4762500D01*
X2638501Y4635500D02*
G01*
X2568501Y4635500D01*
X860501Y3429000D02*
G01*
X790501Y3429000D01*
X860501Y3302000D02*
G01*
X790501Y3302000D01*
X1305001Y3429000D02*
G01*
X1235001Y3429000D01*
X1305001Y3302000D02*
G01*
X1235001Y3302000D01*
X1749501Y3429000D02*
G01*
X1679501Y3429000D01*
X1749501Y3302000D02*
G01*
X1679501Y3302000D01*
X2194001Y3429000D02*
G01*
X2124001Y3429000D01*
X2194001Y3302000D02*
G01*
X2124001Y3302000D01*
X2638501Y3429000D02*
G01*
X2568501Y3429000D01*
X2638501Y3302000D02*
G01*
X2568501Y3302000D01*
X860501Y2095500D02*
G01*
X790501Y2095500D01*
X860501Y1968500D02*
G01*
X790501Y1968500D01*
X1305001Y2095500D02*
G01*
X1235001Y2095500D01*
X1305001Y1968500D02*
G01*
X1235001Y1968500D01*
X1749501Y2095500D02*
G01*
X1679501Y2095500D01*
X1749501Y1968500D02*
G01*
X1679501Y1968500D01*
X3273501Y6096000D02*
G01*
X3203501Y6096000D01*
X3273501Y5969000D02*
G01*
X3203501Y5969000D01*
X3718001Y6096000D02*
G01*
X3648001Y6096000D01*
X3718001Y5969000D02*
G01*
X3648001Y5969000D01*
X4162501Y6096000D02*
G01*
X4092501Y6096000D01*
X4162501Y5969000D02*
G01*
X4092501Y5969000D01*
X4607001Y6096000D02*
G01*
X4537001Y6096000D01*
X4607001Y5969000D02*
G01*
X4537001Y5969000D01*
X5051501Y6096000D02*
G01*
X4981501Y6096000D01*
X5051501Y5969000D02*
G01*
X4981501Y5969000D01*
X3273501Y4762500D02*
G01*
X3203501Y4762500D01*
X3273501Y4635500D02*
G01*
X3203501Y4635500D01*
X3718001Y4762500D02*
G01*
X3648001Y4762500D01*
X3718001Y4635500D02*
G01*
X3648001Y4635500D01*
X4162501Y4762500D02*
G01*
X4092501Y4762500D01*
X4162501Y4635500D02*
G01*
X4092501Y4635500D01*
X4607001Y4762500D02*
G01*
X4537001Y4762500D01*
X4607001Y4635500D02*
G01*
X4537001Y4635500D01*
X5051501Y4762500D02*
G01*
X4981501Y4762500D01*
X5051501Y4635500D02*
G01*
X4981501Y4635500D01*
X3273501Y3429000D02*
G01*
X3203501Y3429000D01*
X3273501Y3302000D02*
G01*
X3203501Y3302000D01*
X3718001Y3429000D02*
G01*
X3648001Y3429000D01*
X3718001Y3302000D02*
G01*
X3648001Y3302000D01*
X4162501Y3429000D02*
G01*
X4092501Y3429000D01*
X4162501Y3302000D02*
G01*
X4092501Y3302000D01*
X4607001Y3429000D02*
G01*
X4537001Y3429000D01*
X4607001Y3302000D02*
G01*
X4537001Y3302000D01*
X5051501Y3429000D02*
G01*
X4981501Y3429000D01*
X5051501Y3302000D02*
G01*
X4981501Y3302000D01*
X5559501Y6096000D02*
G01*
X5489501Y6096000D01*
X5559501Y5969000D02*
G01*
X5489501Y5969000D01*
X6004001Y6096000D02*
G01*
X5934001Y6096000D01*
X6004001Y5969000D02*
G01*
X5934001Y5969000D01*
X6448501Y6096000D02*
G01*
X6378501Y6096000D01*
X6448501Y5969000D02*
G01*
X6378501Y5969000D01*
X6893001Y6096000D02*
G01*
X6823001Y6096000D01*
X6893001Y5969000D02*
G01*
X6823001Y5969000D01*
X7337501Y6096000D02*
G01*
X7267501Y6096000D01*
X7337501Y5969000D02*
G01*
X7267501Y5969000D01*
X5559501Y4762500D02*
G01*
X5489501Y4762500D01*
X5559501Y4635500D02*
G01*
X5489501Y4635500D01*
X6004001Y4762500D02*
G01*
X5934001Y4762500D01*
X6004001Y4635500D02*
G01*
X5934001Y4635500D01*
X6448501Y4762500D02*
G01*
X6378501Y4762500D01*
X6448501Y4635500D02*
G01*
X6378501Y4635500D01*
X6893001Y4762500D02*
G01*
X6823001Y4762500D01*
X6893001Y4635500D02*
G01*
X6823001Y4635500D01*
X7337501Y4762500D02*
G01*
X7267501Y4762500D01*
X7337501Y4635500D02*
G01*
X7267501Y4635500D01*
X5559501Y3429000D02*
G01*
X5489501Y3429000D01*
X5559501Y3302000D02*
G01*
X5489501Y3302000D01*
X6004001Y3429000D02*
G01*
X5934001Y3429000D01*
X6004001Y3302000D02*
G01*
X5934001Y3302000D01*
X6448501Y3429000D02*
G01*
X6378501Y3429000D01*
X6448501Y3302000D02*
G01*
X6378501Y3302000D01*
X6893001Y3429000D02*
G01*
X6823001Y3429000D01*
X6893001Y3302000D02*
G01*
X6823001Y3302000D01*
X7337501Y3429000D02*
G01*
X7267501Y3429000D01*
X7337501Y3302000D02*
G01*
X7267501Y3302000D01*
X7845501Y6096000D02*
G01*
X7775501Y6096000D01*
X7845501Y5969000D02*
G01*
X7775501Y5969000D01*
X8290001Y6096000D02*
G01*
X8220001Y6096000D01*
X8290001Y5969000D02*
G01*
X8220001Y5969000D01*
X8734501Y6096000D02*
G01*
X8664501Y6096000D01*
X8734501Y5969000D02*
G01*
X8664501Y5969000D01*
X9179001Y6096000D02*
G01*
X9109001Y6096000D01*
X9179001Y5969000D02*
G01*
X9109001Y5969000D01*
X7845501Y4762500D02*
G01*
X7775501Y4762500D01*
X7845501Y4635500D02*
G01*
X7775501Y4635500D01*
X8290001Y4762500D02*
G01*
X8220001Y4762500D01*
X8290001Y4635500D02*
G01*
X8220001Y4635500D01*
X8734501Y4762500D02*
G01*
X8664501Y4762500D01*
X8734501Y4635500D02*
G01*
X8664501Y4635500D01*
X9179001Y4762500D02*
G01*
X9109001Y4762500D01*
X9179001Y4635500D02*
G01*
X9109001Y4635500D01*
X7845501Y3429000D02*
G01*
X7775501Y3429000D01*
X7845501Y3302000D02*
G01*
X7775501Y3302000D01*
X8290001Y3429000D02*
G01*
X8220001Y3429000D01*
X8290001Y3302000D02*
G01*
X8220001Y3302000D01*
X8734501Y3429000D02*
G01*
X8664501Y3429000D01*
X8734501Y3302000D02*
G01*
X8664501Y3302000D01*
X9179001Y3429000D02*
G01*
X9109001Y3429000D01*
X9179001Y3302000D02*
G01*
X9109001Y3302000D01*
X9750501Y6096000D02*
G01*
X9680501Y6096000D01*
X9750501Y5969000D02*
G01*
X9680501Y5969000D01*
X10195001Y6096000D02*
G01*
X10125001Y6096000D01*
X10195001Y5969000D02*
G01*
X10125001Y5969000D01*
X10639501Y6096000D02*
G01*
X10569501Y6096000D01*
X10639501Y5969000D02*
G01*
X10569501Y5969000D01*
X11084001Y6096000D02*
G01*
X11014001Y6096000D01*
X11084001Y5969000D02*
G01*
X11014001Y5969000D01*
X9750501Y4762500D02*
G01*
X9680501Y4762500D01*
X9750501Y4635500D02*
G01*
X9680501Y4635500D01*
X10195001Y4762500D02*
G01*
X10125001Y4762500D01*
X10195001Y4635500D02*
G01*
X10125001Y4635500D01*
X10639501Y4762500D02*
G01*
X10569501Y4762500D01*
X10639501Y4635500D02*
G01*
X10569501Y4635500D01*
X9750501Y3429000D02*
G01*
X9680501Y3429000D01*
X9750501Y3302000D02*
G01*
X9680501Y3302000D01*
X10195001Y3429000D02*
G01*
X10125001Y3429000D01*
X10195001Y3302000D02*
G01*
X10125001Y3302000D01*
X10639501Y3429000D02*
G01*
X10569501Y3429000D01*
X10639501Y3302000D02*
G01*
X10569501Y3302000D01*
X3273501Y2095500D02*
G01*
X3203501Y2095500D01*
X3273501Y1968500D02*
G01*
X3203501Y1968500D01*
X3718001Y2095500D02*
G01*
X3648001Y2095500D01*
X3718001Y1968500D02*
G01*
X3648001Y1968500D01*
X4162501Y2095500D02*
G01*
X4092501Y2095500D01*
X4162501Y1968500D02*
G01*
X4092501Y1968500D01*
X4607001Y2095500D02*
G01*
X4537001Y2095500D01*
X4607001Y1968500D02*
G01*
X4537001Y1968500D01*
X5051501Y2095500D02*
G01*
X4981501Y2095500D01*
X5051501Y1968500D02*
G01*
X4981501Y1968500D01*
X5496001Y2095500D02*
G01*
X5426001Y2095500D01*
X5496001Y1968500D02*
G01*
X5426001Y1968500D01*
X5940501Y2095500D02*
G01*
X5870501Y2095500D01*
X5940501Y1968500D02*
G01*
X5870501Y1968500D01*
X6385001Y2095500D02*
G01*
X6315001Y2095500D01*
X6385001Y1968500D02*
G01*
X6315001Y1968500D01*
X6829501Y2095500D02*
G01*
X6759501Y2095500D01*
X6829501Y1968500D02*
G01*
X6759501Y1968500D01*
X7274001Y2095500D02*
G01*
X7204001Y2095500D01*
X7274001Y1968500D02*
G01*
X7204001Y1968500D01*
X7718501Y2095500D02*
G01*
X7648501Y2095500D01*
X7718501Y1968500D02*
G01*
X7648501Y1968500D01*
X8163001Y2095500D02*
G01*
X8093001Y2095500D01*
X8163001Y1968500D02*
G01*
X8093001Y1968500D01*
G36*
X3407409Y6934962D02*
G01*
X3407409Y7035037D01*
X3577590Y7035037D01*
X3577590Y6934962D01*
G37*
G36*
X4740909Y6934962D02*
G01*
X4740909Y7035037D01*
X4911090Y7035037D01*
X4911090Y6934962D01*
G37*
D30*
G01*
X812800Y2984500D03*
G01*
X812800Y2603500D03*
G01*
X1193800Y2984500D03*
G01*
X1193800Y2603500D03*
G01*
X1574800Y2984500D03*
G01*
X1574800Y2603500D03*
G01*
X1955800Y2984500D03*
G01*
X1955800Y2603500D03*
G01*
X2336800Y2984500D03*
G01*
X2336800Y2603500D03*
G01*
X2717800Y2984500D03*
G01*
X2717800Y2603500D03*
D31*
G01*
X7937500Y7692999D03*
G01*
X7937500Y8563000D03*
G01*
X8318500Y7692999D03*
G01*
X8318500Y8563000D03*
D32*
G01*
X4381500Y9398000D03*
G01*
X4381500Y9144000D03*
G01*
X4127500Y9398000D03*
G01*
X4127500Y9144000D03*
G01*
X3873500Y9398000D03*
G01*
X3873500Y9144000D03*
G01*
X3619500Y9398000D03*
G01*
X3619500Y9144000D03*
G01*
X3365500Y9398000D03*
G01*
X3365500Y9144000D03*
G01*
X3111500Y9398000D03*
G01*
X3111500Y9144000D03*
G01*
X2857500Y9398000D03*
G01*
X2857500Y9144000D03*
G01*
X2603500Y9398000D03*
G01*
X2603500Y9144000D03*
G01*
X2349500Y9398000D03*
G01*
X2349500Y9144000D03*
G01*
X2095500Y9398000D03*
G01*
X2095500Y9144000D03*
G01*
X1841500Y9398000D03*
G01*
X1841500Y9144000D03*
G01*
X1587500Y9398000D03*
G01*
X1587500Y9144000D03*
G01*
X6604000Y9398000D03*
G01*
X6604000Y9144000D03*
G01*
X6350000Y9398000D03*
G01*
X6350000Y9144000D03*
G01*
X6096000Y9398000D03*
G01*
X6096000Y9144000D03*
G01*
X5842000Y9398000D03*
G01*
X5842000Y9144000D03*
D33*
G01*
X6667500Y508000D03*
G01*
X6921500Y508000D03*
G01*
X2095500Y508000D03*
G01*
X2349500Y508000D03*
G01*
X9715500Y508000D03*
G01*
X9969500Y508000D03*
G01*
X5143500Y508000D03*
G01*
X5397500Y508000D03*
G01*
X4381500Y508000D03*
G01*
X4635500Y508000D03*
G01*
X3619500Y508000D03*
G01*
X3873500Y508000D03*
G01*
X8191500Y508000D03*
G01*
X8445500Y508000D03*
G01*
X1333500Y508000D03*
G01*
X1587500Y508000D03*
G01*
X7429500Y508000D03*
G01*
X7683500Y508000D03*
G01*
X10477500Y508000D03*
G01*
X10731500Y508000D03*
D31*
G01*
X698500Y7692999D03*
G01*
X698500Y8563000D03*
G01*
X4880000Y7683500D03*
G01*
X4009999Y7683500D03*
G01*
X2848000Y7683500D03*
G01*
X1977999Y7683500D03*
G01*
X7556500Y7692999D03*
G01*
X7556500Y8563000D03*
G01*
X7102500Y7683500D03*
G01*
X6232499Y7683500D03*
D34*
G01*
X3111500Y8001000D03*
G01*
X3111500Y8255000D03*
G01*
X3365500Y8001000D03*
G01*
X3365500Y8255000D03*
G01*
X3619500Y8001000D03*
G01*
X3619500Y8255000D03*
G01*
X3873500Y8001000D03*
G01*
X3873500Y8255000D03*
G01*
X4127500Y8001000D03*
G01*
X4127500Y8255000D03*
G01*
X4381500Y8001000D03*
G01*
X4381500Y8255000D03*
G01*
X4635500Y8001000D03*
G01*
X4635500Y8255000D03*
G01*
X4889500Y8001000D03*
G36*
X4805679Y8171179D02*
G01*
X4805679Y8338820D01*
X4973320Y8338820D01*
X4973320Y8171179D01*
G37*
G01*
X1079500Y8001000D03*
G01*
X1079500Y8255000D03*
G01*
X1333500Y8001000D03*
G01*
X1333500Y8255000D03*
G01*
X1587500Y8001000D03*
G01*
X1587500Y8255000D03*
G01*
X1841500Y8001000D03*
G01*
X1841500Y8255000D03*
G01*
X2095500Y8001000D03*
G01*
X2095500Y8255000D03*
G01*
X2349500Y8001000D03*
G01*
X2349500Y8255000D03*
G01*
X2603500Y8001000D03*
G01*
X2603500Y8255000D03*
G01*
X2857500Y8001000D03*
G36*
X2773679Y8171179D02*
G01*
X2773679Y8338820D01*
X2941320Y8338820D01*
X2941320Y8171179D01*
G37*
G01*
X7112000Y8255000D03*
G01*
X7112000Y8001000D03*
G01*
X6858000Y8255000D03*
G01*
X6858000Y8001000D03*
G01*
X6604000Y8255000D03*
G01*
X6604000Y8001000D03*
G01*
X6350000Y8255000D03*
G01*
X6350000Y8001000D03*
G01*
X6096000Y8255000D03*
G01*
X6096000Y8001000D03*
G01*
X5842000Y8255000D03*
G01*
X5842000Y8001000D03*
G01*
X5588000Y8255000D03*
G01*
X5588000Y8001000D03*
G01*
X5334000Y8255000D03*
G36*
X5250179Y7917179D02*
G01*
X5250179Y8084820D01*
X5417820Y8084820D01*
X5417820Y7917179D01*
G37*
G36*
X8933179Y8171179D02*
G01*
X8933179Y8338820D01*
X9100820Y8338820D01*
X9100820Y8171179D01*
G37*
G01*
X9017000Y8001000D03*
G01*
X8763000Y8255000D03*
G01*
X8763000Y8001000D03*
G36*
X9942829Y9314179D02*
G01*
X9942829Y9481820D01*
X10123170Y9481820D01*
X10123170Y9314179D01*
G37*
D37*
G01*
X9779000Y9398000D03*
G36*
X10704829Y9314179D02*
G01*
X10704829Y9481820D01*
X10885170Y9481820D01*
X10885170Y9314179D01*
G37*
G01*
X10541000Y9398000D03*
G36*
X740410Y6934962D02*
G01*
X740410Y7035037D01*
X910589Y7035037D01*
X910589Y6934962D01*
G37*
G36*
X2073909Y6934962D02*
G01*
X2073909Y7035037D01*
X2244090Y7035037D01*
X2244090Y6934962D01*
G37*
G36*
X6074409Y6934962D02*
G01*
X6074409Y7035037D01*
X6244590Y7035037D01*
X6244590Y6934962D01*
G37*
G36*
X7407909Y6934962D02*
G01*
X7407909Y7035037D01*
X7578090Y7035037D01*
X7578090Y6934962D01*
G37*
G36*
X740410Y6172962D02*
G01*
X740410Y6273037D01*
X910589Y6273037D01*
X910589Y6172962D01*
G37*
G36*
X1184910Y6172962D02*
G01*
X1184910Y6273037D01*
X1355089Y6273037D01*
X1355089Y6172962D01*
G37*
G36*
X1629410Y6172962D02*
G01*
X1629410Y6273037D01*
X1799589Y6273037D01*
X1799589Y6172962D01*
G37*
G36*
X2073909Y6172962D02*
G01*
X2073909Y6273037D01*
X2244090Y6273037D01*
X2244090Y6172962D01*
G37*
G36*
X2518409Y6172962D02*
G01*
X2518409Y6273037D01*
X2688590Y6273037D01*
X2688590Y6172962D01*
G37*
G36*
X740410Y4839462D02*
G01*
X740410Y4939537D01*
X910589Y4939537D01*
X910589Y4839462D01*
G37*
G36*
X1184910Y4839462D02*
G01*
X1184910Y4939537D01*
X1355089Y4939537D01*
X1355089Y4839462D01*
G37*
G36*
X1629410Y4839462D02*
G01*
X1629410Y4939537D01*
X1799589Y4939537D01*
X1799589Y4839462D01*
G37*
G36*
X2073909Y4839462D02*
G01*
X2073909Y4939537D01*
X2244090Y4939537D01*
X2244090Y4839462D01*
G37*
G36*
X2518409Y4839462D02*
G01*
X2518409Y4939537D01*
X2688590Y4939537D01*
X2688590Y4839462D01*
G37*
G36*
X740410Y3505962D02*
G01*
X740410Y3606037D01*
X910589Y3606037D01*
X910589Y3505962D01*
G37*
G36*
X1184910Y3505962D02*
G01*
X1184910Y3606037D01*
X1355089Y3606037D01*
X1355089Y3505962D01*
G37*
G36*
X1629410Y3505962D02*
G01*
X1629410Y3606037D01*
X1799589Y3606037D01*
X1799589Y3505962D01*
G37*
G36*
X2073909Y3505962D02*
G01*
X2073909Y3606037D01*
X2244090Y3606037D01*
X2244090Y3505962D01*
G37*
G36*
X2518409Y3505962D02*
G01*
X2518409Y3606037D01*
X2688590Y3606037D01*
X2688590Y3505962D01*
G37*
G36*
X740410Y2172462D02*
G01*
X740410Y2272537D01*
X910589Y2272537D01*
X910589Y2172462D01*
G37*
G36*
X1184910Y2172462D02*
G01*
X1184910Y2272537D01*
X1355089Y2272537D01*
X1355089Y2172462D01*
G37*
G36*
X1629410Y2172462D02*
G01*
X1629410Y2272537D01*
X1799589Y2272537D01*
X1799589Y2172462D01*
G37*
G36*
X3153409Y6172962D02*
G01*
X3153409Y6273037D01*
X3323590Y6273037D01*
X3323590Y6172962D01*
G37*
G36*
X3597909Y6172962D02*
G01*
X3597909Y6273037D01*
X3768090Y6273037D01*
X3768090Y6172962D01*
G37*
G36*
X4042409Y6172962D02*
G01*
X4042409Y6273037D01*
X4212590Y6273037D01*
X4212590Y6172962D01*
G37*
G36*
X4486909Y6172962D02*
G01*
X4486909Y6273037D01*
X4657090Y6273037D01*
X4657090Y6172962D01*
G37*
G36*
X4931409Y6172962D02*
G01*
X4931409Y6273037D01*
X5101590Y6273037D01*
X5101590Y6172962D01*
G37*
G36*
X3153409Y4839462D02*
G01*
X3153409Y4939537D01*
X3323590Y4939537D01*
X3323590Y4839462D01*
G37*
G36*
X3597909Y4839462D02*
G01*
X3597909Y4939537D01*
X3768090Y4939537D01*
X3768090Y4839462D01*
G37*
G36*
X4042409Y4839462D02*
G01*
X4042409Y4939537D01*
X4212590Y4939537D01*
X4212590Y4839462D01*
G37*
G36*
X4486909Y4839462D02*
G01*
X4486909Y4939537D01*
X4657090Y4939537D01*
X4657090Y4839462D01*
G37*
G36*
X4931409Y4839462D02*
G01*
X4931409Y4939537D01*
X5101590Y4939537D01*
X5101590Y4839462D01*
G37*
G36*
X3153409Y3505962D02*
G01*
X3153409Y3606037D01*
X3323590Y3606037D01*
X3323590Y3505962D01*
G37*
G36*
X3597909Y3505962D02*
G01*
X3597909Y3606037D01*
X3768090Y3606037D01*
X3768090Y3505962D01*
G37*
G36*
X4042409Y3505962D02*
G01*
X4042409Y3606037D01*
X4212590Y3606037D01*
X4212590Y3505962D01*
G37*
G36*
X4486909Y3505962D02*
G01*
X4486909Y3606037D01*
X4657090Y3606037D01*
X4657090Y3505962D01*
G37*
G36*
X4931409Y3505962D02*
G01*
X4931409Y3606037D01*
X5101590Y3606037D01*
X5101590Y3505962D01*
G37*
G36*
X5439409Y6172962D02*
G01*
X5439409Y6273037D01*
X5609590Y6273037D01*
X5609590Y6172962D01*
G37*
G36*
X5883909Y6172962D02*
G01*
X5883909Y6273037D01*
X6054090Y6273037D01*
X6054090Y6172962D01*
G37*
G36*
X6328409Y6172962D02*
G01*
X6328409Y6273037D01*
X6498590Y6273037D01*
X6498590Y6172962D01*
G37*
G36*
X6772909Y6172962D02*
G01*
X6772909Y6273037D01*
X6943090Y6273037D01*
X6943090Y6172962D01*
G37*
G36*
X7217409Y6172962D02*
G01*
X7217409Y6273037D01*
X7387590Y6273037D01*
X7387590Y6172962D01*
G37*
G36*
X5439409Y4839462D02*
G01*
X5439409Y4939537D01*
X5609590Y4939537D01*
X5609590Y4839462D01*
G37*
G36*
X5883909Y4839462D02*
G01*
X5883909Y4939537D01*
X6054090Y4939537D01*
X6054090Y4839462D01*
G37*
G36*
X6328409Y4839462D02*
G01*
X6328409Y4939537D01*
X6498590Y4939537D01*
X6498590Y4839462D01*
G37*
G36*
X6772909Y4839462D02*
G01*
X6772909Y4939537D01*
X6943090Y4939537D01*
X6943090Y4839462D01*
G37*
G36*
X7217409Y4839462D02*
G01*
X7217409Y4939537D01*
X7387590Y4939537D01*
X7387590Y4839462D01*
G37*
G36*
X5439409Y3505962D02*
G01*
X5439409Y3606037D01*
X5609590Y3606037D01*
X5609590Y3505962D01*
G37*
G36*
X5883909Y3505962D02*
G01*
X5883909Y3606037D01*
X6054090Y3606037D01*
X6054090Y3505962D01*
G37*
G36*
X6328409Y3505962D02*
G01*
X6328409Y3606037D01*
X6498590Y3606037D01*
X6498590Y3505962D01*
G37*
G36*
X6772909Y3505962D02*
G01*
X6772909Y3606037D01*
X6943090Y3606037D01*
X6943090Y3505962D01*
G37*
G36*
X7217409Y3505962D02*
G01*
X7217409Y3606037D01*
X7387590Y3606037D01*
X7387590Y3505962D01*
G37*
G36*
X7725409Y6172962D02*
G01*
X7725409Y6273037D01*
X7895590Y6273037D01*
X7895590Y6172962D01*
G37*
G36*
X8169909Y6172962D02*
G01*
X8169909Y6273037D01*
X8340090Y6273037D01*
X8340090Y6172962D01*
G37*
G36*
X8614409Y6172962D02*
G01*
X8614409Y6273037D01*
X8784590Y6273037D01*
X8784590Y6172962D01*
G37*
G36*
X9058909Y6172962D02*
G01*
X9058909Y6273037D01*
X9229090Y6273037D01*
X9229090Y6172962D01*
G37*
G36*
X7725409Y4839462D02*
G01*
X7725409Y4939537D01*
X7895590Y4939537D01*
X7895590Y4839462D01*
G37*
G36*
X8169909Y4839462D02*
G01*
X8169909Y4939537D01*
X8340090Y4939537D01*
X8340090Y4839462D01*
G37*
G36*
X8614409Y4839462D02*
G01*
X8614409Y4939537D01*
X8784590Y4939537D01*
X8784590Y4839462D01*
G37*
G36*
X9058909Y4839462D02*
G01*
X9058909Y4939537D01*
X9229090Y4939537D01*
X9229090Y4839462D01*
G37*
G36*
X7725409Y3505962D02*
G01*
X7725409Y3606037D01*
X7895590Y3606037D01*
X7895590Y3505962D01*
G37*
G36*
X8169909Y3505962D02*
G01*
X8169909Y3606037D01*
X8340090Y3606037D01*
X8340090Y3505962D01*
G37*
G36*
X8614409Y3505962D02*
G01*
X8614409Y3606037D01*
X8784590Y3606037D01*
X8784590Y3505962D01*
G37*
G36*
X9058909Y3505962D02*
G01*
X9058909Y3606037D01*
X9229090Y3606037D01*
X9229090Y3505962D01*
G37*
G36*
X9630409Y6172962D02*
G01*
X9630409Y6273037D01*
X9800590Y6273037D01*
X9800590Y6172962D01*
G37*
G36*
X10074909Y6172962D02*
G01*
X10074909Y6273037D01*
X10245090Y6273037D01*
X10245090Y6172962D01*
G37*
G36*
X10519409Y6172962D02*
G01*
X10519409Y6273037D01*
X10689590Y6273037D01*
X10689590Y6172962D01*
G37*
G36*
X10963909Y6172962D02*
G01*
X10963909Y6273037D01*
X11134090Y6273037D01*
X11134090Y6172962D01*
G37*
G36*
X9630409Y4839462D02*
G01*
X9630409Y4939537D01*
X9800590Y4939537D01*
X9800590Y4839462D01*
G37*
G36*
X10074909Y4839462D02*
G01*
X10074909Y4939537D01*
X10245090Y4939537D01*
X10245090Y4839462D01*
G37*
G36*
X10519409Y4839462D02*
G01*
X10519409Y4939537D01*
X10689590Y4939537D01*
X10689590Y4839462D01*
G37*
G36*
X9630409Y3505962D02*
G01*
X9630409Y3606037D01*
X9800590Y3606037D01*
X9800590Y3505962D01*
G37*
G36*
X10074909Y3505962D02*
G01*
X10074909Y3606037D01*
X10245090Y3606037D01*
X10245090Y3505962D01*
G37*
G36*
X10519409Y3505962D02*
G01*
X10519409Y3606037D01*
X10689590Y3606037D01*
X10689590Y3505962D01*
G37*
G36*
X3153409Y2172462D02*
G01*
X3153409Y2272537D01*
X3323590Y2272537D01*
X3323590Y2172462D01*
G37*
G36*
X3597909Y2172462D02*
G01*
X3597909Y2272537D01*
X3768090Y2272537D01*
X3768090Y2172462D01*
G37*
G36*
X4042409Y2172462D02*
G01*
X4042409Y2272537D01*
X4212590Y2272537D01*
X4212590Y2172462D01*
G37*
G36*
X4486909Y2172462D02*
G01*
X4486909Y2272537D01*
X4657090Y2272537D01*
X4657090Y2172462D01*
G37*
G36*
X4931409Y2172462D02*
G01*
X4931409Y2272537D01*
X5101590Y2272537D01*
X5101590Y2172462D01*
G37*
G36*
X5375909Y2172462D02*
G01*
X5375909Y2272537D01*
X5546090Y2272537D01*
X5546090Y2172462D01*
G37*
G36*
X5820409Y2172462D02*
G01*
X5820409Y2272537D01*
X5990590Y2272537D01*
X5990590Y2172462D01*
G37*
G36*
X6264909Y2172462D02*
G01*
X6264909Y2272537D01*
X6435090Y2272537D01*
X6435090Y2172462D01*
G37*
G36*
X6709409Y2172462D02*
G01*
X6709409Y2272537D01*
X6879590Y2272537D01*
X6879590Y2172462D01*
G37*
G36*
X7153909Y2172462D02*
G01*
X7153909Y2272537D01*
X7324090Y2272537D01*
X7324090Y2172462D01*
G37*
G36*
X7598409Y2172462D02*
G01*
X7598409Y2272537D01*
X7768590Y2272537D01*
X7768590Y2172462D01*
G37*
G36*
X8042909Y2172462D02*
G01*
X8042909Y2272537D01*
X8213090Y2272537D01*
X8213090Y2172462D01*
G37*
D30*
G01*
X9702800Y7747000D03*
G01*
X9702800Y7366000D03*
G01*
X10083800Y7747000D03*
G01*
X10083800Y7366000D03*
G01*
X10464800Y7747000D03*
G01*
X10464800Y7366000D03*
G01*
X10845800Y7747000D03*
G01*
X10845800Y7366000D03*
G01*
X11226800Y7747000D03*
G01*
X11226800Y7366000D03*
G01*
X9702800Y7048500D03*
G01*
X9702800Y6667500D03*
G01*
X10083800Y7048500D03*
G01*
X10083800Y6667500D03*
G01*
X10464800Y7048500D03*
G01*
X10464800Y6667500D03*
G01*
X10845800Y7048500D03*
G01*
X10845800Y6667500D03*
G01*
X11226800Y7048500D03*
G01*
X11226800Y6667500D03*
G01*
X1257300Y7048500D03*
G01*
X1257300Y6667500D03*
G01*
X1638300Y7048500D03*
G01*
X1638300Y6667500D03*
G01*
X2590800Y7048500D03*
G01*
X2590800Y6667500D03*
G01*
X2971800Y7048500D03*
G01*
X2971800Y6667500D03*
G01*
X3924300Y7048500D03*
G01*
X3924300Y6667500D03*
G01*
X4305300Y7048500D03*
G01*
X4305300Y6667500D03*
G01*
X5257800Y7048500D03*
G01*
X5257800Y6667500D03*
G01*
X5638800Y7048500D03*
G01*
X5638800Y6667500D03*
G01*
X6591300Y7048500D03*
G01*
X6591300Y6667500D03*
G01*
X6972300Y7048500D03*
G01*
X6972300Y6667500D03*
G01*
X7924800Y7048500D03*
G01*
X7924800Y6667500D03*
G01*
X8305800Y7048500D03*
G01*
X8305800Y6667500D03*
G01*
X812800Y5651500D03*
G01*
X812800Y5270500D03*
G01*
X1193800Y5651500D03*
G01*
X1193800Y5270500D03*
G01*
X1574800Y5651500D03*
G01*
X1574800Y5270500D03*
G01*
X1955800Y5651500D03*
G01*
X1955800Y5270500D03*
G01*
X2336800Y5651500D03*
G01*
X2336800Y5270500D03*
G01*
X2717800Y5651500D03*
G01*
X2717800Y5270500D03*
G01*
X812800Y4318000D03*
G01*
X812800Y3937000D03*
G01*
X1193800Y4318000D03*
G01*
X1193800Y3937000D03*
G01*
X1574800Y4318000D03*
G01*
X1574800Y3937000D03*
G01*
X1955800Y4318000D03*
G01*
X1955800Y3937000D03*
G01*
X2336800Y4318000D03*
G01*
X2336800Y3937000D03*
G01*
X2717800Y4318000D03*
G01*
X2717800Y3937000D03*
G01*
X812800Y1651000D03*
G01*
X812800Y1270000D03*
G01*
X1193800Y1651000D03*
G01*
X1193800Y1270000D03*
G01*
X1574800Y1651000D03*
G01*
X1574800Y1270000D03*
G01*
X1955800Y1651000D03*
G01*
X1955800Y1270000D03*
G01*
X3225800Y5651500D03*
G01*
X3225800Y5270500D03*
G01*
X3606800Y5651500D03*
G01*
X3606800Y5270500D03*
G01*
X3987800Y5651500D03*
G01*
X3987800Y5270500D03*
G01*
X4368800Y5651500D03*
G01*
X4368800Y5270500D03*
G01*
X4749800Y5651500D03*
G01*
X4749800Y5270500D03*
G01*
X5130800Y5651500D03*
G01*
X5130800Y5270500D03*
G01*
X3225800Y4318000D03*
G01*
X3225800Y3937000D03*
G01*
X3606800Y4318000D03*
G01*
X3606800Y3937000D03*
G01*
X3987800Y4318000D03*
G01*
X3987800Y3937000D03*
G01*
X4368800Y4318000D03*
G01*
X4368800Y3937000D03*
G01*
X4749800Y4318000D03*
G01*
X4749800Y3937000D03*
G01*
X5130800Y4318000D03*
G01*
X5130800Y3937000D03*
G01*
X3225800Y2984500D03*
G01*
X3225800Y2603500D03*
G01*
X3606800Y2984500D03*
G01*
X3606800Y2603500D03*
G01*
X3987800Y2984500D03*
G01*
X3987800Y2603500D03*
G01*
X4368800Y2984500D03*
G01*
X4368800Y2603500D03*
G01*
X4749800Y2984500D03*
G01*
X4749800Y2603500D03*
G01*
X5130800Y2984500D03*
G01*
X5130800Y2603500D03*
G01*
X5511800Y5651500D03*
G01*
X5511800Y5270500D03*
G01*
X5892800Y5651500D03*
G01*
X5892800Y5270500D03*
G01*
X6273800Y5651500D03*
G01*
X6273800Y5270500D03*
G01*
X6654800Y5651500D03*
G01*
X6654800Y5270500D03*
G01*
X7035800Y5651500D03*
G01*
X7035800Y5270500D03*
G01*
X7416800Y5651500D03*
G01*
X7416800Y5270500D03*
G01*
X5511800Y4318000D03*
G01*
X5511800Y3937000D03*
G01*
X5892800Y4318000D03*
G01*
X5892800Y3937000D03*
G01*
X6273800Y4318000D03*
G01*
X6273800Y3937000D03*
G01*
X6654800Y4318000D03*
G01*
X6654800Y3937000D03*
G01*
X7035800Y4318000D03*
G01*
X7035800Y3937000D03*
G01*
X7416800Y4318000D03*
G01*
X7416800Y3937000D03*
G01*
X5511800Y2984500D03*
G01*
X5511800Y2603500D03*
G01*
X5892800Y2984500D03*
G01*
X5892800Y2603500D03*
G01*
X6273800Y2984500D03*
G01*
X6273800Y2603500D03*
G01*
X6654800Y2984500D03*
G01*
X6654800Y2603500D03*
G01*
X7035800Y2984500D03*
G01*
X7035800Y2603500D03*
G01*
X7416800Y2984500D03*
G01*
X7416800Y2603500D03*
G01*
X7797800Y5651500D03*
G01*
X7797800Y5270500D03*
G01*
X8178800Y5651500D03*
G01*
X8178800Y5270500D03*
G01*
X8559800Y5651500D03*
G01*
X8559800Y5270500D03*
G01*
X8940800Y5651500D03*
G01*
X8940800Y5270500D03*
G01*
X9321800Y5651500D03*
G01*
X9321800Y5270500D03*
G01*
X7797800Y4318000D03*
G01*
X7797800Y3937000D03*
G01*
X8178800Y4318000D03*
G01*
X8178800Y3937000D03*
G01*
X8559800Y4318000D03*
G01*
X8559800Y3937000D03*
G01*
X8940800Y4318000D03*
G01*
X8940800Y3937000D03*
G01*
X9321800Y4318000D03*
G01*
X9321800Y3937000D03*
G01*
X7797800Y2984500D03*
G01*
X7797800Y2603500D03*
G01*
X8178800Y2984500D03*
G01*
X8178800Y2603500D03*
G01*
X8559800Y2984500D03*
G01*
X8559800Y2603500D03*
G01*
X8940800Y2984500D03*
G01*
X8940800Y2603500D03*
G01*
X9321800Y2984500D03*
G01*
X9321800Y2603500D03*
G01*
X9702800Y5651500D03*
G01*
X9702800Y5270500D03*
G01*
X10083800Y5651500D03*
G01*
X10083800Y5270500D03*
G01*
X10464800Y5651500D03*
G01*
X10464800Y5270500D03*
G01*
X10845800Y5651500D03*
G01*
X10845800Y5270500D03*
G01*
X11226800Y5651500D03*
G01*
X11226800Y5270500D03*
G01*
X9702800Y4318000D03*
G01*
X9702800Y3937000D03*
G01*
X10083800Y4318000D03*
G01*
X10083800Y3937000D03*
G01*
X10464800Y4318000D03*
G01*
X10464800Y3937000D03*
G01*
X10845800Y4318000D03*
G01*
X10845800Y3937000D03*
G01*
X9702800Y2984500D03*
G01*
X9702800Y2603500D03*
G01*
X10083800Y2984500D03*
G01*
X10083800Y2603500D03*
G01*
X10464800Y2984500D03*
G01*
X10464800Y2603500D03*
G01*
X10845800Y2984500D03*
G01*
X10845800Y2603500D03*
G01*
X3225800Y1651000D03*
G01*
X3225800Y1270000D03*
G01*
X3606800Y1651000D03*
G01*
X3606800Y1270000D03*
G01*
X3987800Y1651000D03*
G01*
X3987800Y1270000D03*
G01*
X4368800Y1651000D03*
G01*
X4368800Y1270000D03*
G01*
X4749800Y1651000D03*
G01*
X4749800Y1270000D03*
G01*
X5130800Y1651000D03*
G01*
X5130800Y1270000D03*
G01*
X5511800Y1651000D03*
G01*
X5511800Y1270000D03*
G01*
X5892800Y1651000D03*
G01*
X5892800Y1270000D03*
G01*
X6273800Y1651000D03*
G01*
X6273800Y1270000D03*
G01*
X6654800Y1651000D03*
G01*
X6654800Y1270000D03*
G01*
X7035800Y1651000D03*
G01*
X7035800Y1270000D03*
G01*
X7416800Y1651000D03*
G01*
X7416800Y1270000D03*
G01*
X7797800Y1651000D03*
G01*
X7797800Y1270000D03*
M02*
