M48
METRIC,LZ,000.000
;FILE_FORMAT=3:3
;TYPE=PLATED
;Layer: Drill PTH
;EasyEDA v6.4.25, 2021-12-29T20:27:07+01:00
;b4d8322a500545a480e84fc98a697e21,bb3cfcbffc6840158e79d7648404357e,10
;Gerber Generator version 0.2
;Holesize 1 = 0.306 mm
T01C0.306
;Holesize 2 = 0.701 mm
T02C0.701
;Holesize 3 = 0.889 mm
T03C0.889
;Holesize 4 = 0.915 mm
T04C0.915
;Holesize 5 = 0.966 mm
T05C0.966
;Holesize 6 = 1.000 mm
T06C1.000
;Holesize 7 = 1.100 mm
T07C1.100
;Holesize 8 = 1.101 mm
T08C1.101
%
G05
G90
T01
X082258Y045187
X079455Y045198
X094082Y047665
X094519Y051232
X096017Y053812
X069850Y079109
X030406Y075733
X094698Y075547
X095923Y071929
X055810Y045430
X081041Y055182
X064384Y075733
X068438Y064559
X084994Y063456
X019587Y078221
X026040Y073666
X095479Y035615
X044962Y071359
X045798Y036599
X016963Y081256
X026401Y081256
X090560Y054502
X095989Y015436
X103818Y069227
X099672Y072169
X096543Y008434
X108433Y065048
X102401Y063829
X115516Y009021
X041099Y050498
X078930Y010224
X094303Y073660
X088264Y041510
X056820Y049902
X039928Y048452
X098955Y064679
X037515Y030702
X089099Y065210
X098678Y041853
X026292Y027815
X016799Y038089
X029880Y051183
X065267Y024205
X064285Y052083
X062063Y017905
X075744Y033377
X051308Y023393
X087939Y053125
X091840Y051327
X082226Y028106
X075432Y037495
X080474Y036764
X080474Y033020
T02
X034925Y069850
X034925Y068580
X034925Y067310
X048260Y069850
X048260Y068580
X048260Y067310
X008255Y069850
X008255Y068580
X008255Y067310
X021590Y069850
X021590Y068580
X021590Y067310
X061595Y069850
X061595Y068580
X061595Y067310
X074930Y069850
X074930Y068580
X074930Y067310
X008255Y062230
X008255Y060960
X008255Y059690
X012700Y062230
X012700Y060960
X012700Y059690
X017145Y062230
X017145Y060960
X017145Y059690
X021590Y062230
X021590Y060960
X021590Y059690
X026035Y062230
X026035Y060960
X026035Y059690
X008255Y048895
X008255Y047625
X008255Y046355
X012700Y048895
X012700Y047625
X012700Y046355
X017145Y048895
X017145Y047625
X017145Y046355
X021590Y048895
X021590Y047625
X021590Y046355
X026035Y048895
X026035Y047625
X026035Y046355
X008255Y035560
X008255Y034290
X008255Y033020
X012700Y035560
X012700Y034290
X012700Y033020
X017145Y035560
X017145Y034290
X017145Y033020
X021590Y035560
X021590Y034290
X021590Y033020
X026035Y035560
X026035Y034290
X026035Y033020
X008255Y022225
X008255Y020955
X008255Y019685
X012700Y022225
X012700Y020955
X012700Y019685
X017145Y022225
X017145Y020955
X017145Y019685
X032385Y062230
X032385Y060960
X032385Y059690
X036830Y062230
X036830Y060960
X036830Y059690
X041275Y062230
X041275Y060960
X041275Y059690
X045720Y062230
X045720Y060960
X045720Y059690
X050165Y062230
X050165Y060960
X050165Y059690
X032385Y048895
X032385Y047625
X032385Y046355
X036830Y048895
X036830Y047625
X036830Y046355
X041275Y048895
X041275Y047625
X041275Y046355
X045720Y048895
X045720Y047625
X045720Y046355
X050165Y048895
X050165Y047625
X050165Y046355
X032385Y035560
X032385Y034290
X032385Y033020
X036830Y035560
X036830Y034290
X036830Y033020
X041275Y035560
X041275Y034290
X041275Y033020
X045720Y035560
X045720Y034290
X045720Y033020
X050165Y035560
X050165Y034290
X050165Y033020
X055245Y062230
X055245Y060960
X055245Y059690
X059690Y062230
X059690Y060960
X059690Y059690
X064135Y062230
X064135Y060960
X064135Y059690
X068580Y062230
X068580Y060960
X068580Y059690
X073025Y062230
X073025Y060960
X073025Y059690
X055245Y048895
X055245Y047625
X055245Y046355
X059690Y048895
X059690Y047625
X059690Y046355
X064135Y048895
X064135Y047625
X064135Y046355
X068580Y048895
X068580Y047625
X068580Y046355
X073025Y048895
X073025Y047625
X073025Y046355
X055245Y035560
X055245Y034290
X055245Y033020
X059690Y035560
X059690Y034290
X059690Y033020
X064135Y035560
X064135Y034290
X064135Y033020
X068580Y035560
X068580Y034290
X068580Y033020
X073025Y035560
X073025Y034290
X073025Y033020
X078105Y062230
X078105Y060960
X078105Y059690
X082550Y062230
X082550Y060960
X082550Y059690
X086995Y062230
X086995Y060960
X086995Y059690
X091440Y062230
X091440Y060960
X091440Y059690
X078105Y048895
X078105Y047625
X078105Y046355
X082550Y048895
X082550Y047625
X082550Y046355
X086995Y048895
X086995Y047625
X086995Y046355
X091440Y048895
X091440Y047625
X091440Y046355
X078105Y035560
X078105Y034290
X078105Y033020
X082550Y035560
X082550Y034290
X082550Y033020
X086995Y035560
X086995Y034290
X086995Y033020
X091440Y035560
X091440Y034290
X091440Y033020
X097155Y062230
X097155Y060960
X097155Y059690
X101600Y062230
X101600Y060960
X101600Y059690
X106045Y062230
X106045Y060960
X106045Y059690
X110490Y062230
X110490Y060960
X110490Y059690
X097155Y048895
X097155Y047625
X097155Y046355
X101600Y048895
X101600Y047625
X101600Y046355
X106045Y048895
X106045Y047625
X106045Y046355
X097155Y035560
X097155Y034290
X097155Y033020
X101600Y035560
X101600Y034290
X101600Y033020
X106045Y035560
X106045Y034290
X106045Y033020
X032385Y022225
X032385Y020955
X032385Y019685
X036830Y022225
X036830Y020955
X036830Y019685
X041275Y022225
X041275Y020955
X041275Y019685
X045720Y022225
X045720Y020955
X045720Y019685
X050165Y022225
X050165Y020955
X050165Y019685
X054610Y022225
X054610Y020955
X054610Y019685
X059055Y022225
X059055Y020955
X059055Y019685
X063500Y022225
X063500Y020955
X063500Y019685
X067945Y022225
X067945Y020955
X067945Y019685
X072390Y022225
X072390Y020955
X072390Y019685
X076835Y022225
X076835Y020955
X076835Y019685
X081280Y022225
X081280Y020955
X081280Y019685
T03
X031115Y080010
X031115Y082550
X033655Y080010
X033655Y082550
X036195Y080010
X036195Y082550
X038735Y080010
X038735Y082550
X041275Y080010
X041275Y082550
X043815Y080010
X043815Y082550
X046355Y080010
X046355Y082550
X048895Y080010
X048895Y082550
X010795Y080010
X010795Y082550
X013335Y080010
X013335Y082550
X015875Y080010
X015875Y082550
X018415Y080010
X018415Y082550
X020955Y080010
X020955Y082550
X023495Y080010
X023495Y082550
X026035Y080010
X026035Y082550
X028575Y080010
X028575Y082550
X071120Y082550
X071120Y080010
X068580Y082550
X068580Y080010
X066040Y082550
X066040Y080010
X063500Y082550
X063500Y080010
X060960Y082550
X060960Y080010
X058420Y082550
X058420Y080010
X055880Y082550
X055880Y080010
X053340Y082550
X053340Y080010
X090170Y082550
X090170Y080010
X087630Y082550
X087630Y080010
T04
X008128Y029845
X008128Y026035
X011938Y029845
X011938Y026035
X015748Y029845
X015748Y026035
X019558Y029845
X019558Y026035
X023368Y029845
X023368Y026035
X027178Y029845
X027178Y026035
X097028Y077470
X097028Y073660
X100838Y077470
X100838Y073660
X104648Y077470
X104648Y073660
X108458Y077470
X108458Y073660
X112268Y077470
X112268Y073660
X097028Y070485
X097028Y066675
X100838Y070485
X100838Y066675
X104648Y070485
X104648Y066675
X108458Y070485
X108458Y066675
X112268Y070485
X112268Y066675
X012573Y070485
X012573Y066675
X016383Y070485
X016383Y066675
X025908Y070485
X025908Y066675
X029718Y070485
X029718Y066675
X039243Y070485
X039243Y066675
X043053Y070485
X043053Y066675
X052578Y070485
X052578Y066675
X056388Y070485
X056388Y066675
X065913Y070485
X065913Y066675
X069723Y070485
X069723Y066675
X079248Y070485
X079248Y066675
X083058Y070485
X083058Y066675
X008128Y056515
X008128Y052705
X011938Y056515
X011938Y052705
X015748Y056515
X015748Y052705
X019558Y056515
X019558Y052705
X023368Y056515
X023368Y052705
X027178Y056515
X027178Y052705
X008128Y043180
X008128Y039370
X011938Y043180
X011938Y039370
X015748Y043180
X015748Y039370
X019558Y043180
X019558Y039370
X023368Y043180
X023368Y039370
X027178Y043180
X027178Y039370
X008128Y016510
X008128Y012700
X011938Y016510
X011938Y012700
X015748Y016510
X015748Y012700
X019558Y016510
X019558Y012700
X032258Y056515
X032258Y052705
X036068Y056515
X036068Y052705
X039878Y056515
X039878Y052705
X043688Y056515
X043688Y052705
X047498Y056515
X047498Y052705
X051308Y056515
X051308Y052705
X032258Y043180
X032258Y039370
X036068Y043180
X036068Y039370
X039878Y043180
X039878Y039370
X043688Y043180
X043688Y039370
X047498Y043180
X047498Y039370
X051308Y043180
X051308Y039370
X032258Y029845
X032258Y026035
X036068Y029845
X036068Y026035
X039878Y029845
X039878Y026035
X043688Y029845
X043688Y026035
X047498Y029845
X047498Y026035
X051308Y029845
X051308Y026035
X055118Y056515
X055118Y052705
X058928Y056515
X058928Y052705
X062738Y056515
X062738Y052705
X066548Y056515
X066548Y052705
X070358Y056515
X070358Y052705
X074168Y056515
X074168Y052705
X055118Y043180
X055118Y039370
X058928Y043180
X058928Y039370
X062738Y043180
X062738Y039370
X066548Y043180
X066548Y039370
X070358Y043180
X070358Y039370
X074168Y043180
X074168Y039370
X055118Y029845
X055118Y026035
X058928Y029845
X058928Y026035
X062738Y029845
X062738Y026035
X066548Y029845
X066548Y026035
X070358Y029845
X070358Y026035
X074168Y029845
X074168Y026035
X077978Y056515
X077978Y052705
X081788Y056515
X081788Y052705
X085598Y056515
X085598Y052705
X089408Y056515
X089408Y052705
X093218Y056515
X093218Y052705
X077978Y043180
X077978Y039370
X081788Y043180
X081788Y039370
X085598Y043180
X085598Y039370
X089408Y043180
X089408Y039370
X093218Y043180
X093218Y039370
X077978Y029845
X077978Y026035
X081788Y029845
X081788Y026035
X085598Y029845
X085598Y026035
X089408Y029845
X089408Y026035
X093218Y029845
X093218Y026035
X097028Y056515
X097028Y052705
X100838Y056515
X100838Y052705
X104648Y056515
X104648Y052705
X108458Y056515
X108458Y052705
X112268Y056515
X112268Y052705
X097028Y043180
X097028Y039370
X100838Y043180
X100838Y039370
X104648Y043180
X104648Y039370
X108458Y043180
X108458Y039370
X097028Y029845
X097028Y026035
X100838Y029845
X100838Y026035
X104648Y029845
X104648Y026035
X108458Y029845
X108458Y026035
X032258Y016510
X032258Y012700
X036068Y016510
X036068Y012700
X039878Y016510
X039878Y012700
X043688Y016510
X043688Y012700
X047498Y016510
X047498Y012700
X051308Y016510
X051308Y012700
X055118Y016510
X055118Y012700
X058928Y016510
X058928Y012700
X062738Y016510
X062738Y012700
X066548Y016510
X066548Y012700
X070358Y016510
X070358Y012700
X074168Y016510
X074168Y012700
X077978Y016510
X077978Y012700
T05
X066675Y005080
X069215Y005080
X020955Y005080
X023495Y005080
X097155Y005080
X099695Y005080
X051435Y005080
X053975Y005080
X043815Y005080
X046355Y005080
X036195Y005080
X038735Y005080
X081915Y005080
X084455Y005080
X013335Y005080
X015875Y005080
X074295Y005080
X076835Y005080
X104775Y005080
X107315Y005080
T06
X079375Y076930
X079375Y085630
X083185Y076930
X083185Y085630
X006985Y076930
X006985Y085630
X048800Y076835
X040100Y076835
X028480Y076835
X019780Y076835
X075565Y076930
X075565Y085630
X071025Y076835
X062325Y076835
T07
X043815Y093980
X043815Y091440
X041275Y093980
X041275Y091440
X038735Y093980
X038735Y091440
X036195Y093980
X036195Y091440
X033655Y093980
X033655Y091440
X031115Y093980
X031115Y091440
X028575Y093980
X028575Y091440
X026035Y093980
X026035Y091440
X023495Y093980
X023495Y091440
X020955Y093980
X020955Y091440
X018415Y093980
X018415Y091440
X015875Y093980
X015875Y091440
X066040Y093980
X066040Y091440
X063500Y093980
X063500Y091440
X060960Y093980
X060960Y091440
X058420Y093980
X058420Y091440
T08
X100330Y093980
X097790Y093980
X107950Y093980
X105410Y093980
M30
